G04 DipTrace 3.1.0.0*
G04 BottomMask.gbr*
%MOMM*%
G04 #@! TF.FileFunction,Soldermask,Bot*
G04 #@! TF.Part,Single*
%ADD38C,2.75*%
%ADD43R,0.8X1.3*%
%ADD53R,4.26X1.72*%
%ADD55R,1.2X1.3*%
%ADD57C,1.7*%
%ADD59C,1.7*%
%ADD61R,1.7X1.7*%
%ADD63R,2.0X1.8*%
%ADD65R,1.7X1.5*%
%FSLAX35Y35*%
G04*
G71*
G90*
G75*
G01*
G04 BotMask*
%LPD*%
D65*
X2891000Y3142667D3*
Y2952667D3*
X3288667Y3139000D3*
Y2949000D3*
X3952333Y2566333D3*
Y2376333D3*
X4312000Y2560333D3*
Y2370333D3*
X2811667Y1679333D3*
Y1869333D3*
X3287333Y2657333D3*
Y2467333D3*
D63*
X2560000Y3150000D3*
Y2870000D3*
D38*
X1349667Y1349000D3*
Y3649333D3*
X7150000D3*
X7149667Y1348667D3*
D61*
X1843667Y3517000D3*
D59*
Y3771000D3*
X2097667Y3517000D3*
Y3771000D3*
X2351667Y3517000D3*
Y3771000D3*
X2605667Y3517000D3*
Y3771000D3*
X2859667Y3517000D3*
Y3771000D3*
X3113667Y3517000D3*
Y3771000D3*
X3367667Y3517000D3*
Y3771000D3*
X3621667Y3517000D3*
Y3771000D3*
X3875667Y3517000D3*
Y3771000D3*
X4129667Y3517000D3*
Y3771000D3*
X4383667Y3517000D3*
Y3771000D3*
X4637667Y3517000D3*
Y3771000D3*
X4891667Y3517000D3*
Y3771000D3*
X5145667Y3517000D3*
Y3771000D3*
X5399667Y3517000D3*
Y3771000D3*
X5653667Y3517000D3*
Y3771000D3*
X5907667Y3517000D3*
Y3771000D3*
X6161667Y3517000D3*
Y3771000D3*
X6415667Y3517000D3*
Y3771000D3*
X6669667Y3517000D3*
Y3771000D3*
D61*
X6160000Y1160000D3*
D59*
X5906000D3*
X5652000D3*
X5398000D3*
X5144000D3*
X4890000D3*
D61*
X5530000Y2380000D3*
D59*
Y2126000D3*
D61*
Y2830000D3*
D59*
Y3084000D3*
D57*
X5852000Y3002000D3*
X6106000D3*
X6360000D3*
X6614000D3*
X6868000D3*
X7122000D3*
X7376000D3*
X5852000Y2748000D3*
X6106000D3*
X6360000D3*
X6614000D3*
X6868000D3*
X7122000D3*
X7376000D3*
Y2494000D3*
X7122000D3*
X6868000D3*
X6614000D3*
X6360000D3*
X6106000D3*
X5852000D3*
Y2240000D3*
X6106000D3*
X6360000D3*
X6614000D3*
X6868000D3*
X7122000D3*
X7376000D3*
Y1986000D3*
X7122000D3*
X6868000D3*
X6614000D3*
X6360000D3*
X6106000D3*
X5852000D3*
Y1732000D3*
X6106000D3*
X6360000D3*
X6614000D3*
X6868000D3*
X7122000D3*
X7376000D3*
X5852000Y3256000D3*
X6106000D3*
X6360000D3*
X6614000D3*
X6868000D3*
X7122000D3*
X7376000D3*
D61*
X3386333Y1147000D3*
D59*
X3132333D3*
X2878333D3*
X2624333D3*
X2370333D3*
D65*
X3659000Y3148667D3*
Y2958667D3*
X4364000Y1890000D3*
Y2080000D3*
X4688667Y1890000D3*
Y2080000D3*
D55*
X5530000Y1820000D3*
Y1650000D3*
D53*
X1246333Y2732000D3*
X1241333Y3241000D3*
X1247000Y1747000D3*
X1242000Y2256000D3*
D65*
X3129333Y1683667D3*
Y1873667D3*
D43*
X3949000Y3143000D3*
X4044000D3*
X4139000D3*
Y2873000D3*
X3949000D3*
M02*
