G04 DipTrace 3.1.0.0*
G04 Top.gbr*
%MOMM*%
G04 #@! TF.FileFunction,Copper,L1,Top*
G04 #@! TF.Part,Single*
G04 #@! TA.AperFunction,Conductor*
%ADD10C,0.254*%
%ADD15C,0.508*%
G04 #@! TA.AperFunction,CopperBalancing*
%ADD16C,0.635*%
G04 #@! TA.AperFunction,Conductor*
%ADD17C,0.381*%
%ADD18C,0.1778*%
%ADD19C,0.3048*%
%ADD20C,0.4572*%
G04 #@! TA.AperFunction,ViaPad*
%ADD21C,0.8*%
G04 #@! TA.AperFunction,CopperBalancing*
%ADD22C,0.33*%
%ADD23R,1.5X1.3*%
G04 #@! TA.AperFunction,ComponentPad*
%ADD25R,1.5X1.5*%
%ADD26C,1.5*%
%ADD27C,1.5*%
%ADD29R,4.06X1.52*%
%ADD30R,4.06X0.85*%
%ADD32R,0.8X1.7*%
%ADD33R,1.01X2.274*%
%ADD34R,2.274X1.01*%
%FSLAX35Y35*%
G04*
G71*
G90*
G75*
G01*
G04 Top*
%LPD*%
X3287333Y2786667D2*
D15*
Y2992000D1*
X3204333Y3075000D1*
Y3252333D1*
X3211333Y3259333D1*
X3132333Y1147000D2*
X3086667D1*
X2966333Y1267333D1*
Y1397333D1*
X2957333Y1406333D1*
D16*
X2960000Y2247333D1*
X2830333Y1406333D2*
D17*
Y1195000D1*
X2878333Y1147000D1*
X3846333Y1406333D2*
Y1663667D1*
X3840000Y1670000D1*
X4610000Y3010000D2*
Y3257667D1*
X4608333Y3259333D1*
X5115000Y2725000D2*
D15*
Y2445000D1*
X5530000Y2126000D2*
X5474000D1*
X5330000Y2270000D1*
Y2380000D1*
X5260000Y2450000D1*
X5120000D1*
X5115000Y2445000D1*
X3846333Y1406333D2*
D18*
Y1248670D1*
X4220000D1*
X4608333D1*
Y1406333D1*
X2859667Y3517000D2*
X2976957Y3399710D1*
X3338333D1*
Y3259333D1*
X4220000Y1248670D2*
Y1130000D1*
X1800000Y2310000D2*
X1866670D1*
Y2332833D1*
X2030833D1*
X1810000Y2090000D2*
X1876670D1*
X1887837Y2078833D1*
X2030833D1*
X2200000Y2500000D2*
Y2586833D1*
X2030833D1*
X2200000Y1700000D2*
Y1564550D1*
X2195333Y1559883D1*
Y1406333D1*
X3338333Y3259333D2*
X3373893D1*
Y3399710D1*
X3714440D1*
Y3259333D1*
X3719333D1*
X2200000Y1900000D2*
Y1911833D1*
X2160000Y1951833D1*
X2030833D1*
Y2586833D2*
X1886840D1*
Y2713833D1*
X2030833D1*
X2200000Y3100000D2*
X2195333Y3104667D1*
Y3259333D1*
X4891667Y3517000D2*
D19*
Y3551667D1*
X4990000Y3650000D1*
X5278667D1*
X5399667Y3771000D1*
X5907667D2*
X5881000D1*
X5760000Y3650000D1*
X5520667D1*
X5399667Y3771000D1*
X6669667Y3517000D2*
Y3540333D1*
X6560000Y3650000D1*
X6028667D1*
X5907667Y3771000D1*
X4129667D2*
Y3740333D1*
X4220000Y3650000D1*
X4758667D1*
X4891667Y3517000D1*
X1600000Y2300000D2*
D18*
Y2270000D1*
X1470000Y2140000D1*
D20*
X1260000D1*
X1240000Y2160000D1*
Y2254000D1*
X1243000Y2257000D1*
X1600000Y1900000D2*
D18*
X1510000D1*
X1480000Y1870000D1*
D20*
X1240000D1*
Y1752000D1*
X1242000Y1750000D1*
X4370000Y1640000D2*
D10*
X4364000D1*
Y1416000D1*
X4354333Y1406333D1*
X4481333D2*
Y1641333D1*
X2030833Y2205833D2*
D21*
X1877133D1*
G03X1720000Y2130000I-35070J-128045D01*
G01*
G02X1538713Y2008270I-185418J80279D01*
G01*
X1251713Y2002270D1*
X1243000Y2004000D1*
X2030833Y2459833D2*
X1850167D1*
G02X1750000Y2560000I-5J100162D01*
G01*
Y2780000D1*
G03X1540000Y2990000I-209997J3D01*
G01*
X1243333D1*
X1242627Y2989707D1*
X1242333Y2989000D1*
X2703333Y1406333D2*
D18*
Y1526333D1*
X2831000Y1654000D1*
Y2042333D1*
X3880000Y1130000D2*
X3403333D1*
X3386333Y1147000D1*
X2624333D2*
D10*
Y1221333D1*
X2580333Y1265333D1*
Y1402333D1*
X2576333Y1406333D1*
X2370333Y1147000D2*
Y1171333D1*
X2445667Y1246667D1*
Y1402667D1*
X2449333Y1406333D1*
X6160000Y1160000D2*
D18*
Y1430000D1*
X6080000Y1510000D1*
X5220000D1*
X4750000Y1980000D1*
X3370000D1*
X3090000Y1700000D1*
Y1412000D1*
X3084333Y1406333D1*
X5906000Y1160000D2*
Y1394000D1*
X5850000Y1450000D1*
X5200000D1*
X4710000Y1940000D1*
X3400000D1*
X3210000Y1750000D1*
Y1407667D1*
X3211333Y1406333D1*
X5652000Y1160000D2*
Y1338000D1*
X5600000Y1390000D1*
X5190000D1*
X4690000Y1890000D1*
X3460000D1*
X3340000Y1770000D1*
Y1408000D1*
X3338333Y1406333D1*
X5398000Y1160000D2*
Y1192000D1*
X5270000Y1320000D1*
X5090000D1*
X5080000Y1330000D1*
Y1420000D1*
X4660000Y1840000D1*
X3720000D1*
X3470000Y1590000D1*
Y1411000D1*
X3465333Y1406333D1*
X5144000Y1160000D2*
X5130000D1*
X4970000Y1320000D1*
Y1450000D1*
X4630000Y1790000D1*
X4280000D1*
X4100000Y1610000D1*
Y1406667D1*
X4100333Y1406333D1*
X4890000Y1160000D2*
Y1450000D1*
X4610000Y1730000D1*
X4310000D1*
X4230000Y1650000D1*
Y1409000D1*
X4227333Y1406333D1*
X5530000Y2830000D2*
X5460000D1*
X5280000Y3010000D1*
X4880000D1*
X4720000Y2850000D1*
X3570000D1*
X3470000Y2950000D1*
Y3254667D1*
X3465333Y3259333D1*
X3592333D2*
Y2977667D1*
X3650000Y2920000D1*
X4680000D1*
X4840000Y3080000D1*
X5526000D1*
X5530000Y3084000D1*
X5115000Y2255000D2*
X4890000D1*
X4830000Y2430000D2*
X4840000D1*
Y2820000D1*
X4935000Y2915000D1*
X5115000D1*
X2605667Y3771000D2*
Y3744333D1*
X2700000Y3650000D1*
X3680000D1*
X3750000Y3580000D1*
Y3470000D1*
X3830000Y3390000D1*
Y3275667D1*
X3846333Y3259333D1*
X2859667Y3771000D2*
Y3879667D1*
X2900000Y3920000D1*
X3920000D1*
X4000000Y3840000D1*
Y3430000D1*
X3970000Y3400000D1*
Y3262667D1*
X3973333Y3259333D1*
D21*
X3287333Y2786667D3*
X2960000Y2247333D3*
X3840000Y1670000D3*
X4610000Y3010000D3*
X4370000Y1640000D3*
X4481333Y1641333D3*
X2831000Y2042333D3*
X4890000Y2255000D3*
X4830000Y2430000D3*
X1600000Y2700000D3*
X2400000Y2500000D3*
X1830000Y2900000D3*
X1600000Y3100000D3*
X2000000Y2900000D3*
X2200000D3*
X2400000D3*
X2200000Y2700000D3*
Y2500000D3*
Y2300000D3*
Y2100000D3*
X2400000Y2700000D3*
X2200000Y1900000D3*
X1600000Y2300000D3*
X2200000Y1700000D3*
X1800000D3*
X1600000D3*
X1800000Y3100000D3*
X1600000Y2500000D3*
X2000000Y1500000D3*
X1800000D3*
X1400000Y2500000D3*
X1200000D3*
X2400000Y2300000D3*
Y2100000D3*
Y1900000D3*
Y1700000D3*
X1600000Y1900000D3*
Y3300000D3*
X1800000D3*
X2200000Y3100000D3*
X2600000Y2700000D3*
Y2500000D3*
Y2300000D3*
Y2100000D3*
Y1900000D3*
Y1700000D3*
X2000000Y3100000D3*
Y3300000D3*
X1800000Y2310000D3*
X1810000Y2090000D3*
X1800000Y1900000D3*
X2000000Y1700000D3*
X4480000Y2370333D3*
X1608963Y3864483D2*
D16*
X1751290D1*
X1936137D2*
X2005290D1*
X2190137D2*
X2259290D1*
X2444137D2*
X2513290D1*
X2698137D2*
X2767290D1*
X4222137D2*
X4270153D1*
X4497343D2*
X4524037D1*
X4751343D2*
X4778037D1*
X5005343D2*
X5032037D1*
X5259343D2*
X5307290D1*
X5492137D2*
X5540153D1*
X5767343D2*
X5815290D1*
X6000137D2*
X6048153D1*
X6275343D2*
X6302037D1*
X6529343D2*
X6556037D1*
X6783343D2*
X6890700D1*
X1651253Y3801317D2*
X1713960D1*
X6815093D2*
X6848407D1*
X1676060Y3738150D2*
X1714580D1*
X1687097Y3674983D2*
X1754143D1*
X1933283D2*
X2008143D1*
X2187283D2*
X2262143D1*
X2441283D2*
X2516143D1*
X4219283D2*
X4272317D1*
X4494987D2*
X4526317D1*
X4748987D2*
X4780317D1*
X5002987D2*
X5034317D1*
X5256987D2*
X5310143D1*
X5489283D2*
X5542317D1*
X5764987D2*
X5818143D1*
X5997283D2*
X6050317D1*
X6272987D2*
X6304317D1*
X6526987D2*
X6558317D1*
X6780987D2*
X6812490D1*
X2210103Y3611817D2*
X2239140D1*
X2464103D2*
X2493140D1*
X4242103D2*
X4271140D1*
X4496103D2*
X4525140D1*
X4750103D2*
X4800780D1*
X4982647D2*
X5033200D1*
X5258103D2*
X5287140D1*
X5512103D2*
X5541140D1*
X5766103D2*
X5795140D1*
X6020103D2*
X6049140D1*
X6274103D2*
X6324780D1*
X6506647D2*
X6578780D1*
X6760647D2*
X6813680D1*
X1672463Y3548650D2*
X1694960D1*
X6799097D2*
X6827137D1*
X1644803Y3485483D2*
X1694983D1*
X6799097D2*
X6854857D1*
X1078763Y3422317D2*
X1100880D1*
X1598420D2*
X1694983D1*
X4750227D2*
X4800533D1*
X4982773D2*
X5033077D1*
X5258227D2*
X5287147D1*
X5512227D2*
X5541147D1*
X5766227D2*
X5795147D1*
X6020227D2*
X6049147D1*
X6274227D2*
X6324533D1*
X6506773D2*
X6578533D1*
X6760773D2*
X6901240D1*
X1517433Y3359150D2*
X2086403D1*
X4717237D2*
X5747700D1*
X5956357D2*
X6001700D1*
X6210357D2*
X6255700D1*
X6464357D2*
X6509700D1*
X6718357D2*
X6763700D1*
X1503790Y3295983D2*
X2086403D1*
X4717237D2*
X5709127D1*
X1503790Y3232817D2*
X2086403D1*
X4717237D2*
X5705283D1*
X1503790Y3169650D2*
X2086403D1*
X4717237D2*
X5429827D1*
X5630173D2*
X5732567D1*
X1531077Y3106483D2*
X2086403D1*
X4717237D2*
X4773990D1*
X5661427D2*
X5749063D1*
X5954990D2*
X6003063D1*
X6208990D2*
X6257063D1*
X6462990D2*
X6511063D1*
X6716990D2*
X6765063D1*
X6970990D2*
X7019063D1*
X7224990D2*
X7273063D1*
X1687967Y3043317D2*
X3127330D1*
X3351617D2*
X3402663D1*
X3659567D2*
X4710863D1*
X5656717D2*
X5709500D1*
X1768207Y2980150D2*
X3183267D1*
X3371087D2*
X3402673D1*
X5609587D2*
X5705033D1*
X1811990Y2916983D2*
X3203607D1*
X3371087D2*
X3412487D1*
X5248430D2*
X5280570D1*
X5663413D2*
X5731577D1*
X1531077Y2853817D2*
X1628880D1*
X1836297D2*
X3203607D1*
X3371087D2*
X3473730D1*
X5248430D2*
X5343630D1*
X5663413D2*
X5750550D1*
X5953503D2*
X6004550D1*
X6207503D2*
X6258550D1*
X6461503D2*
X6512550D1*
X6715503D2*
X6766550D1*
X6969503D2*
X7020550D1*
X7223503D2*
X7274550D1*
X1502797Y2790650D2*
X1653560D1*
X2202910D2*
X3188970D1*
X3385723D2*
X3549880D1*
X4740183D2*
X4772740D1*
X4907240D2*
X4981607D1*
X5248430D2*
X5396590D1*
X5663413D2*
X5709870D1*
X1502797Y2727483D2*
X1654430D1*
X2202910D2*
X3210427D1*
X3364267D2*
X4772750D1*
X4907240D2*
X4981607D1*
X5248430D2*
X5396590D1*
X5663413D2*
X5704787D1*
X1502797Y2664317D2*
X1654430D1*
X2202910D2*
X4772750D1*
X4907240D2*
X4981607D1*
X5248430D2*
X5730583D1*
X1078763Y2601150D2*
X1654430D1*
X2202910D2*
X4772750D1*
X4907240D2*
X5752040D1*
X5952013D2*
X6006040D1*
X6206013D2*
X6260040D1*
X6460013D2*
X6514040D1*
X6714013D2*
X6768040D1*
X6968013D2*
X7022040D1*
X7222013D2*
X7276040D1*
X1078763Y2537983D2*
X1655670D1*
X2202910D2*
X4772750D1*
X4907240D2*
X4981607D1*
X5248430D2*
X5710367D1*
X1078763Y2474817D2*
X1674893D1*
X2200183D2*
X4743233D1*
X4916790D2*
X4981607D1*
X5248430D2*
X5396590D1*
X5663413D2*
X5704663D1*
X1078763Y2411650D2*
X1726113D1*
X2202910D2*
X4733437D1*
X4926590D2*
X4981607D1*
X5248430D2*
X5396590D1*
X5663413D2*
X5729590D1*
X1504410Y2348483D2*
X1858697D1*
X2202910D2*
X4780813D1*
X4879087D2*
X4981607D1*
X5248430D2*
X5396590D1*
X5663413D2*
X5753527D1*
X5950403D2*
X6007527D1*
X6204403D2*
X6261527D1*
X6458403D2*
X6515527D1*
X6712403D2*
X6769527D1*
X6966403D2*
X7023527D1*
X7220403D2*
X7277527D1*
X1504410Y2285317D2*
X1756997D1*
X2202910D2*
X2869733D1*
X3050240D2*
X4796687D1*
X5248430D2*
X5396590D1*
X5663413D2*
X5710740D1*
X1504410Y2222150D2*
X1667327D1*
X2200183D2*
X2865147D1*
X3054950D2*
X4797680D1*
X5248430D2*
X5440617D1*
X5619383D2*
X5704540D1*
X1536160Y2158983D2*
X1628260D1*
X2202910D2*
X2869610D1*
X3049867D2*
X4981607D1*
X5248430D2*
X5400930D1*
X5659070D2*
X5728723D1*
X1809137Y2095817D2*
X1858637D1*
X2202910D2*
X2749680D1*
X3049620D2*
X5400187D1*
X5659817D2*
X5755140D1*
X5948790D2*
X6009140D1*
X6202790D2*
X6263140D1*
X6456790D2*
X6517140D1*
X6710790D2*
X6771140D1*
X6964790D2*
X7025140D1*
X7218790D2*
X7279140D1*
X1771803Y2032650D2*
X1858697D1*
X2202910D2*
X2733060D1*
X3049493D2*
X3332963D1*
X4787063D2*
X5437393D1*
X5622610D2*
X5711237D1*
X1704213Y1969483D2*
X1858697D1*
X2202910D2*
X2763693D1*
X3049247D2*
X3266983D1*
X4853043D2*
X5704290D1*
X1536160Y1906317D2*
X1858697D1*
X2202910D2*
X2763693D1*
X3049000D2*
X3203853D1*
X4916170D2*
X5727730D1*
X1536160Y1843150D2*
X2763693D1*
X3048873D2*
X3140603D1*
X4979423D2*
X5756753D1*
X5947177D2*
X6010753D1*
X6201177D2*
X6264753D1*
X6455177D2*
X6518753D1*
X6709177D2*
X6772753D1*
X6963177D2*
X7026753D1*
X7217177D2*
X7280753D1*
X1503417Y1779983D2*
X2763693D1*
X3048627D2*
X3077510D1*
X3442523D2*
X3567490D1*
X5042550D2*
X5711733D1*
X1503417Y1716817D2*
X2763693D1*
X3407303D2*
X3504363D1*
X3689330D2*
X4114310D1*
X5105680D2*
X5704167D1*
X1503417Y1653650D2*
X2738147D1*
X3407303D2*
X3441183D1*
X3626203D2*
X4051183D1*
X5168807D2*
X5726863D1*
X1584033Y1590483D2*
X2675017D1*
X3562950D2*
X4032703D1*
X4564440D2*
X4657037D1*
X5232060D2*
X5830793D1*
X5873260D2*
X6084793D1*
X6127260D2*
X6338793D1*
X6381260D2*
X6592793D1*
X6635260D2*
X6846793D1*
X6889260D2*
X6915683D1*
X1636123Y1527317D2*
X2086403D1*
X6155167D2*
X6863413D1*
X1667500Y1464150D2*
X2086403D1*
X4717237D2*
X4783293D1*
X6216803D2*
X6831910D1*
X1683997Y1400983D2*
X2086403D1*
X4717237D2*
X4822733D1*
X5972850D2*
X6092733D1*
X6227223D2*
X6815417D1*
X1687967Y1337817D2*
X2086403D1*
X4717237D2*
X4822733D1*
X5719223D2*
X5838733D1*
X5973223D2*
X6092733D1*
X6227223D2*
X6811447D1*
X1679657Y1274650D2*
X2086403D1*
X4717237D2*
X4822733D1*
X5459147D2*
X5584733D1*
X5719223D2*
X5838733D1*
X5973223D2*
X6026627D1*
X6293450D2*
X6819633D1*
X1658323Y1211483D2*
X2254453D1*
X3519790D2*
X3781557D1*
X3978430D2*
X4121627D1*
X4318377D2*
X4767417D1*
X6293450D2*
X6840840D1*
X1620620Y1148317D2*
X2236967D1*
X3978430D2*
X4121627D1*
X4318377D2*
X4757123D1*
X6293450D2*
X6878420D1*
X1557617Y1085150D2*
X2252967D1*
X3978430D2*
X4121627D1*
X4318377D2*
X4780937D1*
X6293450D2*
X6941177D1*
X5242070Y2842070D2*
Y2607930D1*
X4987930D1*
Y2854113D1*
X4955653Y2849443D1*
X4900843Y2794633D1*
X4900960Y2488733D1*
X4912033Y2471800D1*
X4917563Y2458450D1*
X4920937Y2444403D1*
X4922070Y2430000D1*
X4920937Y2415597D1*
X4917563Y2401550D1*
X4912033Y2388200D1*
X4904487Y2375883D1*
X4895103Y2364897D1*
X4884117Y2355513D1*
X4871800Y2347967D1*
X4858450Y2342437D1*
X4844403Y2339063D1*
X4830000Y2337930D1*
X4815597Y2339063D1*
X4801550Y2342437D1*
X4788200Y2347967D1*
X4775883Y2355513D1*
X4764897Y2364897D1*
X4755513Y2375883D1*
X4747967Y2388200D1*
X4742437Y2401550D1*
X4739063Y2415597D1*
X4737930Y2430000D1*
X4739063Y2444403D1*
X4742437Y2458450D1*
X4747967Y2471800D1*
X4755513Y2484117D1*
X4764897Y2495103D1*
X4779053Y2506603D1*
X4779083Y2821063D1*
X4755830Y2800683D1*
X4743330Y2793680D1*
X4729537Y2789790D1*
X4720000Y2789040D1*
X3560463Y2789790D1*
X3546670Y2793680D1*
X3534170Y2800683D1*
X3526893Y2806893D1*
X3420683Y2914170D1*
X3413680Y2926670D1*
X3409790Y2940463D1*
X3409040Y2950000D1*
Y3093497D1*
X3295277Y3093563D1*
X3346243Y3042313D1*
X3356360Y3027170D1*
X3362663Y3010087D1*
X3364803Y2992000D1*
X3364770Y2991170D1*
X3364803Y2836350D1*
X3372393Y2821900D1*
X3376860Y2808160D1*
X3379120Y2793890D1*
Y2779443D1*
X3376860Y2765173D1*
X3372393Y2751433D1*
X3365837Y2738560D1*
X3357343Y2726873D1*
X3347127Y2716657D1*
X3335440Y2708163D1*
X3322567Y2701607D1*
X3308827Y2697140D1*
X3294557Y2694880D1*
X3280110D1*
X3265840Y2697140D1*
X3252100Y2701607D1*
X3239227Y2708163D1*
X3227540Y2716657D1*
X3217323Y2726873D1*
X3208830Y2738560D1*
X3202273Y2751433D1*
X3197807Y2765173D1*
X3195547Y2779443D1*
Y2793890D1*
X3197807Y2808160D1*
X3202273Y2821900D1*
X3209883Y2836347D1*
X3209863Y2959927D1*
X3145423Y3024687D1*
X3135307Y3039830D1*
X3129003Y3056913D1*
X3126863Y3075000D1*
X3126897Y3075830D1*
X3126863Y3078350D1*
X2585543Y3078343D1*
X2204543D1*
Y3093597D1*
X2092763Y3093563D1*
Y3374773D1*
X2075407Y3376463D1*
X2053697Y3381673D1*
X2033070Y3390220D1*
X2014030Y3401883D1*
X1997053Y3416387D1*
X1985983Y3429010D1*
X1985957Y3374710D1*
X1701377D1*
Y3659290D1*
X1783107D1*
X1768977Y3668197D1*
X1753813Y3681147D1*
X1740863Y3696310D1*
X1730447Y3713310D1*
X1722817Y3731733D1*
X1718160Y3751123D1*
X1716597Y3771000D1*
X1718160Y3790877D1*
X1722817Y3810267D1*
X1730447Y3828690D1*
X1740863Y3845690D1*
X1753813Y3860853D1*
X1768977Y3873803D1*
X1785977Y3884220D1*
X1804400Y3891850D1*
X1823790Y3896507D1*
X1843667Y3898070D1*
X1863543Y3896507D1*
X1882933Y3891850D1*
X1901357Y3884220D1*
X1918357Y3873803D1*
X1933520Y3860853D1*
X1946470Y3845690D1*
X1956887Y3828690D1*
X1964517Y3810267D1*
X1969173Y3790877D1*
X1970627Y3773767D1*
X1972160Y3790877D1*
X1976817Y3810267D1*
X1984447Y3828690D1*
X1994863Y3845690D1*
X2007813Y3860853D1*
X2022977Y3873803D1*
X2039977Y3884220D1*
X2058400Y3891850D1*
X2077790Y3896507D1*
X2097667Y3898070D1*
X2117543Y3896507D1*
X2136933Y3891850D1*
X2155357Y3884220D1*
X2172357Y3873803D1*
X2187520Y3860853D1*
X2200470Y3845690D1*
X2210887Y3828690D1*
X2218517Y3810267D1*
X2223173Y3790877D1*
X2224627Y3773767D1*
X2226150Y3790817D1*
X2230520Y3809340D1*
X2237603Y3827003D1*
X2247250Y3843413D1*
X2259233Y3858197D1*
X2273293Y3871023D1*
X2289113Y3881607D1*
X2306333Y3889710D1*
X2324573Y3895147D1*
X2343420Y3897803D1*
X2362450Y3897610D1*
X2381240Y3894580D1*
X2399367Y3888777D1*
X2416420Y3880333D1*
X2432023Y3869433D1*
X2445827Y3856330D1*
X2457513Y3841307D1*
X2466827Y3824710D1*
X2473557Y3806910D1*
X2477553Y3788300D1*
X2478663Y3775053D1*
X2480160Y3790877D1*
X2484817Y3810267D1*
X2492447Y3828690D1*
X2502863Y3845690D1*
X2515813Y3860853D1*
X2530977Y3873803D1*
X2547977Y3884220D1*
X2566400Y3891850D1*
X2585790Y3896507D1*
X2605667Y3898070D1*
X2625543Y3896507D1*
X2644933Y3891850D1*
X2663357Y3884220D1*
X2680357Y3873803D1*
X2695520Y3860853D1*
X2708470Y3845690D1*
X2718887Y3828690D1*
X2726517Y3810267D1*
X2731173Y3790877D1*
X2732627Y3773767D1*
X2734160Y3790877D1*
X2738817Y3810267D1*
X2746447Y3828690D1*
X2756863Y3845690D1*
X2769813Y3860853D1*
X2784977Y3873803D1*
X2798817Y3882450D1*
X2800390Y3893897D1*
X2805350Y3907343D1*
X2813313Y3919257D1*
X2821383Y3927597D1*
X1530837Y3927650D1*
X1565337Y3901850D1*
X1584487Y3884153D1*
X1602183Y3865003D1*
X1618327Y3844527D1*
X1632813Y3822847D1*
X1645557Y3800097D1*
X1656470Y3776417D1*
X1665497Y3751953D1*
X1672573Y3726857D1*
X1677660Y3701283D1*
X1680727Y3675387D1*
X1681750Y3649333D1*
X1680727Y3623280D1*
X1677660Y3597383D1*
X1672573Y3571810D1*
X1665497Y3546713D1*
X1656470Y3522250D1*
X1645557Y3498570D1*
X1632813Y3475820D1*
X1618327Y3454140D1*
X1602183Y3433663D1*
X1584487Y3414513D1*
X1565337Y3396817D1*
X1544860Y3380673D1*
X1523180Y3366187D1*
X1497377Y3352037D1*
X1497403Y3154740D1*
X1524750Y3154750D1*
Y3079220D1*
X1545840Y3079100D1*
X1580223Y3076570D1*
X1618587Y3068783D1*
X1655610Y3056053D1*
X1690653Y3038603D1*
X1723120Y3016727D1*
X1752453Y2990800D1*
X1778150Y2961267D1*
X1799773Y2928630D1*
X1816950Y2893450D1*
X1829387Y2856330D1*
X1836877Y2817903D1*
X1839290Y2780000D1*
Y2562420D1*
X1851643Y2549217D1*
X1865063Y2554113D1*
Y2816403D1*
X2196603D1*
Y2484263D1*
X2193800D1*
X2193823Y2435477D1*
X2196603Y2435403D1*
Y2230263D1*
X2193800D1*
X2193823Y2181477D1*
X2196603Y2181403D1*
Y1849263D1*
X1865063D1*
Y2117377D1*
X1842083Y2121087D1*
X1830923Y2119630D1*
X1820513Y2115343D1*
X1811560Y2108520D1*
X1804670Y2099617D1*
X1782103Y2056850D1*
X1760703Y2026767D1*
X1735667Y1999633D1*
X1707400Y1975883D1*
X1676357Y1955903D1*
X1643033Y1940010D1*
X1607967Y1928460D1*
X1571720Y1921440D1*
X1540580Y1919000D1*
X1529793Y1918773D1*
X1529750Y1840250D1*
X1497070Y1839970D1*
Y1646567D1*
X1523180Y1632147D1*
X1544860Y1617660D1*
X1565337Y1601517D1*
X1584487Y1583820D1*
X1602183Y1564670D1*
X1618327Y1544193D1*
X1632813Y1522513D1*
X1645557Y1499763D1*
X1656470Y1476083D1*
X1665497Y1451620D1*
X1672573Y1426523D1*
X1677660Y1400950D1*
X1680727Y1375053D1*
X1681750Y1349000D1*
X1680727Y1322947D1*
X1677660Y1297050D1*
X1672573Y1271477D1*
X1665497Y1246380D1*
X1656470Y1221917D1*
X1645557Y1198237D1*
X1632813Y1175487D1*
X1618327Y1153807D1*
X1602183Y1133330D1*
X1584487Y1114180D1*
X1565337Y1096483D1*
X1532920Y1072360D1*
X2267437Y1072350D1*
X2257113Y1089310D1*
X2249483Y1107733D1*
X2244827Y1127123D1*
X2243263Y1147000D1*
X2244827Y1166877D1*
X2249483Y1186267D1*
X2257113Y1204690D1*
X2267530Y1221690D1*
X2270403Y1225333D1*
X2204543Y1225343D1*
Y1240597D1*
X2092763Y1240563D1*
Y1572103D1*
X2204557D1*
X2204543Y1587323D1*
X2440123D1*
Y1572067D1*
X2662900Y1572103D1*
X2770113Y1679323D1*
X2770040Y1973360D1*
X2756513Y1988217D1*
X2748967Y2000533D1*
X2743437Y2013883D1*
X2740063Y2027930D1*
X2738930Y2042333D1*
X2740063Y2056737D1*
X2743437Y2070783D1*
X2748967Y2084133D1*
X2756513Y2096450D1*
X2765897Y2107437D1*
X2776883Y2116820D1*
X2789200Y2124367D1*
X2802550Y2129897D1*
X2816597Y2133270D1*
X2831000Y2134403D1*
X2845403Y2133270D1*
X2859450Y2129897D1*
X2875830Y2122670D1*
X2876060Y2209400D1*
X2870473Y2225840D1*
X2868213Y2240110D1*
Y2254557D1*
X2870473Y2268827D1*
X2874940Y2282567D1*
X2881497Y2295440D1*
X2889990Y2307127D1*
X2900207Y2317343D1*
X2911893Y2325837D1*
X2924767Y2332393D1*
X2938507Y2336860D1*
X2952777Y2339120D1*
X2967223D1*
X2981493Y2336860D1*
X2995233Y2332393D1*
X3008107Y2325837D1*
X3019793Y2317343D1*
X3030010Y2307127D1*
X3038503Y2295440D1*
X3045060Y2282567D1*
X3049527Y2268827D1*
X3051787Y2254557D1*
Y2240110D1*
X3049527Y2225840D1*
X3043653Y2209047D1*
X3042203Y1737707D1*
X3091797Y1788007D1*
X3334170Y2029317D1*
X3346670Y2036320D1*
X3360463Y2040210D1*
X3370000Y2040960D1*
X4759537Y2040210D1*
X4773330Y2036320D1*
X4785830Y2029317D1*
X4793107Y2023107D1*
X5245317Y1570897D1*
X6084783Y1570773D1*
X6098837Y1567977D1*
X6111850Y1561977D1*
X6123677Y1552487D1*
X6209317Y1465830D1*
X6216320Y1453330D1*
X6220210Y1439537D1*
X6220960Y1430000D1*
Y1287000D1*
X6287070Y1287070D1*
X6287410Y1072350D1*
X6965447D1*
X6933997Y1096150D1*
X6914847Y1113847D1*
X6897150Y1132997D1*
X6881007Y1153473D1*
X6866520Y1175153D1*
X6853777Y1197903D1*
X6842863Y1221583D1*
X6833837Y1246047D1*
X6826760Y1271143D1*
X6821673Y1296717D1*
X6818607Y1322613D1*
X6817583Y1348667D1*
X6818607Y1374720D1*
X6821673Y1400617D1*
X6826760Y1426190D1*
X6833837Y1451287D1*
X6842863Y1475750D1*
X6853777Y1499430D1*
X6866520Y1522180D1*
X6881007Y1543860D1*
X6897150Y1564337D1*
X6914847Y1583487D1*
X6933997Y1601183D1*
X6954473Y1617327D1*
X6976153Y1631813D1*
X7006950Y1648267D1*
X6995017Y1667837D1*
X6983117Y1648363D1*
X6968613Y1631387D1*
X6951637Y1616883D1*
X6932597Y1605220D1*
X6911970Y1596673D1*
X6890260Y1591463D1*
X6868000Y1589710D1*
X6845740Y1591463D1*
X6824030Y1596673D1*
X6803403Y1605220D1*
X6784363Y1616883D1*
X6767387Y1631387D1*
X6752883Y1648363D1*
X6741017Y1667837D1*
X6729117Y1648363D1*
X6714613Y1631387D1*
X6697637Y1616883D1*
X6678597Y1605220D1*
X6657970Y1596673D1*
X6636260Y1591463D1*
X6614000Y1589710D1*
X6591740Y1591463D1*
X6570030Y1596673D1*
X6549403Y1605220D1*
X6530363Y1616883D1*
X6513387Y1631387D1*
X6498883Y1648363D1*
X6487017Y1667837D1*
X6475117Y1648363D1*
X6460613Y1631387D1*
X6443637Y1616883D1*
X6424597Y1605220D1*
X6403970Y1596673D1*
X6382260Y1591463D1*
X6360000Y1589710D1*
X6337740Y1591463D1*
X6316030Y1596673D1*
X6295403Y1605220D1*
X6276363Y1616883D1*
X6259387Y1631387D1*
X6244883Y1648363D1*
X6233017Y1667837D1*
X6221117Y1648363D1*
X6206613Y1631387D1*
X6189637Y1616883D1*
X6170597Y1605220D1*
X6149970Y1596673D1*
X6128260Y1591463D1*
X6106000Y1589710D1*
X6083740Y1591463D1*
X6062030Y1596673D1*
X6041403Y1605220D1*
X6022363Y1616883D1*
X6005387Y1631387D1*
X5990883Y1648363D1*
X5979017Y1667837D1*
X5967117Y1648363D1*
X5952613Y1631387D1*
X5935637Y1616883D1*
X5916597Y1605220D1*
X5895970Y1596673D1*
X5874260Y1591463D1*
X5852000Y1589710D1*
X5829740Y1591463D1*
X5808030Y1596673D1*
X5787403Y1605220D1*
X5768363Y1616883D1*
X5751387Y1631387D1*
X5736883Y1648363D1*
X5725220Y1667403D1*
X5716673Y1688030D1*
X5711463Y1709740D1*
X5709710Y1732000D1*
X5711463Y1754260D1*
X5716673Y1775970D1*
X5725220Y1796597D1*
X5736883Y1815637D1*
X5751387Y1832613D1*
X5768363Y1847117D1*
X5787837Y1858983D1*
X5768363Y1870883D1*
X5751387Y1885387D1*
X5736883Y1902363D1*
X5725220Y1921403D1*
X5716673Y1942030D1*
X5711463Y1963740D1*
X5709710Y1986000D1*
X5711463Y2008260D1*
X5716673Y2029970D1*
X5725220Y2050597D1*
X5736883Y2069637D1*
X5751387Y2086613D1*
X5768363Y2101117D1*
X5787837Y2112983D1*
X5768363Y2124883D1*
X5751387Y2139387D1*
X5736883Y2156363D1*
X5725220Y2175403D1*
X5716673Y2196030D1*
X5711463Y2217740D1*
X5709710Y2240000D1*
X5711463Y2262260D1*
X5716673Y2283970D1*
X5725220Y2304597D1*
X5736883Y2323637D1*
X5751387Y2340613D1*
X5768363Y2355117D1*
X5787837Y2366983D1*
X5768363Y2378883D1*
X5751387Y2393387D1*
X5736883Y2410363D1*
X5725220Y2429403D1*
X5716673Y2450030D1*
X5711463Y2471740D1*
X5709710Y2494000D1*
X5711463Y2516260D1*
X5716673Y2537970D1*
X5725220Y2558597D1*
X5736883Y2577637D1*
X5751387Y2594613D1*
X5768363Y2609117D1*
X5787837Y2620983D1*
X5768363Y2632883D1*
X5751387Y2647387D1*
X5736883Y2664363D1*
X5725220Y2683403D1*
X5716673Y2704030D1*
X5711463Y2725740D1*
X5709710Y2748000D1*
X5711463Y2770260D1*
X5716673Y2791970D1*
X5725220Y2812597D1*
X5736883Y2831637D1*
X5751387Y2848613D1*
X5768363Y2863117D1*
X5787837Y2874983D1*
X5768363Y2886883D1*
X5751387Y2901387D1*
X5736883Y2918363D1*
X5725220Y2937403D1*
X5716673Y2958030D1*
X5711463Y2979740D1*
X5709710Y3002000D1*
X5711463Y3024260D1*
X5716673Y3045970D1*
X5725220Y3066597D1*
X5736883Y3085637D1*
X5751387Y3102613D1*
X5768363Y3117117D1*
X5787837Y3128983D1*
X5768363Y3140883D1*
X5751387Y3155387D1*
X5736883Y3172363D1*
X5725220Y3191403D1*
X5716673Y3212030D1*
X5711463Y3233740D1*
X5709710Y3256000D1*
X5711463Y3278260D1*
X5716673Y3299970D1*
X5725220Y3320597D1*
X5736883Y3339637D1*
X5751387Y3356613D1*
X5768363Y3371117D1*
X5787403Y3382780D1*
X5808030Y3391327D1*
X5831603Y3396760D1*
X5815257Y3408803D1*
X5799470Y3424590D1*
X5786343Y3442653D1*
X5780447Y3452403D1*
X5768783Y3433363D1*
X5754280Y3416387D1*
X5737303Y3401883D1*
X5718263Y3390220D1*
X5697637Y3381673D1*
X5675927Y3376463D1*
X5653667Y3374710D1*
X5631407Y3376463D1*
X5609697Y3381673D1*
X5589070Y3390220D1*
X5570030Y3401883D1*
X5553053Y3416387D1*
X5538550Y3433363D1*
X5526683Y3452837D1*
X5514783Y3433363D1*
X5500280Y3416387D1*
X5483303Y3401883D1*
X5464263Y3390220D1*
X5443637Y3381673D1*
X5421927Y3376463D1*
X5399667Y3374710D1*
X5377407Y3376463D1*
X5355697Y3381673D1*
X5335070Y3390220D1*
X5316030Y3401883D1*
X5299053Y3416387D1*
X5284550Y3433363D1*
X5272683Y3452837D1*
X5260783Y3433363D1*
X5246280Y3416387D1*
X5229303Y3401883D1*
X5210263Y3390220D1*
X5189637Y3381673D1*
X5167927Y3376463D1*
X5145667Y3374710D1*
X5123407Y3376463D1*
X5101697Y3381673D1*
X5081070Y3390220D1*
X5062030Y3401883D1*
X5045053Y3416387D1*
X5030550Y3433363D1*
X5018887Y3452403D1*
X5010597Y3472333D1*
X5003197Y3456110D1*
X4992853Y3440137D1*
X4980237Y3425883D1*
X4965637Y3413677D1*
X4949373Y3403790D1*
X4931817Y3396440D1*
X4913360Y3391797D1*
X4894417Y3389960D1*
X4875413Y3390973D1*
X4856773Y3394817D1*
X4838913Y3401397D1*
X4822240Y3410573D1*
X4807123Y3422137D1*
X4793903Y3435827D1*
X4782877Y3451340D1*
X4774290Y3468323D1*
X4772763Y3472280D1*
X4764447Y3452403D1*
X4752783Y3433363D1*
X4738280Y3416387D1*
X4721303Y3401883D1*
X4710910Y3395060D1*
X4710903Y3093563D1*
X4599110D1*
X4599123Y3078343D1*
X3982543D1*
Y3093597D1*
X3653357Y3093563D1*
X3653293Y3002847D1*
X3675340Y2980870D1*
X4654713Y2980960D1*
X4804170Y3129317D1*
X4816670Y3136320D1*
X4830463Y3140210D1*
X4840000Y3140960D1*
X5416780Y3141690D1*
X5427197Y3158690D1*
X5440147Y3173853D1*
X5455310Y3186803D1*
X5472310Y3197220D1*
X5490733Y3204850D1*
X5510123Y3209507D1*
X5530000Y3211070D1*
X5549877Y3209507D1*
X5569267Y3204850D1*
X5587690Y3197220D1*
X5604690Y3186803D1*
X5619853Y3173853D1*
X5632803Y3158690D1*
X5643220Y3141690D1*
X5650850Y3123267D1*
X5655507Y3103877D1*
X5657070Y3084000D1*
X5655507Y3064123D1*
X5650850Y3044733D1*
X5643220Y3026310D1*
X5632803Y3009310D1*
X5619853Y2994147D1*
X5604690Y2981197D1*
X5587690Y2970780D1*
X5569267Y2963150D1*
X5549877Y2958493D1*
X5533543Y2957070D1*
X5657070D1*
Y2702930D1*
X5402930D1*
Y2800783D1*
X5254740Y2949047D1*
X5242173Y2949040D1*
X5241947Y2797930D1*
X4994280Y2562070D2*
X5242070D1*
Y2137930D1*
X4987930D1*
Y2194113D1*
X4955103Y2189897D1*
X4944117Y2180513D1*
X4931800Y2172967D1*
X4918450Y2167437D1*
X4904403Y2164063D1*
X4890000Y2162930D1*
X4875597Y2164063D1*
X4861550Y2167437D1*
X4848200Y2172967D1*
X4835883Y2180513D1*
X4824897Y2189897D1*
X4815513Y2200883D1*
X4807967Y2213200D1*
X4802437Y2226550D1*
X4799063Y2240597D1*
X4797930Y2255000D1*
X4799063Y2269403D1*
X4802437Y2283450D1*
X4807967Y2296800D1*
X4815513Y2309117D1*
X4824897Y2320103D1*
X4835883Y2329487D1*
X4848200Y2337033D1*
X4861550Y2342563D1*
X4875597Y2345937D1*
X4890000Y2347070D1*
X4904403Y2345937D1*
X4918450Y2342563D1*
X4931800Y2337033D1*
X4944117Y2329487D1*
X4958957Y2315937D1*
X4987853Y2315960D1*
X4987930Y2562070D1*
X4994280D1*
X1170310Y3370090D2*
X1154473Y3380673D1*
X1133997Y3396817D1*
X1114847Y3414513D1*
X1097150Y3433663D1*
X1072347Y3467097D1*
X1072353Y3370040D1*
X1169950Y3370070D1*
X7012833Y3347177D2*
X6976487Y3366187D1*
X6954807Y3380673D1*
X6934330Y3396817D1*
X6915180Y3414513D1*
X6897483Y3433663D1*
X6881340Y3454140D1*
X6866853Y3475820D1*
X6854110Y3498570D1*
X6843197Y3522250D1*
X6834170Y3546713D1*
X6827093Y3571810D1*
X6822007Y3597383D1*
X6818940Y3623280D1*
X6817917Y3649333D1*
X6818940Y3675387D1*
X6822007Y3701283D1*
X6827093Y3726857D1*
X6834170Y3751953D1*
X6843197Y3776417D1*
X6854110Y3800097D1*
X6866853Y3822847D1*
X6881340Y3844527D1*
X6897483Y3865003D1*
X6915180Y3884153D1*
X6934330Y3901850D1*
X6954807Y3917993D1*
X6969287Y3927670D1*
X3998407Y3927647D1*
X4046353Y3879590D1*
X4052097Y3871640D1*
X4067113Y3881607D1*
X4084333Y3889710D1*
X4102573Y3895147D1*
X4121420Y3897803D1*
X4140450Y3897610D1*
X4159240Y3894580D1*
X4177367Y3888777D1*
X4194420Y3880333D1*
X4210023Y3869433D1*
X4223827Y3856330D1*
X4235513Y3841307D1*
X4244827Y3824710D1*
X4248587Y3815667D1*
X4256887Y3835597D1*
X4268550Y3854637D1*
X4283053Y3871613D1*
X4300030Y3886117D1*
X4319070Y3897780D1*
X4339697Y3906327D1*
X4361407Y3911537D1*
X4383667Y3913290D1*
X4405927Y3911537D1*
X4427637Y3906327D1*
X4448263Y3897780D1*
X4467303Y3886117D1*
X4484280Y3871613D1*
X4498783Y3854637D1*
X4510650Y3835163D1*
X4522550Y3854637D1*
X4537053Y3871613D1*
X4554030Y3886117D1*
X4573070Y3897780D1*
X4593697Y3906327D1*
X4615407Y3911537D1*
X4637667Y3913290D1*
X4659927Y3911537D1*
X4681637Y3906327D1*
X4702263Y3897780D1*
X4721303Y3886117D1*
X4738280Y3871613D1*
X4752783Y3854637D1*
X4764650Y3835163D1*
X4776550Y3854637D1*
X4791053Y3871613D1*
X4808030Y3886117D1*
X4827070Y3897780D1*
X4847697Y3906327D1*
X4869407Y3911537D1*
X4891667Y3913290D1*
X4913927Y3911537D1*
X4935637Y3906327D1*
X4956263Y3897780D1*
X4975303Y3886117D1*
X4992280Y3871613D1*
X5006783Y3854637D1*
X5018650Y3835163D1*
X5030550Y3854637D1*
X5045053Y3871613D1*
X5062030Y3886117D1*
X5081070Y3897780D1*
X5101697Y3906327D1*
X5123407Y3911537D1*
X5145667Y3913290D1*
X5167927Y3911537D1*
X5189637Y3906327D1*
X5210263Y3897780D1*
X5229303Y3886117D1*
X5246280Y3871613D1*
X5260783Y3854637D1*
X5272447Y3835597D1*
X5280737Y3815667D1*
X5288543Y3832633D1*
X5298997Y3848537D1*
X5311707Y3862703D1*
X5326390Y3874813D1*
X5342717Y3884593D1*
X5360320Y3891827D1*
X5378807Y3896347D1*
X5397763Y3898057D1*
X5416760Y3896913D1*
X5435377Y3892950D1*
X5453190Y3886247D1*
X5469803Y3876960D1*
X5484840Y3865297D1*
X5497970Y3851520D1*
X5508893Y3835933D1*
X5518587Y3815667D1*
X5526887Y3835597D1*
X5538550Y3854637D1*
X5553053Y3871613D1*
X5570030Y3886117D1*
X5589070Y3897780D1*
X5609697Y3906327D1*
X5631407Y3911537D1*
X5653667Y3913290D1*
X5675927Y3911537D1*
X5697637Y3906327D1*
X5718263Y3897780D1*
X5737303Y3886117D1*
X5754280Y3871613D1*
X5768783Y3854637D1*
X5780447Y3835597D1*
X5788737Y3815667D1*
X5796543Y3832633D1*
X5806997Y3848537D1*
X5819707Y3862703D1*
X5834390Y3874813D1*
X5850717Y3884593D1*
X5868320Y3891827D1*
X5886807Y3896347D1*
X5905763Y3898057D1*
X5924760Y3896913D1*
X5943377Y3892950D1*
X5961190Y3886247D1*
X5977803Y3876960D1*
X5992840Y3865297D1*
X6005970Y3851520D1*
X6016893Y3835933D1*
X6026587Y3815667D1*
X6034887Y3835597D1*
X6046550Y3854637D1*
X6061053Y3871613D1*
X6078030Y3886117D1*
X6097070Y3897780D1*
X6117697Y3906327D1*
X6139407Y3911537D1*
X6161667Y3913290D1*
X6183927Y3911537D1*
X6205637Y3906327D1*
X6226263Y3897780D1*
X6245303Y3886117D1*
X6262280Y3871613D1*
X6276783Y3854637D1*
X6288650Y3835163D1*
X6300550Y3854637D1*
X6315053Y3871613D1*
X6332030Y3886117D1*
X6351070Y3897780D1*
X6371697Y3906327D1*
X6393407Y3911537D1*
X6415667Y3913290D1*
X6437927Y3911537D1*
X6459637Y3906327D1*
X6480263Y3897780D1*
X6499303Y3886117D1*
X6516280Y3871613D1*
X6530783Y3854637D1*
X6542650Y3835163D1*
X6554550Y3854637D1*
X6569053Y3871613D1*
X6586030Y3886117D1*
X6605070Y3897780D1*
X6625697Y3906327D1*
X6647407Y3911537D1*
X6669667Y3913290D1*
X6691927Y3911537D1*
X6713637Y3906327D1*
X6734263Y3897780D1*
X6753303Y3886117D1*
X6770280Y3871613D1*
X6784783Y3854637D1*
X6796447Y3835597D1*
X6804993Y3814970D1*
X6810203Y3793260D1*
X6811957Y3771000D1*
X6810203Y3748740D1*
X6804993Y3727030D1*
X6796447Y3706403D1*
X6784783Y3687363D1*
X6770280Y3670387D1*
X6753303Y3655883D1*
X6734263Y3644220D1*
X6714333Y3635930D1*
X6734420Y3626333D1*
X6750023Y3615433D1*
X6763827Y3602330D1*
X6775513Y3587307D1*
X6784827Y3570710D1*
X6791557Y3552910D1*
X6795553Y3534300D1*
X6796737Y3517000D1*
X6795310Y3498020D1*
X6791067Y3479467D1*
X6784100Y3461757D1*
X6774567Y3445287D1*
X6762677Y3430423D1*
X6748703Y3417503D1*
X6732957Y3406813D1*
X6715790Y3398597D1*
X6697587Y3393037D1*
X6678760Y3390257D1*
X6661190Y3390240D1*
X6678597Y3382780D1*
X6697637Y3371117D1*
X6714613Y3356613D1*
X6729117Y3339637D1*
X6740983Y3320163D1*
X6752883Y3339637D1*
X6767387Y3356613D1*
X6784363Y3371117D1*
X6803403Y3382780D1*
X6824030Y3391327D1*
X6845740Y3396537D1*
X6868000Y3398290D1*
X6890260Y3396537D1*
X6911970Y3391327D1*
X6932597Y3382780D1*
X6951637Y3371117D1*
X6968613Y3356613D1*
X6983117Y3339637D1*
X6994983Y3320163D1*
X7006883Y3339637D1*
X7012693Y3347003D1*
X1904157Y3659290D2*
X1985957D1*
Y3605090D1*
X1997053Y3617613D1*
X2014030Y3632117D1*
X2033070Y3643780D1*
X2053000Y3652070D1*
X2031273Y3662657D1*
X2015140Y3674377D1*
X2001043Y3688473D1*
X1989323Y3704607D1*
X1980270Y3722373D1*
X1974107Y3741337D1*
X1970990Y3761030D1*
X1970707Y3768233D1*
X1969173Y3751123D1*
X1964517Y3731733D1*
X1956887Y3713310D1*
X1946470Y3696310D1*
X1933520Y3681147D1*
X1918357Y3668197D1*
X1904040Y3659283D1*
X2142333Y3652070D2*
X2162263Y3643780D1*
X2181303Y3632117D1*
X2198280Y3617613D1*
X2212783Y3600637D1*
X2224650Y3581163D1*
X2236550Y3600637D1*
X2251053Y3617613D1*
X2268030Y3632117D1*
X2287070Y3643780D1*
X2307000Y3652070D1*
X2287643Y3661237D1*
X2271967Y3672030D1*
X2258080Y3685047D1*
X2246290Y3699987D1*
X2236867Y3716523D1*
X2230017Y3734280D1*
X2225897Y3752860D1*
X2224683Y3767310D1*
X2223173Y3751123D1*
X2218517Y3731733D1*
X2210887Y3713310D1*
X2200470Y3696310D1*
X2187520Y3681147D1*
X2172357Y3668197D1*
X2155357Y3657780D1*
X2142237Y3652107D1*
X2396333Y3652070D2*
X2416263Y3643780D1*
X2435303Y3632117D1*
X2452280Y3617613D1*
X2466783Y3600637D1*
X2478650Y3581163D1*
X2490550Y3600637D1*
X2505053Y3617613D1*
X2522030Y3632117D1*
X2541070Y3643780D1*
X2561000Y3652070D1*
X2539273Y3662657D1*
X2523140Y3674377D1*
X2509043Y3688473D1*
X2497323Y3704607D1*
X2488270Y3722373D1*
X2482107Y3741337D1*
X2478990Y3761030D1*
X2478577Y3764653D1*
X2476207Y3745770D1*
X2471040Y3727450D1*
X2463197Y3710110D1*
X2452853Y3694137D1*
X2440237Y3679883D1*
X2425637Y3667677D1*
X2409373Y3657790D1*
X2396367Y3652083D1*
X4174333Y3652070D2*
X4194263Y3643780D1*
X4213303Y3632117D1*
X4230280Y3617613D1*
X4244783Y3600637D1*
X4256650Y3581163D1*
X4268550Y3600637D1*
X4283053Y3617613D1*
X4300030Y3632117D1*
X4319503Y3643983D1*
X4300030Y3655883D1*
X4283053Y3670387D1*
X4268550Y3687363D1*
X4256887Y3706403D1*
X4248597Y3726333D1*
X4241197Y3710110D1*
X4230853Y3694137D1*
X4218237Y3679883D1*
X4203637Y3667677D1*
X4187373Y3657790D1*
X4174367Y3652083D1*
X4447830Y3643983D2*
X4467303Y3632117D1*
X4484280Y3617613D1*
X4498783Y3600637D1*
X4510650Y3581163D1*
X4522550Y3600637D1*
X4537053Y3617613D1*
X4554030Y3632117D1*
X4573503Y3643983D1*
X4554030Y3655883D1*
X4537053Y3670387D1*
X4522550Y3687363D1*
X4510683Y3706837D1*
X4498783Y3687363D1*
X4484280Y3670387D1*
X4467303Y3655883D1*
X4447830Y3644017D1*
X4701830Y3643983D2*
X4721303Y3632117D1*
X4738280Y3617613D1*
X4752783Y3600637D1*
X4764447Y3581597D1*
X4772737Y3561667D1*
X4780543Y3578633D1*
X4790997Y3594537D1*
X4803707Y3608703D1*
X4818390Y3620813D1*
X4834717Y3630593D1*
X4846920Y3635917D1*
X4827070Y3644220D1*
X4808030Y3655883D1*
X4791053Y3670387D1*
X4776550Y3687363D1*
X4764683Y3706837D1*
X4752783Y3687363D1*
X4738280Y3670387D1*
X4721303Y3655883D1*
X4701830Y3644017D1*
X4936370Y3635903D2*
X4956420Y3626333D1*
X4972023Y3615433D1*
X4985827Y3602330D1*
X4997513Y3587307D1*
X5006827Y3570710D1*
X5010587Y3561667D1*
X5018887Y3581597D1*
X5030550Y3600637D1*
X5045053Y3617613D1*
X5062030Y3632117D1*
X5081503Y3643983D1*
X5062030Y3655883D1*
X5045053Y3670387D1*
X5030550Y3687363D1*
X5018683Y3706837D1*
X5006783Y3687363D1*
X4992280Y3670387D1*
X4975303Y3655883D1*
X4956263Y3644220D1*
X4936333Y3635930D1*
X5209830Y3643983D2*
X5229303Y3632117D1*
X5246280Y3617613D1*
X5260783Y3600637D1*
X5272650Y3581163D1*
X5284550Y3600637D1*
X5299053Y3617613D1*
X5316030Y3632117D1*
X5335070Y3643780D1*
X5355000Y3652070D1*
X5335643Y3661237D1*
X5319967Y3672030D1*
X5306080Y3685047D1*
X5294290Y3699987D1*
X5284867Y3716523D1*
X5280763Y3726280D1*
X5272447Y3706403D1*
X5260783Y3687363D1*
X5246280Y3670387D1*
X5229303Y3655883D1*
X5209830Y3644017D1*
X5444333Y3652070D2*
X5464263Y3643780D1*
X5483303Y3632117D1*
X5500280Y3617613D1*
X5514783Y3600637D1*
X5526650Y3581163D1*
X5538550Y3600637D1*
X5553053Y3617613D1*
X5570030Y3632117D1*
X5589503Y3643983D1*
X5570030Y3655883D1*
X5553053Y3670387D1*
X5538550Y3687363D1*
X5526887Y3706403D1*
X5518597Y3726333D1*
X5511197Y3710110D1*
X5500853Y3694137D1*
X5488237Y3679883D1*
X5473637Y3667677D1*
X5457373Y3657790D1*
X5444367Y3652083D1*
X5717830Y3643983D2*
X5737303Y3632117D1*
X5754280Y3617613D1*
X5768783Y3600637D1*
X5780650Y3581163D1*
X5792550Y3600637D1*
X5807053Y3617613D1*
X5824030Y3632117D1*
X5843070Y3643780D1*
X5863000Y3652070D1*
X5843643Y3661237D1*
X5827967Y3672030D1*
X5814080Y3685047D1*
X5802290Y3699987D1*
X5792867Y3716523D1*
X5788763Y3726280D1*
X5780447Y3706403D1*
X5768783Y3687363D1*
X5754280Y3670387D1*
X5737303Y3655883D1*
X5717830Y3644017D1*
X6034650Y3452837D2*
X6022783Y3433363D1*
X6008280Y3416387D1*
X5991303Y3401883D1*
X5972263Y3390220D1*
X5951637Y3381673D1*
X5928063Y3376240D1*
X5944410Y3364197D1*
X5960197Y3348410D1*
X5973323Y3330347D1*
X5979220Y3320597D1*
X5990883Y3339637D1*
X6005387Y3356613D1*
X6022363Y3371117D1*
X6041403Y3382780D1*
X6062030Y3391327D1*
X6085603Y3396760D1*
X6069257Y3408803D1*
X6053470Y3424590D1*
X6040343Y3442653D1*
X6034683Y3452837D1*
X5952333Y3652070D2*
X5972263Y3643780D1*
X5991303Y3632117D1*
X6008280Y3617613D1*
X6022783Y3600637D1*
X6034650Y3581163D1*
X6046550Y3600637D1*
X6061053Y3617613D1*
X6078030Y3632117D1*
X6097503Y3643983D1*
X6078030Y3655883D1*
X6061053Y3670387D1*
X6046550Y3687363D1*
X6034887Y3706403D1*
X6026597Y3726333D1*
X6019197Y3710110D1*
X6008853Y3694137D1*
X5996237Y3679883D1*
X5981637Y3667677D1*
X5965373Y3657790D1*
X5952367Y3652083D1*
X6296737Y3472333D2*
X6288447Y3452403D1*
X6276783Y3433363D1*
X6262280Y3416387D1*
X6245303Y3401883D1*
X6226263Y3390220D1*
X6205637Y3381673D1*
X6182063Y3376240D1*
X6198410Y3364197D1*
X6214197Y3348410D1*
X6227323Y3330347D1*
X6233220Y3320597D1*
X6244883Y3339637D1*
X6259387Y3356613D1*
X6276363Y3371117D1*
X6295403Y3382780D1*
X6316030Y3391327D1*
X6337740Y3396537D1*
X6360000Y3398290D1*
X6371640Y3397793D1*
X6349273Y3408657D1*
X6333140Y3420377D1*
X6319043Y3434473D1*
X6307323Y3450607D1*
X6298270Y3468373D1*
X6296773Y3472430D1*
X6225830Y3643983D2*
X6245303Y3632117D1*
X6262280Y3617613D1*
X6276783Y3600637D1*
X6288447Y3581597D1*
X6296737Y3561667D1*
X6307323Y3583393D1*
X6319043Y3599527D1*
X6333140Y3613623D1*
X6349273Y3625343D1*
X6367040Y3634397D1*
X6371097Y3635893D1*
X6351070Y3644220D1*
X6332030Y3655883D1*
X6315053Y3670387D1*
X6300550Y3687363D1*
X6288683Y3706837D1*
X6276783Y3687363D1*
X6262280Y3670387D1*
X6245303Y3655883D1*
X6225830Y3644017D1*
X6542627Y3514233D2*
X6541173Y3497123D1*
X6536517Y3477733D1*
X6528887Y3459310D1*
X6518470Y3442310D1*
X6505520Y3427147D1*
X6490357Y3414197D1*
X6473357Y3403780D1*
X6454933Y3396150D1*
X6435543Y3391493D1*
X6415667Y3389930D1*
X6407137Y3390267D1*
X6424597Y3382780D1*
X6443637Y3371117D1*
X6460613Y3356613D1*
X6475117Y3339637D1*
X6486983Y3320163D1*
X6498883Y3339637D1*
X6513387Y3356613D1*
X6530363Y3371117D1*
X6549403Y3382780D1*
X6570030Y3391327D1*
X6591740Y3396537D1*
X6614000Y3398290D1*
X6625640Y3397793D1*
X6605643Y3407237D1*
X6589967Y3418030D1*
X6576080Y3431047D1*
X6564290Y3445987D1*
X6554867Y3462523D1*
X6548017Y3480280D1*
X6543897Y3498860D1*
X6542343Y3526970D1*
X6542627Y3519767D1*
X6544150Y3536817D1*
X6548520Y3555340D1*
X6555603Y3573003D1*
X6565250Y3589413D1*
X6577233Y3604197D1*
X6591293Y3617023D1*
X6607113Y3627607D1*
X6624920Y3635917D1*
X6605070Y3644220D1*
X6586030Y3655883D1*
X6569053Y3670387D1*
X6554550Y3687363D1*
X6542683Y3706837D1*
X6530783Y3687363D1*
X6516280Y3670387D1*
X6499303Y3655883D1*
X6480263Y3644220D1*
X6460333Y3635930D1*
X6482060Y3625343D1*
X6498193Y3613623D1*
X6512290Y3599527D1*
X6524010Y3583393D1*
X6533063Y3565627D1*
X6539227Y3546663D1*
X6542343Y3526970D1*
X6064680Y1287070D2*
X6099033D1*
X6099040Y1404697D1*
X6054717Y1449073D1*
X5937000Y1449040D1*
X5955317Y1429830D1*
X5962320Y1417330D1*
X5966210Y1403537D1*
X5966960Y1394000D1*
Y1271590D1*
X5980690Y1262803D1*
X5995853Y1249853D1*
X6008803Y1234690D1*
X6019220Y1217690D1*
X6026850Y1199267D1*
X6031507Y1179877D1*
X6032930Y1163543D1*
Y1287070D1*
X6064680D1*
X5779040Y1162767D2*
X5780493Y1179877D1*
X5785150Y1199267D1*
X5792780Y1217690D1*
X5803197Y1234690D1*
X5816147Y1249853D1*
X5831310Y1262803D1*
X5845080Y1271410D1*
X5845040Y1368730D1*
X5824747Y1389043D1*
X5687157Y1389040D1*
X5701317Y1373830D1*
X5708320Y1361330D1*
X5712210Y1347537D1*
X5712960Y1338000D1*
Y1271400D1*
X5726690Y1262803D1*
X5741853Y1249853D1*
X5754803Y1234690D1*
X5765220Y1217690D1*
X5772850Y1199267D1*
X5777507Y1179877D1*
X5778960Y1162767D1*
X5525040D2*
X5526493Y1179877D1*
X5531150Y1199267D1*
X5538780Y1217690D1*
X5549197Y1234690D1*
X5562147Y1249853D1*
X5577310Y1262803D1*
X5591080Y1271410D1*
X5591040Y1312673D1*
X5574780Y1329010D1*
X5347117Y1329040D1*
X5389490Y1286720D1*
X5407970Y1286677D1*
X5427663Y1283560D1*
X5446627Y1277397D1*
X5464393Y1268343D1*
X5480527Y1256623D1*
X5494623Y1242527D1*
X5506343Y1226393D1*
X5515397Y1208627D1*
X5521560Y1189663D1*
X5524677Y1169970D1*
X5524960Y1162767D1*
X4798163Y1072293D2*
X4787197Y1085310D1*
X4776780Y1102310D1*
X4769150Y1120733D1*
X4764493Y1140123D1*
X4762930Y1160000D1*
X4764493Y1179877D1*
X4769150Y1199267D1*
X4776780Y1217690D1*
X4787197Y1234690D1*
X4800147Y1249853D1*
X4815310Y1262803D1*
X4829080Y1271410D1*
X4829040Y1424790D1*
X4710877Y1542913D1*
X4710903Y1240563D1*
X4312170D1*
X4312070Y1072327D1*
X4798013Y1072350D1*
X5434680Y2507070D2*
X5657070D1*
Y2252930D1*
X5540783Y2252610D1*
X5559573Y2249580D1*
X5577700Y2243777D1*
X5594753Y2235333D1*
X5610357Y2224433D1*
X5624160Y2211330D1*
X5635847Y2196307D1*
X5645160Y2179710D1*
X5651890Y2161910D1*
X5655887Y2143300D1*
X5657070Y2126000D1*
X5655643Y2107020D1*
X5651400Y2088467D1*
X5644433Y2070757D1*
X5634900Y2054287D1*
X5623010Y2039423D1*
X5609037Y2026503D1*
X5593290Y2015813D1*
X5576123Y2007597D1*
X5557920Y2002037D1*
X5539093Y1999257D1*
X5520060Y1999320D1*
X5501253Y2002223D1*
X5483087Y2007907D1*
X5465977Y2016237D1*
X5450300Y2027030D1*
X5436413Y2040047D1*
X5424623Y2054987D1*
X5415200Y2071523D1*
X5408350Y2089280D1*
X5404230Y2107860D1*
X5402933Y2126847D1*
X5404483Y2145817D1*
X5408853Y2164340D1*
X5415937Y2182003D1*
X5425583Y2198413D1*
X5437567Y2213197D1*
X5451627Y2226023D1*
X5467447Y2236607D1*
X5484667Y2244710D1*
X5502907Y2250147D1*
X5524950Y2252930D1*
X5402930D1*
Y2507070D1*
X5434680D1*
X5978983Y2937837D2*
X5967117Y2918363D1*
X5952613Y2901387D1*
X5935637Y2886883D1*
X5916163Y2875017D1*
X5935637Y2863117D1*
X5952613Y2848613D1*
X5967117Y2831637D1*
X5978983Y2812163D1*
X5990883Y2831637D1*
X6005387Y2848613D1*
X6022363Y2863117D1*
X6041837Y2874983D1*
X6022363Y2886883D1*
X6005387Y2901387D1*
X5990883Y2918363D1*
X5979017Y2937837D1*
X5916163Y3128983D2*
X5935637Y3117117D1*
X5952613Y3102613D1*
X5967117Y3085637D1*
X5978983Y3066163D1*
X5990883Y3085637D1*
X6005387Y3102613D1*
X6022363Y3117117D1*
X6041837Y3128983D1*
X6022363Y3140883D1*
X6005387Y3155387D1*
X5990883Y3172363D1*
X5979017Y3191837D1*
X5967117Y3172363D1*
X5952613Y3155387D1*
X5935637Y3140883D1*
X5916163Y3129017D1*
X6232983Y2937837D2*
X6221117Y2918363D1*
X6206613Y2901387D1*
X6189637Y2886883D1*
X6170163Y2875017D1*
X6189637Y2863117D1*
X6206613Y2848613D1*
X6221117Y2831637D1*
X6232983Y2812163D1*
X6244883Y2831637D1*
X6259387Y2848613D1*
X6276363Y2863117D1*
X6295837Y2874983D1*
X6276363Y2886883D1*
X6259387Y2901387D1*
X6244883Y2918363D1*
X6233017Y2937837D1*
X6170163Y3128983D2*
X6189637Y3117117D1*
X6206613Y3102613D1*
X6221117Y3085637D1*
X6232983Y3066163D1*
X6244883Y3085637D1*
X6259387Y3102613D1*
X6276363Y3117117D1*
X6295837Y3128983D1*
X6276363Y3140883D1*
X6259387Y3155387D1*
X6244883Y3172363D1*
X6233017Y3191837D1*
X6221117Y3172363D1*
X6206613Y3155387D1*
X6189637Y3140883D1*
X6170163Y3129017D1*
X6486983Y2937837D2*
X6475117Y2918363D1*
X6460613Y2901387D1*
X6443637Y2886883D1*
X6424163Y2875017D1*
X6443637Y2863117D1*
X6460613Y2848613D1*
X6475117Y2831637D1*
X6486983Y2812163D1*
X6498883Y2831637D1*
X6513387Y2848613D1*
X6530363Y2863117D1*
X6549837Y2874983D1*
X6530363Y2886883D1*
X6513387Y2901387D1*
X6498883Y2918363D1*
X6487017Y2937837D1*
X6424163Y3128983D2*
X6443637Y3117117D1*
X6460613Y3102613D1*
X6475117Y3085637D1*
X6486983Y3066163D1*
X6498883Y3085637D1*
X6513387Y3102613D1*
X6530363Y3117117D1*
X6549837Y3128983D1*
X6530363Y3140883D1*
X6513387Y3155387D1*
X6498883Y3172363D1*
X6487017Y3191837D1*
X6475117Y3172363D1*
X6460613Y3155387D1*
X6443637Y3140883D1*
X6424163Y3129017D1*
X6740983Y2937837D2*
X6729117Y2918363D1*
X6714613Y2901387D1*
X6697637Y2886883D1*
X6678163Y2875017D1*
X6697637Y2863117D1*
X6714613Y2848613D1*
X6729117Y2831637D1*
X6740983Y2812163D1*
X6752883Y2831637D1*
X6767387Y2848613D1*
X6784363Y2863117D1*
X6803837Y2874983D1*
X6784363Y2886883D1*
X6767387Y2901387D1*
X6752883Y2918363D1*
X6741017Y2937837D1*
X6678163Y3128983D2*
X6697637Y3117117D1*
X6714613Y3102613D1*
X6729117Y3085637D1*
X6740983Y3066163D1*
X6752883Y3085637D1*
X6767387Y3102613D1*
X6784363Y3117117D1*
X6803837Y3128983D1*
X6784363Y3140883D1*
X6767387Y3155387D1*
X6752883Y3172363D1*
X6741017Y3191837D1*
X6729117Y3172363D1*
X6714613Y3155387D1*
X6697637Y3140883D1*
X6678163Y3129017D1*
X6994983Y2937837D2*
X6983117Y2918363D1*
X6968613Y2901387D1*
X6951637Y2886883D1*
X6932163Y2875017D1*
X6951637Y2863117D1*
X6968613Y2848613D1*
X6983117Y2831637D1*
X6994983Y2812163D1*
X7006883Y2831637D1*
X7021387Y2848613D1*
X7038363Y2863117D1*
X7057837Y2874983D1*
X7038363Y2886883D1*
X7021387Y2901387D1*
X7006883Y2918363D1*
X6995017Y2937837D1*
X6932163Y3128983D2*
X6951637Y3117117D1*
X6968613Y3102613D1*
X6983117Y3085637D1*
X6994983Y3066163D1*
X7006883Y3085637D1*
X7021387Y3102613D1*
X7038363Y3117117D1*
X7057837Y3128983D1*
X7038363Y3140883D1*
X7021387Y3155387D1*
X7006883Y3172363D1*
X6995017Y3191837D1*
X6983117Y3172363D1*
X6968613Y3155387D1*
X6951637Y3140883D1*
X6932163Y3129017D1*
X7248983Y2937837D2*
X7237117Y2918363D1*
X7222613Y2901387D1*
X7205637Y2886883D1*
X7186163Y2875017D1*
X7205637Y2863117D1*
X7222613Y2848613D1*
X7237117Y2831637D1*
X7248983Y2812163D1*
X7260883Y2831637D1*
X7275387Y2848613D1*
X7292363Y2863117D1*
X7311837Y2874983D1*
X7292363Y2886883D1*
X7275387Y2901387D1*
X7260883Y2918363D1*
X7249017Y2937837D1*
X7186163Y3128983D2*
X7205637Y3117117D1*
X7222613Y3102613D1*
X7237117Y3085637D1*
X7248983Y3066163D1*
X7260883Y3085637D1*
X7275387Y3102613D1*
X7292363Y3117117D1*
X7311837Y3128983D1*
X7292363Y3140883D1*
X7275387Y3155387D1*
X7260883Y3172363D1*
X7249017Y3191837D1*
X7237117Y3172363D1*
X7222613Y3155387D1*
X7205637Y3140883D1*
X7186163Y3129017D1*
X5978983Y2683837D2*
X5967117Y2664363D1*
X5952613Y2647387D1*
X5935637Y2632883D1*
X5916163Y2621017D1*
X5935637Y2609117D1*
X5952613Y2594613D1*
X5967117Y2577637D1*
X5978983Y2558163D1*
X5990883Y2577637D1*
X6005387Y2594613D1*
X6022363Y2609117D1*
X6041837Y2620983D1*
X6022363Y2632883D1*
X6005387Y2647387D1*
X5990883Y2664363D1*
X5979017Y2683837D1*
X6232983D2*
X6221117Y2664363D1*
X6206613Y2647387D1*
X6189637Y2632883D1*
X6170163Y2621017D1*
X6189637Y2609117D1*
X6206613Y2594613D1*
X6221117Y2577637D1*
X6232983Y2558163D1*
X6244883Y2577637D1*
X6259387Y2594613D1*
X6276363Y2609117D1*
X6295837Y2620983D1*
X6276363Y2632883D1*
X6259387Y2647387D1*
X6244883Y2664363D1*
X6233017Y2683837D1*
X6486983D2*
X6475117Y2664363D1*
X6460613Y2647387D1*
X6443637Y2632883D1*
X6424163Y2621017D1*
X6443637Y2609117D1*
X6460613Y2594613D1*
X6475117Y2577637D1*
X6486983Y2558163D1*
X6498883Y2577637D1*
X6513387Y2594613D1*
X6530363Y2609117D1*
X6549837Y2620983D1*
X6530363Y2632883D1*
X6513387Y2647387D1*
X6498883Y2664363D1*
X6487017Y2683837D1*
X6740983D2*
X6729117Y2664363D1*
X6714613Y2647387D1*
X6697637Y2632883D1*
X6678163Y2621017D1*
X6697637Y2609117D1*
X6714613Y2594613D1*
X6729117Y2577637D1*
X6740983Y2558163D1*
X6752883Y2577637D1*
X6767387Y2594613D1*
X6784363Y2609117D1*
X6803837Y2620983D1*
X6784363Y2632883D1*
X6767387Y2647387D1*
X6752883Y2664363D1*
X6741017Y2683837D1*
X6994983D2*
X6983117Y2664363D1*
X6968613Y2647387D1*
X6951637Y2632883D1*
X6932163Y2621017D1*
X6951637Y2609117D1*
X6968613Y2594613D1*
X6983117Y2577637D1*
X6994983Y2558163D1*
X7006883Y2577637D1*
X7021387Y2594613D1*
X7038363Y2609117D1*
X7057837Y2620983D1*
X7038363Y2632883D1*
X7021387Y2647387D1*
X7006883Y2664363D1*
X6995017Y2683837D1*
X7248983D2*
X7237117Y2664363D1*
X7222613Y2647387D1*
X7205637Y2632883D1*
X7186163Y2621017D1*
X7205637Y2609117D1*
X7222613Y2594613D1*
X7237117Y2577637D1*
X7248983Y2558163D1*
X7260883Y2577637D1*
X7275387Y2594613D1*
X7292363Y2609117D1*
X7311837Y2620983D1*
X7292363Y2632883D1*
X7275387Y2647387D1*
X7260883Y2664363D1*
X7249017Y2683837D1*
X7311837Y2367017D2*
X7292363Y2378883D1*
X7275387Y2393387D1*
X7260883Y2410363D1*
X7249017Y2429837D1*
X7237117Y2410363D1*
X7222613Y2393387D1*
X7205637Y2378883D1*
X7186163Y2367017D1*
X7205637Y2355117D1*
X7222613Y2340613D1*
X7237117Y2323637D1*
X7248983Y2304163D1*
X7260883Y2323637D1*
X7275387Y2340613D1*
X7292363Y2355117D1*
X7311837Y2366983D1*
X7057837Y2367017D2*
X7038363Y2378883D1*
X7021387Y2393387D1*
X7006883Y2410363D1*
X6995017Y2429837D1*
X6983117Y2410363D1*
X6968613Y2393387D1*
X6951637Y2378883D1*
X6932163Y2367017D1*
X6951637Y2355117D1*
X6968613Y2340613D1*
X6983117Y2323637D1*
X6994983Y2304163D1*
X7006883Y2323637D1*
X7021387Y2340613D1*
X7038363Y2355117D1*
X7057837Y2366983D1*
X6803837Y2367017D2*
X6784363Y2378883D1*
X6767387Y2393387D1*
X6752883Y2410363D1*
X6741017Y2429837D1*
X6729117Y2410363D1*
X6714613Y2393387D1*
X6697637Y2378883D1*
X6678163Y2367017D1*
X6697637Y2355117D1*
X6714613Y2340613D1*
X6729117Y2323637D1*
X6740983Y2304163D1*
X6752883Y2323637D1*
X6767387Y2340613D1*
X6784363Y2355117D1*
X6803837Y2366983D1*
X6549837Y2367017D2*
X6530363Y2378883D1*
X6513387Y2393387D1*
X6498883Y2410363D1*
X6487017Y2429837D1*
X6475117Y2410363D1*
X6460613Y2393387D1*
X6443637Y2378883D1*
X6424163Y2367017D1*
X6443637Y2355117D1*
X6460613Y2340613D1*
X6475117Y2323637D1*
X6486983Y2304163D1*
X6498883Y2323637D1*
X6513387Y2340613D1*
X6530363Y2355117D1*
X6549837Y2366983D1*
X6295837Y2367017D2*
X6276363Y2378883D1*
X6259387Y2393387D1*
X6244883Y2410363D1*
X6233017Y2429837D1*
X6221117Y2410363D1*
X6206613Y2393387D1*
X6189637Y2378883D1*
X6170163Y2367017D1*
X6189637Y2355117D1*
X6206613Y2340613D1*
X6221117Y2323637D1*
X6232983Y2304163D1*
X6244883Y2323637D1*
X6259387Y2340613D1*
X6276363Y2355117D1*
X6295837Y2366983D1*
X6041837Y2367017D2*
X6022363Y2378883D1*
X6005387Y2393387D1*
X5990883Y2410363D1*
X5979017Y2429837D1*
X5967117Y2410363D1*
X5952613Y2393387D1*
X5935637Y2378883D1*
X5916163Y2367017D1*
X5935637Y2355117D1*
X5952613Y2340613D1*
X5967117Y2323637D1*
X5978983Y2304163D1*
X5990883Y2323637D1*
X6005387Y2340613D1*
X6022363Y2355117D1*
X6041837Y2366983D1*
X5978983Y2175837D2*
X5967117Y2156363D1*
X5952613Y2139387D1*
X5935637Y2124883D1*
X5916163Y2113017D1*
X5935637Y2101117D1*
X5952613Y2086613D1*
X5967117Y2069637D1*
X5978983Y2050163D1*
X5990883Y2069637D1*
X6005387Y2086613D1*
X6022363Y2101117D1*
X6041837Y2112983D1*
X6022363Y2124883D1*
X6005387Y2139387D1*
X5990883Y2156363D1*
X5979017Y2175837D1*
X6232983D2*
X6221117Y2156363D1*
X6206613Y2139387D1*
X6189637Y2124883D1*
X6170163Y2113017D1*
X6189637Y2101117D1*
X6206613Y2086613D1*
X6221117Y2069637D1*
X6232983Y2050163D1*
X6244883Y2069637D1*
X6259387Y2086613D1*
X6276363Y2101117D1*
X6295837Y2112983D1*
X6276363Y2124883D1*
X6259387Y2139387D1*
X6244883Y2156363D1*
X6233017Y2175837D1*
X6486983D2*
X6475117Y2156363D1*
X6460613Y2139387D1*
X6443637Y2124883D1*
X6424163Y2113017D1*
X6443637Y2101117D1*
X6460613Y2086613D1*
X6475117Y2069637D1*
X6486983Y2050163D1*
X6498883Y2069637D1*
X6513387Y2086613D1*
X6530363Y2101117D1*
X6549837Y2112983D1*
X6530363Y2124883D1*
X6513387Y2139387D1*
X6498883Y2156363D1*
X6487017Y2175837D1*
X6740983D2*
X6729117Y2156363D1*
X6714613Y2139387D1*
X6697637Y2124883D1*
X6678163Y2113017D1*
X6697637Y2101117D1*
X6714613Y2086613D1*
X6729117Y2069637D1*
X6740983Y2050163D1*
X6752883Y2069637D1*
X6767387Y2086613D1*
X6784363Y2101117D1*
X6803837Y2112983D1*
X6784363Y2124883D1*
X6767387Y2139387D1*
X6752883Y2156363D1*
X6741017Y2175837D1*
X6994983D2*
X6983117Y2156363D1*
X6968613Y2139387D1*
X6951637Y2124883D1*
X6932163Y2113017D1*
X6951637Y2101117D1*
X6968613Y2086613D1*
X6983117Y2069637D1*
X6994983Y2050163D1*
X7006883Y2069637D1*
X7021387Y2086613D1*
X7038363Y2101117D1*
X7057837Y2112983D1*
X7038363Y2124883D1*
X7021387Y2139387D1*
X7006883Y2156363D1*
X6995017Y2175837D1*
X7248983D2*
X7237117Y2156363D1*
X7222613Y2139387D1*
X7205637Y2124883D1*
X7186163Y2113017D1*
X7205637Y2101117D1*
X7222613Y2086613D1*
X7237117Y2069637D1*
X7248983Y2050163D1*
X7260883Y2069637D1*
X7275387Y2086613D1*
X7292363Y2101117D1*
X7311837Y2112983D1*
X7292363Y2124883D1*
X7275387Y2139387D1*
X7260883Y2156363D1*
X7249017Y2175837D1*
X7311837Y1859017D2*
X7292363Y1870883D1*
X7275387Y1885387D1*
X7260883Y1902363D1*
X7249017Y1921837D1*
X7237117Y1902363D1*
X7222613Y1885387D1*
X7205637Y1870883D1*
X7186163Y1859017D1*
X7205637Y1847117D1*
X7222613Y1832613D1*
X7237117Y1815637D1*
X7248983Y1796163D1*
X7260883Y1815637D1*
X7275387Y1832613D1*
X7292363Y1847117D1*
X7311837Y1858983D1*
X7057837Y1859017D2*
X7038363Y1870883D1*
X7021387Y1885387D1*
X7006883Y1902363D1*
X6995017Y1921837D1*
X6983117Y1902363D1*
X6968613Y1885387D1*
X6951637Y1870883D1*
X6932163Y1859017D1*
X6951637Y1847117D1*
X6968613Y1832613D1*
X6983117Y1815637D1*
X6994983Y1796163D1*
X7006883Y1815637D1*
X7021387Y1832613D1*
X7038363Y1847117D1*
X7057837Y1858983D1*
X6803837Y1859017D2*
X6784363Y1870883D1*
X6767387Y1885387D1*
X6752883Y1902363D1*
X6741017Y1921837D1*
X6729117Y1902363D1*
X6714613Y1885387D1*
X6697637Y1870883D1*
X6678163Y1859017D1*
X6697637Y1847117D1*
X6714613Y1832613D1*
X6729117Y1815637D1*
X6740983Y1796163D1*
X6752883Y1815637D1*
X6767387Y1832613D1*
X6784363Y1847117D1*
X6803837Y1858983D1*
X6549837Y1859017D2*
X6530363Y1870883D1*
X6513387Y1885387D1*
X6498883Y1902363D1*
X6487017Y1921837D1*
X6475117Y1902363D1*
X6460613Y1885387D1*
X6443637Y1870883D1*
X6424163Y1859017D1*
X6443637Y1847117D1*
X6460613Y1832613D1*
X6475117Y1815637D1*
X6486983Y1796163D1*
X6498883Y1815637D1*
X6513387Y1832613D1*
X6530363Y1847117D1*
X6549837Y1858983D1*
X6295837Y1859017D2*
X6276363Y1870883D1*
X6259387Y1885387D1*
X6244883Y1902363D1*
X6233017Y1921837D1*
X6221117Y1902363D1*
X6206613Y1885387D1*
X6189637Y1870883D1*
X6170163Y1859017D1*
X6189637Y1847117D1*
X6206613Y1832613D1*
X6221117Y1815637D1*
X6232983Y1796163D1*
X6244883Y1815637D1*
X6259387Y1832613D1*
X6276363Y1847117D1*
X6295837Y1858983D1*
X6041837Y1859017D2*
X6022363Y1870883D1*
X6005387Y1885387D1*
X5990883Y1902363D1*
X5979017Y1921837D1*
X5967117Y1902363D1*
X5952613Y1885387D1*
X5935637Y1870883D1*
X5916163Y1859017D1*
X5935637Y1847117D1*
X5952613Y1832613D1*
X5967117Y1815637D1*
X5978983Y1796163D1*
X5990883Y1815637D1*
X6005387Y1832613D1*
X6022363Y1847117D1*
X6041837Y1858983D1*
X3513403Y1225330D2*
Y1190850D1*
X3787930Y1190960D1*
Y1225227D1*
X3513300Y1225343D1*
X1496403Y2825243D2*
Y2606930D1*
X1072317D1*
X1072353Y2385043D1*
X1498070Y2385070D1*
Y2169740D1*
X1529750Y2169750D1*
Y2097443D1*
X1551340Y2098937D1*
X1565293Y2101953D1*
X1578750Y2106707D1*
X1591500Y2113130D1*
X1603333Y2121110D1*
X1614063Y2130527D1*
X1623517Y2141223D1*
X1631537Y2153030D1*
X1651603Y2191937D1*
X1668057Y2215723D1*
X1687463Y2237173D1*
X1709493Y2255917D1*
X1733773Y2271640D1*
X1759890Y2284070D1*
X1787403Y2293000D1*
X1815840Y2298280D1*
X1844727Y2299820D1*
X1864350Y2298493D1*
X1865063Y2306463D1*
Y2370583D1*
X1831257Y2371590D1*
X1811110Y2374820D1*
X1795543Y2378693D1*
X1770237Y2388450D1*
X1748530Y2400350D1*
X1728560Y2414983D1*
X1710670Y2432097D1*
X1695170Y2451400D1*
X1682320Y2472560D1*
X1672343Y2495217D1*
X1665407Y2518983D1*
X1661633Y2543450D1*
X1660710Y2560000D1*
Y2777580D1*
X1659473Y2795970D1*
X1656367Y2811427D1*
X1651270Y2826347D1*
X1644267Y2840473D1*
X1635483Y2853563D1*
X1625063Y2865397D1*
X1613190Y2875770D1*
X1600063Y2884503D1*
X1585910Y2891450D1*
X1570970Y2896490D1*
X1555500Y2899533D1*
X1536553Y2900743D1*
X1524750Y2877750D1*
Y2825250D1*
X1496350D1*
X4127930Y1072330D2*
Y1240553D1*
X4091160Y1240563D1*
X4091123Y1225343D1*
X3972187D1*
X3972070Y1072230D1*
X4128037Y1072350D1*
X3553547Y1587323D2*
X3837123D1*
Y1572067D1*
X3855560Y1572103D1*
X3855543Y1587323D1*
X4038973D1*
X4039790Y1619537D1*
X4043680Y1633330D1*
X4050683Y1645830D1*
X4056893Y1653107D1*
X4182917Y1779127D1*
X3745327Y1779040D1*
X3553597Y1587383D1*
X4546070Y1572103D2*
X4681753D1*
X4584767Y1669023D1*
X4569197Y1669040D1*
X4573120Y1648557D1*
Y1634110D1*
X4570860Y1619840D1*
X4566393Y1606100D1*
X4559837Y1593227D1*
X4551343Y1581540D1*
X4546083Y1575903D1*
X4550213Y1572103D1*
X4581963D1*
X3622777Y1829040D2*
X3485113D1*
X3400937Y1744727D1*
X3400960Y1572183D1*
X3409040Y1590000D1*
X3410723Y1604230D1*
X3415683Y1617677D1*
X3423647Y1629590D1*
X3622900Y1829110D1*
X5115000Y2725000D2*
D22*
Y2608053D1*
X4988053Y2725000D2*
X5241947D1*
X5115000Y2561947D2*
Y2445000D1*
X4988053D2*
X5241947D1*
X2351667Y3897947D2*
Y3771000D1*
X2224720D2*
X2478613D1*
X4129667Y3897947D2*
Y3771000D1*
X4891667Y3517000D2*
Y3390053D1*
X5399667Y3897947D2*
Y3771000D1*
X5907667Y3897947D2*
Y3771000D1*
X6669667Y3517000D2*
Y3390053D1*
X6542720Y3517000D2*
X6796613D1*
X5530000Y2252947D2*
Y1999053D1*
X5403053Y2126000D2*
X5656947D1*
X1241333Y2735000D2*
Y2607053D1*
Y2735000D2*
X1496280D1*
X1242333Y3242000D2*
X1497280D1*
X1242000Y1750000D2*
X1496947D1*
X1243000Y2384947D2*
Y2257000D1*
X1497947D1*
X4128053Y1130000D2*
X4311947D1*
X4608333Y3259333D2*
Y3093687D1*
Y3259333D2*
X4710780D1*
X3719333D2*
Y3093687D1*
X3338333Y3259333D2*
Y3093687D1*
X2195333Y3259333D2*
Y3093687D1*
X2092887Y3259333D2*
X2195333D1*
X2030833Y2816280D2*
Y2713833D1*
X1865187D2*
X2196480D1*
X1865187Y2586833D2*
X2196480D1*
X1865187Y2332833D2*
X2196480D1*
X1865187Y2078833D2*
X2196480D1*
X2030833Y1951833D2*
Y1849387D1*
X1865187Y1951833D2*
X2196480D1*
X2195333Y1571980D2*
Y1240687D1*
X2092887Y1406333D2*
X2195333D1*
X3846333Y1571980D2*
Y1406333D1*
X4608333Y1571980D2*
Y1240687D1*
Y1406333D2*
X4710780D1*
D23*
X5115000Y2725000D3*
Y2915000D3*
Y2445000D3*
Y2255000D3*
D25*
X1843667Y3517000D3*
D26*
Y3771000D3*
X2097667Y3517000D3*
Y3771000D3*
X2351667Y3517000D3*
Y3771000D3*
X2605667Y3517000D3*
Y3771000D3*
X2859667Y3517000D3*
Y3771000D3*
X3113667Y3517000D3*
Y3771000D3*
X3367667Y3517000D3*
Y3771000D3*
X3621667Y3517000D3*
Y3771000D3*
X3875667Y3517000D3*
Y3771000D3*
X4129667Y3517000D3*
Y3771000D3*
X4383667Y3517000D3*
Y3771000D3*
X4637667Y3517000D3*
Y3771000D3*
X4891667Y3517000D3*
Y3771000D3*
X5145667Y3517000D3*
Y3771000D3*
X5399667Y3517000D3*
Y3771000D3*
X5653667Y3517000D3*
Y3771000D3*
X5907667Y3517000D3*
Y3771000D3*
X6161667Y3517000D3*
Y3771000D3*
X6415667Y3517000D3*
Y3771000D3*
X6669667Y3517000D3*
Y3771000D3*
D25*
X6160000Y1160000D3*
D26*
X5906000D3*
X5652000D3*
X5398000D3*
X5144000D3*
X4890000D3*
D25*
X5530000Y2380000D3*
D26*
Y2126000D3*
D25*
Y2830000D3*
D26*
Y3084000D3*
D27*
X5852000Y3002000D3*
X6106000D3*
X6360000D3*
X6614000D3*
X6868000D3*
X7122000D3*
X7376000D3*
X5852000Y2748000D3*
X6106000D3*
X6360000D3*
X6614000D3*
X6868000D3*
X7122000D3*
X7376000D3*
Y2494000D3*
X7122000D3*
X6868000D3*
X6614000D3*
X6360000D3*
X6106000D3*
X5852000D3*
Y2240000D3*
X6106000D3*
X6360000D3*
X6614000D3*
X6868000D3*
X7122000D3*
X7376000D3*
Y1986000D3*
X7122000D3*
X6868000D3*
X6614000D3*
X6360000D3*
X6106000D3*
X5852000D3*
Y1732000D3*
X6106000D3*
X6360000D3*
X6614000D3*
X6868000D3*
X7122000D3*
X7376000D3*
X5852000Y3256000D3*
X6106000D3*
X6360000D3*
X6614000D3*
X6868000D3*
X7122000D3*
X7376000D3*
D25*
X3386333Y1147000D3*
D26*
X3132333D3*
X2878333D3*
X2624333D3*
X2370333D3*
D29*
X1241333Y2735000D3*
D30*
X1242333Y2989000D3*
D29*
Y3242000D3*
X1242000Y1750000D3*
D30*
X1243000Y2004000D3*
D29*
Y2257000D3*
D32*
X4220000Y1130000D3*
X3880000D3*
D33*
X4608333Y3259333D3*
X4481333D3*
X4354333D3*
X4227333D3*
X4100333D3*
X3973333D3*
X3846333D3*
X3719333D3*
X3592333D3*
X3465333D3*
X3338333D3*
X3211333D3*
X3084333D3*
X2957333D3*
X2830333D3*
X2703333D3*
X2576333D3*
X2449333D3*
X2322333D3*
X2195333D3*
D34*
X2030833Y2713833D3*
Y2586833D3*
Y2459833D3*
Y2332833D3*
Y2205833D3*
Y2078833D3*
Y1951833D3*
D33*
X2195333Y1406333D3*
X2322333D3*
X2449333D3*
X2576333D3*
X2703333D3*
X2830333D3*
X2957333D3*
X3084333D3*
X3211333D3*
X3338333D3*
X3465333D3*
X3592333D3*
X3719333D3*
X3846333D3*
X3973333D3*
X4100333D3*
X4227333D3*
X4354333D3*
X4481333D3*
X4608333D3*
M02*
