G04 DipTrace 3.1.0.0*
G04 TopMask.gbr*
%MOMM*%
G04 #@! TF.FileFunction,Soldermask,Top*
G04 #@! TF.Part,Single*
%ADD38C,2.75*%
%ADD45R,2.474X1.21*%
%ADD47R,1.21X2.474*%
%ADD49R,1.0X1.9*%
%ADD51R,4.26X1.05*%
%ADD53R,4.26X1.72*%
%ADD57C,1.7*%
%ADD59C,1.7*%
%ADD61R,1.7X1.7*%
%ADD65R,1.7X1.5*%
%FSLAX35Y35*%
G04*
G71*
G90*
G75*
G01*
G04 TopMask*
%LPD*%
D65*
X5115000Y2725000D3*
Y2915000D3*
Y2445000D3*
Y2255000D3*
D38*
X1349667Y1349000D3*
Y3649333D3*
X7150000D3*
X7149667Y1348667D3*
D61*
X1843667Y3517000D3*
D59*
Y3771000D3*
X2097667Y3517000D3*
Y3771000D3*
X2351667Y3517000D3*
Y3771000D3*
X2605667Y3517000D3*
Y3771000D3*
X2859667Y3517000D3*
Y3771000D3*
X3113667Y3517000D3*
Y3771000D3*
X3367667Y3517000D3*
Y3771000D3*
X3621667Y3517000D3*
Y3771000D3*
X3875667Y3517000D3*
Y3771000D3*
X4129667Y3517000D3*
Y3771000D3*
X4383667Y3517000D3*
Y3771000D3*
X4637667Y3517000D3*
Y3771000D3*
X4891667Y3517000D3*
Y3771000D3*
X5145667Y3517000D3*
Y3771000D3*
X5399667Y3517000D3*
Y3771000D3*
X5653667Y3517000D3*
Y3771000D3*
X5907667Y3517000D3*
Y3771000D3*
X6161667Y3517000D3*
Y3771000D3*
X6415667Y3517000D3*
Y3771000D3*
X6669667Y3517000D3*
Y3771000D3*
D61*
X6160000Y1160000D3*
D59*
X5906000D3*
X5652000D3*
X5398000D3*
X5144000D3*
X4890000D3*
D61*
X5530000Y2380000D3*
D59*
Y2126000D3*
D61*
Y2830000D3*
D59*
Y3084000D3*
D57*
X5852000Y3002000D3*
X6106000D3*
X6360000D3*
X6614000D3*
X6868000D3*
X7122000D3*
X7376000D3*
X5852000Y2748000D3*
X6106000D3*
X6360000D3*
X6614000D3*
X6868000D3*
X7122000D3*
X7376000D3*
Y2494000D3*
X7122000D3*
X6868000D3*
X6614000D3*
X6360000D3*
X6106000D3*
X5852000D3*
Y2240000D3*
X6106000D3*
X6360000D3*
X6614000D3*
X6868000D3*
X7122000D3*
X7376000D3*
Y1986000D3*
X7122000D3*
X6868000D3*
X6614000D3*
X6360000D3*
X6106000D3*
X5852000D3*
Y1732000D3*
X6106000D3*
X6360000D3*
X6614000D3*
X6868000D3*
X7122000D3*
X7376000D3*
X5852000Y3256000D3*
X6106000D3*
X6360000D3*
X6614000D3*
X6868000D3*
X7122000D3*
X7376000D3*
D61*
X3386333Y1147000D3*
D59*
X3132333D3*
X2878333D3*
X2624333D3*
X2370333D3*
D53*
X1241333Y2735000D3*
D51*
X1242333Y2989000D3*
D53*
Y3242000D3*
X1242000Y1750000D3*
D51*
X1243000Y2004000D3*
D53*
Y2257000D3*
D49*
X4220000Y1130000D3*
X3880000D3*
D47*
X4608333Y3259333D3*
X4481333D3*
X4354333D3*
X4227333D3*
X4100333D3*
X3973333D3*
X3846333D3*
X3719333D3*
X3592333D3*
X3465333D3*
X3338333D3*
X3211333D3*
X3084333D3*
X2957333D3*
X2830333D3*
X2703333D3*
X2576333D3*
X2449333D3*
X2322333D3*
X2195333D3*
D45*
X2030833Y2713833D3*
Y2586833D3*
Y2459833D3*
Y2332833D3*
Y2205833D3*
Y2078833D3*
Y1951833D3*
D47*
X2195333Y1406333D3*
X2322333D3*
X2449333D3*
X2576333D3*
X2703333D3*
X2830333D3*
X2957333D3*
X3084333D3*
X3211333D3*
X3338333D3*
X3465333D3*
X3592333D3*
X3719333D3*
X3846333D3*
X3973333D3*
X4100333D3*
X4227333D3*
X4354333D3*
X4481333D3*
X4608333D3*
M02*
