G04 DipTrace 3.1.0.0*
G04 TopPaste.gbr*
%MOMM*%
G04 #@! TF.FileFunction,Paste,Top*
G04 #@! TF.Part,Single*
%ADD46R,2.074X0.81*%
%ADD48R,0.81X2.074*%
%ADD50R,0.6X1.5*%
%ADD52R,3.86X0.65*%
%ADD54R,3.86X1.32*%
%ADD66R,1.3X1.1*%
%FSLAX35Y35*%
G04*
G71*
G90*
G75*
G01*
G04 TopPaste*
%LPD*%
D66*
X5115000Y2725000D3*
Y2915000D3*
Y2445000D3*
Y2255000D3*
D54*
X1241333Y2735000D3*
D52*
X1242333Y2989000D3*
D54*
Y3242000D3*
X1242000Y1750000D3*
D52*
X1243000Y2004000D3*
D54*
Y2257000D3*
D50*
X4220000Y1130000D3*
X3880000D3*
D48*
X4608333Y3259333D3*
X4481333D3*
X4354333D3*
X4227333D3*
X4100333D3*
X3973333D3*
X3846333D3*
X3719333D3*
X3592333D3*
X3465333D3*
X3338333D3*
X3211333D3*
X3084333D3*
X2957333D3*
X2830333D3*
X2703333D3*
X2576333D3*
X2449333D3*
X2322333D3*
X2195333D3*
D46*
X2030833Y2713833D3*
Y2586833D3*
Y2459833D3*
Y2332833D3*
Y2205833D3*
Y2078833D3*
Y1951833D3*
D48*
X2195333Y1406333D3*
X2322333D3*
X2449333D3*
X2576333D3*
X2703333D3*
X2830333D3*
X2957333D3*
X3084333D3*
X3211333D3*
X3338333D3*
X3465333D3*
X3592333D3*
X3719333D3*
X3846333D3*
X3973333D3*
X4100333D3*
X4227333D3*
X4354333D3*
X4481333D3*
X4608333D3*
M02*
