G04 DipTrace 3.1.0.0*
G04 TopSilk.gbr*
%MOMM*%
G04 #@! TF.FileFunction,Legend,Top*
G04 #@! TF.Part,Single*
%ADD10C,0.254*%
%ADD31C,0.29999*%
%ADD67C,0.15686*%
%ADD68C,0.19608*%
%ADD69C,0.11765*%
%ADD70C,0.07843*%
%FSLAX35Y35*%
G04*
G71*
G90*
G75*
G01*
G04 TopSilk*
%LPD*%
X5179950Y2630053D2*
D10*
X5050050D1*
Y2539947D2*
X5179950D1*
X6796667Y3390000D2*
Y3898000D1*
X1716667Y3390000D2*
Y3898000D1*
X6796667D1*
X1716667Y3390000D2*
X6796667D1*
X6287000Y1287000D2*
X4763000D1*
X6287000Y1033000D2*
X4763000D1*
X6287000Y1287000D2*
Y1033000D1*
X4763000Y1287000D2*
Y1033000D1*
X5403000Y1999000D2*
X5657000D1*
X5403000Y2507000D2*
Y1999000D1*
Y2507000D2*
X5657000D1*
Y1999000D1*
Y3211000D2*
X5403000D1*
X5657000Y2703000D2*
Y3211000D1*
Y2703000D2*
X5403000D1*
Y3211000D1*
X2243333Y1274000D2*
Y1020000D1*
X3513333Y1274000D2*
X2243333D1*
X3513333Y1020000D2*
X2243333D1*
X3513333Y1274000D2*
Y1020000D1*
X4135009Y1205015D2*
X3965017D1*
X4200075Y1255000D2*
X3900044D1*
X4200075Y1005010D2*
X3900044D1*
X3965017Y1205015D2*
Y1154998D1*
X4135009Y1205015D2*
Y1154998D1*
X3900044Y1255000D2*
Y1239985D1*
X4200075Y1255000D2*
Y1239985D1*
X3900044Y1005010D2*
Y1019993D1*
X4200075Y1005010D2*
Y1019993D1*
X4135009Y1005010D2*
Y949988D1*
X4095011Y930000D1*
X4005062D1*
X3965017Y1005010D2*
Y949988D1*
X4005062Y930000D1*
D31*
X4290094Y1129989D3*
X2068475Y1885755D2*
D10*
Y1443878D1*
X2129067D1*
X2068475Y2784904D2*
Y3221788D1*
X2129067D1*
X4891211Y2743126D2*
D67*
X4993298D1*
X4993299Y2777155D1*
X4988357Y2791755D1*
X4978699Y2801526D1*
X4968928Y2806355D1*
X4954440Y2811184D1*
X4930069D1*
X4915469Y2806355D1*
X4905811Y2801526D1*
X4896040Y2791755D1*
X4891211Y2777155D1*
Y2743126D1*
X4910752Y2842557D2*
X4905811Y2852328D1*
X4891323Y2866928D1*
X4993298D1*
X4891211Y2281229D2*
X4993298D1*
X4993299Y2315258D1*
X4988357Y2329858D1*
X4978699Y2339629D1*
X4968928Y2344458D1*
X4954440Y2349287D1*
X4930069D1*
X4915469Y2344458D1*
X4905811Y2339629D1*
X4896040Y2329858D1*
X4891211Y2315258D1*
Y2281229D1*
X4915582Y2385601D2*
X4910752D1*
X4900982Y2390431D1*
X4896152Y2395260D1*
X4891323Y2405031D1*
Y2424460D1*
X4896152Y2434118D1*
X4900982Y2438947D1*
X4910752Y2443889D1*
X4920411D1*
X4930182Y2438947D1*
X4944669Y2429289D1*
X4993299Y2380660D1*
X4993298Y2448718D1*
X1603110Y3956789D2*
Y3879072D1*
X1598280Y3864472D1*
X1593339Y3859643D1*
X1583680Y3854702D1*
X1573910D1*
X1564251Y3859643D1*
X1559422Y3864472D1*
X1554480Y3879072D1*
Y3888731D1*
X1634482Y3937248D2*
X1644253Y3942189D1*
X1658853Y3956677D1*
Y3854702D1*
X6321460Y1134599D2*
X6399177D1*
X6413777Y1129770D1*
X6418606Y1124829D1*
X6423548Y1115170D1*
Y1105399D1*
X6418606Y1095741D1*
X6413777Y1090912D1*
X6399177Y1085970D1*
X6389519D1*
X6345831Y1170913D2*
X6341002D1*
X6331231Y1175743D1*
X6326402Y1180572D1*
X6321573Y1190343D1*
Y1209772D1*
X6326402Y1219430D1*
X6331231Y1224260D1*
X6341002Y1229201D1*
X6350660D1*
X6360431Y1224259D1*
X6374919Y1214601D1*
X6423548Y1165972D1*
Y1234030D1*
X5504599Y2655789D2*
Y2578072D1*
X5499770Y2563472D1*
X5494828Y2558643D1*
X5485170Y2553702D1*
X5475399D1*
X5465741Y2558643D1*
X5460911Y2563472D1*
X5455970Y2578072D1*
Y2587731D1*
X5545742Y2655677D2*
X5599089D1*
X5570001Y2616819D1*
X5584601D1*
X5594259Y2611989D1*
X5599089Y2607160D1*
X5604030Y2592560D1*
Y2582902D1*
X5599089Y2568302D1*
X5589430Y2558531D1*
X5574830Y2553702D1*
X5560230D1*
X5545742Y2558531D1*
X5540913Y2563472D1*
X5535972Y2573131D1*
X5502184Y3359789D2*
Y3282072D1*
X5497355Y3267472D1*
X5492414Y3262643D1*
X5482755Y3257702D1*
X5472984D1*
X5463326Y3262643D1*
X5458497Y3267472D1*
X5453555Y3282072D1*
Y3291731D1*
X5582186Y3257702D2*
Y3359677D1*
X5533557Y3291731D1*
X5606445D1*
X1110018Y2565551D2*
X1153705D1*
X1168305Y2570492D1*
X1173247Y2575321D1*
X1178076Y2584980D1*
Y2594751D1*
X1173247Y2604409D1*
X1168305Y2609351D1*
X1153705Y2614180D1*
X1110018D1*
Y2512092D1*
X1144047Y2565551D2*
X1178076Y2512092D1*
X1272678Y2614180D2*
X1209449D1*
Y2512092D1*
Y2565551D2*
X1248307D1*
X1304050Y2614180D2*
Y2512092D1*
X1372109Y2614180D2*
Y2512092D1*
X1304050Y2565551D2*
X1372109D1*
X1115570Y2444520D2*
X1159257D1*
X1173857Y2449462D1*
X1178799Y2454291D1*
X1183628Y2463949D1*
Y2473720D1*
X1178799Y2483379D1*
X1173857Y2488320D1*
X1159257Y2493149D1*
X1115570D1*
Y2391062D1*
X1149599Y2444520D2*
X1183628Y2391062D1*
X1278230Y2493149D2*
X1215001D1*
Y2391062D1*
Y2444520D2*
X1253859D1*
X1309603Y2493149D2*
Y2391062D1*
X1367890D1*
X3226082Y2389998D2*
Y2317110D1*
X3230912Y2302510D1*
X3240682Y2292852D1*
X3255282Y2287910D1*
X3264941D1*
X3279541Y2292852D1*
X3289312Y2302510D1*
X3294141Y2317110D1*
Y2389998D1*
X3325513Y2370456D2*
X3335284Y2375398D1*
X3349884Y2389886D1*
Y2287910D1*
X4894484Y1338922D2*
D68*
X4955270Y1466391D1*
X4870197D1*
X5190792Y1448282D2*
X5184756Y1460355D1*
X5166506Y1466391D1*
X5154432D1*
X5136182Y1460355D1*
X5123969Y1442105D1*
X5117932Y1411782D1*
Y1381459D1*
X5123969Y1357172D1*
X5136182Y1344959D1*
X5154432Y1338922D1*
X5160469D1*
X5178579Y1344959D1*
X5190792Y1357172D1*
X5196829Y1375422D1*
Y1381459D1*
X5190792Y1399709D1*
X5178579Y1411782D1*
X5160469Y1417818D1*
X5154432D1*
X5136182Y1411782D1*
X5123969Y1399709D1*
X5117932Y1381459D1*
X5371704Y1466391D2*
X5438387D1*
X5402027Y1417818D1*
X5420277D1*
X5432350Y1411782D1*
X5438387Y1405745D1*
X5444564Y1387495D1*
Y1375422D1*
X5438387Y1357172D1*
X5426314Y1344959D1*
X5408064Y1338922D1*
X5389814D1*
X5371704Y1344959D1*
X5365668Y1351135D1*
X5359491Y1363209D1*
X5613403Y1436068D2*
Y1442105D1*
X5619439Y1454318D1*
X5625476Y1460355D1*
X5637689Y1466391D1*
X5661976D1*
X5674049Y1460355D1*
X5680086Y1454318D1*
X5686263Y1442105D1*
Y1430032D1*
X5680086Y1417818D1*
X5668013Y1399709D1*
X5607226Y1338922D1*
X5692299D1*
X5854961Y1442105D2*
X5867175Y1448282D1*
X5885425Y1466391D1*
Y1338922D1*
X6084587Y1466391D2*
X6066337Y1460355D1*
X6054123Y1442105D1*
X6048087Y1411782D1*
Y1393532D1*
X6054123Y1363209D1*
X6066337Y1344959D1*
X6084587Y1338922D1*
X6096660D1*
X6114910Y1344959D1*
X6126983Y1363209D1*
X6133160Y1393532D1*
Y1411782D1*
X6126983Y1442105D1*
X6114910Y1460355D1*
X6096660Y1466391D1*
X6084587D1*
X6126983Y1442105D2*
X6054123Y1363209D1*
X4968236Y1905147D2*
D67*
Y1803059D1*
X5026524D1*
X5082155Y1871117D2*
X5072497Y1866288D1*
X5062726Y1856517D1*
X5057897Y1841917D1*
Y1832259D1*
X5062726Y1817659D1*
X5072497Y1808000D1*
X5082155Y1803059D1*
X5096755D1*
X5106526Y1808000D1*
X5116184Y1817659D1*
X5121126Y1832259D1*
Y1841917D1*
X5116184Y1856517D1*
X5106526Y1866288D1*
X5096755Y1871117D1*
X5082155D1*
X5152498Y1856517D2*
X5196186D1*
X5210786Y1861459D1*
X5215728Y1866288D1*
X5220557Y1875947D1*
Y1885717D1*
X5215728Y1895376D1*
X5210786Y1900317D1*
X5196186Y1905147D1*
X5152498D1*
Y1803059D1*
X5186528Y1856517D2*
X5220557Y1803059D1*
X5310217Y1871117D2*
Y1803059D1*
Y1856517D2*
X5300559Y1866288D1*
X5290788Y1871117D1*
X5276300D1*
X5266530Y1866288D1*
X5256871Y1856517D1*
X5251930Y1841917D1*
Y1832259D1*
X5256871Y1817659D1*
X5266530Y1808000D1*
X5276300Y1803059D1*
X5290788D1*
X5300559Y1808000D1*
X5310217Y1817659D1*
X5440347Y1905147D2*
Y1803059D1*
X5508405Y1905147D2*
Y1803059D1*
X5440347Y1856517D2*
X5508405D1*
X5598066Y1871117D2*
Y1803059D1*
Y1856517D2*
X5588407Y1866288D1*
X5578636Y1871117D1*
X5564149D1*
X5554378Y1866288D1*
X5544719Y1856517D1*
X5539778Y1841917D1*
Y1832259D1*
X5544719Y1817659D1*
X5554378Y1808000D1*
X5564149Y1803059D1*
X5578636D1*
X5588407Y1808000D1*
X5598066Y1817659D1*
X5644038Y1905147D2*
Y1822488D1*
X5648867Y1808000D1*
X5658638Y1803059D1*
X5668297D1*
X5629438Y1871117D2*
X5663467D1*
X5289708Y2819239D2*
D69*
X5286002Y2826567D1*
X5275136Y2837517D1*
X5351618D1*
X5293330Y2864753D2*
X5289708D1*
X5282380Y2868375D1*
X5278758Y2871997D1*
X5275136Y2879325D1*
Y2893897D1*
X5278758Y2901141D1*
X5282380Y2904762D1*
X5289708Y2908469D1*
X5296952D1*
X5304280Y2904762D1*
X5315146Y2897519D1*
X5351618Y2861047D1*
Y2912090D1*
X5289708Y3009688D2*
X5286002Y3017016D1*
X5275136Y3027966D1*
X5351618D1*
X5275136Y3058823D2*
Y3098833D1*
X5304280Y3077017D1*
Y3087967D1*
X5307902Y3095211D1*
X5311524Y3098833D1*
X5322474Y3102539D1*
X5329718D1*
X5340668Y3098833D1*
X5347996Y3091589D1*
X5351618Y3080639D1*
Y3069689D1*
X5347996Y3058823D1*
X5344289Y3055201D1*
X5337046Y3051495D1*
X5318566Y2103722D2*
D70*
X5313737Y2101308D1*
X5308851Y2096422D1*
X5306437Y2091593D1*
Y2081879D1*
X5308851Y2076993D1*
X5313737Y2072164D1*
X5318566Y2069693D1*
X5325866Y2067279D1*
X5338051D1*
X5345295Y2069693D1*
X5350181Y2072164D1*
X5355010Y2076993D1*
X5357481Y2081878D1*
Y2091593D1*
X5355010Y2096422D1*
X5350181Y2101308D1*
X5345295Y2103722D1*
X5338051D1*
Y2091593D1*
X5306437Y2153438D2*
X5357481D1*
X5306437Y2119409D1*
X5357481Y2119408D1*
X5306437Y2169124D2*
X5357481D1*
Y2186138D1*
X5355010Y2193438D1*
X5350181Y2198324D1*
X5345295Y2200738D1*
X5338051Y2203153D1*
X5325866D1*
X5318566Y2200739D1*
X5313737Y2198324D1*
X5308851Y2193439D1*
X5306437Y2186139D1*
Y2169124D1*
X5306493Y2273103D2*
Y2299776D1*
X5325922Y2285233D1*
Y2292533D1*
X5328337Y2297362D1*
X5330751Y2299776D1*
X5338051Y2302247D1*
X5342881D1*
X5350181Y2299776D1*
X5355066Y2294947D1*
X5357481Y2287647D1*
Y2280347D1*
X5355066Y2273103D1*
X5352595Y2270689D1*
X5347766Y2268218D1*
X5352595Y2320348D2*
X5355066Y2317933D1*
X5357481Y2320348D1*
X5355066Y2322819D1*
X5352595Y2320348D1*
X5306493Y2343391D2*
Y2370064D1*
X5325922Y2355520D1*
Y2362820D1*
X5328337Y2367649D1*
X5330751Y2370064D1*
X5338051Y2372534D1*
X5342881D1*
X5350181Y2370064D1*
X5355066Y2365234D1*
X5357481Y2357934D1*
Y2350634D1*
X5355066Y2343390D1*
X5352595Y2340976D1*
X5347766Y2338505D1*
X5306437Y2388221D2*
X5357481Y2407650D1*
X5306437Y2427079D1*
X3038236Y2196517D2*
D67*
X3081924D1*
X3096524Y2201459D1*
X3101466Y2206288D1*
X3106295Y2215947D1*
Y2225717D1*
X3101466Y2235376D1*
X3096524Y2240317D1*
X3081924Y2245147D1*
X3038236D1*
Y2143059D1*
X3072266Y2196517D2*
X3106295Y2143059D1*
X3205726Y2245147D2*
Y2143059D1*
X3137667Y2245147D1*
Y2143059D1*
X3242040Y2220776D2*
Y2225605D1*
X3246869Y2235376D1*
X3251698Y2240205D1*
X3261469Y2245034D1*
X3280898D1*
X3290557Y2240205D1*
X3295386Y2235376D1*
X3300328Y2225605D1*
Y2215947D1*
X3295386Y2206176D1*
X3285728Y2191688D1*
X3237098Y2143059D1*
X3305157D1*
X3385159D2*
Y2245034D1*
X3336530Y2177088D1*
X3409417D1*
X3465048Y2245034D2*
X3450561Y2240205D1*
X3445619Y2230547D1*
Y2220776D1*
X3450561Y2211117D1*
X3460219Y2206176D1*
X3479648Y2201347D1*
X3494248Y2196517D1*
X3503907Y2186747D1*
X3508736Y2177088D1*
Y2162488D1*
X3503907Y2152830D1*
X3499077Y2147888D1*
X3484477Y2143059D1*
X3465048D1*
X3450561Y2147888D1*
X3445619Y2152830D1*
X3440790Y2162488D1*
Y2177088D1*
X3445619Y2186747D1*
X3455390Y2196517D1*
X3469877Y2201347D1*
X3489307Y2206176D1*
X3499077Y2211117D1*
X3503907Y2220776D1*
Y2230547D1*
X3499077Y2240205D1*
X3484477Y2245034D1*
X3465048D1*
X3549879D2*
X3603225D1*
X3574138Y2206176D1*
X3588738D1*
X3598396Y2201347D1*
X3603225Y2196517D1*
X3608167Y2181917D1*
Y2172259D1*
X3603225Y2157659D1*
X3593567Y2147888D1*
X3578967Y2143059D1*
X3564367D1*
X3549879Y2147888D1*
X3545050Y2152830D1*
X3540108Y2162488D1*
X5676276Y1563668D2*
D69*
X5709126D1*
X5719991Y1567290D1*
X5723698Y1570996D1*
X5727320Y1578240D1*
Y1589190D1*
X5723698Y1596434D1*
X5719991Y1600140D1*
X5709126Y1603762D1*
X5676276D1*
Y1527196D1*
X5750849Y1578240D2*
Y1527196D1*
Y1556340D2*
X5754555Y1567290D1*
X5761799Y1574618D1*
X5769127Y1578240D1*
X5780077D1*
X5821800D2*
X5814556Y1574618D1*
X5807228Y1567290D1*
X5803606Y1556340D1*
Y1549096D1*
X5807228Y1538146D1*
X5814556Y1530902D1*
X5821800Y1527196D1*
X5832750D1*
X5840078Y1530902D1*
X5847322Y1538146D1*
X5851028Y1549096D1*
Y1556340D1*
X5847322Y1567290D1*
X5840078Y1574618D1*
X5832750Y1578240D1*
X5821800D1*
X5885508Y1603762D2*
Y1541768D1*
X5889130Y1530902D1*
X5896458Y1527196D1*
X5903702D1*
X5874558Y1578240D2*
X5900080D1*
X5945425D2*
X5938181Y1574618D1*
X5930853Y1567290D1*
X5927231Y1556340D1*
Y1549096D1*
X5930853Y1538146D1*
X5938181Y1530902D1*
X5945425Y1527196D1*
X5956375D1*
X5963703Y1530902D1*
X5970947Y1538146D1*
X5974653Y1549096D1*
Y1556340D1*
X5970947Y1567290D1*
X5963703Y1574618D1*
X5956375Y1578240D1*
X5945425D1*
X6009132Y1603762D2*
Y1541768D1*
X6012754Y1530902D1*
X6020082Y1527196D1*
X6027326D1*
X5998182Y1578240D2*
X6023704D1*
X6054562D2*
X6076378Y1527196D1*
X6069134Y1512624D1*
X6061806Y1505296D1*
X6054562Y1501674D1*
X6050856D1*
X6098278Y1578240D2*
X6076378Y1527196D1*
X6121807Y1578240D2*
Y1501674D1*
Y1567290D2*
X6129135Y1574534D1*
X6136379Y1578240D1*
X6147329D1*
X6154657Y1574534D1*
X6161901Y1567290D1*
X6165607Y1556340D1*
Y1549012D1*
X6161901Y1538146D1*
X6154657Y1530818D1*
X6147329Y1527196D1*
X6136379D1*
X6129135Y1530818D1*
X6121807Y1538146D1*
X6189136Y1556340D2*
X6232852D1*
Y1563668D1*
X6229230Y1570996D1*
X6225608Y1574618D1*
X6218280Y1578240D1*
X6207330D1*
X6200086Y1574618D1*
X6192758Y1567290D1*
X6189136Y1556340D1*
Y1549096D1*
X6192758Y1538146D1*
X6200086Y1530902D1*
X6207330Y1527196D1*
X6218280D1*
X6225608Y1530902D1*
X6232852Y1538146D1*
X6388821Y1527196D2*
X6359593Y1603762D1*
X6330449Y1527196D1*
X6341399Y1552718D2*
X6377871D1*
X6412351Y1578240D2*
Y1527196D1*
Y1556340D2*
X6416057Y1567290D1*
X6423301Y1574618D1*
X6430629Y1578240D1*
X6441579D1*
X6465108Y1556340D2*
X6508824D1*
Y1563668D1*
X6505202Y1570996D1*
X6501580Y1574618D1*
X6494252Y1578240D1*
X6483302D1*
X6476058Y1574618D1*
X6468730Y1567290D1*
X6465108Y1556340D1*
Y1549096D1*
X6468730Y1538146D1*
X6476058Y1530902D1*
X6483302Y1527196D1*
X6494252D1*
X6501580Y1530902D1*
X6508824Y1538146D1*
X6576069Y1578240D2*
Y1527196D1*
Y1567290D2*
X6568825Y1574618D1*
X6561497Y1578240D1*
X6550632D1*
X6543303Y1574618D1*
X6536060Y1567290D1*
X6532353Y1556340D1*
Y1549096D1*
X6536060Y1538146D1*
X6543303Y1530902D1*
X6550632Y1527196D1*
X6561497D1*
X6568825Y1530902D1*
X6576069Y1538146D1*
X6667817Y1405883D2*
Y1447998D1*
Y1471527D2*
Y1513643D1*
X6635009Y1537172D2*
X6667859Y1595460D1*
X6700625Y1537172D1*
X6787817Y1405883D2*
Y1447998D1*
Y1471527D2*
Y1513643D1*
X6755009Y1537172D2*
X6787859Y1595460D1*
X6820625Y1537172D1*
X1684315Y1175647D2*
D70*
X1706215D1*
X1713459Y1178062D1*
X1715930Y1180533D1*
X1718344Y1185362D1*
Y1192662D1*
X1715930Y1197491D1*
X1713459Y1199962D1*
X1706215Y1202377D1*
X1684315D1*
Y1151333D1*
X1734030Y1202377D2*
Y1151333D1*
X1786161Y1190247D2*
X1783746Y1195077D1*
X1778861Y1199962D1*
X1774031Y1202377D1*
X1764317D1*
X1759431Y1199962D1*
X1754602Y1195077D1*
X1752131Y1190247D1*
X1749717Y1182947D1*
Y1170762D1*
X1752131Y1163518D1*
X1754602Y1158633D1*
X1759431Y1153804D1*
X1764317Y1151333D1*
X1774031D1*
X1778861Y1153804D1*
X1783746Y1158633D1*
X1786161Y1163518D1*
X1801847Y1202377D2*
Y1151333D1*
X1826161Y1185362D2*
X1801847Y1161047D1*
X1811561Y1170762D2*
X1828576Y1151333D1*
X1844262Y1202377D2*
X1846677Y1199962D1*
X1849148Y1202377D1*
X1846677Y1204847D1*
X1844262Y1202377D1*
X1846677Y1185362D2*
Y1151333D1*
X1872134Y1202377D2*
Y1161047D1*
X1874549Y1153804D1*
X1879434Y1151333D1*
X1884263D1*
X1864834Y1185362D2*
X1881849D1*
X1904835Y1202320D2*
X1931508D1*
X1916964Y1182891D1*
X1924264D1*
X1929093Y1180477D1*
X1931508Y1178062D1*
X1933979Y1170762D1*
Y1165933D1*
X1931508Y1158633D1*
X1926679Y1153747D1*
X1919379Y1151333D1*
X1912079D1*
X1904835Y1153747D1*
X1902420Y1156218D1*
X1899949Y1161047D1*
X1684315Y1112377D2*
Y1061333D1*
X1718344Y1112377D2*
Y1061333D1*
X1684315Y1088062D2*
X1718344D1*
X1734030Y1080762D2*
X1763174D1*
Y1085647D1*
X1760760Y1090533D1*
X1758345Y1092947D1*
X1753460Y1095362D1*
X1746160D1*
X1741330Y1092947D1*
X1736445Y1088062D1*
X1734030Y1080762D1*
Y1075933D1*
X1736445Y1068633D1*
X1741330Y1063804D1*
X1746160Y1061333D1*
X1753460D1*
X1758345Y1063804D1*
X1763174Y1068633D1*
X1808004Y1095362D2*
Y1061333D1*
Y1088062D2*
X1803175Y1092947D1*
X1798290Y1095362D1*
X1791046D1*
X1786161Y1092947D1*
X1781331Y1088062D1*
X1778861Y1080762D1*
Y1075933D1*
X1781331Y1068633D1*
X1786161Y1063804D1*
X1791046Y1061333D1*
X1798290D1*
X1803175Y1063804D1*
X1808004Y1068633D1*
X1852834Y1112377D2*
Y1061333D1*
Y1088062D2*
X1848005Y1092947D1*
X1843120Y1095362D1*
X1835820D1*
X1830991Y1092947D1*
X1826105Y1088062D1*
X1823691Y1080762D1*
Y1075933D1*
X1826105Y1068633D1*
X1830991Y1063804D1*
X1835820Y1061333D1*
X1843120D1*
X1848005Y1063804D1*
X1852834Y1068633D1*
X1868521Y1080762D2*
X1897665D1*
Y1085647D1*
X1895250Y1090533D1*
X1892835Y1092947D1*
X1887950Y1095362D1*
X1880650D1*
X1875821Y1092947D1*
X1870935Y1088062D1*
X1868521Y1080762D1*
Y1075933D1*
X1870935Y1068633D1*
X1875821Y1063804D1*
X1880650Y1061333D1*
X1887950D1*
X1892835Y1063804D1*
X1897665Y1068633D1*
X1913351Y1095362D2*
Y1061333D1*
Y1080762D2*
X1915822Y1088062D1*
X1920651Y1092947D1*
X1925536Y1095362D1*
X1932836D1*
X1997901Y1086827D2*
X2025978D1*
X2041664Y1108699D2*
X2080523Y1086799D1*
X2041664Y1064955D1*
X3568236Y1205605D2*
D67*
X3578007Y1210547D1*
X3592607Y1225034D1*
Y1123059D1*
X2189991Y1223677D2*
D69*
X2153604D1*
X2149982Y1190912D1*
X2153604Y1194534D1*
X2164554Y1198240D1*
X2175420D1*
X2186370Y1194534D1*
X2193698Y1187290D1*
X2197320Y1176340D1*
Y1169096D1*
X2193698Y1158146D1*
X2186370Y1150818D1*
X2175420Y1147196D1*
X2164554D1*
X2153604Y1150818D1*
X2149982Y1154524D1*
X2146276Y1161768D1*
X4384315Y1188062D2*
D70*
X4406159D1*
X4413459Y1190533D1*
X4415930Y1192947D1*
X4418344Y1197777D1*
Y1202662D1*
X4415930Y1207491D1*
X4413459Y1209962D1*
X4406159Y1212377D1*
X4384315D1*
Y1161333D1*
X4401330Y1188062D2*
X4418344Y1161333D1*
X4468060Y1212377D2*
Y1161333D1*
X4434030Y1212377D1*
Y1161333D1*
X4486217Y1200191D2*
Y1202606D1*
X4488631Y1207491D1*
X4491046Y1209906D1*
X4495931Y1212320D1*
X4505646D1*
X4510475Y1209906D1*
X4512890Y1207491D1*
X4515361Y1202606D1*
Y1197777D1*
X4512890Y1192891D1*
X4508061Y1185647D1*
X4483746Y1161333D1*
X4517775D1*
X4557776D2*
Y1212320D1*
X4533461Y1178347D1*
X4569905D1*
X4597721Y1212320D2*
X4590477Y1209906D1*
X4588006Y1205077D1*
Y1200191D1*
X4590477Y1195362D1*
X4595306Y1192891D1*
X4605021Y1190477D1*
X4612321Y1188062D1*
X4617150Y1183177D1*
X4619565Y1178347D1*
Y1171047D1*
X4617150Y1166218D1*
X4614735Y1163747D1*
X4607435Y1161333D1*
X4597721D1*
X4590477Y1163747D1*
X4588006Y1166218D1*
X4585592Y1171047D1*
Y1178347D1*
X4588006Y1183177D1*
X4592892Y1188062D1*
X4600135Y1190477D1*
X4609850Y1192891D1*
X4614735Y1195362D1*
X4617150Y1200191D1*
Y1205077D1*
X4614735Y1209906D1*
X4607435Y1212320D1*
X4597721D1*
X4640136D2*
X4666809D1*
X4652266Y1192891D1*
X4659566D1*
X4664395Y1190477D1*
X4666809Y1188062D1*
X4669280Y1180762D1*
Y1175933D1*
X4666809Y1168633D1*
X4661980Y1163747D1*
X4654680Y1161333D1*
X4647380D1*
X4640136Y1163747D1*
X4637722Y1166218D1*
X4635251Y1171047D1*
X4363173Y1108699D2*
X4324315Y1086799D1*
X4363173Y1064955D1*
X4378860Y1086827D2*
X4406937D1*
X4422623D2*
X4450700D1*
X4515765Y1088062D2*
X4537608D1*
X4544908Y1090533D1*
X4547379Y1092947D1*
X4549794Y1097777D1*
Y1102662D1*
X4547379Y1107491D1*
X4544908Y1109962D1*
X4537608Y1112377D1*
X4515765D1*
Y1061333D1*
X4532779Y1088062D2*
X4549794Y1061333D1*
X4565480Y1080762D2*
X4594624D1*
Y1085647D1*
X4592209Y1090533D1*
X4589795Y1092947D1*
X4584909Y1095362D1*
X4577609D1*
X4572780Y1092947D1*
X4567895Y1088062D1*
X4565480Y1080762D1*
Y1075933D1*
X4567895Y1068633D1*
X4572780Y1063804D1*
X4577609Y1061333D1*
X4584909D1*
X4589795Y1063804D1*
X4594624Y1068633D1*
X4637039Y1088062D2*
X4634625Y1092947D1*
X4627325Y1095362D1*
X4620025D1*
X4612725Y1092947D1*
X4610310Y1088062D1*
X4612725Y1083233D1*
X4617610Y1080762D1*
X4629739Y1078347D1*
X4634625Y1075933D1*
X4637039Y1071047D1*
Y1068633D1*
X4634625Y1063804D1*
X4627325Y1061333D1*
X4620025D1*
X4612725Y1063804D1*
X4610310Y1068633D1*
X4652726Y1080762D2*
X4681870D1*
Y1085647D1*
X4679455Y1090533D1*
X4677040Y1092947D1*
X4672155Y1095362D1*
X4664855D1*
X4660026Y1092947D1*
X4655140Y1088062D1*
X4652726Y1080762D1*
Y1075933D1*
X4655140Y1068633D1*
X4660026Y1063804D1*
X4664855Y1061333D1*
X4672155D1*
X4677040Y1063804D1*
X4681870Y1068633D1*
X4704856Y1112377D2*
Y1071047D1*
X4707270Y1063804D1*
X4712156Y1061333D1*
X4716985D1*
X4697556Y1095362D2*
X4714570D1*
X1651649Y2760920D2*
D69*
X1655271Y2750054D1*
X1662515Y2746348D1*
X1669843D1*
X1677087Y2750054D1*
X1680793Y2757298D1*
X1684415Y2771870D1*
X1688037Y2782820D1*
X1695365Y2790064D1*
X1702609Y2793685D1*
X1713559D1*
X1720803Y2790064D1*
X1724509Y2786442D1*
X1728131Y2775492D1*
Y2760920D1*
X1724509Y2750054D1*
X1720803Y2746348D1*
X1713559Y2742726D1*
X1702609D1*
X1695365Y2746348D1*
X1688037Y2753676D1*
X1684415Y2764542D1*
X1680793Y2779114D1*
X1677087Y2786442D1*
X1669843Y2790064D1*
X1662515D1*
X1655271Y2786442D1*
X1651649Y2775492D1*
Y2760920D1*
X1662515Y2860931D2*
X1655271Y2857309D1*
X1651649Y2846359D1*
Y2839115D1*
X1655271Y2828165D1*
X1666221Y2820837D1*
X1684415Y2817215D1*
X1702609D1*
X1717181Y2820837D1*
X1724509Y2828165D1*
X1728131Y2839115D1*
Y2842737D1*
X1724509Y2853602D1*
X1717181Y2860931D1*
X1706231Y2864552D1*
X1702609D1*
X1691659Y2860931D1*
X1684415Y2853603D1*
X1680793Y2842737D1*
Y2839115D1*
X1684415Y2828165D1*
X1691659Y2820837D1*
X1702609Y2817215D1*
X1651649Y2906276D2*
X1655271Y2895410D1*
X1662515Y2891704D1*
X1669843D1*
X1677087Y2895410D1*
X1680793Y2902654D1*
X1684415Y2917226D1*
X1688037Y2928176D1*
X1695365Y2935420D1*
X1702609Y2939041D1*
X1713559D1*
X1720803Y2935420D1*
X1724509Y2931798D1*
X1728131Y2920848D1*
Y2906276D1*
X1724509Y2895410D1*
X1720803Y2891704D1*
X1713559Y2888082D1*
X1702609D1*
X1695365Y2891704D1*
X1688037Y2899032D1*
X1684415Y2909898D1*
X1680793Y2924470D1*
X1677087Y2931798D1*
X1669843Y2935420D1*
X1662515D1*
X1655271Y2931798D1*
X1651649Y2920848D1*
Y2906276D1*
X1728131Y3020859D2*
X1651565D1*
X1728131Y2991715D1*
X1651565Y2962571D1*
X1728131D1*
X1651565Y3044388D2*
X1728131D1*
X1651565Y3095432D2*
X1728131D1*
X1688037Y3044388D2*
Y3095432D1*
X1677087Y3118961D2*
Y3159055D1*
X1728131Y3118961D1*
Y3159055D1*
Y1779198D2*
X1651649D1*
X1702609Y1742726D1*
Y1797392D1*
X1651649Y1828249D2*
Y1868259D1*
X1680793Y1846443D1*
Y1857393D1*
X1684415Y1864637D1*
X1688037Y1868259D1*
X1698987Y1871965D1*
X1706231D1*
X1717181Y1868259D1*
X1724509Y1861015D1*
X1728131Y1850065D1*
Y1839115D1*
X1724509Y1828249D1*
X1720803Y1824627D1*
X1713559Y1820921D1*
X1651649Y1902822D2*
Y1942832D1*
X1680793Y1921016D1*
Y1931966D1*
X1684415Y1939210D1*
X1688037Y1942832D1*
X1698987Y1946538D1*
X1706231D1*
X1717181Y1942832D1*
X1724509Y1935588D1*
X1728131Y1924638D1*
Y1913688D1*
X1724509Y1902822D1*
X1720803Y1899200D1*
X1713559Y1895494D1*
X1728131Y2028355D2*
X1651565D1*
X1728131Y1999211D1*
X1651565Y1970067D1*
X1728131D1*
X1651565Y2051885D2*
X1728131Y2051884D1*
X1651565Y2102928D2*
X1728131D1*
X1688037Y2051885D2*
Y2102928D1*
X1677087Y2126458D2*
Y2166552D1*
X1728131Y2126458D1*
Y2166552D1*
M02*
