G04 DipTrace 3.1.0.0*
G04 Bottom.gbr*
%MOMM*%
G04 #@! TF.FileFunction,Copper,L2,Bot*
G04 #@! TF.Part,Single*
G04 #@! TA.AperFunction,Conductor*
%ADD10C,0.254*%
%ADD15C,0.508*%
G04 #@! TA.AperFunction,CopperBalancing*
%ADD16C,0.635*%
G04 #@! TA.AperFunction,Conductor*
%ADD17C,0.381*%
%ADD18C,0.1778*%
G04 #@! TA.AperFunction,ViaPad*
%ADD20C,0.8*%
G04 #@! TA.AperFunction,CopperBalancing*
%ADD21C,0.33*%
%ADD22R,4.06X1.52*%
%ADD24R,1.5X1.3*%
%ADD25R,1.8X1.6*%
G04 #@! TA.AperFunction,ComponentPad*
%ADD26R,1.5X1.5*%
%ADD27C,1.5*%
%ADD28C,1.5*%
%ADD30R,1.0X1.1*%
%ADD38R,0.6X1.1*%
%FSLAX35Y35*%
G04*
G71*
G90*
G75*
G01*
G04 Bottom*
%LPD*%
X3287334Y2657334D2*
D15*
Y2786667D1*
X3132334Y1147001D2*
Y1680667D1*
X3129334Y1683667D1*
X2816001D1*
X2811667Y1679334D1*
X3949001Y2873001D2*
Y2569667D1*
X3952334Y2566334D1*
X3287334Y2657334D2*
X3711001D1*
X3807001Y2561334D1*
X3947334D1*
X3952334Y2566334D1*
D16*
X4306001D1*
X4312001Y2560334D1*
X4570334D1*
X4740001Y2730001D1*
X5180001D1*
X5530001Y2380001D1*
X2957334Y2230001D2*
Y2547334D1*
X3067334Y2657334D1*
X3287334D1*
X2878334Y1147001D2*
D17*
Y1301667D1*
X2600001Y1580001D1*
Y1700001D1*
Y1900001D1*
X2781001D1*
X2811667Y1869334D1*
X1200001Y1700001D2*
X1400001D1*
X1600001D1*
X1800001D1*
X2200001D1*
X2400001D1*
Y1900001D1*
X1200001D2*
X1400001D1*
X1600001D1*
X2200001D1*
X1600001Y2100001D2*
X2200001D1*
X2400001D1*
X2600001D1*
X1600001Y2300001D2*
X2200001D1*
X2400001D1*
X2600001D1*
Y2100001D1*
Y1900001D1*
X2400001D2*
Y2100001D1*
X2600001Y2700001D2*
Y2900001D1*
X2400001D1*
X2600001Y2700001D2*
Y2500001D1*
X1400001Y3300001D2*
X1600001D1*
X1800001D1*
Y3100001D1*
X2200001D1*
X1600001Y2900001D2*
X2000001D1*
X2200001D1*
X2400001D1*
X2200001Y3100001D2*
Y2900001D1*
X1600001Y2700001D2*
X2200001D1*
X2400001D1*
X2600001D1*
X2200001Y2500001D2*
X2400001D1*
X2600001D1*
Y2300001D1*
X2200001Y1900001D2*
X2400001D1*
X2600001D1*
X2400001Y1700001D2*
X2600001D1*
X1246334Y2242001D2*
X1542001D1*
X1600001Y2300001D1*
X1241334Y2751001D2*
X1549001D1*
X1600001Y2700001D1*
X2891001Y2952667D2*
X2652667D1*
X2600001Y2900001D1*
X2891001Y2952667D2*
X3285001D1*
X3288667Y2949001D1*
X3287334Y2467334D2*
X3572667D1*
X3680001Y2360001D1*
X3936001D1*
X3952334Y2376334D1*
X3840001Y1670001D2*
Y2100001D1*
X3960001Y2220001D1*
Y2368667D1*
X3952334Y2376334D1*
X2351667Y3771001D2*
X2351001D1*
X2230001Y3650001D1*
Y3070001D1*
X2400001Y2900001D1*
X2859667Y3517001D2*
Y3569667D1*
X2930001Y3640001D1*
X3236667D1*
X3367667Y3771001D1*
Y3827667D1*
X3450001Y3910001D1*
X3990667D1*
X4129667Y3771001D1*
Y3819667D1*
X4210001Y3900001D1*
X4730001D1*
X4760001Y3870001D1*
Y3648667D1*
X4891667Y3517001D1*
X4907001D1*
X5020001Y3630001D1*
Y3870001D1*
X5060001Y3910001D1*
X5260667D1*
X5399667Y3771001D1*
Y3809667D1*
X5500001Y3910001D1*
X5768667D1*
X5907667Y3771001D1*
Y3777667D1*
X6030001Y3900001D1*
X6520001D1*
X6540001Y3880001D1*
Y3646667D1*
X6669667Y3517001D1*
X4044001Y3143001D2*
X4027001D1*
X4050001Y3120001D1*
Y3300001D1*
X4320001D1*
X4610001Y3010001D1*
X4891667Y3517001D2*
Y3291667D1*
X4610001Y3010001D1*
X3952334Y2376334D2*
D16*
X4306001D1*
X4312001Y2370334D1*
X4480001D1*
X2000001Y3300001D2*
Y3100001D1*
X5530001Y2126001D2*
D18*
X5271361D1*
X4900691Y2496671D1*
X4606337D1*
X4480001Y2370334D1*
X3270001Y2450001D2*
D17*
X3287334Y2467334D1*
X4364001Y1890001D2*
D10*
X4370001D1*
Y1640001D1*
X4481334Y1641334D2*
Y1771334D1*
X4590001Y1880001D1*
X4698667D1*
X4688667Y1890001D1*
X3659001Y2958667D2*
X3797667D1*
X3847001Y3008001D1*
X4117001D1*
X4138667Y3029667D1*
Y3142667D1*
X4139001Y3143001D1*
X3129334Y1873667D2*
D15*
X3338667D1*
X3382334Y1830001D1*
Y1151001D1*
X3386334Y1147001D1*
X2831001Y2042334D2*
D18*
X3107001D1*
X3128001Y2021334D1*
Y1875001D1*
X3129334Y1873667D1*
X3386334Y1147001D2*
X4437001D1*
X4780001Y1490001D1*
X5370001D1*
X5530001Y1650001D1*
Y1820001D2*
X5600001D1*
X5690001Y1910001D1*
Y3350001D1*
X5720001Y3380001D1*
X6278667D1*
X6415667Y3517001D1*
X4890001Y2255001D2*
Y2281334D1*
X4688667Y2080001D1*
X4364001D2*
X4500001D1*
X4530001Y2110001D1*
Y2130001D1*
X4830001Y2430001D1*
X1843667Y3771001D2*
D15*
X2097667D1*
X2891001Y3142667D2*
X3285001D1*
X3288667Y3139001D1*
X3649334D1*
X3659001Y3148667D1*
X3943334D1*
X3949001Y3143001D1*
X2891001Y3142667D2*
Y3251001D1*
X2740001Y3402001D1*
Y3855667D1*
X2702001Y3893667D1*
X2220334D1*
X2097667Y3771001D1*
X2891001Y3142667D2*
D18*
Y3150001D1*
D16*
X2560001D1*
D20*
X3287334Y2786667D3*
X2957334Y2230001D3*
X3840001Y1670001D3*
X4610001Y3010001D3*
X4370001Y1640001D3*
X4481334Y1641334D3*
X2831001Y2042334D3*
X4890001Y2255001D3*
X4830001Y2430001D3*
X1600001Y2700001D3*
X2400001Y2500001D3*
X1600001Y2900001D3*
X2000001D3*
X2200001D3*
X2400001D3*
X2200001Y2700001D3*
Y2500001D3*
Y2300001D3*
Y2100001D3*
X2400001Y2700001D3*
X2200001Y1900001D3*
X1600001Y2300001D3*
X2200001Y1700001D3*
X1800001D3*
X1600001D3*
X1800001Y3100001D3*
X1400001Y1900001D3*
Y1700001D3*
X1600001Y2100001D3*
X1200001Y1900001D3*
Y1700001D3*
X2400001Y2300001D3*
Y2100001D3*
Y1900001D3*
Y1700001D3*
X1600001Y1900001D3*
Y3300001D3*
X1400001D3*
X1800001D3*
X2200001Y3100001D3*
X2600001Y2700001D3*
Y2500001D3*
Y2300001D3*
Y2100001D3*
Y1900001D3*
Y1700001D3*
X2000001Y3100001D3*
Y3300001D3*
X1800001Y2300001D3*
Y2100001D3*
Y1900001D3*
X2000001Y1700001D3*
X4480001Y2370334D3*
X1608964Y3864484D2*
D16*
X1751291D1*
X1936137D2*
X2005291D1*
X2952137D2*
X3000154D1*
X3227344D2*
X3275291D1*
X3460137D2*
X3508154D1*
X3735344D2*
X3762037D1*
X3989344D2*
X4037291D1*
X4222137D2*
X4270154D1*
X4497344D2*
X4524037D1*
X4751344D2*
X4778037D1*
X5005344D2*
X5032037D1*
X5259344D2*
X5307291D1*
X5492137D2*
X5540154D1*
X5767344D2*
X5815291D1*
X6000137D2*
X6048154D1*
X6275344D2*
X6302037D1*
X6529344D2*
X6556037D1*
X6783344D2*
X6890701D1*
X1651254Y3801317D2*
X1713961D1*
X6815094D2*
X6848407D1*
X1676061Y3738151D2*
X1714581D1*
X1687097Y3674984D2*
X1754144D1*
X1933284D2*
X2008144D1*
X2187284D2*
X2262144D1*
X2441284D2*
X2516144D1*
X2949284D2*
X3002317D1*
X3224987D2*
X3278144D1*
X3457284D2*
X3510317D1*
X3732987D2*
X3764317D1*
X3986987D2*
X4040144D1*
X4219284D2*
X4272317D1*
X4494987D2*
X4526317D1*
X4748987D2*
X4780317D1*
X5002987D2*
X5034317D1*
X5256987D2*
X5310144D1*
X5489284D2*
X5542317D1*
X5764987D2*
X5818144D1*
X5997284D2*
X6050317D1*
X6272987D2*
X6304317D1*
X6526987D2*
X6558317D1*
X6780987D2*
X6812491D1*
X2210104Y3611817D2*
X2239141D1*
X2464104D2*
X2493141D1*
X2950647D2*
X3001201D1*
X3226104D2*
X3255141D1*
X3480104D2*
X3509141D1*
X3734104D2*
X3763141D1*
X3988104D2*
X4017141D1*
X4242104D2*
X4271141D1*
X4496104D2*
X4525141D1*
X4750104D2*
X4800781D1*
X4982647D2*
X5033201D1*
X5258104D2*
X5287141D1*
X5512104D2*
X5541141D1*
X5766104D2*
X5795141D1*
X6020104D2*
X6049141D1*
X6274104D2*
X6324781D1*
X6506647D2*
X6578781D1*
X6760647D2*
X6813681D1*
X1672464Y3548651D2*
X1694961D1*
X6799097D2*
X6827137D1*
X1644804Y3485484D2*
X1694984D1*
X6799097D2*
X6854857D1*
X1078764Y3422317D2*
X1100881D1*
X1598421D2*
X1694984D1*
X2210227D2*
X2239147D1*
X2464227D2*
X2493147D1*
X2950774D2*
X3001077D1*
X3226227D2*
X3255147D1*
X3480227D2*
X3509147D1*
X3734227D2*
X3763147D1*
X3988227D2*
X4017147D1*
X4242227D2*
X4271147D1*
X4496227D2*
X4525147D1*
X4750227D2*
X4800534D1*
X4982774D2*
X5033077D1*
X5258227D2*
X5287147D1*
X5512227D2*
X5541147D1*
X6506774D2*
X6578534D1*
X6760774D2*
X6901241D1*
X1078764Y3359151D2*
X1181901D1*
X1517434D2*
X2669191D1*
X2898684D2*
X5623427D1*
X6464357D2*
X6509701D1*
X6718357D2*
X6763701D1*
X1078764Y3295984D2*
X2730211D1*
X2960321D2*
X5622684D1*
X1078764Y3232817D2*
X2411594D1*
X3024444D2*
X3155237D1*
X3422061D2*
X3525571D1*
X3792394D2*
X3860557D1*
X4227471D2*
X5622684D1*
X1078764Y3169651D2*
X2411594D1*
X4227471D2*
X5429827D1*
X1078764Y3106484D2*
X2411594D1*
X4227471D2*
X5398574D1*
X5954991D2*
X6003064D1*
X6208991D2*
X6257064D1*
X6462991D2*
X6511064D1*
X6716991D2*
X6765064D1*
X6970991D2*
X7019064D1*
X7224991D2*
X7273064D1*
X1078764Y3043317D2*
X2411594D1*
X2708431D2*
X2757617D1*
X3024444D2*
X3155237D1*
X3422061D2*
X3525571D1*
X4227471D2*
X5403287D1*
X1078764Y2980151D2*
X2411594D1*
X2708431D2*
X2757617D1*
X3024444D2*
X3155237D1*
X3422061D2*
X3525571D1*
X4242601D2*
X5450414D1*
X1078764Y2916984D2*
X2411594D1*
X2708431D2*
X2757617D1*
X3024444D2*
X3155237D1*
X3422061D2*
X3525571D1*
X4242601D2*
X5396591D1*
X1502797Y2853817D2*
X2411594D1*
X2708431D2*
X2757617D1*
X3024444D2*
X3155237D1*
X3422061D2*
X3525571D1*
X3792394D2*
X3860557D1*
X4242601D2*
X5396591D1*
X5953504D2*
X6004551D1*
X6207504D2*
X6258551D1*
X6461504D2*
X6512551D1*
X6715504D2*
X6766551D1*
X6969504D2*
X7020551D1*
X7223504D2*
X7274551D1*
X1502797Y2790651D2*
X2411594D1*
X2708431D2*
X3188971D1*
X3385724D2*
X3860557D1*
X4242601D2*
X4675887D1*
X5244214D2*
X5396591D1*
X1502797Y2727484D2*
X3015214D1*
X3750104D2*
X3865271D1*
X4032754D2*
X4612637D1*
X5307341D2*
X5396591D1*
X1502797Y2664317D2*
X2949484D1*
X4085711D2*
X4178554D1*
X4445377D2*
X4549507D1*
X5370471D2*
X5622684D1*
X1078764Y2601151D2*
X2886727D1*
X4735967D2*
X5184014D1*
X5433721D2*
X5622684D1*
X5952014D2*
X6006041D1*
X6206014D2*
X6260041D1*
X6460014D2*
X6514041D1*
X6714014D2*
X6768041D1*
X6968014D2*
X7022041D1*
X7222014D2*
X7276041D1*
X1078764Y2537984D2*
X2867254D1*
X3072811D2*
X3153874D1*
X3420697D2*
X3714461D1*
X4672837D2*
X5247141D1*
X5496851D2*
X5622684D1*
X1078764Y2474817D2*
X2867254D1*
X3047511D2*
X3153874D1*
X3420697D2*
X3818887D1*
X4085711D2*
X4178554D1*
X4445377D2*
X4743234D1*
X4916791D2*
X5310394D1*
X1078764Y2411651D2*
X2867254D1*
X3047511D2*
X3153874D1*
X3420697D2*
X3818887D1*
X4085711D2*
X4178554D1*
X4445377D2*
X4719174D1*
X4926591D2*
X5373521D1*
X1507761Y2348484D2*
X2867254D1*
X3047511D2*
X3818887D1*
X4085711D2*
X4178554D1*
X4445377D2*
X4655921D1*
X4879087D2*
X5396591D1*
X5950404D2*
X6007527D1*
X6204404D2*
X6261527D1*
X6458404D2*
X6515527D1*
X6712404D2*
X6769527D1*
X6966404D2*
X7023527D1*
X7220404D2*
X7277527D1*
X1507761Y2285317D2*
X2867254D1*
X3047511D2*
X3818887D1*
X4085711D2*
X4178554D1*
X4445377D2*
X4592794D1*
X4983267D2*
X5396591D1*
X1507761Y2222151D2*
X2859194D1*
X3055447D2*
X4529664D1*
X4714634D2*
X4738244D1*
X4982401D2*
X5440617D1*
X1507761Y2158984D2*
X2892431D1*
X3022334D2*
X4230521D1*
X4860114D2*
X5400931D1*
X1078764Y2095817D2*
X2749681D1*
X3142514D2*
X4230521D1*
X4822037D2*
X5400187D1*
X5948791D2*
X6009141D1*
X6202791D2*
X6263141D1*
X6456791D2*
X6517141D1*
X6710791D2*
X6771141D1*
X6964791D2*
X7025141D1*
X7218791D2*
X7279141D1*
X1078764Y2032651D2*
X2733061D1*
X3194231D2*
X4230521D1*
X4822037D2*
X5437394D1*
X1078764Y1969484D2*
X2678244D1*
X2945067D2*
X2995867D1*
X3262814D2*
X4230521D1*
X4497467D2*
X4555214D1*
X4822037D2*
X5622684D1*
X1078764Y1906317D2*
X2678244D1*
X2945067D2*
X2995867D1*
X3421937D2*
X4230521D1*
X4497467D2*
X4518471D1*
X4822037D2*
X5421641D1*
X1078764Y1843151D2*
X2678244D1*
X2945067D2*
X2995867D1*
X3464974D2*
X4230521D1*
X4822037D2*
X5421641D1*
X5715627D2*
X5756877D1*
X5947177D2*
X6010754D1*
X6201177D2*
X6264754D1*
X6455177D2*
X6518754D1*
X6709177D2*
X6772754D1*
X6963177D2*
X7026754D1*
X7217177D2*
X7280754D1*
X1078764Y1779984D2*
X2678244D1*
X2945067D2*
X2995867D1*
X3262814D2*
X3298607D1*
X3466091D2*
X4230521D1*
X4822037D2*
X5421641D1*
X5652501D2*
X5711734D1*
X1078764Y1716817D2*
X2678244D1*
X3262814D2*
X3298607D1*
X3466091D2*
X4298857D1*
X4552411D2*
X5421641D1*
X5638361D2*
X5704167D1*
X1078764Y1653651D2*
X1211171D1*
X1488164D2*
X2678244D1*
X3262814D2*
X3298607D1*
X3466091D2*
X4272564D1*
X4578951D2*
X5421641D1*
X5638361D2*
X5726864D1*
X1078764Y1590484D2*
X1115251D1*
X1584034D2*
X2678244D1*
X2945067D2*
X2995867D1*
X3262814D2*
X3298607D1*
X3466091D2*
X4286084D1*
X4564441D2*
X5377984D1*
X5638361D2*
X5830794D1*
X5873261D2*
X6084794D1*
X6127261D2*
X6338794D1*
X6381261D2*
X6592794D1*
X6635261D2*
X6846794D1*
X6889261D2*
X6915684D1*
X1636124Y1527317D2*
X3048577D1*
X3216184D2*
X3298607D1*
X3466091D2*
X4724754D1*
X5499827D2*
X6863414D1*
X1667501Y1464151D2*
X3048577D1*
X3216184D2*
X3298607D1*
X3466091D2*
X4661627D1*
X5436697D2*
X6831911D1*
X1683997Y1400984D2*
X3048577D1*
X3216184D2*
X3298607D1*
X3466091D2*
X4598497D1*
X4783467D2*
X6815417D1*
X1687967Y1337817D2*
X3048577D1*
X3216184D2*
X3298607D1*
X3466091D2*
X4535247D1*
X4720337D2*
X6811447D1*
X1679657Y1274651D2*
X3048577D1*
X3216184D2*
X3298607D1*
X3466091D2*
X4472117D1*
X4657211D2*
X4828811D1*
X4951147D2*
X5082811D1*
X5205147D2*
X5336811D1*
X5459147D2*
X5590811D1*
X5713147D2*
X5844811D1*
X5967147D2*
X6026627D1*
X6293451D2*
X6819634D1*
X1658324Y1211484D2*
X2254454D1*
X2486181D2*
X2508587D1*
X2740181D2*
X2762587D1*
X2994181D2*
X3016587D1*
X3519791D2*
X4408991D1*
X4593957D2*
X4767417D1*
X6293451D2*
X6840841D1*
X1620621Y1148317D2*
X2236967D1*
X4530831D2*
X4757124D1*
X6293451D2*
X6878421D1*
X1557617Y1085151D2*
X2252967D1*
X3519791D2*
X4780937D1*
X6293451D2*
X6941177D1*
X1072301Y2370071D2*
X1501404D1*
Y2113931D1*
X1072307D1*
X1072351Y1531764D1*
X1097151Y1564671D1*
X1114847Y1583821D1*
X1133997Y1601517D1*
X1154474Y1617661D1*
X1176154Y1632147D1*
X1198904Y1644891D1*
X1222584Y1655804D1*
X1247047Y1664831D1*
X1272144Y1671907D1*
X1297717Y1676994D1*
X1323614Y1680061D1*
X1349667Y1681084D1*
X1375721Y1680061D1*
X1401617Y1676994D1*
X1427191Y1671907D1*
X1452287Y1664831D1*
X1476751Y1655804D1*
X1500431Y1644891D1*
X1523181Y1632147D1*
X1544861Y1617661D1*
X1565337Y1601517D1*
X1584487Y1583821D1*
X1602184Y1564671D1*
X1618327Y1544194D1*
X1632814Y1522514D1*
X1645557Y1499764D1*
X1656471Y1476084D1*
X1665497Y1451621D1*
X1672574Y1426524D1*
X1677661Y1400951D1*
X1680727Y1375054D1*
X1681751Y1349001D1*
X1680727Y1322947D1*
X1677661Y1297051D1*
X1672574Y1271477D1*
X1665497Y1246381D1*
X1656471Y1221917D1*
X1645557Y1198237D1*
X1632814Y1175487D1*
X1618327Y1153807D1*
X1602184Y1133331D1*
X1584487Y1114181D1*
X1565337Y1096484D1*
X1532921Y1072361D1*
X2267437Y1072351D1*
X2257114Y1089311D1*
X2249484Y1107734D1*
X2244827Y1127124D1*
X2243264Y1147001D1*
X2244827Y1166877D1*
X2249484Y1186267D1*
X2257114Y1204691D1*
X2267531Y1221691D1*
X2280481Y1236854D1*
X2295644Y1249804D1*
X2312644Y1260221D1*
X2331067Y1267851D1*
X2350457Y1272507D1*
X2370334Y1274071D1*
X2390211Y1272507D1*
X2409601Y1267851D1*
X2428024Y1260221D1*
X2445024Y1249804D1*
X2460187Y1236854D1*
X2473137Y1221691D1*
X2483554Y1204691D1*
X2491184Y1186267D1*
X2495841Y1166877D1*
X2497294Y1149767D1*
X2498827Y1166877D1*
X2503484Y1186267D1*
X2511114Y1204691D1*
X2521531Y1221691D1*
X2534481Y1236854D1*
X2549644Y1249804D1*
X2566644Y1260221D1*
X2585067Y1267851D1*
X2604457Y1272507D1*
X2624334Y1274071D1*
X2644211Y1272507D1*
X2663601Y1267851D1*
X2682024Y1260221D1*
X2699024Y1249804D1*
X2714187Y1236854D1*
X2727137Y1221691D1*
X2737554Y1204691D1*
X2745184Y1186267D1*
X2749841Y1166877D1*
X2751294Y1149767D1*
X2752817Y1166817D1*
X2757187Y1185341D1*
X2764271Y1203004D1*
X2773917Y1219414D1*
X2785901Y1234197D1*
X2799961Y1247024D1*
X2815781Y1257607D1*
X2833001Y1265711D1*
X2851241Y1271147D1*
X2870087Y1273804D1*
X2889117Y1273611D1*
X2907907Y1270581D1*
X2926034Y1264777D1*
X2943087Y1256334D1*
X2958691Y1245434D1*
X2972494Y1232331D1*
X2984181Y1217307D1*
X2993494Y1200711D1*
X3000224Y1182911D1*
X3004221Y1164301D1*
X3005331Y1151054D1*
X3006827Y1166877D1*
X3011484Y1186267D1*
X3019114Y1204691D1*
X3029531Y1221691D1*
X3042481Y1236854D1*
X3054921Y1247654D1*
X3054864Y1566571D1*
X3002264Y1566597D1*
Y1606161D1*
X2938737Y1605904D1*
Y1562264D1*
X2684597D1*
Y1986404D1*
X2757847D1*
X2748967Y2000534D1*
X2743437Y2013884D1*
X2740064Y2027931D1*
X2738931Y2042334D1*
X2740064Y2056737D1*
X2743437Y2070784D1*
X2748967Y2084134D1*
X2756514Y2096451D1*
X2765897Y2107437D1*
X2776884Y2116821D1*
X2789201Y2124367D1*
X2802551Y2129897D1*
X2816597Y2133271D1*
X2831001Y2134404D1*
X2845404Y2133271D1*
X2859451Y2129897D1*
X2872801Y2124367D1*
X2885117Y2116821D1*
X2899957Y2103271D1*
X3116537Y2102544D1*
X3130331Y2098654D1*
X3142831Y2091651D1*
X3150107Y2085441D1*
X3177317Y2057164D1*
X3184321Y2044664D1*
X3188211Y2030871D1*
X3188961Y2021334D1*
Y1990701D1*
X3256404Y1990737D1*
Y1951174D1*
X3344744Y1950897D1*
X3362607Y1947347D1*
X3379144Y1939721D1*
X3393447Y1928447D1*
X3394011Y1927837D1*
X3441244Y1880314D1*
X3451361Y1865171D1*
X3457664Y1848087D1*
X3459804Y1830001D1*
X3459771Y1829171D1*
X3459804Y1274004D1*
X3513404Y1274071D1*
Y1207967D1*
X4411884Y1207961D1*
X4740411Y1536354D1*
X4752324Y1544317D1*
X4765771Y1549277D1*
X4780841Y1550927D1*
X5344681Y1550961D1*
X5428011Y1634221D1*
X5427931Y1927071D1*
X5620934D1*
X5629071Y1935281D1*
X5629041Y2046304D1*
X5613911Y2030574D1*
X5598717Y2019114D1*
X5581981Y2010047D1*
X5564081Y2003587D1*
X5545414Y1999867D1*
X5526401Y1998981D1*
X5507471Y2000944D1*
X5489047Y2005711D1*
X5471541Y2013177D1*
X5455344Y2023174D1*
X5440824Y2035477D1*
X5428304Y2049814D1*
X5418067Y2065857D1*
X5410337Y2083251D1*
X5405294Y2101601D1*
X5403051Y2120501D1*
X5403651Y2139524D1*
X5407091Y2158241D1*
X5413284Y2176237D1*
X5422094Y2193107D1*
X5433327Y2208471D1*
X5446731Y2221984D1*
X5462001Y2233344D1*
X5478794Y2242297D1*
X5496741Y2248641D1*
X5515431Y2252234D1*
X5524951Y2252931D1*
X5402931D1*
Y2388487D1*
X5145284Y2646177D1*
X4774567Y2646181D1*
X4624771Y2496597D1*
X4608387Y2485651D1*
X4589901Y2478831D1*
X4570334Y2476514D1*
X4569487Y2476547D1*
X4438994Y2476514D1*
X4439071Y2253264D1*
X4184931D1*
Y2482534D1*
X4079411Y2482514D1*
X4079404Y2259264D1*
X3825264D1*
Y2483867D1*
X3794881Y2484817D1*
X3777354Y2489761D1*
X3761464Y2498661D1*
X3752221Y2506554D1*
X3678817Y2579957D1*
X3414461Y2579864D1*
X3414404Y2350264D1*
X3160264D1*
Y2573627D1*
X3101917Y2573514D1*
X3041097Y2512557D1*
X3041154Y2268157D1*
X3046861Y2251494D1*
X3049121Y2237224D1*
Y2222777D1*
X3046861Y2208507D1*
X3042394Y2194767D1*
X3035837Y2181894D1*
X3027344Y2170207D1*
X3017127Y2159991D1*
X3005441Y2151497D1*
X2992567Y2144941D1*
X2978827Y2140474D1*
X2964557Y2138214D1*
X2950111D1*
X2935841Y2140474D1*
X2922101Y2144941D1*
X2909227Y2151497D1*
X2897541Y2159991D1*
X2887324Y2170207D1*
X2878831Y2181894D1*
X2872274Y2194767D1*
X2867807Y2208507D1*
X2865547Y2222777D1*
Y2237224D1*
X2867807Y2251494D1*
X2873537Y2267977D1*
X2873771Y2553911D1*
X2877617Y2573237D1*
X2885864Y2591131D1*
X2898064Y2606604D1*
X2898687Y2607181D1*
X3012897Y2721071D1*
X3029281Y2732017D1*
X3047767Y2738837D1*
X3067334Y2741154D1*
X3068181Y2741121D1*
X3160227Y2741154D1*
X3160264Y2774404D1*
X3196107D1*
X3195547Y2793891D1*
X3197807Y2808161D1*
X3202274Y2821901D1*
X3207244Y2831941D1*
X3161597Y2831931D1*
Y3065227D1*
X3017977Y3065197D1*
X3018071Y2835597D1*
X2763931D1*
Y3066154D1*
X2702114Y3066181D1*
X2702071Y3017931D1*
X2417931D1*
Y3282071D1*
X2702071D1*
Y3233824D1*
X2764021Y3233821D1*
X2763931Y3259737D1*
X2772737D1*
X2681091Y3351687D1*
X2670974Y3366831D1*
X2664671Y3383914D1*
X2664471Y3384917D1*
X2664671Y3383914D1*
X2664471Y3384917D1*
X2660121Y3385541D1*
X2638884Y3378641D1*
X2616831Y3375151D1*
X2594504D1*
X2572451Y3378641D1*
X2551214Y3385541D1*
X2531321Y3395677D1*
X2513257Y3408804D1*
X2497471Y3424591D1*
X2484344Y3442654D1*
X2478447Y3452404D1*
X2466784Y3433364D1*
X2452281Y3416387D1*
X2435304Y3401884D1*
X2416264Y3390221D1*
X2395637Y3381674D1*
X2373927Y3376464D1*
X2351667Y3374711D1*
X2329407Y3376464D1*
X2307697Y3381674D1*
X2287071Y3390221D1*
X2268031Y3401884D1*
X2251054Y3416387D1*
X2236551Y3433364D1*
X2224684Y3452837D1*
X2212784Y3433364D1*
X2198281Y3416387D1*
X2181304Y3401884D1*
X2162264Y3390221D1*
X2141637Y3381674D1*
X2119927Y3376464D1*
X2097667Y3374711D1*
X2075407Y3376464D1*
X2053697Y3381674D1*
X2033071Y3390221D1*
X2014031Y3401884D1*
X1997054Y3416387D1*
X1985984Y3429011D1*
X1985957Y3374711D1*
X1701377D1*
Y3659291D1*
X1783111D1*
X1768977Y3668197D1*
X1753814Y3681147D1*
X1740864Y3696311D1*
X1730447Y3713311D1*
X1722817Y3731734D1*
X1718161Y3751124D1*
X1716597Y3771001D1*
X1718161Y3790877D1*
X1722817Y3810267D1*
X1730447Y3828691D1*
X1740864Y3845691D1*
X1753814Y3860854D1*
X1768977Y3873804D1*
X1785977Y3884221D1*
X1804401Y3891851D1*
X1823791Y3896507D1*
X1843667Y3898071D1*
X1863544Y3896507D1*
X1882934Y3891851D1*
X1901357Y3884221D1*
X1918357Y3873804D1*
X1933521Y3860854D1*
X1944321Y3848414D1*
X1996837Y3848471D1*
X2007814Y3860854D1*
X2022977Y3873804D1*
X2039977Y3884221D1*
X2058401Y3891851D1*
X2077791Y3896507D1*
X2097667Y3898071D1*
X2114101Y3896914D1*
X2144704Y3927597D1*
X1530837Y3927651D1*
X1565337Y3901851D1*
X1584487Y3884154D1*
X1602184Y3865004D1*
X1618327Y3844527D1*
X1632814Y3822847D1*
X1645557Y3800097D1*
X1656471Y3776417D1*
X1665497Y3751954D1*
X1672574Y3726857D1*
X1677661Y3701284D1*
X1680727Y3675387D1*
X1681751Y3649334D1*
X1680727Y3623281D1*
X1677661Y3597384D1*
X1672574Y3571811D1*
X1665497Y3546714D1*
X1656471Y3522251D1*
X1645557Y3498571D1*
X1632814Y3475821D1*
X1618327Y3454141D1*
X1602184Y3433664D1*
X1584487Y3414514D1*
X1565337Y3396817D1*
X1544861Y3380674D1*
X1523181Y3366187D1*
X1500431Y3353444D1*
X1476751Y3342531D1*
X1452287Y3333504D1*
X1427191Y3326427D1*
X1401617Y3321341D1*
X1375721Y3318274D1*
X1349667Y3317251D1*
X1323614Y3318274D1*
X1297717Y3321341D1*
X1272144Y3326427D1*
X1247047Y3333504D1*
X1222584Y3342531D1*
X1198904Y3353444D1*
X1176154Y3366187D1*
X1154474Y3380674D1*
X1133997Y3396817D1*
X1114847Y3414514D1*
X1097151Y3433664D1*
X1072347Y3467097D1*
X1072354Y2879154D1*
X1496404Y2879071D1*
Y2622931D1*
X1072317D1*
X1072351Y2370164D1*
X2967951Y3259737D2*
X3018071D1*
Y3220174D1*
X3161497Y3220137D1*
X3161597Y3256071D1*
X3415737D1*
Y3216507D1*
X3531877Y3216471D1*
X3531931Y3265737D1*
X3786071D1*
Y3226174D1*
X3866931Y3226431D1*
Y3250071D1*
X4221071D1*
Y3035931D1*
X4203337D1*
X4202641Y3019534D1*
X4198507Y3004881D1*
X4193527Y2995281D1*
X4236291Y2995291D1*
Y2750711D1*
X4041711D1*
Y2943317D1*
X4031071Y2916571D1*
Y2765931D1*
X4026484D1*
X4026471Y2683367D1*
X4079404Y2683404D1*
Y2650041D1*
X4184877Y2650154D1*
X4184931Y2677404D1*
X4439071D1*
Y2644041D1*
X4535614Y2644154D1*
X4685564Y2793737D1*
X4701947Y2804684D1*
X4720434Y2811504D1*
X4740001Y2813821D1*
X4740847Y2813787D1*
X5186577Y2813564D1*
X5205904Y2809717D1*
X5223797Y2801471D1*
X5239271Y2789271D1*
X5239847Y2788647D1*
X5521394Y2507147D1*
X5629027Y2507071D1*
X5629041Y2702884D1*
X5402931Y2702931D1*
Y2957071D1*
X5520031Y2957324D1*
X5500337Y2960441D1*
X5481374Y2966604D1*
X5463607Y2975657D1*
X5447474Y2987377D1*
X5433377Y3001474D1*
X5421657Y3017607D1*
X5412604Y3035374D1*
X5406441Y3054337D1*
X5403324Y3074031D1*
Y3093971D1*
X5406441Y3113664D1*
X5412604Y3132627D1*
X5421657Y3150394D1*
X5433377Y3166527D1*
X5447474Y3180624D1*
X5463607Y3192344D1*
X5481374Y3201397D1*
X5500337Y3207561D1*
X5520031Y3210677D1*
X5539971D1*
X5559664Y3207561D1*
X5578627Y3201397D1*
X5596394Y3192344D1*
X5612527Y3180624D1*
X5629064Y3163434D1*
X5629791Y3359537D1*
X5634157Y3374364D1*
X5631407Y3376464D1*
X5609697Y3381674D1*
X5589071Y3390221D1*
X5570031Y3401884D1*
X5553054Y3416387D1*
X5538551Y3433364D1*
X5526684Y3452837D1*
X5514784Y3433364D1*
X5500281Y3416387D1*
X5483304Y3401884D1*
X5464264Y3390221D1*
X5443637Y3381674D1*
X5421927Y3376464D1*
X5399667Y3374711D1*
X5377407Y3376464D1*
X5355697Y3381674D1*
X5335071Y3390221D1*
X5316031Y3401884D1*
X5299054Y3416387D1*
X5284551Y3433364D1*
X5272684Y3452837D1*
X5260784Y3433364D1*
X5246281Y3416387D1*
X5229304Y3401884D1*
X5210264Y3390221D1*
X5189637Y3381674D1*
X5167927Y3376464D1*
X5145667Y3374711D1*
X5123407Y3376464D1*
X5101697Y3381674D1*
X5081071Y3390221D1*
X5062031Y3401884D1*
X5045054Y3416387D1*
X5030551Y3433364D1*
X5018887Y3452404D1*
X5010597Y3472334D1*
X5003197Y3456111D1*
X4992854Y3440137D1*
X4980237Y3425884D1*
X4965637Y3413677D1*
X4949374Y3403791D1*
X4931817Y3396441D1*
X4913361Y3391797D1*
X4894417Y3389961D1*
X4875414Y3390974D1*
X4856774Y3394817D1*
X4838914Y3401397D1*
X4822241Y3410574D1*
X4807124Y3422137D1*
X4793904Y3435827D1*
X4782877Y3451341D1*
X4774291Y3468324D1*
X4772764Y3472281D1*
X4764447Y3452404D1*
X4752784Y3433364D1*
X4738281Y3416387D1*
X4721304Y3401884D1*
X4702264Y3390221D1*
X4681637Y3381674D1*
X4659927Y3376464D1*
X4637667Y3374711D1*
X4615407Y3376464D1*
X4593697Y3381674D1*
X4573071Y3390221D1*
X4554031Y3401884D1*
X4537054Y3416387D1*
X4522551Y3433364D1*
X4510684Y3452837D1*
X4498784Y3433364D1*
X4484281Y3416387D1*
X4467304Y3401884D1*
X4448264Y3390221D1*
X4427637Y3381674D1*
X4405927Y3376464D1*
X4383667Y3374711D1*
X4361407Y3376464D1*
X4339697Y3381674D1*
X4319071Y3390221D1*
X4300031Y3401884D1*
X4283054Y3416387D1*
X4268551Y3433364D1*
X4256684Y3452837D1*
X4244784Y3433364D1*
X4230281Y3416387D1*
X4213304Y3401884D1*
X4194264Y3390221D1*
X4173637Y3381674D1*
X4151927Y3376464D1*
X4129667Y3374711D1*
X4107407Y3376464D1*
X4085697Y3381674D1*
X4065071Y3390221D1*
X4046031Y3401884D1*
X4029054Y3416387D1*
X4014551Y3433364D1*
X4002684Y3452837D1*
X3990784Y3433364D1*
X3976281Y3416387D1*
X3959304Y3401884D1*
X3940264Y3390221D1*
X3919637Y3381674D1*
X3897927Y3376464D1*
X3875667Y3374711D1*
X3853407Y3376464D1*
X3831697Y3381674D1*
X3811071Y3390221D1*
X3792031Y3401884D1*
X3775054Y3416387D1*
X3760551Y3433364D1*
X3748684Y3452837D1*
X3736784Y3433364D1*
X3722281Y3416387D1*
X3705304Y3401884D1*
X3686264Y3390221D1*
X3665637Y3381674D1*
X3643927Y3376464D1*
X3621667Y3374711D1*
X3599407Y3376464D1*
X3577697Y3381674D1*
X3557071Y3390221D1*
X3538031Y3401884D1*
X3521054Y3416387D1*
X3506551Y3433364D1*
X3494684Y3452837D1*
X3482784Y3433364D1*
X3468281Y3416387D1*
X3451304Y3401884D1*
X3432264Y3390221D1*
X3411637Y3381674D1*
X3389927Y3376464D1*
X3367667Y3374711D1*
X3345407Y3376464D1*
X3323697Y3381674D1*
X3303071Y3390221D1*
X3284031Y3401884D1*
X3267054Y3416387D1*
X3252551Y3433364D1*
X3240684Y3452837D1*
X3228784Y3433364D1*
X3214281Y3416387D1*
X3197304Y3401884D1*
X3178264Y3390221D1*
X3157637Y3381674D1*
X3135927Y3376464D1*
X3113667Y3374711D1*
X3091407Y3376464D1*
X3069697Y3381674D1*
X3049071Y3390221D1*
X3030031Y3401884D1*
X3013054Y3416387D1*
X2998551Y3433364D1*
X2986887Y3452404D1*
X2978597Y3472334D1*
X2971197Y3456111D1*
X2960854Y3440137D1*
X2948237Y3425884D1*
X2933637Y3413677D1*
X2917374Y3403791D1*
X2899817Y3396441D1*
X2881361Y3391797D1*
X2861551Y3389964D1*
X2949911Y3301314D1*
X2960027Y3286171D1*
X2966331Y3269087D1*
X2967637Y3262104D1*
X3415737Y3061477D2*
Y2831931D1*
X3367494D1*
X3374897Y2815117D1*
X3378271Y2801071D1*
X3379404Y2786667D1*
X3378527Y2774424D1*
X3414404Y2774404D1*
Y2734841D1*
X3717077Y2734564D1*
X3734941Y2731014D1*
X3751477Y2723387D1*
X3765781Y2712114D1*
X3766344Y2711504D1*
X3825327Y2652567D1*
X3825264Y2683404D1*
X3871524D1*
X3871531Y2765997D1*
X3866931Y2765931D1*
Y2936461D1*
X3835737Y2906267D1*
X3822454Y2898827D1*
X3807801Y2894694D1*
X3797667Y2893897D1*
X3786134D1*
X3786071Y2841597D1*
X3531931D1*
Y3061491D1*
X3415797Y3061531D1*
X3415737Y3021621D1*
X2938737Y1796404D2*
Y1761104D1*
X3002161Y1761137D1*
X3002264Y1981401D1*
X2938701Y1981374D1*
X2938737Y1764154D1*
X2424281Y3002071D2*
X2702071D1*
Y2737931D1*
X2417931D1*
Y3002071D1*
X2424281D1*
X7012834Y3347177D2*
X6976487Y3366187D1*
X6954807Y3380674D1*
X6934331Y3396817D1*
X6915181Y3414514D1*
X6897484Y3433664D1*
X6881341Y3454141D1*
X6866854Y3475821D1*
X6854111Y3498571D1*
X6843197Y3522251D1*
X6834171Y3546714D1*
X6827094Y3571811D1*
X6822007Y3597384D1*
X6818941Y3623281D1*
X6817917Y3649334D1*
X6818941Y3675387D1*
X6822007Y3701284D1*
X6827094Y3726857D1*
X6834171Y3751954D1*
X6843197Y3776417D1*
X6854111Y3800097D1*
X6866854Y3822847D1*
X6881341Y3844527D1*
X6897484Y3865004D1*
X6915181Y3884154D1*
X6934331Y3901851D1*
X6954807Y3917994D1*
X6969287Y3927671D1*
X2777521Y3927651D1*
X2798911Y3905981D1*
X2809027Y3890837D1*
X2809454Y3889911D1*
X2809027Y3890837D1*
X2811041Y3888397D1*
X2830004Y3894561D1*
X2849697Y3897677D1*
X2869637D1*
X2889331Y3894561D1*
X2908294Y3888397D1*
X2926061Y3879344D1*
X2942194Y3867624D1*
X2956291Y3853527D1*
X2968011Y3837394D1*
X2977064Y3819627D1*
X2978561Y3815571D1*
X2986887Y3835597D1*
X2998551Y3854637D1*
X3013054Y3871614D1*
X3030031Y3886117D1*
X3049071Y3897781D1*
X3069697Y3906327D1*
X3091407Y3911537D1*
X3113667Y3913291D1*
X3135927Y3911537D1*
X3157637Y3906327D1*
X3178264Y3897781D1*
X3197304Y3886117D1*
X3214281Y3871614D1*
X3228784Y3854637D1*
X3240447Y3835597D1*
X3248737Y3815667D1*
X3256544Y3832634D1*
X3266997Y3848537D1*
X3279707Y3862704D1*
X3294391Y3874814D1*
X3310717Y3884594D1*
X3328321Y3891827D1*
X3346807Y3896347D1*
X3365764Y3898057D1*
X3384761Y3896914D1*
X3403377Y3892951D1*
X3421191Y3886247D1*
X3437804Y3876961D1*
X3452841Y3865297D1*
X3465971Y3851521D1*
X3476894Y3835934D1*
X3486587Y3815667D1*
X3494887Y3835597D1*
X3506551Y3854637D1*
X3521054Y3871614D1*
X3538031Y3886117D1*
X3557071Y3897781D1*
X3577697Y3906327D1*
X3599407Y3911537D1*
X3621667Y3913291D1*
X3643927Y3911537D1*
X3665637Y3906327D1*
X3686264Y3897781D1*
X3705304Y3886117D1*
X3722281Y3871614D1*
X3736784Y3854637D1*
X3748651Y3835164D1*
X3760551Y3854637D1*
X3775054Y3871614D1*
X3792031Y3886117D1*
X3811071Y3897781D1*
X3831697Y3906327D1*
X3853407Y3911537D1*
X3875667Y3913291D1*
X3897927Y3911537D1*
X3919637Y3906327D1*
X3940264Y3897781D1*
X3959304Y3886117D1*
X3976281Y3871614D1*
X3990784Y3854637D1*
X4002447Y3835597D1*
X4010737Y3815667D1*
X4018544Y3832634D1*
X4028997Y3848537D1*
X4041707Y3862704D1*
X4056391Y3874814D1*
X4072717Y3884594D1*
X4090321Y3891827D1*
X4108807Y3896347D1*
X4127764Y3898057D1*
X4146761Y3896914D1*
X4165377Y3892951D1*
X4183191Y3886247D1*
X4199804Y3876961D1*
X4214841Y3865297D1*
X4227971Y3851521D1*
X4238894Y3835934D1*
X4248587Y3815667D1*
X4256887Y3835597D1*
X4268551Y3854637D1*
X4283054Y3871614D1*
X4300031Y3886117D1*
X4319071Y3897781D1*
X4339697Y3906327D1*
X4361407Y3911537D1*
X4383667Y3913291D1*
X4405927Y3911537D1*
X4427637Y3906327D1*
X4448264Y3897781D1*
X4467304Y3886117D1*
X4484281Y3871614D1*
X4498784Y3854637D1*
X4510651Y3835164D1*
X4522551Y3854637D1*
X4537054Y3871614D1*
X4554031Y3886117D1*
X4573071Y3897781D1*
X4593697Y3906327D1*
X4615407Y3911537D1*
X4637667Y3913291D1*
X4659927Y3911537D1*
X4681637Y3906327D1*
X4702264Y3897781D1*
X4721304Y3886117D1*
X4738281Y3871614D1*
X4752784Y3854637D1*
X4764651Y3835164D1*
X4776551Y3854637D1*
X4791054Y3871614D1*
X4808031Y3886117D1*
X4827071Y3897781D1*
X4847697Y3906327D1*
X4869407Y3911537D1*
X4891667Y3913291D1*
X4913927Y3911537D1*
X4935637Y3906327D1*
X4956264Y3897781D1*
X4975304Y3886117D1*
X4992281Y3871614D1*
X5006784Y3854637D1*
X5018651Y3835164D1*
X5030551Y3854637D1*
X5045054Y3871614D1*
X5062031Y3886117D1*
X5081071Y3897781D1*
X5101697Y3906327D1*
X5123407Y3911537D1*
X5145667Y3913291D1*
X5167927Y3911537D1*
X5189637Y3906327D1*
X5210264Y3897781D1*
X5229304Y3886117D1*
X5246281Y3871614D1*
X5260784Y3854637D1*
X5272447Y3835597D1*
X5280737Y3815667D1*
X5288544Y3832634D1*
X5298997Y3848537D1*
X5311707Y3862704D1*
X5326391Y3874814D1*
X5342717Y3884594D1*
X5360321Y3891827D1*
X5378807Y3896347D1*
X5397764Y3898057D1*
X5416761Y3896914D1*
X5435377Y3892951D1*
X5453191Y3886247D1*
X5469804Y3876961D1*
X5484841Y3865297D1*
X5497971Y3851521D1*
X5508894Y3835934D1*
X5518587Y3815667D1*
X5526887Y3835597D1*
X5538551Y3854637D1*
X5553054Y3871614D1*
X5570031Y3886117D1*
X5589071Y3897781D1*
X5609697Y3906327D1*
X5631407Y3911537D1*
X5653667Y3913291D1*
X5675927Y3911537D1*
X5697637Y3906327D1*
X5718264Y3897781D1*
X5737304Y3886117D1*
X5754281Y3871614D1*
X5768784Y3854637D1*
X5780447Y3835597D1*
X5788737Y3815667D1*
X5796544Y3832634D1*
X5806997Y3848537D1*
X5819707Y3862704D1*
X5834391Y3874814D1*
X5850717Y3884594D1*
X5868321Y3891827D1*
X5886807Y3896347D1*
X5905764Y3898057D1*
X5924761Y3896914D1*
X5943377Y3892951D1*
X5961191Y3886247D1*
X5977804Y3876961D1*
X5992841Y3865297D1*
X6005971Y3851521D1*
X6016894Y3835934D1*
X6026587Y3815667D1*
X6034887Y3835597D1*
X6046551Y3854637D1*
X6061054Y3871614D1*
X6078031Y3886117D1*
X6097071Y3897781D1*
X6117697Y3906327D1*
X6139407Y3911537D1*
X6161667Y3913291D1*
X6183927Y3911537D1*
X6205637Y3906327D1*
X6226264Y3897781D1*
X6245304Y3886117D1*
X6262281Y3871614D1*
X6276784Y3854637D1*
X6288651Y3835164D1*
X6300551Y3854637D1*
X6315054Y3871614D1*
X6332031Y3886117D1*
X6351071Y3897781D1*
X6371697Y3906327D1*
X6393407Y3911537D1*
X6415667Y3913291D1*
X6437927Y3911537D1*
X6459637Y3906327D1*
X6480264Y3897781D1*
X6499304Y3886117D1*
X6516281Y3871614D1*
X6530784Y3854637D1*
X6542651Y3835164D1*
X6554551Y3854637D1*
X6569054Y3871614D1*
X6586031Y3886117D1*
X6605071Y3897781D1*
X6625697Y3906327D1*
X6647407Y3911537D1*
X6669667Y3913291D1*
X6691927Y3911537D1*
X6713637Y3906327D1*
X6734264Y3897781D1*
X6753304Y3886117D1*
X6770281Y3871614D1*
X6784784Y3854637D1*
X6796447Y3835597D1*
X6804994Y3814971D1*
X6810204Y3793261D1*
X6811957Y3771001D1*
X6810204Y3748741D1*
X6804994Y3727031D1*
X6796447Y3706404D1*
X6784784Y3687364D1*
X6770281Y3670387D1*
X6753304Y3655884D1*
X6734264Y3644221D1*
X6714334Y3635931D1*
X6734421Y3626334D1*
X6750024Y3615434D1*
X6763827Y3602331D1*
X6775514Y3587307D1*
X6784827Y3570711D1*
X6791557Y3552911D1*
X6795554Y3534301D1*
X6796737Y3517001D1*
X6795311Y3498021D1*
X6791067Y3479467D1*
X6784101Y3461757D1*
X6774567Y3445287D1*
X6762677Y3430424D1*
X6748704Y3417504D1*
X6732957Y3406814D1*
X6715791Y3398597D1*
X6697587Y3393037D1*
X6678761Y3390257D1*
X6661191Y3390241D1*
X6678597Y3382781D1*
X6697637Y3371117D1*
X6714614Y3356614D1*
X6729117Y3339637D1*
X6740984Y3320164D1*
X6752884Y3339637D1*
X6767387Y3356614D1*
X6784364Y3371117D1*
X6803404Y3382781D1*
X6824031Y3391327D1*
X6845741Y3396537D1*
X6868001Y3398291D1*
X6890261Y3396537D1*
X6911971Y3391327D1*
X6932597Y3382781D1*
X6951637Y3371117D1*
X6968614Y3356614D1*
X6983117Y3339637D1*
X6994984Y3320164D1*
X7006884Y3339637D1*
X7012694Y3347004D1*
X6965907Y1072367D2*
X6933997Y1096151D1*
X6914847Y1113847D1*
X6897151Y1132997D1*
X6881007Y1153474D1*
X6866521Y1175154D1*
X6853777Y1197904D1*
X6842864Y1221584D1*
X6833837Y1246047D1*
X6826761Y1271144D1*
X6821674Y1296717D1*
X6818607Y1322614D1*
X6817584Y1348667D1*
X6818607Y1374721D1*
X6821674Y1400617D1*
X6826761Y1426191D1*
X6833837Y1451287D1*
X6842864Y1475751D1*
X6853777Y1499431D1*
X6866521Y1522181D1*
X6881007Y1543861D1*
X6897151Y1564337D1*
X6914847Y1583487D1*
X6933997Y1601184D1*
X6954474Y1617327D1*
X6976154Y1631814D1*
X7006951Y1648267D1*
X6995017Y1667837D1*
X6983117Y1648364D1*
X6968614Y1631387D1*
X6951637Y1616884D1*
X6932597Y1605221D1*
X6911971Y1596674D1*
X6890261Y1591464D1*
X6868001Y1589711D1*
X6845741Y1591464D1*
X6824031Y1596674D1*
X6803404Y1605221D1*
X6784364Y1616884D1*
X6767387Y1631387D1*
X6752884Y1648364D1*
X6741017Y1667837D1*
X6729117Y1648364D1*
X6714614Y1631387D1*
X6697637Y1616884D1*
X6678597Y1605221D1*
X6657971Y1596674D1*
X6636261Y1591464D1*
X6614001Y1589711D1*
X6591741Y1591464D1*
X6570031Y1596674D1*
X6549404Y1605221D1*
X6530364Y1616884D1*
X6513387Y1631387D1*
X6498884Y1648364D1*
X6487017Y1667837D1*
X6475117Y1648364D1*
X6460614Y1631387D1*
X6443637Y1616884D1*
X6424597Y1605221D1*
X6403971Y1596674D1*
X6382261Y1591464D1*
X6360001Y1589711D1*
X6337741Y1591464D1*
X6316031Y1596674D1*
X6295404Y1605221D1*
X6276364Y1616884D1*
X6259387Y1631387D1*
X6244884Y1648364D1*
X6233017Y1667837D1*
X6221117Y1648364D1*
X6206614Y1631387D1*
X6189637Y1616884D1*
X6170597Y1605221D1*
X6149971Y1596674D1*
X6128261Y1591464D1*
X6106001Y1589711D1*
X6083741Y1591464D1*
X6062031Y1596674D1*
X6041404Y1605221D1*
X6022364Y1616884D1*
X6005387Y1631387D1*
X5990884Y1648364D1*
X5979017Y1667837D1*
X5967117Y1648364D1*
X5952614Y1631387D1*
X5935637Y1616884D1*
X5916597Y1605221D1*
X5895971Y1596674D1*
X5874261Y1591464D1*
X5852001Y1589711D1*
X5829741Y1591464D1*
X5808031Y1596674D1*
X5787404Y1605221D1*
X5768364Y1616884D1*
X5751387Y1631387D1*
X5736884Y1648364D1*
X5725221Y1667404D1*
X5716674Y1688031D1*
X5711464Y1709741D1*
X5709711Y1732001D1*
X5711464Y1754261D1*
X5716674Y1775971D1*
X5725221Y1796597D1*
X5736884Y1815637D1*
X5751387Y1832614D1*
X5768364Y1847117D1*
X5787837Y1858984D1*
X5768364Y1870884D1*
X5751387Y1885387D1*
X5747447Y1889647D1*
X5741977Y1878147D1*
X5733107Y1866894D1*
X5635831Y1770684D1*
X5634914Y1770071D1*
X5635831Y1770684D1*
X5632071Y1757071D1*
Y1542931D1*
X5509164D1*
X5405831Y1440684D1*
X5393331Y1433681D1*
X5379537Y1429791D1*
X5370001Y1429041D1*
X4805321D1*
X4476591Y1100647D1*
X4464677Y1092684D1*
X4451231Y1087724D1*
X4436161Y1086074D1*
X3513397Y1086041D1*
X3513404Y1072284D1*
X4798014Y1072351D1*
X4787197Y1085311D1*
X4776781Y1102311D1*
X4769151Y1120734D1*
X4764494Y1140124D1*
X4762931Y1160001D1*
X4764494Y1179877D1*
X4769151Y1199267D1*
X4776781Y1217691D1*
X4787197Y1234691D1*
X4800147Y1249854D1*
X4815311Y1262804D1*
X4832311Y1273221D1*
X4850734Y1280851D1*
X4870124Y1285507D1*
X4890001Y1287071D1*
X4909877Y1285507D1*
X4929267Y1280851D1*
X4947691Y1273221D1*
X4964691Y1262804D1*
X4979854Y1249854D1*
X4992804Y1234691D1*
X5003221Y1217691D1*
X5010851Y1199267D1*
X5015507Y1179877D1*
X5016961Y1162767D1*
X5018494Y1179877D1*
X5023151Y1199267D1*
X5030781Y1217691D1*
X5041197Y1234691D1*
X5054147Y1249854D1*
X5069311Y1262804D1*
X5086311Y1273221D1*
X5104734Y1280851D1*
X5124124Y1285507D1*
X5144001Y1287071D1*
X5163877Y1285507D1*
X5183267Y1280851D1*
X5201691Y1273221D1*
X5218691Y1262804D1*
X5233854Y1249854D1*
X5246804Y1234691D1*
X5257221Y1217691D1*
X5264851Y1199267D1*
X5269507Y1179877D1*
X5270961Y1162767D1*
X5272494Y1179877D1*
X5277151Y1199267D1*
X5284781Y1217691D1*
X5295197Y1234691D1*
X5308147Y1249854D1*
X5323311Y1262804D1*
X5340311Y1273221D1*
X5358734Y1280851D1*
X5378124Y1285507D1*
X5398001Y1287071D1*
X5417877Y1285507D1*
X5437267Y1280851D1*
X5455691Y1273221D1*
X5472691Y1262804D1*
X5487854Y1249854D1*
X5500804Y1234691D1*
X5511221Y1217691D1*
X5518851Y1199267D1*
X5523507Y1179877D1*
X5524961Y1162767D1*
X5526494Y1179877D1*
X5531151Y1199267D1*
X5538781Y1217691D1*
X5549197Y1234691D1*
X5562147Y1249854D1*
X5577311Y1262804D1*
X5594311Y1273221D1*
X5612734Y1280851D1*
X5632124Y1285507D1*
X5652001Y1287071D1*
X5671877Y1285507D1*
X5691267Y1280851D1*
X5709691Y1273221D1*
X5726691Y1262804D1*
X5741854Y1249854D1*
X5754804Y1234691D1*
X5765221Y1217691D1*
X5772851Y1199267D1*
X5777507Y1179877D1*
X5778961Y1162767D1*
X5780494Y1179877D1*
X5785151Y1199267D1*
X5792781Y1217691D1*
X5803197Y1234691D1*
X5816147Y1249854D1*
X5831311Y1262804D1*
X5848311Y1273221D1*
X5866734Y1280851D1*
X5886124Y1285507D1*
X5906001Y1287071D1*
X5925877Y1285507D1*
X5945267Y1280851D1*
X5963691Y1273221D1*
X5980691Y1262804D1*
X5995854Y1249854D1*
X6008804Y1234691D1*
X6019221Y1217691D1*
X6026851Y1199267D1*
X6031507Y1179877D1*
X6032931Y1163544D1*
Y1287071D1*
X6287071D1*
X6287411Y1072351D1*
X6965447D1*
X1904157Y3659291D2*
X1985957D1*
Y3605091D1*
X1997054Y3617614D1*
X2014031Y3632117D1*
X2033071Y3643781D1*
X2053001Y3652071D1*
X2031274Y3662657D1*
X2015141Y3674377D1*
X2001044Y3688474D1*
X1997014Y3693587D1*
X1944497Y3693531D1*
X1933521Y3681147D1*
X1918357Y3668197D1*
X1904041Y3659284D1*
X2142334Y3652071D2*
X2162264Y3643781D1*
X2181304Y3632117D1*
X2198281Y3617614D1*
X2212784Y3600637D1*
X2224651Y3581164D1*
X2236551Y3600637D1*
X2251054Y3617614D1*
X2268031Y3632117D1*
X2287071Y3643781D1*
X2307001Y3652071D1*
X2287644Y3661237D1*
X2271967Y3672031D1*
X2258081Y3685047D1*
X2246291Y3699987D1*
X2236867Y3716524D1*
X2230017Y3734281D1*
X2225897Y3752861D1*
X2224684Y3767311D1*
X2223174Y3751124D1*
X2218517Y3731734D1*
X2210887Y3713311D1*
X2200471Y3696311D1*
X2187521Y3681147D1*
X2172357Y3668197D1*
X2155357Y3657781D1*
X2142237Y3652107D1*
X2396334Y3652071D2*
X2416264Y3643781D1*
X2435304Y3632117D1*
X2452281Y3617614D1*
X2466784Y3600637D1*
X2478651Y3581164D1*
X2490551Y3600637D1*
X2505054Y3617614D1*
X2522031Y3632117D1*
X2541071Y3643781D1*
X2561001Y3652071D1*
X2539274Y3662657D1*
X2523141Y3674377D1*
X2509044Y3688474D1*
X2497324Y3704607D1*
X2488271Y3722374D1*
X2482107Y3741337D1*
X2478991Y3761031D1*
X2478577Y3764654D1*
X2476207Y3745771D1*
X2471041Y3727451D1*
X2463197Y3710111D1*
X2452854Y3694137D1*
X2440237Y3679884D1*
X2425637Y3667677D1*
X2409374Y3657791D1*
X2396367Y3652084D1*
X2817444Y3636807D2*
X2838807Y3642347D1*
X2855954Y3643984D1*
X2839791Y3645494D1*
X2817437Y3651244D1*
X2876761Y3642914D1*
X2895377Y3638951D1*
X2913191Y3632247D1*
X2929804Y3622961D1*
X2944841Y3611297D1*
X2957971Y3597521D1*
X2968894Y3581934D1*
X2978587Y3561667D1*
X2986887Y3581597D1*
X2998551Y3600637D1*
X3013054Y3617614D1*
X3030031Y3632117D1*
X3049504Y3643984D1*
X3030031Y3655884D1*
X3013054Y3670387D1*
X2998551Y3687364D1*
X2986887Y3706404D1*
X2978597Y3726334D1*
X2968011Y3704607D1*
X2956291Y3688474D1*
X2942194Y3674377D1*
X2926061Y3662657D1*
X2908294Y3653604D1*
X2889331Y3647441D1*
X2869637Y3644324D1*
X2862434Y3644041D1*
X3177831Y3643984D2*
X3197304Y3632117D1*
X3214281Y3617614D1*
X3228784Y3600637D1*
X3240651Y3581164D1*
X3252551Y3600637D1*
X3267054Y3617614D1*
X3284031Y3632117D1*
X3303071Y3643781D1*
X3323001Y3652071D1*
X3303644Y3661237D1*
X3287967Y3672031D1*
X3274081Y3685047D1*
X3262291Y3699987D1*
X3252867Y3716524D1*
X3248764Y3726281D1*
X3240447Y3706404D1*
X3228784Y3687364D1*
X3214281Y3670387D1*
X3197304Y3655884D1*
X3177831Y3644017D1*
X3412334Y3652071D2*
X3432264Y3643781D1*
X3451304Y3632117D1*
X3468281Y3617614D1*
X3482784Y3600637D1*
X3494651Y3581164D1*
X3506551Y3600637D1*
X3521054Y3617614D1*
X3538031Y3632117D1*
X3557504Y3643984D1*
X3538031Y3655884D1*
X3521054Y3670387D1*
X3506551Y3687364D1*
X3494887Y3706404D1*
X3486597Y3726334D1*
X3479197Y3710111D1*
X3468854Y3694137D1*
X3456237Y3679884D1*
X3441637Y3667677D1*
X3425374Y3657791D1*
X3412367Y3652084D1*
X3685831Y3643984D2*
X3705304Y3632117D1*
X3722281Y3617614D1*
X3736784Y3600637D1*
X3748651Y3581164D1*
X3760551Y3600637D1*
X3775054Y3617614D1*
X3792031Y3632117D1*
X3811504Y3643984D1*
X3792031Y3655884D1*
X3775054Y3670387D1*
X3760551Y3687364D1*
X3748684Y3706837D1*
X3736784Y3687364D1*
X3722281Y3670387D1*
X3705304Y3655884D1*
X3685831Y3644017D1*
X3939831Y3643984D2*
X3959304Y3632117D1*
X3976281Y3617614D1*
X3990784Y3600637D1*
X4002651Y3581164D1*
X4014551Y3600637D1*
X4029054Y3617614D1*
X4046031Y3632117D1*
X4065071Y3643781D1*
X4085001Y3652071D1*
X4065644Y3661237D1*
X4049967Y3672031D1*
X4036081Y3685047D1*
X4024291Y3699987D1*
X4014867Y3716524D1*
X4010764Y3726281D1*
X4002447Y3706404D1*
X3990784Y3687364D1*
X3976281Y3670387D1*
X3959304Y3655884D1*
X3939831Y3644017D1*
X4174334Y3652071D2*
X4194264Y3643781D1*
X4213304Y3632117D1*
X4230281Y3617614D1*
X4244784Y3600637D1*
X4256651Y3581164D1*
X4268551Y3600637D1*
X4283054Y3617614D1*
X4300031Y3632117D1*
X4319504Y3643984D1*
X4300031Y3655884D1*
X4283054Y3670387D1*
X4268551Y3687364D1*
X4256887Y3706404D1*
X4248597Y3726334D1*
X4241197Y3710111D1*
X4230854Y3694137D1*
X4218237Y3679884D1*
X4203637Y3667677D1*
X4187374Y3657791D1*
X4174367Y3652084D1*
X4447831Y3643984D2*
X4467304Y3632117D1*
X4484281Y3617614D1*
X4498784Y3600637D1*
X4510651Y3581164D1*
X4522551Y3600637D1*
X4537054Y3617614D1*
X4554031Y3632117D1*
X4573504Y3643984D1*
X4554031Y3655884D1*
X4537054Y3670387D1*
X4522551Y3687364D1*
X4510684Y3706837D1*
X4498784Y3687364D1*
X4484281Y3670387D1*
X4467304Y3655884D1*
X4447831Y3644017D1*
X4701831Y3643984D2*
X4721304Y3632117D1*
X4738281Y3617614D1*
X4752784Y3600637D1*
X4764447Y3581597D1*
X4772737Y3561667D1*
X4780544Y3578634D1*
X4790997Y3594537D1*
X4803707Y3608704D1*
X4818391Y3620814D1*
X4834717Y3630594D1*
X4846921Y3635917D1*
X4827071Y3644221D1*
X4808031Y3655884D1*
X4791054Y3670387D1*
X4776551Y3687364D1*
X4764684Y3706837D1*
X4752784Y3687364D1*
X4738281Y3670387D1*
X4721304Y3655884D1*
X4701831Y3644017D1*
X4936371Y3635904D2*
X4956421Y3626334D1*
X4972024Y3615434D1*
X4985827Y3602331D1*
X4997514Y3587307D1*
X5006827Y3570711D1*
X5010587Y3561667D1*
X5018887Y3581597D1*
X5030551Y3600637D1*
X5045054Y3617614D1*
X5062031Y3632117D1*
X5081504Y3643984D1*
X5062031Y3655884D1*
X5045054Y3670387D1*
X5030551Y3687364D1*
X5018684Y3706837D1*
X5006784Y3687364D1*
X4992281Y3670387D1*
X4975304Y3655884D1*
X4956264Y3644221D1*
X4936334Y3635931D1*
X5209831Y3643984D2*
X5229304Y3632117D1*
X5246281Y3617614D1*
X5260784Y3600637D1*
X5272651Y3581164D1*
X5284551Y3600637D1*
X5299054Y3617614D1*
X5316031Y3632117D1*
X5335071Y3643781D1*
X5355001Y3652071D1*
X5335644Y3661237D1*
X5319967Y3672031D1*
X5306081Y3685047D1*
X5294291Y3699987D1*
X5284867Y3716524D1*
X5280764Y3726281D1*
X5272447Y3706404D1*
X5260784Y3687364D1*
X5246281Y3670387D1*
X5229304Y3655884D1*
X5209831Y3644017D1*
X5444334Y3652071D2*
X5464264Y3643781D1*
X5483304Y3632117D1*
X5500281Y3617614D1*
X5514784Y3600637D1*
X5526651Y3581164D1*
X5538551Y3600637D1*
X5553054Y3617614D1*
X5570031Y3632117D1*
X5589504Y3643984D1*
X5570031Y3655884D1*
X5553054Y3670387D1*
X5538551Y3687364D1*
X5526887Y3706404D1*
X5518597Y3726334D1*
X5511197Y3710111D1*
X5500854Y3694137D1*
X5488237Y3679884D1*
X5473637Y3667677D1*
X5457374Y3657791D1*
X5444367Y3652084D1*
X5717831Y3643984D2*
X5737304Y3632117D1*
X5754281Y3617614D1*
X5768784Y3600637D1*
X5780651Y3581164D1*
X5792551Y3600637D1*
X5807054Y3617614D1*
X5824031Y3632117D1*
X5843071Y3643781D1*
X5863001Y3652071D1*
X5843644Y3661237D1*
X5827967Y3672031D1*
X5814081Y3685047D1*
X5802291Y3699987D1*
X5792867Y3716524D1*
X5788764Y3726281D1*
X5780447Y3706404D1*
X5768784Y3687364D1*
X5754281Y3670387D1*
X5737304Y3655884D1*
X5717831Y3644017D1*
X5952334Y3652071D2*
X5972264Y3643781D1*
X5991304Y3632117D1*
X6008281Y3617614D1*
X6022784Y3600637D1*
X6034651Y3581164D1*
X6046551Y3600637D1*
X6061054Y3617614D1*
X6078031Y3632117D1*
X6097504Y3643984D1*
X6078031Y3655884D1*
X6061054Y3670387D1*
X6046551Y3687364D1*
X6034887Y3706404D1*
X6026597Y3726334D1*
X6019197Y3710111D1*
X6008854Y3694137D1*
X5996237Y3679884D1*
X5981637Y3667677D1*
X5965374Y3657791D1*
X5952367Y3652084D1*
X6225831Y3643984D2*
X6245304Y3632117D1*
X6262281Y3617614D1*
X6276784Y3600637D1*
X6288447Y3581597D1*
X6296737Y3561667D1*
X6307324Y3583394D1*
X6319044Y3599527D1*
X6333141Y3613624D1*
X6349274Y3625344D1*
X6367041Y3634397D1*
X6371097Y3635894D1*
X6351071Y3644221D1*
X6332031Y3655884D1*
X6315054Y3670387D1*
X6300551Y3687364D1*
X6288684Y3706837D1*
X6276784Y3687364D1*
X6262281Y3670387D1*
X6245304Y3655884D1*
X6225831Y3644017D1*
X6542627Y3514234D2*
X6541174Y3497124D1*
X6536517Y3477734D1*
X6528887Y3459311D1*
X6518471Y3442311D1*
X6505521Y3427147D1*
X6490357Y3414197D1*
X6473357Y3403781D1*
X6454934Y3396151D1*
X6435544Y3391494D1*
X6415667Y3389931D1*
X6407137Y3390267D1*
X6424597Y3382781D1*
X6443637Y3371117D1*
X6460614Y3356614D1*
X6475117Y3339637D1*
X6486984Y3320164D1*
X6498884Y3339637D1*
X6513387Y3356614D1*
X6530364Y3371117D1*
X6549404Y3382781D1*
X6570031Y3391327D1*
X6591741Y3396537D1*
X6614001Y3398291D1*
X6625641Y3397794D1*
X6605644Y3407237D1*
X6589967Y3418031D1*
X6576081Y3431047D1*
X6564291Y3445987D1*
X6554867Y3462524D1*
X6548017Y3480281D1*
X6543897Y3498861D1*
X6542344Y3526971D1*
X6542627Y3519767D1*
X6544151Y3536817D1*
X6548521Y3555341D1*
X6555604Y3573004D1*
X6565251Y3589414D1*
X6577234Y3604197D1*
X6591294Y3617024D1*
X6607114Y3627607D1*
X6624921Y3635917D1*
X6605071Y3644221D1*
X6586031Y3655884D1*
X6569054Y3670387D1*
X6554551Y3687364D1*
X6542684Y3706837D1*
X6530784Y3687364D1*
X6516281Y3670387D1*
X6499304Y3655884D1*
X6480264Y3644221D1*
X6460334Y3635931D1*
X6482061Y3625344D1*
X6498194Y3613624D1*
X6512291Y3599527D1*
X6524011Y3583394D1*
X6533064Y3565627D1*
X6539227Y3546664D1*
X6542344Y3526971D1*
X5978984Y2937837D2*
X5967117Y2918364D1*
X5952614Y2901387D1*
X5935637Y2886884D1*
X5916164Y2875017D1*
X5935637Y2863117D1*
X5952614Y2848614D1*
X5967117Y2831637D1*
X5978984Y2812164D1*
X5990884Y2831637D1*
X6005387Y2848614D1*
X6022364Y2863117D1*
X6041837Y2874984D1*
X6022364Y2886884D1*
X6005387Y2901387D1*
X5990884Y2918364D1*
X5979017Y2937837D1*
X5916164Y3128984D2*
X5935637Y3117117D1*
X5952614Y3102614D1*
X5967117Y3085637D1*
X5978984Y3066164D1*
X5990884Y3085637D1*
X6005387Y3102614D1*
X6022364Y3117117D1*
X6041837Y3128984D1*
X6022364Y3140884D1*
X6005387Y3155387D1*
X5990884Y3172364D1*
X5979017Y3191837D1*
X5967117Y3172364D1*
X5952614Y3155387D1*
X5935637Y3140884D1*
X5916164Y3129017D1*
X6232984Y2937837D2*
X6221117Y2918364D1*
X6206614Y2901387D1*
X6189637Y2886884D1*
X6170164Y2875017D1*
X6189637Y2863117D1*
X6206614Y2848614D1*
X6221117Y2831637D1*
X6232984Y2812164D1*
X6244884Y2831637D1*
X6259387Y2848614D1*
X6276364Y2863117D1*
X6295837Y2874984D1*
X6276364Y2886884D1*
X6259387Y2901387D1*
X6244884Y2918364D1*
X6233017Y2937837D1*
X6170164Y3128984D2*
X6189637Y3117117D1*
X6206614Y3102614D1*
X6221117Y3085637D1*
X6232984Y3066164D1*
X6244884Y3085637D1*
X6259387Y3102614D1*
X6276364Y3117117D1*
X6295837Y3128984D1*
X6276364Y3140884D1*
X6259387Y3155387D1*
X6244884Y3172364D1*
X6233017Y3191837D1*
X6221117Y3172364D1*
X6206614Y3155387D1*
X6189637Y3140884D1*
X6170164Y3129017D1*
X6486984Y2937837D2*
X6475117Y2918364D1*
X6460614Y2901387D1*
X6443637Y2886884D1*
X6424164Y2875017D1*
X6443637Y2863117D1*
X6460614Y2848614D1*
X6475117Y2831637D1*
X6486984Y2812164D1*
X6498884Y2831637D1*
X6513387Y2848614D1*
X6530364Y2863117D1*
X6549837Y2874984D1*
X6530364Y2886884D1*
X6513387Y2901387D1*
X6498884Y2918364D1*
X6487017Y2937837D1*
X6424164Y3128984D2*
X6443637Y3117117D1*
X6460614Y3102614D1*
X6475117Y3085637D1*
X6486984Y3066164D1*
X6498884Y3085637D1*
X6513387Y3102614D1*
X6530364Y3117117D1*
X6549837Y3128984D1*
X6530364Y3140884D1*
X6513387Y3155387D1*
X6498884Y3172364D1*
X6487017Y3191837D1*
X6475117Y3172364D1*
X6460614Y3155387D1*
X6443637Y3140884D1*
X6424164Y3129017D1*
X6740984Y2937837D2*
X6729117Y2918364D1*
X6714614Y2901387D1*
X6697637Y2886884D1*
X6678164Y2875017D1*
X6697637Y2863117D1*
X6714614Y2848614D1*
X6729117Y2831637D1*
X6740984Y2812164D1*
X6752884Y2831637D1*
X6767387Y2848614D1*
X6784364Y2863117D1*
X6803837Y2874984D1*
X6784364Y2886884D1*
X6767387Y2901387D1*
X6752884Y2918364D1*
X6741017Y2937837D1*
X6678164Y3128984D2*
X6697637Y3117117D1*
X6714614Y3102614D1*
X6729117Y3085637D1*
X6740984Y3066164D1*
X6752884Y3085637D1*
X6767387Y3102614D1*
X6784364Y3117117D1*
X6803837Y3128984D1*
X6784364Y3140884D1*
X6767387Y3155387D1*
X6752884Y3172364D1*
X6741017Y3191837D1*
X6729117Y3172364D1*
X6714614Y3155387D1*
X6697637Y3140884D1*
X6678164Y3129017D1*
X6994984Y2937837D2*
X6983117Y2918364D1*
X6968614Y2901387D1*
X6951637Y2886884D1*
X6932164Y2875017D1*
X6951637Y2863117D1*
X6968614Y2848614D1*
X6983117Y2831637D1*
X6994984Y2812164D1*
X7006884Y2831637D1*
X7021387Y2848614D1*
X7038364Y2863117D1*
X7057837Y2874984D1*
X7038364Y2886884D1*
X7021387Y2901387D1*
X7006884Y2918364D1*
X6995017Y2937837D1*
X6932164Y3128984D2*
X6951637Y3117117D1*
X6968614Y3102614D1*
X6983117Y3085637D1*
X6994984Y3066164D1*
X7006884Y3085637D1*
X7021387Y3102614D1*
X7038364Y3117117D1*
X7057837Y3128984D1*
X7038364Y3140884D1*
X7021387Y3155387D1*
X7006884Y3172364D1*
X6995017Y3191837D1*
X6983117Y3172364D1*
X6968614Y3155387D1*
X6951637Y3140884D1*
X6932164Y3129017D1*
X7248984Y2937837D2*
X7237117Y2918364D1*
X7222614Y2901387D1*
X7205637Y2886884D1*
X7186164Y2875017D1*
X7205637Y2863117D1*
X7222614Y2848614D1*
X7237117Y2831637D1*
X7248984Y2812164D1*
X7260884Y2831637D1*
X7275387Y2848614D1*
X7292364Y2863117D1*
X7311837Y2874984D1*
X7292364Y2886884D1*
X7275387Y2901387D1*
X7260884Y2918364D1*
X7249017Y2937837D1*
X7186164Y3128984D2*
X7205637Y3117117D1*
X7222614Y3102614D1*
X7237117Y3085637D1*
X7248984Y3066164D1*
X7260884Y3085637D1*
X7275387Y3102614D1*
X7292364Y3117117D1*
X7311837Y3128984D1*
X7292364Y3140884D1*
X7275387Y3155387D1*
X7260884Y3172364D1*
X7249017Y3191837D1*
X7237117Y3172364D1*
X7222614Y3155387D1*
X7205637Y3140884D1*
X7186164Y3129017D1*
X5978984Y2683837D2*
X5967117Y2664364D1*
X5952614Y2647387D1*
X5935637Y2632884D1*
X5916164Y2621017D1*
X5935637Y2609117D1*
X5952614Y2594614D1*
X5967117Y2577637D1*
X5978984Y2558164D1*
X5990884Y2577637D1*
X6005387Y2594614D1*
X6022364Y2609117D1*
X6041837Y2620984D1*
X6022364Y2632884D1*
X6005387Y2647387D1*
X5990884Y2664364D1*
X5979017Y2683837D1*
X6232984D2*
X6221117Y2664364D1*
X6206614Y2647387D1*
X6189637Y2632884D1*
X6170164Y2621017D1*
X6189637Y2609117D1*
X6206614Y2594614D1*
X6221117Y2577637D1*
X6232984Y2558164D1*
X6244884Y2577637D1*
X6259387Y2594614D1*
X6276364Y2609117D1*
X6295837Y2620984D1*
X6276364Y2632884D1*
X6259387Y2647387D1*
X6244884Y2664364D1*
X6233017Y2683837D1*
X6486984D2*
X6475117Y2664364D1*
X6460614Y2647387D1*
X6443637Y2632884D1*
X6424164Y2621017D1*
X6443637Y2609117D1*
X6460614Y2594614D1*
X6475117Y2577637D1*
X6486984Y2558164D1*
X6498884Y2577637D1*
X6513387Y2594614D1*
X6530364Y2609117D1*
X6549837Y2620984D1*
X6530364Y2632884D1*
X6513387Y2647387D1*
X6498884Y2664364D1*
X6487017Y2683837D1*
X6740984D2*
X6729117Y2664364D1*
X6714614Y2647387D1*
X6697637Y2632884D1*
X6678164Y2621017D1*
X6697637Y2609117D1*
X6714614Y2594614D1*
X6729117Y2577637D1*
X6740984Y2558164D1*
X6752884Y2577637D1*
X6767387Y2594614D1*
X6784364Y2609117D1*
X6803837Y2620984D1*
X6784364Y2632884D1*
X6767387Y2647387D1*
X6752884Y2664364D1*
X6741017Y2683837D1*
X6994984D2*
X6983117Y2664364D1*
X6968614Y2647387D1*
X6951637Y2632884D1*
X6932164Y2621017D1*
X6951637Y2609117D1*
X6968614Y2594614D1*
X6983117Y2577637D1*
X6994984Y2558164D1*
X7006884Y2577637D1*
X7021387Y2594614D1*
X7038364Y2609117D1*
X7057837Y2620984D1*
X7038364Y2632884D1*
X7021387Y2647387D1*
X7006884Y2664364D1*
X6995017Y2683837D1*
X7248984D2*
X7237117Y2664364D1*
X7222614Y2647387D1*
X7205637Y2632884D1*
X7186164Y2621017D1*
X7205637Y2609117D1*
X7222614Y2594614D1*
X7237117Y2577637D1*
X7248984Y2558164D1*
X7260884Y2577637D1*
X7275387Y2594614D1*
X7292364Y2609117D1*
X7311837Y2620984D1*
X7292364Y2632884D1*
X7275387Y2647387D1*
X7260884Y2664364D1*
X7249017Y2683837D1*
X7311837Y2367017D2*
X7292364Y2378884D1*
X7275387Y2393387D1*
X7260884Y2410364D1*
X7249017Y2429837D1*
X7237117Y2410364D1*
X7222614Y2393387D1*
X7205637Y2378884D1*
X7186164Y2367017D1*
X7205637Y2355117D1*
X7222614Y2340614D1*
X7237117Y2323637D1*
X7248984Y2304164D1*
X7260884Y2323637D1*
X7275387Y2340614D1*
X7292364Y2355117D1*
X7311837Y2366984D1*
X7057837Y2367017D2*
X7038364Y2378884D1*
X7021387Y2393387D1*
X7006884Y2410364D1*
X6995017Y2429837D1*
X6983117Y2410364D1*
X6968614Y2393387D1*
X6951637Y2378884D1*
X6932164Y2367017D1*
X6951637Y2355117D1*
X6968614Y2340614D1*
X6983117Y2323637D1*
X6994984Y2304164D1*
X7006884Y2323637D1*
X7021387Y2340614D1*
X7038364Y2355117D1*
X7057837Y2366984D1*
X6803837Y2367017D2*
X6784364Y2378884D1*
X6767387Y2393387D1*
X6752884Y2410364D1*
X6741017Y2429837D1*
X6729117Y2410364D1*
X6714614Y2393387D1*
X6697637Y2378884D1*
X6678164Y2367017D1*
X6697637Y2355117D1*
X6714614Y2340614D1*
X6729117Y2323637D1*
X6740984Y2304164D1*
X6752884Y2323637D1*
X6767387Y2340614D1*
X6784364Y2355117D1*
X6803837Y2366984D1*
X6549837Y2367017D2*
X6530364Y2378884D1*
X6513387Y2393387D1*
X6498884Y2410364D1*
X6487017Y2429837D1*
X6475117Y2410364D1*
X6460614Y2393387D1*
X6443637Y2378884D1*
X6424164Y2367017D1*
X6443637Y2355117D1*
X6460614Y2340614D1*
X6475117Y2323637D1*
X6486984Y2304164D1*
X6498884Y2323637D1*
X6513387Y2340614D1*
X6530364Y2355117D1*
X6549837Y2366984D1*
X6295837Y2367017D2*
X6276364Y2378884D1*
X6259387Y2393387D1*
X6244884Y2410364D1*
X6233017Y2429837D1*
X6221117Y2410364D1*
X6206614Y2393387D1*
X6189637Y2378884D1*
X6170164Y2367017D1*
X6189637Y2355117D1*
X6206614Y2340614D1*
X6221117Y2323637D1*
X6232984Y2304164D1*
X6244884Y2323637D1*
X6259387Y2340614D1*
X6276364Y2355117D1*
X6295837Y2366984D1*
X6041837Y2367017D2*
X6022364Y2378884D1*
X6005387Y2393387D1*
X5990884Y2410364D1*
X5979017Y2429837D1*
X5967117Y2410364D1*
X5952614Y2393387D1*
X5935637Y2378884D1*
X5916164Y2367017D1*
X5935637Y2355117D1*
X5952614Y2340614D1*
X5967117Y2323637D1*
X5978984Y2304164D1*
X5990884Y2323637D1*
X6005387Y2340614D1*
X6022364Y2355117D1*
X6041837Y2366984D1*
X5978984Y2175837D2*
X5967117Y2156364D1*
X5952614Y2139387D1*
X5935637Y2124884D1*
X5916164Y2113017D1*
X5935637Y2101117D1*
X5952614Y2086614D1*
X5967117Y2069637D1*
X5978984Y2050164D1*
X5990884Y2069637D1*
X6005387Y2086614D1*
X6022364Y2101117D1*
X6041837Y2112984D1*
X6022364Y2124884D1*
X6005387Y2139387D1*
X5990884Y2156364D1*
X5979017Y2175837D1*
X6232984D2*
X6221117Y2156364D1*
X6206614Y2139387D1*
X6189637Y2124884D1*
X6170164Y2113017D1*
X6189637Y2101117D1*
X6206614Y2086614D1*
X6221117Y2069637D1*
X6232984Y2050164D1*
X6244884Y2069637D1*
X6259387Y2086614D1*
X6276364Y2101117D1*
X6295837Y2112984D1*
X6276364Y2124884D1*
X6259387Y2139387D1*
X6244884Y2156364D1*
X6233017Y2175837D1*
X6486984D2*
X6475117Y2156364D1*
X6460614Y2139387D1*
X6443637Y2124884D1*
X6424164Y2113017D1*
X6443637Y2101117D1*
X6460614Y2086614D1*
X6475117Y2069637D1*
X6486984Y2050164D1*
X6498884Y2069637D1*
X6513387Y2086614D1*
X6530364Y2101117D1*
X6549837Y2112984D1*
X6530364Y2124884D1*
X6513387Y2139387D1*
X6498884Y2156364D1*
X6487017Y2175837D1*
X6740984D2*
X6729117Y2156364D1*
X6714614Y2139387D1*
X6697637Y2124884D1*
X6678164Y2113017D1*
X6697637Y2101117D1*
X6714614Y2086614D1*
X6729117Y2069637D1*
X6740984Y2050164D1*
X6752884Y2069637D1*
X6767387Y2086614D1*
X6784364Y2101117D1*
X6803837Y2112984D1*
X6784364Y2124884D1*
X6767387Y2139387D1*
X6752884Y2156364D1*
X6741017Y2175837D1*
X6994984D2*
X6983117Y2156364D1*
X6968614Y2139387D1*
X6951637Y2124884D1*
X6932164Y2113017D1*
X6951637Y2101117D1*
X6968614Y2086614D1*
X6983117Y2069637D1*
X6994984Y2050164D1*
X7006884Y2069637D1*
X7021387Y2086614D1*
X7038364Y2101117D1*
X7057837Y2112984D1*
X7038364Y2124884D1*
X7021387Y2139387D1*
X7006884Y2156364D1*
X6995017Y2175837D1*
X7248984D2*
X7237117Y2156364D1*
X7222614Y2139387D1*
X7205637Y2124884D1*
X7186164Y2113017D1*
X7205637Y2101117D1*
X7222614Y2086614D1*
X7237117Y2069637D1*
X7248984Y2050164D1*
X7260884Y2069637D1*
X7275387Y2086614D1*
X7292364Y2101117D1*
X7311837Y2112984D1*
X7292364Y2124884D1*
X7275387Y2139387D1*
X7260884Y2156364D1*
X7249017Y2175837D1*
X7311837Y1859017D2*
X7292364Y1870884D1*
X7275387Y1885387D1*
X7260884Y1902364D1*
X7249017Y1921837D1*
X7237117Y1902364D1*
X7222614Y1885387D1*
X7205637Y1870884D1*
X7186164Y1859017D1*
X7205637Y1847117D1*
X7222614Y1832614D1*
X7237117Y1815637D1*
X7248984Y1796164D1*
X7260884Y1815637D1*
X7275387Y1832614D1*
X7292364Y1847117D1*
X7311837Y1858984D1*
X7057837Y1859017D2*
X7038364Y1870884D1*
X7021387Y1885387D1*
X7006884Y1902364D1*
X6995017Y1921837D1*
X6983117Y1902364D1*
X6968614Y1885387D1*
X6951637Y1870884D1*
X6932164Y1859017D1*
X6951637Y1847117D1*
X6968614Y1832614D1*
X6983117Y1815637D1*
X6994984Y1796164D1*
X7006884Y1815637D1*
X7021387Y1832614D1*
X7038364Y1847117D1*
X7057837Y1858984D1*
X6803837Y1859017D2*
X6784364Y1870884D1*
X6767387Y1885387D1*
X6752884Y1902364D1*
X6741017Y1921837D1*
X6729117Y1902364D1*
X6714614Y1885387D1*
X6697637Y1870884D1*
X6678164Y1859017D1*
X6697637Y1847117D1*
X6714614Y1832614D1*
X6729117Y1815637D1*
X6740984Y1796164D1*
X6752884Y1815637D1*
X6767387Y1832614D1*
X6784364Y1847117D1*
X6803837Y1858984D1*
X6549837Y1859017D2*
X6530364Y1870884D1*
X6513387Y1885387D1*
X6498884Y1902364D1*
X6487017Y1921837D1*
X6475117Y1902364D1*
X6460614Y1885387D1*
X6443637Y1870884D1*
X6424164Y1859017D1*
X6443637Y1847117D1*
X6460614Y1832614D1*
X6475117Y1815637D1*
X6486984Y1796164D1*
X6498884Y1815637D1*
X6513387Y1832614D1*
X6530364Y1847117D1*
X6549837Y1858984D1*
X6295837Y1859017D2*
X6276364Y1870884D1*
X6259387Y1885387D1*
X6244884Y1902364D1*
X6233017Y1921837D1*
X6221117Y1902364D1*
X6206614Y1885387D1*
X6189637Y1870884D1*
X6170164Y1859017D1*
X6189637Y1847117D1*
X6206614Y1832614D1*
X6221117Y1815637D1*
X6232984Y1796164D1*
X6244884Y1815637D1*
X6259387Y1832614D1*
X6276364Y1847117D1*
X6295837Y1858984D1*
X6041837Y1859017D2*
X6022364Y1870884D1*
X6005387Y1885387D1*
X5990884Y1902364D1*
X5979017Y1921837D1*
X5967117Y1902364D1*
X5952614Y1885387D1*
X5935637Y1870884D1*
X5916164Y1859017D1*
X5935637Y1847117D1*
X5952614Y1832614D1*
X5967117Y1815637D1*
X5978984Y1796164D1*
X5990884Y1815637D1*
X6005387Y1832614D1*
X6022364Y1847117D1*
X6041837Y1858984D1*
X3291014Y1274071D2*
X3304781D1*
X3304864Y1796294D1*
X3256441Y1796197D1*
X3256404Y1566597D1*
X3209647D1*
X3209804Y1247701D1*
X3222187Y1236854D1*
X3235137Y1221691D1*
X3245554Y1204691D1*
X3253184Y1186267D1*
X3257841Y1166877D1*
X3259264Y1150544D1*
Y1274071D1*
X3291014D1*
X4305161Y1772931D2*
X4236931D1*
Y2197071D1*
X4491071D1*
Y2177351D1*
X4738151Y2424361D1*
X4739064Y2444404D1*
X4742437Y2458451D1*
X4747967Y2471801D1*
X4755514Y2484117D1*
X4764897Y2495104D1*
X4775884Y2504487D1*
X4788201Y2512034D1*
X4801551Y2517564D1*
X4815597Y2520937D1*
X4830001Y2522071D1*
X4844404Y2520937D1*
X4858451Y2517564D1*
X4871801Y2512034D1*
X4884117Y2504487D1*
X4895104Y2495104D1*
X4904487Y2484117D1*
X4912034Y2471801D1*
X4917564Y2458451D1*
X4920937Y2444404D1*
X4922071Y2430001D1*
X4920937Y2415597D1*
X4917564Y2401551D1*
X4912034Y2388201D1*
X4904487Y2375884D1*
X4895104Y2364897D1*
X4884117Y2355514D1*
X4871801Y2347967D1*
X4858451Y2342437D1*
X4844404Y2339064D1*
X4824327Y2338154D1*
X4830207Y2325011D1*
X4841894Y2333504D1*
X4854767Y2340061D1*
X4868507Y2344527D1*
X4882777Y2346787D1*
X4897224D1*
X4911494Y2344527D1*
X4925234Y2340061D1*
X4938107Y2333504D1*
X4949794Y2325011D1*
X4960011Y2314794D1*
X4968504Y2303107D1*
X4975061Y2290234D1*
X4979527Y2276494D1*
X4981787Y2262224D1*
Y2247777D1*
X4979527Y2233507D1*
X4975061Y2219767D1*
X4968504Y2206894D1*
X4960011Y2195207D1*
X4949794Y2184991D1*
X4938107Y2176497D1*
X4925234Y2169941D1*
X4911494Y2165474D1*
X4897224Y2163214D1*
X4882777D1*
X4868507Y2165474D1*
X4862121Y2167277D1*
X4815677Y2120801D1*
X4815737Y1772931D1*
X4574511D1*
X4546084Y1744487D1*
X4546437Y1706437D1*
X4555821Y1695451D1*
X4563367Y1683134D1*
X4568897Y1669784D1*
X4572271Y1655737D1*
X4573404Y1641334D1*
X4572271Y1626931D1*
X4568897Y1612884D1*
X4563367Y1599534D1*
X4555821Y1587217D1*
X4546437Y1576231D1*
X4535451Y1566847D1*
X4523134Y1559301D1*
X4509784Y1553771D1*
X4495737Y1550397D1*
X4481334Y1549264D1*
X4466931Y1550397D1*
X4452884Y1553771D1*
X4439534Y1559301D1*
X4426574Y1567354D1*
X4411801Y1557967D1*
X4398451Y1552437D1*
X4384404Y1549064D1*
X4370001Y1547931D1*
X4355597Y1549064D1*
X4341551Y1552437D1*
X4328201Y1557967D1*
X4315884Y1565514D1*
X4304897Y1574897D1*
X4295514Y1585884D1*
X4287967Y1598201D1*
X4282437Y1611551D1*
X4279064Y1625597D1*
X4277931Y1640001D1*
X4279064Y1654404D1*
X4282437Y1668451D1*
X4287967Y1681801D1*
X4295514Y1694117D1*
X4305251Y1705431D1*
X4305231Y1772831D1*
X4561597Y1938254D2*
X4561721Y2007071D1*
X4539591Y2033647D1*
X4527677Y2025684D1*
X4514231Y2020724D1*
X4500001Y2019041D1*
X4491071Y2007071D1*
Y1872504D1*
X4547937Y1929254D1*
X4561587Y1938167D1*
X4560594Y1937711D1*
X4561587Y1938167D1*
X4561597Y2055327D1*
X4535831Y2030684D1*
X4523331Y2023681D1*
X4509537Y2019791D1*
X4490947Y2019041D1*
Y1962931D1*
X4683264Y2197071D2*
X4719481D1*
X4801051Y2278594D1*
X4807967Y2296801D1*
X4815514Y2309117D1*
X4824897Y2320104D1*
X4830207Y2325011D1*
X4824257Y2338047D1*
X4683241Y2197031D1*
X1246334Y2369947D2*
D21*
Y2114054D1*
Y2242001D2*
X1501281D1*
X1241334Y2878947D2*
Y2623054D1*
Y2751001D2*
X1496281D1*
X2891001Y2952667D2*
Y2835721D1*
X2764054Y2952667D2*
X3017947D1*
X3161721Y2949001D2*
X3415614D1*
X3952334Y2376334D2*
Y2259387D1*
X3825387Y2376334D2*
X4079281D1*
X4312001Y2370334D2*
Y2253387D1*
X4185054Y2370334D2*
X4438947D1*
X2684721Y1869334D2*
X2938614D1*
X3287334Y2467334D2*
Y2350387D1*
X3160387Y2467334D2*
X3414281D1*
X2560001Y3001947D2*
Y2738054D1*
X2418054Y2870001D2*
X2701947D1*
X2224721Y3771001D2*
X2478614D1*
X2859667Y3643947D2*
Y3390054D1*
X3367667Y3897947D2*
Y3771001D1*
X4129667Y3897947D2*
Y3771001D1*
X4891667Y3517001D2*
Y3390054D1*
X5399667Y3897947D2*
Y3771001D1*
X5907667Y3897947D2*
Y3771001D1*
X6669667Y3517001D2*
Y3390054D1*
X6542721Y3517001D2*
X6796614D1*
X5530001Y2252947D2*
Y1999054D1*
X5403054Y2126001D2*
X5530001D1*
X2878334Y1273947D2*
Y1147001D1*
X2751387D2*
X3005281D1*
X4044001Y3249947D2*
Y3143001D1*
D22*
X1246334Y2242001D3*
X1241334Y2751001D3*
D24*
X2891001Y3142667D3*
Y2952667D3*
X3288667Y3139001D3*
Y2949001D3*
X3952334Y2566334D3*
Y2376334D3*
X4312001Y2560334D3*
Y2370334D3*
X2811667Y1679334D3*
Y1869334D3*
X3287334Y2657334D3*
Y2467334D3*
D25*
X2560001Y3150001D3*
Y2870001D3*
D26*
X1843667Y3517001D3*
D27*
Y3771001D3*
X2097667Y3517001D3*
Y3771001D3*
X2351667Y3517001D3*
Y3771001D3*
X2605667Y3517001D3*
Y3771001D3*
X2859667Y3517001D3*
Y3771001D3*
X3113667Y3517001D3*
Y3771001D3*
X3367667Y3517001D3*
Y3771001D3*
X3621667Y3517001D3*
Y3771001D3*
X3875667Y3517001D3*
Y3771001D3*
X4129667Y3517001D3*
Y3771001D3*
X4383667Y3517001D3*
Y3771001D3*
X4637667Y3517001D3*
Y3771001D3*
X4891667Y3517001D3*
Y3771001D3*
X5145667Y3517001D3*
Y3771001D3*
X5399667Y3517001D3*
Y3771001D3*
X5653667Y3517001D3*
Y3771001D3*
X5907667Y3517001D3*
Y3771001D3*
X6161667Y3517001D3*
Y3771001D3*
X6415667Y3517001D3*
Y3771001D3*
X6669667Y3517001D3*
Y3771001D3*
D26*
X6160001Y1160001D3*
D27*
X5906001D3*
X5652001D3*
X5398001D3*
X5144001D3*
X4890001D3*
D26*
X5530001Y2380001D3*
D27*
Y2126001D3*
D26*
Y2830001D3*
D27*
Y3084001D3*
D28*
X5852001Y3002001D3*
X6106001D3*
X6360001D3*
X6614001D3*
X6868001D3*
X7122001D3*
X7376001D3*
X5852001Y2748001D3*
X6106001D3*
X6360001D3*
X6614001D3*
X6868001D3*
X7122001D3*
X7376001D3*
Y2494001D3*
X7122001D3*
X6868001D3*
X6614001D3*
X6360001D3*
X6106001D3*
X5852001D3*
Y2240001D3*
X6106001D3*
X6360001D3*
X6614001D3*
X6868001D3*
X7122001D3*
X7376001D3*
Y1986001D3*
X7122001D3*
X6868001D3*
X6614001D3*
X6360001D3*
X6106001D3*
X5852001D3*
Y1732001D3*
X6106001D3*
X6360001D3*
X6614001D3*
X6868001D3*
X7122001D3*
X7376001D3*
X5852001Y3256001D3*
X6106001D3*
X6360001D3*
X6614001D3*
X6868001D3*
X7122001D3*
X7376001D3*
D26*
X3386334Y1147001D3*
D27*
X3132334D3*
X2878334D3*
X2624334D3*
X2370334D3*
D24*
X3659001Y3148667D3*
Y2958667D3*
X4364001Y1890001D3*
Y2080001D3*
X4688667Y1890001D3*
Y2080001D3*
D30*
X5530001Y1820001D3*
Y1650001D3*
D24*
X3129334Y1683667D3*
Y1873667D3*
D38*
X3949001Y3143001D3*
X4044001D3*
X4139001D3*
Y2873001D3*
X3949001D3*
M02*
