M48
METRIC,0000.00
T01C0.4
T02C0.9
T03C2.75
%
T01
X+001600Y+002700
X+001600Y+002900
X+001800Y+003100
X+001800Y+003300
X+001600Y+003300
X+001400Y+003300
X+002000Y+003300
X+002000Y+003100
X+002000Y+002900
X+002200Y+002900
X+002400Y+002900
X+002400Y+002700
X+002400Y+002500
X+002400Y+002300
X+002400Y+002100
X+002400Y+001900
X+002400Y+001700
X+002200Y+001700
X+002200Y+001900
X+002200Y+002100
X+002200Y+002300
X+002200Y+002500
X+002200Y+002700
X+002200Y+003100
X+002600Y+002700
X+002600Y+002500
X+002600Y+002300
X+002600Y+002100
X+002600Y+001900
X+002600Y+001700
X+002831Y+002042
X+002957Y+002230
X+003287Y+002787
X+003840Y+001670
X+004370Y+001640
X+004481Y+001641
X+004480Y+002370
X+004830Y+002430
X+004890Y+002255
X+004610Y+003010
X+001800Y+002300
X+001600Y+002300
X+001600Y+002100
X+001600Y+001900
X+001800Y+001900
X+001800Y+002100
X+001800Y+001700
X+001600Y+001700
X+001400Y+001700
X+001400Y+001900
X+001200Y+001900
X+001200Y+001700
X+002000Y+001700
T02
X+001844Y+003517
X+002098Y+003517
X+002098Y+003771
X+001844Y+003771
X+002352Y+003771
X+002606Y+003771
X+002606Y+003517
X+002352Y+003517
X+002860Y+003517
X+003114Y+003517
X+003368Y+003517
X+003368Y+003771
X+003114Y+003771
X+002860Y+003771
X+003622Y+003771
X+003622Y+003517
X+003876Y+003517
X+004130Y+003517
X+004130Y+003771
X+003876Y+003771
X+004384Y+003771
X+004638Y+003771
X+004638Y+003517
X+004384Y+003517
X+004892Y+003517
X+004892Y+003771
X+005146Y+003771
X+005146Y+003517
X+005400Y+003517
X+005400Y+003771
X+005654Y+003771
X+005654Y+003517
X+005908Y+003517
X+006162Y+003517
X+006162Y+003771
X+005908Y+003771
X+006416Y+003771
X+006670Y+003771
X+006670Y+003517
X+006416Y+003517
X+006360Y+003256
X+006360Y+003002
X+006106Y+003002
X+005852Y+003002
X+005852Y+002748
X+005852Y+002494
X+005852Y+002240
X+006106Y+002240
X+006106Y+002494
X+006106Y+002748
X+006360Y+002748
X+006360Y+002494
X+006360Y+002240
X+006614Y+002240
X+006868Y+002240
X+006868Y+002494
X+006614Y+002494
X+006614Y+002748
X+006868Y+002748
X+007122Y+002748
X+007122Y+002494
X+007122Y+002240
X+007376Y+002240
X+007376Y+002494
X+007376Y+002748
X+007376Y+003002
X+007122Y+003002
X+006868Y+003002
X+006614Y+003002
X+006614Y+003256
X+006868Y+003256
X+007122Y+003256
X+007376Y+003256
X+006106Y+003256
X+005852Y+003256
X+005530Y+003084
X+005530Y+002830
X+005530Y+002380
X+005530Y+002126
X+005852Y+001986
X+005852Y+001732
X+006106Y+001732
X+006106Y+001986
X+006360Y+001986
X+006360Y+001732
X+006614Y+001732
X+006868Y+001732
X+006868Y+001986
X+006614Y+001986
X+007122Y+001986
X+007122Y+001732
X+007376Y+001732
X+007376Y+001986
X+006160Y+001160
X+005906Y+001160
X+005652Y+001160
X+005398Y+001160
X+005144Y+001160
X+004890Y+001160
X+003386Y+001147
X+003132Y+001147
X+002878Y+001147
X+002624Y+001147
X+002370Y+001147
T03
X+001350Y+001349
X+001350Y+003649
X+007150Y+003649
X+007150Y+001349
T00
M30
