G04 DipTrace 3.1.0.0*
G04 Top.gbr*
%MOMM*%
G04 #@! TF.FileFunction,Copper,L1,Top*
G04 #@! TF.Part,Single*
G04 #@! TA.AperFunction,Conductor*
%ADD10C,0.254*%
%ADD15C,0.508*%
G04 #@! TA.AperFunction,CopperBalancing*
%ADD16C,0.635*%
G04 #@! TA.AperFunction,Conductor*
%ADD17C,0.381*%
%ADD18C,0.1778*%
%ADD19C,0.3048*%
G04 #@! TA.AperFunction,ViaPad*
%ADD20C,0.8*%
G04 #@! TA.AperFunction,CopperBalancing*
%ADD21C,0.33*%
%ADD22R,4.06X1.52*%
%ADD23R,4.06X0.85*%
%ADD24R,1.5X1.3*%
G04 #@! TA.AperFunction,ComponentPad*
%ADD26R,1.5X1.5*%
%ADD27C,1.5*%
%ADD28C,1.5*%
%ADD29R,1.1X1.0*%
%ADD30R,1.0X1.1*%
%ADD32R,0.8X1.7*%
%ADD33R,1.01X2.274*%
%ADD34R,2.274X1.01*%
%ADD35R,1.1X1.05*%
%ADD36R,2.25X1.1*%
%FSLAX35Y35*%
G04*
G71*
G90*
G75*
G01*
G04 Top*
%LPD*%
X3287334Y2786667D2*
D15*
Y2992001D1*
X3204334Y3075001D1*
Y3252334D1*
X3211334Y3259334D1*
X3132334Y1147001D2*
X3086667D1*
X2966334Y1267334D1*
Y1397334D1*
X2957334Y1406334D1*
D16*
Y2230001D1*
X2830334Y1406334D2*
D17*
Y1195001D1*
X2878334Y1147001D1*
X3846334Y1406334D2*
Y1663667D1*
X3840001Y1670001D1*
X4610001Y3010001D2*
Y3257667D1*
X4608334Y3259334D1*
X1600001Y2300001D2*
X1560001D1*
X1480001Y2380001D1*
X1240001D1*
D10*
Y2246334D1*
D18*
X1241334Y2245001D1*
X1600001Y2700001D2*
X1570001D1*
X1490001Y2620001D1*
D17*
X1250001D1*
D18*
X1240001Y2630001D1*
D10*
Y2749667D1*
D18*
X1242334Y2752001D1*
X1400001Y3300001D2*
D16*
X1328001D1*
X1259001Y3231001D1*
Y2931001D2*
Y2768667D1*
X1242334Y2752001D1*
X1109001Y3081001D2*
X1259001Y3231001D1*
X1109001Y3081001D2*
X1259001Y2931001D1*
X5115001Y2725001D2*
D15*
Y2445001D1*
X5530001Y2126001D2*
X5474001D1*
X5330001Y2270001D1*
Y2380001D1*
X5260001Y2450001D1*
X5120001D1*
X5115001Y2445001D1*
X3846334Y1406334D2*
D18*
Y1248671D1*
X4220001D1*
X4608334D1*
Y1406334D1*
X2859667Y3517001D2*
X2976957Y3399711D1*
X3338334D1*
Y3259334D1*
X4220001Y1248671D2*
Y1130001D1*
X1800001Y2300001D2*
X1866671D1*
Y2332834D1*
X2030834D1*
X1800001Y2100001D2*
X1866671D1*
X1887837Y2078834D1*
X2030834D1*
X2200001Y2500001D2*
Y2586834D1*
X2030834D1*
X2200001Y1700001D2*
Y1564551D1*
X2195334Y1559884D1*
Y1406334D1*
X3338334Y3259334D2*
X3373894D1*
Y3399711D1*
X3714441D1*
Y3259334D1*
X3719334D1*
X2200001Y1900001D2*
Y1911834D1*
X2160001Y1951834D1*
X2030834D1*
Y2586834D2*
X1886841D1*
Y2713834D1*
X2030834D1*
X2200001Y3100001D2*
X2195334Y3104667D1*
Y3259334D1*
X4891667Y3517001D2*
D19*
Y3551667D1*
X4990001Y3650001D1*
X5278667D1*
X5399667Y3771001D1*
X5907667D2*
X5881001D1*
X5760001Y3650001D1*
X5520667D1*
X5399667Y3771001D1*
X6669667Y3517001D2*
Y3540334D1*
X6560001Y3650001D1*
X6028667D1*
X5907667Y3771001D1*
X4129667D2*
Y3740334D1*
X4220001Y3650001D1*
X4758667D1*
X4891667Y3517001D1*
X4370001Y1640001D2*
D10*
X4364001D1*
Y1416001D1*
X4354334Y1406334D1*
X4481334D2*
Y1641334D1*
X1780001Y2850001D2*
D20*
Y2870001D1*
G03X1570001Y3080001I-209997J3D01*
G01*
X1410001D1*
X1409294Y3080294D1*
X1409001Y3081001D1*
X2703334Y1406334D2*
D18*
Y1526334D1*
X2831001Y1654001D1*
Y2042334D1*
X3880001Y1130001D2*
X3403334D1*
X3386334Y1147001D1*
X2624334D2*
D10*
Y1221334D1*
X2580334Y1265334D1*
Y1402334D1*
X2576334Y1406334D1*
X2370334Y1147001D2*
Y1171334D1*
X2445667Y1246667D1*
Y1402667D1*
X2449334Y1406334D1*
X6160001Y1160001D2*
D18*
Y1430001D1*
X6080001Y1510001D1*
X5220001D1*
X4750001Y1980001D1*
X3370001D1*
X3090001Y1700001D1*
Y1412001D1*
X3084334Y1406334D1*
X5906001Y1160001D2*
Y1394001D1*
X5850001Y1450001D1*
X5200001D1*
X4710001Y1940001D1*
X3400001D1*
X3210001Y1750001D1*
Y1407667D1*
X3211334Y1406334D1*
X5652001Y1160001D2*
Y1338001D1*
X5600001Y1390001D1*
X5190001D1*
X4690001Y1890001D1*
X3460001D1*
X3340001Y1770001D1*
Y1408001D1*
X3338334Y1406334D1*
X5398001Y1160001D2*
Y1192001D1*
X5270001Y1320001D1*
X5090001D1*
X5080001Y1330001D1*
Y1420001D1*
X4660001Y1840001D1*
X3720001D1*
X3470001Y1590001D1*
Y1411001D1*
X3465334Y1406334D1*
X1610001Y2500001D2*
D20*
X1243334D1*
X1242627Y2499707D1*
X1242334Y2499001D1*
X2030834Y2459834D2*
X1820167D1*
G02X1780001Y2500001I-4J40163D01*
G01*
Y2680001D2*
Y2500001D1*
X5144001Y1160001D2*
D18*
X5130001D1*
X4970001Y1320001D1*
Y1450001D1*
X4630001Y1790001D1*
X4280001D1*
X4100001Y1610001D1*
Y1406667D1*
X4100334Y1406334D1*
X4890001Y1160001D2*
Y1450001D1*
X4610001Y1730001D1*
X4310001D1*
X4230001Y1650001D1*
Y1409001D1*
X4227334Y1406334D1*
X3465334Y3259334D2*
Y3064667D1*
X3650001Y2880001D1*
X4790001D1*
X4940001Y3030001D1*
X5280001D1*
X5350001Y2960001D1*
Y2890001D1*
X5410001Y2830001D1*
X5530001D1*
Y3084001D2*
X4884001D1*
X4740001Y2940001D1*
X3730001D1*
X3590001Y3080001D1*
Y3257001D1*
X3592334Y3259334D1*
X5115001Y2255001D2*
X4890001D1*
X4830001Y2430001D2*
X4840001D1*
Y2820001D1*
X4935001Y2915001D1*
X5115001D1*
X2605667Y3771001D2*
Y3744334D1*
X2700001Y3650001D1*
X3680001D1*
X3750001Y3580001D1*
Y3470001D1*
X3830001Y3390001D1*
Y3275667D1*
X3846334Y3259334D1*
X2859667Y3771001D2*
Y3879667D1*
X2900001Y3920001D1*
X3920001D1*
X4000001Y3840001D1*
Y3430001D1*
X3970001Y3400001D1*
Y3262667D1*
X3973334Y3259334D1*
D20*
X3287334Y2786667D3*
X2957334Y2230001D3*
X3840001Y1670001D3*
X4610001Y3010001D3*
X4370001Y1640001D3*
X4481334Y1641334D3*
X2831001Y2042334D3*
X4890001Y2255001D3*
X4830001Y2430001D3*
X1600001Y2700001D3*
X2400001Y2500001D3*
X1600001Y2900001D3*
X2000001D3*
X2200001D3*
X2400001D3*
X2200001Y2700001D3*
Y2500001D3*
Y2300001D3*
Y2100001D3*
X2400001Y2700001D3*
X2200001Y1900001D3*
X1600001Y2300001D3*
X2200001Y1700001D3*
X1800001D3*
X1600001D3*
X1800001Y3100001D3*
X1400001Y1900001D3*
Y1700001D3*
X1600001Y2100001D3*
X1200001Y1900001D3*
Y1700001D3*
X2400001Y2300001D3*
Y2100001D3*
Y1900001D3*
Y1700001D3*
X1600001Y1900001D3*
Y3300001D3*
X1400001D3*
X1800001D3*
X2200001Y3100001D3*
X2600001Y2700001D3*
Y2500001D3*
Y2300001D3*
Y2100001D3*
Y1900001D3*
Y1700001D3*
X2000001Y3100001D3*
Y3300001D3*
X1800001Y2300001D3*
Y2100001D3*
Y1900001D3*
X2000001Y1700001D3*
X4480001Y2370334D3*
X1608964Y3864484D2*
D16*
X1751291D1*
X1936137D2*
X2005291D1*
X2190137D2*
X2259291D1*
X2444137D2*
X2513291D1*
X2698137D2*
X2767291D1*
X4222137D2*
X4270154D1*
X4497344D2*
X4524037D1*
X4751344D2*
X4778037D1*
X5005344D2*
X5032037D1*
X5259344D2*
X5307291D1*
X5492137D2*
X5540154D1*
X5767344D2*
X5815291D1*
X6000137D2*
X6048154D1*
X6275344D2*
X6302037D1*
X6529344D2*
X6556037D1*
X6783344D2*
X6890701D1*
X1651254Y3801317D2*
X1713961D1*
X6815094D2*
X6848407D1*
X1676061Y3738151D2*
X1714581D1*
X1687097Y3674984D2*
X1754144D1*
X1933284D2*
X2008144D1*
X2187284D2*
X2262144D1*
X2441284D2*
X2516144D1*
X4219284D2*
X4272317D1*
X4494987D2*
X4526317D1*
X4748987D2*
X4780317D1*
X5002987D2*
X5034317D1*
X5256987D2*
X5310144D1*
X5489284D2*
X5542317D1*
X5764987D2*
X5818144D1*
X5997284D2*
X6050317D1*
X6272987D2*
X6304317D1*
X6526987D2*
X6558317D1*
X6780987D2*
X6812491D1*
X2210104Y3611817D2*
X2239141D1*
X2464104D2*
X2493141D1*
X4242104D2*
X4271141D1*
X4496104D2*
X4525141D1*
X4750104D2*
X4800781D1*
X4982647D2*
X5033201D1*
X5258104D2*
X5287141D1*
X5512104D2*
X5541141D1*
X5766104D2*
X5795141D1*
X6020104D2*
X6049141D1*
X6274104D2*
X6324781D1*
X6506647D2*
X6578781D1*
X6760647D2*
X6813681D1*
X1672464Y3548651D2*
X1694961D1*
X6799097D2*
X6827137D1*
X1644804Y3485484D2*
X1694984D1*
X6799097D2*
X6854857D1*
X1078764Y3422317D2*
X1100881D1*
X1598421D2*
X1694984D1*
X4750227D2*
X4800534D1*
X4982774D2*
X5033077D1*
X5258227D2*
X5287147D1*
X5512227D2*
X5541147D1*
X5766227D2*
X5795147D1*
X6020227D2*
X6049147D1*
X6274227D2*
X6324534D1*
X6506774D2*
X6578534D1*
X6760774D2*
X6901241D1*
X1078764Y3359151D2*
X1181901D1*
X1517434D2*
X2086404D1*
X4717237D2*
X5747701D1*
X5956357D2*
X6001701D1*
X6210357D2*
X6255701D1*
X6464357D2*
X6509701D1*
X6718357D2*
X6763701D1*
X1429874Y3295984D2*
X2086404D1*
X4717237D2*
X5709127D1*
X1429874Y3232817D2*
X2086404D1*
X4717237D2*
X5705284D1*
X1519667Y3169651D2*
X2086404D1*
X4717237D2*
X5429827D1*
X5630174D2*
X5732567D1*
X1222381Y3106484D2*
X1298357D1*
X1759774D2*
X2086404D1*
X4717237D2*
X4813927D1*
X5661427D2*
X5749064D1*
X5954991D2*
X6003064D1*
X6208991D2*
X6257064D1*
X6462991D2*
X6511064D1*
X6716991D2*
X6765064D1*
X6970991D2*
X7019064D1*
X7224991D2*
X7273064D1*
X1222381Y3043317D2*
X1298357D1*
X1819927D2*
X3127331D1*
X3351617D2*
X3401921D1*
X3719221D2*
X4750801D1*
X5656717D2*
X5709501D1*
X1519667Y2980151D2*
X1612261D1*
X1854531D2*
X3183267D1*
X3371087D2*
X3457357D1*
X5609587D2*
X5705034D1*
X1429874Y2916984D2*
X1674397D1*
X1885661D2*
X3203607D1*
X3371087D2*
X3520487D1*
X5248431D2*
X5282641D1*
X5663414D2*
X5731577D1*
X1503791Y2853817D2*
X1674397D1*
X1885661D2*
X3203607D1*
X3371087D2*
X3583614D1*
X5248431D2*
X5294641D1*
X5663414D2*
X5750551D1*
X5953504D2*
X6004551D1*
X6207504D2*
X6258551D1*
X6461504D2*
X6512551D1*
X6715504D2*
X6766551D1*
X6969504D2*
X7020551D1*
X7223504D2*
X7274551D1*
X1503791Y2790651D2*
X1674397D1*
X2202911D2*
X3188971D1*
X3385724D2*
X4772751D1*
X4907241D2*
X4981607D1*
X5248431D2*
X5356777D1*
X5663414D2*
X5709871D1*
X1503791Y2727484D2*
X1674397D1*
X2202911D2*
X3210427D1*
X3364267D2*
X4772751D1*
X4907241D2*
X4981607D1*
X5248431D2*
X5396591D1*
X5663414D2*
X5704787D1*
X1531077Y2664317D2*
X1674397D1*
X2202911D2*
X4772751D1*
X4907241D2*
X4981607D1*
X5248431D2*
X5730584D1*
X1531077Y2601151D2*
X1674397D1*
X2202911D2*
X4772751D1*
X4907241D2*
X5752041D1*
X5952014D2*
X6006041D1*
X6206014D2*
X6260041D1*
X6460014D2*
X6514041D1*
X6714014D2*
X6768041D1*
X6968014D2*
X7022041D1*
X7222014D2*
X7276041D1*
X2202911Y2537984D2*
X4772751D1*
X4907241D2*
X4981607D1*
X5248431D2*
X5710367D1*
X2200184Y2474817D2*
X4743234D1*
X4916791D2*
X4981607D1*
X5248431D2*
X5396591D1*
X5663414D2*
X5704664D1*
X2202911Y2411651D2*
X4733437D1*
X4926591D2*
X4981607D1*
X5248431D2*
X5396591D1*
X5663414D2*
X5729591D1*
X1531077Y2348484D2*
X1858697D1*
X2202911D2*
X4780814D1*
X4879087D2*
X4981607D1*
X5248431D2*
X5396591D1*
X5663414D2*
X5753527D1*
X5950404D2*
X6007527D1*
X6204404D2*
X6261527D1*
X6458404D2*
X6515527D1*
X6712404D2*
X6769527D1*
X6966404D2*
X7023527D1*
X7220404D2*
X7277527D1*
X1502797Y2285317D2*
X1843441D1*
X2218167D2*
X2880031D1*
X3039944D2*
X4796687D1*
X5248431D2*
X5396591D1*
X5663414D2*
X5710741D1*
X1502797Y2222151D2*
X1843441D1*
X2218167D2*
X2861921D1*
X3058054D2*
X4797681D1*
X5248431D2*
X5440617D1*
X5619384D2*
X5704541D1*
X1502797Y2158984D2*
X1843441D1*
X2218167D2*
X2869611D1*
X3049867D2*
X4981607D1*
X5248431D2*
X5400931D1*
X5659071D2*
X5728724D1*
X1078764Y2095817D2*
X1843441D1*
X2218167D2*
X2749681D1*
X3049744D2*
X5400187D1*
X5659817D2*
X5755141D1*
X5948791D2*
X6009141D1*
X6202791D2*
X6263141D1*
X6456791D2*
X6517141D1*
X6710791D2*
X6771141D1*
X6964791D2*
X7025141D1*
X7218791D2*
X7279141D1*
X1078764Y2032651D2*
X1858697D1*
X2202911D2*
X2733061D1*
X3049494D2*
X3332964D1*
X4787064D2*
X5437394D1*
X5622611D2*
X5711237D1*
X1078764Y1969484D2*
X1858697D1*
X2202911D2*
X2763694D1*
X3049247D2*
X3266984D1*
X4853044D2*
X5704291D1*
X1078764Y1906317D2*
X1858697D1*
X2202911D2*
X2763694D1*
X3049124D2*
X3203854D1*
X4916171D2*
X5727731D1*
X1078764Y1843151D2*
X2763694D1*
X3048874D2*
X3140604D1*
X4979424D2*
X5756754D1*
X5947177D2*
X6010754D1*
X6201177D2*
X6264754D1*
X6455177D2*
X6518754D1*
X6709177D2*
X6772754D1*
X6963177D2*
X7026754D1*
X7217177D2*
X7280754D1*
X1078764Y1779984D2*
X2763694D1*
X3048627D2*
X3077511D1*
X3442524D2*
X3567491D1*
X5042551D2*
X5711734D1*
X1078764Y1716817D2*
X2763694D1*
X3407304D2*
X3504364D1*
X3689331D2*
X4114311D1*
X5105681D2*
X5704167D1*
X1078764Y1653651D2*
X1211171D1*
X1488164D2*
X2738147D1*
X3407304D2*
X3441184D1*
X3626204D2*
X4051184D1*
X5168807D2*
X5726864D1*
X1078764Y1590484D2*
X1115251D1*
X1584034D2*
X2675017D1*
X3562951D2*
X4032704D1*
X4564441D2*
X4657037D1*
X5232061D2*
X5830794D1*
X5873261D2*
X6084794D1*
X6127261D2*
X6338794D1*
X6381261D2*
X6592794D1*
X6635261D2*
X6846794D1*
X6889261D2*
X6915684D1*
X1636124Y1527317D2*
X2086404D1*
X6155167D2*
X6863414D1*
X1667501Y1464151D2*
X2086404D1*
X4717237D2*
X4783294D1*
X6216804D2*
X6831911D1*
X1683997Y1400984D2*
X2086404D1*
X4717237D2*
X4822734D1*
X5972851D2*
X6092734D1*
X6227224D2*
X6815417D1*
X1687967Y1337817D2*
X2086404D1*
X4717237D2*
X4822734D1*
X5719224D2*
X5838734D1*
X5973224D2*
X6092734D1*
X6227224D2*
X6811447D1*
X1679657Y1274651D2*
X2086404D1*
X4717237D2*
X4822734D1*
X5459147D2*
X5584734D1*
X5719224D2*
X5838734D1*
X5973224D2*
X6026627D1*
X6293451D2*
X6819634D1*
X1658324Y1211484D2*
X2254454D1*
X3519791D2*
X3781557D1*
X3978431D2*
X4121627D1*
X4318377D2*
X4767417D1*
X6293451D2*
X6840841D1*
X1620621Y1148317D2*
X2236967D1*
X3978431D2*
X4121627D1*
X4318377D2*
X4757124D1*
X6293451D2*
X6878421D1*
X1557617Y1085151D2*
X2252967D1*
X3978431D2*
X4121627D1*
X4318377D2*
X4780937D1*
X6293451D2*
X6941177D1*
X1496404Y2335244D2*
Y2116931D1*
X1072317D1*
X1072351Y1531764D1*
X1097151Y1564671D1*
X1114847Y1583821D1*
X1133997Y1601517D1*
X1154474Y1617661D1*
X1176154Y1632147D1*
X1198904Y1644891D1*
X1222584Y1655804D1*
X1247047Y1664831D1*
X1272144Y1671907D1*
X1297717Y1676994D1*
X1323614Y1680061D1*
X1349667Y1681084D1*
X1375721Y1680061D1*
X1401617Y1676994D1*
X1427191Y1671907D1*
X1452287Y1664831D1*
X1476751Y1655804D1*
X1500431Y1644891D1*
X1523181Y1632147D1*
X1544861Y1617661D1*
X1565337Y1601517D1*
X1584487Y1583821D1*
X1602184Y1564671D1*
X1618327Y1544194D1*
X1632814Y1522514D1*
X1645557Y1499764D1*
X1656471Y1476084D1*
X1665497Y1451621D1*
X1672574Y1426524D1*
X1677661Y1400951D1*
X1680727Y1375054D1*
X1681751Y1349001D1*
X1680727Y1322947D1*
X1677661Y1297051D1*
X1672574Y1271477D1*
X1665497Y1246381D1*
X1656471Y1221917D1*
X1645557Y1198237D1*
X1632814Y1175487D1*
X1618327Y1153807D1*
X1602184Y1133331D1*
X1584487Y1114181D1*
X1565337Y1096484D1*
X1532921Y1072361D1*
X2267437Y1072351D1*
X2257114Y1089311D1*
X2249484Y1107734D1*
X2244827Y1127124D1*
X2243264Y1147001D1*
X2244827Y1166877D1*
X2249484Y1186267D1*
X2257114Y1204691D1*
X2267531Y1221691D1*
X2270404Y1225334D1*
X2204544Y1225344D1*
Y1240597D1*
X2092764Y1240564D1*
Y1572104D1*
X2204557D1*
X2204544Y1587324D1*
X2440124D1*
Y1572067D1*
X2662901Y1572104D1*
X2770114Y1679324D1*
X2770041Y1973361D1*
X2756514Y1988217D1*
X2748967Y2000534D1*
X2743437Y2013884D1*
X2740064Y2027931D1*
X2738931Y2042334D1*
X2740064Y2056737D1*
X2743437Y2070784D1*
X2748967Y2084134D1*
X2756514Y2096451D1*
X2765897Y2107437D1*
X2776884Y2116821D1*
X2789201Y2124367D1*
X2802551Y2129897D1*
X2816597Y2133271D1*
X2831001Y2134404D1*
X2845404Y2133271D1*
X2859451Y2129897D1*
X2875881Y2122644D1*
X2876057Y2192291D1*
X2870474Y2208507D1*
X2868214Y2222777D1*
Y2237224D1*
X2870474Y2251494D1*
X2874941Y2265234D1*
X2881497Y2278107D1*
X2889991Y2289794D1*
X2900207Y2300011D1*
X2911894Y2308504D1*
X2924767Y2315061D1*
X2938507Y2319527D1*
X2952777Y2321787D1*
X2967224D1*
X2981494Y2319527D1*
X2995234Y2315061D1*
X3008107Y2308504D1*
X3019794Y2300011D1*
X3030011Y2289794D1*
X3038504Y2278107D1*
X3045061Y2265234D1*
X3049527Y2251494D1*
X3051787Y2237224D1*
Y2222777D1*
X3049527Y2208507D1*
X3043654Y2191714D1*
X3042227Y1737731D1*
X3091797Y1788007D1*
X3334171Y2029317D1*
X3346671Y2036321D1*
X3360464Y2040211D1*
X3370001Y2040961D1*
X4759537Y2040211D1*
X4773331Y2036321D1*
X4785831Y2029317D1*
X4793107Y2023107D1*
X5245317Y1570897D1*
X6084784Y1570774D1*
X6098837Y1567977D1*
X6111851Y1561977D1*
X6123677Y1552487D1*
X6209317Y1465831D1*
X6216321Y1453331D1*
X6220211Y1439537D1*
X6220961Y1430001D1*
Y1287001D1*
X6287071Y1287071D1*
X6287411Y1072351D1*
X6965447D1*
X6933997Y1096151D1*
X6914847Y1113847D1*
X6897151Y1132997D1*
X6881007Y1153474D1*
X6866521Y1175154D1*
X6853777Y1197904D1*
X6842864Y1221584D1*
X6833837Y1246047D1*
X6826761Y1271144D1*
X6821674Y1296717D1*
X6818607Y1322614D1*
X6817584Y1348667D1*
X6818607Y1374721D1*
X6821674Y1400617D1*
X6826761Y1426191D1*
X6833837Y1451287D1*
X6842864Y1475751D1*
X6853777Y1499431D1*
X6866521Y1522181D1*
X6881007Y1543861D1*
X6897151Y1564337D1*
X6914847Y1583487D1*
X6933997Y1601184D1*
X6954474Y1617327D1*
X6976154Y1631814D1*
X7006951Y1648267D1*
X6995017Y1667837D1*
X6983117Y1648364D1*
X6968614Y1631387D1*
X6951637Y1616884D1*
X6932597Y1605221D1*
X6911971Y1596674D1*
X6890261Y1591464D1*
X6868001Y1589711D1*
X6845741Y1591464D1*
X6824031Y1596674D1*
X6803404Y1605221D1*
X6784364Y1616884D1*
X6767387Y1631387D1*
X6752884Y1648364D1*
X6741017Y1667837D1*
X6729117Y1648364D1*
X6714614Y1631387D1*
X6697637Y1616884D1*
X6678597Y1605221D1*
X6657971Y1596674D1*
X6636261Y1591464D1*
X6614001Y1589711D1*
X6591741Y1591464D1*
X6570031Y1596674D1*
X6549404Y1605221D1*
X6530364Y1616884D1*
X6513387Y1631387D1*
X6498884Y1648364D1*
X6487017Y1667837D1*
X6475117Y1648364D1*
X6460614Y1631387D1*
X6443637Y1616884D1*
X6424597Y1605221D1*
X6403971Y1596674D1*
X6382261Y1591464D1*
X6360001Y1589711D1*
X6337741Y1591464D1*
X6316031Y1596674D1*
X6295404Y1605221D1*
X6276364Y1616884D1*
X6259387Y1631387D1*
X6244884Y1648364D1*
X6233017Y1667837D1*
X6221117Y1648364D1*
X6206614Y1631387D1*
X6189637Y1616884D1*
X6170597Y1605221D1*
X6149971Y1596674D1*
X6128261Y1591464D1*
X6106001Y1589711D1*
X6083741Y1591464D1*
X6062031Y1596674D1*
X6041404Y1605221D1*
X6022364Y1616884D1*
X6005387Y1631387D1*
X5990884Y1648364D1*
X5979017Y1667837D1*
X5967117Y1648364D1*
X5952614Y1631387D1*
X5935637Y1616884D1*
X5916597Y1605221D1*
X5895971Y1596674D1*
X5874261Y1591464D1*
X5852001Y1589711D1*
X5829741Y1591464D1*
X5808031Y1596674D1*
X5787404Y1605221D1*
X5768364Y1616884D1*
X5751387Y1631387D1*
X5736884Y1648364D1*
X5725221Y1667404D1*
X5716674Y1688031D1*
X5711464Y1709741D1*
X5709711Y1732001D1*
X5711464Y1754261D1*
X5716674Y1775971D1*
X5725221Y1796597D1*
X5736884Y1815637D1*
X5751387Y1832614D1*
X5768364Y1847117D1*
X5787837Y1858984D1*
X5768364Y1870884D1*
X5751387Y1885387D1*
X5736884Y1902364D1*
X5725221Y1921404D1*
X5716674Y1942031D1*
X5711464Y1963741D1*
X5709711Y1986001D1*
X5711464Y2008261D1*
X5716674Y2029971D1*
X5725221Y2050597D1*
X5736884Y2069637D1*
X5751387Y2086614D1*
X5768364Y2101117D1*
X5787837Y2112984D1*
X5768364Y2124884D1*
X5751387Y2139387D1*
X5736884Y2156364D1*
X5725221Y2175404D1*
X5716674Y2196031D1*
X5711464Y2217741D1*
X5709711Y2240001D1*
X5711464Y2262261D1*
X5716674Y2283971D1*
X5725221Y2304597D1*
X5736884Y2323637D1*
X5751387Y2340614D1*
X5768364Y2355117D1*
X5787837Y2366984D1*
X5768364Y2378884D1*
X5751387Y2393387D1*
X5736884Y2410364D1*
X5725221Y2429404D1*
X5716674Y2450031D1*
X5711464Y2471741D1*
X5709711Y2494001D1*
X5711464Y2516261D1*
X5716674Y2537971D1*
X5725221Y2558597D1*
X5736884Y2577637D1*
X5751387Y2594614D1*
X5768364Y2609117D1*
X5787837Y2620984D1*
X5768364Y2632884D1*
X5751387Y2647387D1*
X5736884Y2664364D1*
X5725221Y2683404D1*
X5716674Y2704031D1*
X5711464Y2725741D1*
X5709711Y2748001D1*
X5711464Y2770261D1*
X5716674Y2791971D1*
X5725221Y2812597D1*
X5736884Y2831637D1*
X5751387Y2848614D1*
X5768364Y2863117D1*
X5787837Y2874984D1*
X5768364Y2886884D1*
X5751387Y2901387D1*
X5736884Y2918364D1*
X5725221Y2937404D1*
X5716674Y2958031D1*
X5711464Y2979741D1*
X5709711Y3002001D1*
X5711464Y3024261D1*
X5716674Y3045971D1*
X5725221Y3066597D1*
X5736884Y3085637D1*
X5751387Y3102614D1*
X5768364Y3117117D1*
X5787837Y3128984D1*
X5768364Y3140884D1*
X5751387Y3155387D1*
X5736884Y3172364D1*
X5725221Y3191404D1*
X5716674Y3212031D1*
X5711464Y3233741D1*
X5709711Y3256001D1*
X5711464Y3278261D1*
X5716674Y3299971D1*
X5725221Y3320597D1*
X5736884Y3339637D1*
X5751387Y3356614D1*
X5768364Y3371117D1*
X5787404Y3382781D1*
X5808031Y3391327D1*
X5831604Y3396761D1*
X5815257Y3408804D1*
X5799471Y3424591D1*
X5786344Y3442654D1*
X5780447Y3452404D1*
X5768784Y3433364D1*
X5754281Y3416387D1*
X5737304Y3401884D1*
X5718264Y3390221D1*
X5697637Y3381674D1*
X5675927Y3376464D1*
X5653667Y3374711D1*
X5631407Y3376464D1*
X5609697Y3381674D1*
X5589071Y3390221D1*
X5570031Y3401884D1*
X5553054Y3416387D1*
X5538551Y3433364D1*
X5526684Y3452837D1*
X5514784Y3433364D1*
X5500281Y3416387D1*
X5483304Y3401884D1*
X5464264Y3390221D1*
X5443637Y3381674D1*
X5421927Y3376464D1*
X5399667Y3374711D1*
X5377407Y3376464D1*
X5355697Y3381674D1*
X5335071Y3390221D1*
X5316031Y3401884D1*
X5299054Y3416387D1*
X5284551Y3433364D1*
X5272684Y3452837D1*
X5260784Y3433364D1*
X5246281Y3416387D1*
X5229304Y3401884D1*
X5210264Y3390221D1*
X5189637Y3381674D1*
X5167927Y3376464D1*
X5145667Y3374711D1*
X5123407Y3376464D1*
X5101697Y3381674D1*
X5081071Y3390221D1*
X5062031Y3401884D1*
X5045054Y3416387D1*
X5030551Y3433364D1*
X5018887Y3452404D1*
X5010597Y3472334D1*
X5003197Y3456111D1*
X4992854Y3440137D1*
X4980237Y3425884D1*
X4965637Y3413677D1*
X4949374Y3403791D1*
X4931817Y3396441D1*
X4913361Y3391797D1*
X4894417Y3389961D1*
X4875414Y3390974D1*
X4856774Y3394817D1*
X4838914Y3401397D1*
X4822241Y3410574D1*
X4807124Y3422137D1*
X4793904Y3435827D1*
X4782877Y3451341D1*
X4774291Y3468324D1*
X4772764Y3472281D1*
X4764447Y3452404D1*
X4752784Y3433364D1*
X4738281Y3416387D1*
X4721304Y3401884D1*
X4710911Y3395061D1*
X4710904Y3093564D1*
X4599111D1*
X4599124Y3078344D1*
X3982544D1*
Y3093597D1*
X3662534Y3093564D1*
X3755271Y3000944D1*
X4714754Y3000961D1*
X4848171Y3133317D1*
X4860671Y3140321D1*
X4874464Y3144211D1*
X4884001Y3144961D1*
X5418417D1*
X5427197Y3158691D1*
X5440147Y3173854D1*
X5455311Y3186804D1*
X5472311Y3197221D1*
X5490734Y3204851D1*
X5510124Y3209507D1*
X5530001Y3211071D1*
X5549877Y3209507D1*
X5569267Y3204851D1*
X5587691Y3197221D1*
X5604691Y3186804D1*
X5619854Y3173854D1*
X5632804Y3158691D1*
X5643221Y3141691D1*
X5650851Y3123267D1*
X5655507Y3103877D1*
X5657071Y3084001D1*
X5655507Y3064124D1*
X5650851Y3044734D1*
X5643221Y3026311D1*
X5632804Y3009311D1*
X5619854Y2994147D1*
X5604691Y2981197D1*
X5587691Y2970781D1*
X5569267Y2963151D1*
X5549877Y2958494D1*
X5533544Y2957071D1*
X5657071D1*
Y2702931D1*
X5402931D1*
Y2769531D1*
X5391164Y2772024D1*
X5378151Y2778024D1*
X5366894Y2786894D1*
X5300684Y2854171D1*
X5293681Y2866671D1*
X5289791Y2880464D1*
X5289041Y2890001D1*
Y2934774D1*
X5254714Y2969074D1*
X5242071Y2968571D1*
Y2607931D1*
X4987931D1*
Y2854114D1*
X4955654Y2849444D1*
X4900844Y2794634D1*
X4900961Y2488734D1*
X4912034Y2471801D1*
X4917564Y2458451D1*
X4920937Y2444404D1*
X4922071Y2430001D1*
X4920937Y2415597D1*
X4917564Y2401551D1*
X4912034Y2388201D1*
X4904487Y2375884D1*
X4895104Y2364897D1*
X4884117Y2355514D1*
X4871801Y2347967D1*
X4858451Y2342437D1*
X4844404Y2339064D1*
X4830001Y2337931D1*
X4815597Y2339064D1*
X4801551Y2342437D1*
X4788201Y2347967D1*
X4775884Y2355514D1*
X4764897Y2364897D1*
X4755514Y2375884D1*
X4747967Y2388201D1*
X4742437Y2401551D1*
X4739064Y2415597D1*
X4737931Y2430001D1*
X4739064Y2444404D1*
X4742437Y2458451D1*
X4747967Y2471801D1*
X4755514Y2484117D1*
X4764897Y2495104D1*
X4779054Y2506604D1*
X4779041Y2819051D1*
X3640464Y2819791D1*
X3626671Y2823681D1*
X3614171Y2830684D1*
X3606894Y2836894D1*
X3416017Y3028837D1*
X3409014Y3041337D1*
X3405124Y3055131D1*
X3404374Y3064667D1*
Y3093564D1*
X3295277D1*
X3346244Y3042314D1*
X3356361Y3027171D1*
X3362664Y3010087D1*
X3364804Y2992001D1*
X3364771Y2991171D1*
X3364804Y2836351D1*
X3372394Y2821901D1*
X3376861Y2808161D1*
X3379121Y2793891D1*
Y2779444D1*
X3376861Y2765174D1*
X3372394Y2751434D1*
X3365837Y2738561D1*
X3357344Y2726874D1*
X3347127Y2716657D1*
X3335441Y2708164D1*
X3322567Y2701607D1*
X3308827Y2697141D1*
X3294557Y2694881D1*
X3280111D1*
X3265841Y2697141D1*
X3252101Y2701607D1*
X3239227Y2708164D1*
X3227541Y2716657D1*
X3217324Y2726874D1*
X3208831Y2738561D1*
X3202274Y2751434D1*
X3197807Y2765174D1*
X3195547Y2779444D1*
Y2793891D1*
X3197807Y2808161D1*
X3202274Y2821901D1*
X3209884Y2836347D1*
X3209864Y2959927D1*
X3145424Y3024687D1*
X3135307Y3039831D1*
X3129004Y3056914D1*
X3126864Y3075001D1*
X3126897Y3075831D1*
X3126864Y3078351D1*
X2585544Y3078344D1*
X2204544D1*
Y3093597D1*
X2092764Y3093564D1*
Y3374774D1*
X2075407Y3376464D1*
X2053697Y3381674D1*
X2033071Y3390221D1*
X2014031Y3401884D1*
X1997054Y3416387D1*
X1985984Y3429011D1*
X1985957Y3374711D1*
X1701377D1*
Y3659291D1*
X1783111D1*
X1768977Y3668197D1*
X1753814Y3681147D1*
X1740864Y3696311D1*
X1730447Y3713311D1*
X1722817Y3731734D1*
X1718161Y3751124D1*
X1716597Y3771001D1*
X1718161Y3790877D1*
X1722817Y3810267D1*
X1730447Y3828691D1*
X1740864Y3845691D1*
X1753814Y3860854D1*
X1768977Y3873804D1*
X1785977Y3884221D1*
X1804401Y3891851D1*
X1823791Y3896507D1*
X1843667Y3898071D1*
X1863544Y3896507D1*
X1882934Y3891851D1*
X1901357Y3884221D1*
X1918357Y3873804D1*
X1933521Y3860854D1*
X1946471Y3845691D1*
X1956887Y3828691D1*
X1964517Y3810267D1*
X1969174Y3790877D1*
X1970627Y3773767D1*
X1972161Y3790877D1*
X1976817Y3810267D1*
X1984447Y3828691D1*
X1994864Y3845691D1*
X2007814Y3860854D1*
X2022977Y3873804D1*
X2039977Y3884221D1*
X2058401Y3891851D1*
X2077791Y3896507D1*
X2097667Y3898071D1*
X2117544Y3896507D1*
X2136934Y3891851D1*
X2155357Y3884221D1*
X2172357Y3873804D1*
X2187521Y3860854D1*
X2200471Y3845691D1*
X2210887Y3828691D1*
X2218517Y3810267D1*
X2223174Y3790877D1*
X2224627Y3773767D1*
X2226151Y3790817D1*
X2230521Y3809341D1*
X2237604Y3827004D1*
X2247251Y3843414D1*
X2259234Y3858197D1*
X2273294Y3871024D1*
X2289114Y3881607D1*
X2306334Y3889711D1*
X2324574Y3895147D1*
X2343421Y3897804D1*
X2362451Y3897611D1*
X2381241Y3894581D1*
X2399367Y3888777D1*
X2416421Y3880334D1*
X2432024Y3869434D1*
X2445827Y3856331D1*
X2457514Y3841307D1*
X2466827Y3824711D1*
X2473557Y3806911D1*
X2477554Y3788301D1*
X2478664Y3775054D1*
X2480161Y3790877D1*
X2484817Y3810267D1*
X2492447Y3828691D1*
X2502864Y3845691D1*
X2515814Y3860854D1*
X2530977Y3873804D1*
X2547977Y3884221D1*
X2566401Y3891851D1*
X2585791Y3896507D1*
X2605667Y3898071D1*
X2625544Y3896507D1*
X2644934Y3891851D1*
X2663357Y3884221D1*
X2680357Y3873804D1*
X2695521Y3860854D1*
X2708471Y3845691D1*
X2718887Y3828691D1*
X2726517Y3810267D1*
X2731174Y3790877D1*
X2732627Y3773767D1*
X2734161Y3790877D1*
X2738817Y3810267D1*
X2746447Y3828691D1*
X2756864Y3845691D1*
X2769814Y3860854D1*
X2784977Y3873804D1*
X2798817Y3882451D1*
X2800391Y3893897D1*
X2805351Y3907344D1*
X2813314Y3919257D1*
X2821384Y3927597D1*
X1530837Y3927651D1*
X1565337Y3901851D1*
X1584487Y3884154D1*
X1602184Y3865004D1*
X1618327Y3844527D1*
X1632814Y3822847D1*
X1645557Y3800097D1*
X1656471Y3776417D1*
X1665497Y3751954D1*
X1672574Y3726857D1*
X1677661Y3701284D1*
X1680727Y3675387D1*
X1681751Y3649334D1*
X1680727Y3623281D1*
X1677661Y3597384D1*
X1672574Y3571811D1*
X1665497Y3546714D1*
X1656471Y3522251D1*
X1645557Y3498571D1*
X1632814Y3475821D1*
X1618327Y3454141D1*
X1602184Y3433664D1*
X1584487Y3414514D1*
X1565337Y3396817D1*
X1544861Y3380674D1*
X1523181Y3366187D1*
X1500431Y3353444D1*
X1476751Y3342531D1*
X1452287Y3333504D1*
X1423571Y3325371D1*
Y3182767D1*
X1513291Y3182791D1*
Y3169271D1*
X1575841Y3169101D1*
X1610224Y3166571D1*
X1648587Y3158784D1*
X1685611Y3146054D1*
X1720654Y3128604D1*
X1753121Y3106727D1*
X1782454Y3080801D1*
X1808151Y3051267D1*
X1829774Y3018631D1*
X1846951Y2983451D1*
X1856677Y2955074D1*
X1879291Y2954291D1*
Y2816501D1*
X2196604Y2816404D1*
Y2484264D1*
X2193801D1*
X2193824Y2435477D1*
X2196604Y2435404D1*
Y2323611D1*
X2211824Y2323624D1*
Y2088044D1*
X2196571D1*
X2196604Y1849264D1*
X1865064D1*
Y2088057D1*
X1849844Y2088044D1*
Y2323624D1*
X1865097D1*
X1865064Y2370584D1*
X1811427Y2370957D1*
X1792357Y2373627D1*
X1771711Y2379954D1*
X1754434Y2388474D1*
X1739667Y2398667D1*
X1725541Y2400711D1*
X1524661D1*
X1524751Y2335251D1*
X1496351D1*
X1423554Y2880071D2*
X1497404D1*
Y2664741D1*
X1524751Y2664751D1*
Y2599391D1*
X1680797Y2599291D1*
X1680711Y2917484D1*
X1674267Y2930474D1*
X1665484Y2943564D1*
X1655064Y2955401D1*
X1643191Y2965771D1*
X1630064Y2974504D1*
X1615911Y2981451D1*
X1600971Y2986487D1*
X1585501Y2989534D1*
X1538251Y2990711D1*
X1513321D1*
X1513291Y2979211D1*
X1423621D1*
X1423571Y2880091D1*
X4994281Y2562071D2*
X5242071D1*
Y2137931D1*
X4987931D1*
Y2194114D1*
X4955104Y2189897D1*
X4944117Y2180514D1*
X4931801Y2172967D1*
X4918451Y2167437D1*
X4904404Y2164064D1*
X4890001Y2162931D1*
X4875597Y2164064D1*
X4861551Y2167437D1*
X4848201Y2172967D1*
X4835884Y2180514D1*
X4824897Y2189897D1*
X4815514Y2200884D1*
X4807967Y2213201D1*
X4802437Y2226551D1*
X4799064Y2240597D1*
X4797931Y2255001D1*
X4799064Y2269404D1*
X4802437Y2283451D1*
X4807967Y2296801D1*
X4815514Y2309117D1*
X4824897Y2320104D1*
X4835884Y2329487D1*
X4848201Y2337034D1*
X4861551Y2342564D1*
X4875597Y2345937D1*
X4890001Y2347071D1*
X4904404Y2345937D1*
X4918451Y2342564D1*
X4931801Y2337034D1*
X4944117Y2329487D1*
X4958957Y2315937D1*
X4987854Y2315961D1*
X4987931Y2562071D1*
X4994281D1*
X1234721Y3338051D2*
X1198904Y3353444D1*
X1176154Y3366187D1*
X1154474Y3380674D1*
X1133997Y3396817D1*
X1114847Y3414514D1*
X1097151Y3433664D1*
X1072347Y3467097D1*
X1072354Y3185494D1*
X1094427Y3185571D1*
X1094431Y3338071D1*
X1233957D1*
X7012834Y3347177D2*
X6976487Y3366187D1*
X6954807Y3380674D1*
X6934331Y3396817D1*
X6915181Y3414514D1*
X6897484Y3433664D1*
X6881341Y3454141D1*
X6866854Y3475821D1*
X6854111Y3498571D1*
X6843197Y3522251D1*
X6834171Y3546714D1*
X6827094Y3571811D1*
X6822007Y3597384D1*
X6818941Y3623281D1*
X6817917Y3649334D1*
X6818941Y3675387D1*
X6822007Y3701284D1*
X6827094Y3726857D1*
X6834171Y3751954D1*
X6843197Y3776417D1*
X6854111Y3800097D1*
X6866854Y3822847D1*
X6881341Y3844527D1*
X6897484Y3865004D1*
X6915181Y3884154D1*
X6934331Y3901851D1*
X6954807Y3917994D1*
X6969287Y3927671D1*
X3998407Y3927647D1*
X4046354Y3879591D1*
X4052097Y3871641D1*
X4067114Y3881607D1*
X4084334Y3889711D1*
X4102574Y3895147D1*
X4121421Y3897804D1*
X4140451Y3897611D1*
X4159241Y3894581D1*
X4177367Y3888777D1*
X4194421Y3880334D1*
X4210024Y3869434D1*
X4223827Y3856331D1*
X4235514Y3841307D1*
X4244827Y3824711D1*
X4248587Y3815667D1*
X4256887Y3835597D1*
X4268551Y3854637D1*
X4283054Y3871614D1*
X4300031Y3886117D1*
X4319071Y3897781D1*
X4339697Y3906327D1*
X4361407Y3911537D1*
X4383667Y3913291D1*
X4405927Y3911537D1*
X4427637Y3906327D1*
X4448264Y3897781D1*
X4467304Y3886117D1*
X4484281Y3871614D1*
X4498784Y3854637D1*
X4510651Y3835164D1*
X4522551Y3854637D1*
X4537054Y3871614D1*
X4554031Y3886117D1*
X4573071Y3897781D1*
X4593697Y3906327D1*
X4615407Y3911537D1*
X4637667Y3913291D1*
X4659927Y3911537D1*
X4681637Y3906327D1*
X4702264Y3897781D1*
X4721304Y3886117D1*
X4738281Y3871614D1*
X4752784Y3854637D1*
X4764651Y3835164D1*
X4776551Y3854637D1*
X4791054Y3871614D1*
X4808031Y3886117D1*
X4827071Y3897781D1*
X4847697Y3906327D1*
X4869407Y3911537D1*
X4891667Y3913291D1*
X4913927Y3911537D1*
X4935637Y3906327D1*
X4956264Y3897781D1*
X4975304Y3886117D1*
X4992281Y3871614D1*
X5006784Y3854637D1*
X5018651Y3835164D1*
X5030551Y3854637D1*
X5045054Y3871614D1*
X5062031Y3886117D1*
X5081071Y3897781D1*
X5101697Y3906327D1*
X5123407Y3911537D1*
X5145667Y3913291D1*
X5167927Y3911537D1*
X5189637Y3906327D1*
X5210264Y3897781D1*
X5229304Y3886117D1*
X5246281Y3871614D1*
X5260784Y3854637D1*
X5272447Y3835597D1*
X5280737Y3815667D1*
X5288544Y3832634D1*
X5298997Y3848537D1*
X5311707Y3862704D1*
X5326391Y3874814D1*
X5342717Y3884594D1*
X5360321Y3891827D1*
X5378807Y3896347D1*
X5397764Y3898057D1*
X5416761Y3896914D1*
X5435377Y3892951D1*
X5453191Y3886247D1*
X5469804Y3876961D1*
X5484841Y3865297D1*
X5497971Y3851521D1*
X5508894Y3835934D1*
X5518587Y3815667D1*
X5526887Y3835597D1*
X5538551Y3854637D1*
X5553054Y3871614D1*
X5570031Y3886117D1*
X5589071Y3897781D1*
X5609697Y3906327D1*
X5631407Y3911537D1*
X5653667Y3913291D1*
X5675927Y3911537D1*
X5697637Y3906327D1*
X5718264Y3897781D1*
X5737304Y3886117D1*
X5754281Y3871614D1*
X5768784Y3854637D1*
X5780447Y3835597D1*
X5788737Y3815667D1*
X5796544Y3832634D1*
X5806997Y3848537D1*
X5819707Y3862704D1*
X5834391Y3874814D1*
X5850717Y3884594D1*
X5868321Y3891827D1*
X5886807Y3896347D1*
X5905764Y3898057D1*
X5924761Y3896914D1*
X5943377Y3892951D1*
X5961191Y3886247D1*
X5977804Y3876961D1*
X5992841Y3865297D1*
X6005971Y3851521D1*
X6016894Y3835934D1*
X6026587Y3815667D1*
X6034887Y3835597D1*
X6046551Y3854637D1*
X6061054Y3871614D1*
X6078031Y3886117D1*
X6097071Y3897781D1*
X6117697Y3906327D1*
X6139407Y3911537D1*
X6161667Y3913291D1*
X6183927Y3911537D1*
X6205637Y3906327D1*
X6226264Y3897781D1*
X6245304Y3886117D1*
X6262281Y3871614D1*
X6276784Y3854637D1*
X6288651Y3835164D1*
X6300551Y3854637D1*
X6315054Y3871614D1*
X6332031Y3886117D1*
X6351071Y3897781D1*
X6371697Y3906327D1*
X6393407Y3911537D1*
X6415667Y3913291D1*
X6437927Y3911537D1*
X6459637Y3906327D1*
X6480264Y3897781D1*
X6499304Y3886117D1*
X6516281Y3871614D1*
X6530784Y3854637D1*
X6542651Y3835164D1*
X6554551Y3854637D1*
X6569054Y3871614D1*
X6586031Y3886117D1*
X6605071Y3897781D1*
X6625697Y3906327D1*
X6647407Y3911537D1*
X6669667Y3913291D1*
X6691927Y3911537D1*
X6713637Y3906327D1*
X6734264Y3897781D1*
X6753304Y3886117D1*
X6770281Y3871614D1*
X6784784Y3854637D1*
X6796447Y3835597D1*
X6804994Y3814971D1*
X6810204Y3793261D1*
X6811957Y3771001D1*
X6810204Y3748741D1*
X6804994Y3727031D1*
X6796447Y3706404D1*
X6784784Y3687364D1*
X6770281Y3670387D1*
X6753304Y3655884D1*
X6734264Y3644221D1*
X6714334Y3635931D1*
X6734421Y3626334D1*
X6750024Y3615434D1*
X6763827Y3602331D1*
X6775514Y3587307D1*
X6784827Y3570711D1*
X6791557Y3552911D1*
X6795554Y3534301D1*
X6796737Y3517001D1*
X6795311Y3498021D1*
X6791067Y3479467D1*
X6784101Y3461757D1*
X6774567Y3445287D1*
X6762677Y3430424D1*
X6748704Y3417504D1*
X6732957Y3406814D1*
X6715791Y3398597D1*
X6697587Y3393037D1*
X6678761Y3390257D1*
X6661191Y3390241D1*
X6678597Y3382781D1*
X6697637Y3371117D1*
X6714614Y3356614D1*
X6729117Y3339637D1*
X6740984Y3320164D1*
X6752884Y3339637D1*
X6767387Y3356614D1*
X6784364Y3371117D1*
X6803404Y3382781D1*
X6824031Y3391327D1*
X6845741Y3396537D1*
X6868001Y3398291D1*
X6890261Y3396537D1*
X6911971Y3391327D1*
X6932597Y3382781D1*
X6951637Y3371117D1*
X6968614Y3356614D1*
X6983117Y3339637D1*
X6994984Y3320164D1*
X7006884Y3339637D1*
X7012694Y3347004D1*
X1904157Y3659291D2*
X1985957D1*
Y3605091D1*
X1997054Y3617614D1*
X2014031Y3632117D1*
X2033071Y3643781D1*
X2053001Y3652071D1*
X2031274Y3662657D1*
X2015141Y3674377D1*
X2001044Y3688474D1*
X1989324Y3704607D1*
X1980271Y3722374D1*
X1974107Y3741337D1*
X1970991Y3761031D1*
X1970707Y3768234D1*
X1969174Y3751124D1*
X1964517Y3731734D1*
X1956887Y3713311D1*
X1946471Y3696311D1*
X1933521Y3681147D1*
X1918357Y3668197D1*
X1904041Y3659284D1*
X2142334Y3652071D2*
X2162264Y3643781D1*
X2181304Y3632117D1*
X2198281Y3617614D1*
X2212784Y3600637D1*
X2224651Y3581164D1*
X2236551Y3600637D1*
X2251054Y3617614D1*
X2268031Y3632117D1*
X2287071Y3643781D1*
X2307001Y3652071D1*
X2287644Y3661237D1*
X2271967Y3672031D1*
X2258081Y3685047D1*
X2246291Y3699987D1*
X2236867Y3716524D1*
X2230017Y3734281D1*
X2225897Y3752861D1*
X2224684Y3767311D1*
X2223174Y3751124D1*
X2218517Y3731734D1*
X2210887Y3713311D1*
X2200471Y3696311D1*
X2187521Y3681147D1*
X2172357Y3668197D1*
X2155357Y3657781D1*
X2142237Y3652107D1*
X2396334Y3652071D2*
X2416264Y3643781D1*
X2435304Y3632117D1*
X2452281Y3617614D1*
X2466784Y3600637D1*
X2478651Y3581164D1*
X2490551Y3600637D1*
X2505054Y3617614D1*
X2522031Y3632117D1*
X2541071Y3643781D1*
X2561001Y3652071D1*
X2539274Y3662657D1*
X2523141Y3674377D1*
X2509044Y3688474D1*
X2497324Y3704607D1*
X2488271Y3722374D1*
X2482107Y3741337D1*
X2478991Y3761031D1*
X2478577Y3764654D1*
X2476207Y3745771D1*
X2471041Y3727451D1*
X2463197Y3710111D1*
X2452854Y3694137D1*
X2440237Y3679884D1*
X2425637Y3667677D1*
X2409374Y3657791D1*
X2396367Y3652084D1*
X4174334Y3652071D2*
X4194264Y3643781D1*
X4213304Y3632117D1*
X4230281Y3617614D1*
X4244784Y3600637D1*
X4256651Y3581164D1*
X4268551Y3600637D1*
X4283054Y3617614D1*
X4300031Y3632117D1*
X4319504Y3643984D1*
X4300031Y3655884D1*
X4283054Y3670387D1*
X4268551Y3687364D1*
X4256887Y3706404D1*
X4248597Y3726334D1*
X4241197Y3710111D1*
X4230854Y3694137D1*
X4218237Y3679884D1*
X4203637Y3667677D1*
X4187374Y3657791D1*
X4174367Y3652084D1*
X4447831Y3643984D2*
X4467304Y3632117D1*
X4484281Y3617614D1*
X4498784Y3600637D1*
X4510651Y3581164D1*
X4522551Y3600637D1*
X4537054Y3617614D1*
X4554031Y3632117D1*
X4573504Y3643984D1*
X4554031Y3655884D1*
X4537054Y3670387D1*
X4522551Y3687364D1*
X4510684Y3706837D1*
X4498784Y3687364D1*
X4484281Y3670387D1*
X4467304Y3655884D1*
X4447831Y3644017D1*
X4701831Y3643984D2*
X4721304Y3632117D1*
X4738281Y3617614D1*
X4752784Y3600637D1*
X4764447Y3581597D1*
X4772737Y3561667D1*
X4780544Y3578634D1*
X4790997Y3594537D1*
X4803707Y3608704D1*
X4818391Y3620814D1*
X4834717Y3630594D1*
X4846921Y3635917D1*
X4827071Y3644221D1*
X4808031Y3655884D1*
X4791054Y3670387D1*
X4776551Y3687364D1*
X4764684Y3706837D1*
X4752784Y3687364D1*
X4738281Y3670387D1*
X4721304Y3655884D1*
X4701831Y3644017D1*
X4936371Y3635904D2*
X4956421Y3626334D1*
X4972024Y3615434D1*
X4985827Y3602331D1*
X4997514Y3587307D1*
X5006827Y3570711D1*
X5010587Y3561667D1*
X5018887Y3581597D1*
X5030551Y3600637D1*
X5045054Y3617614D1*
X5062031Y3632117D1*
X5081504Y3643984D1*
X5062031Y3655884D1*
X5045054Y3670387D1*
X5030551Y3687364D1*
X5018684Y3706837D1*
X5006784Y3687364D1*
X4992281Y3670387D1*
X4975304Y3655884D1*
X4956264Y3644221D1*
X4936334Y3635931D1*
X5209831Y3643984D2*
X5229304Y3632117D1*
X5246281Y3617614D1*
X5260784Y3600637D1*
X5272651Y3581164D1*
X5284551Y3600637D1*
X5299054Y3617614D1*
X5316031Y3632117D1*
X5335071Y3643781D1*
X5355001Y3652071D1*
X5335644Y3661237D1*
X5319967Y3672031D1*
X5306081Y3685047D1*
X5294291Y3699987D1*
X5284867Y3716524D1*
X5280764Y3726281D1*
X5272447Y3706404D1*
X5260784Y3687364D1*
X5246281Y3670387D1*
X5229304Y3655884D1*
X5209831Y3644017D1*
X5444334Y3652071D2*
X5464264Y3643781D1*
X5483304Y3632117D1*
X5500281Y3617614D1*
X5514784Y3600637D1*
X5526651Y3581164D1*
X5538551Y3600637D1*
X5553054Y3617614D1*
X5570031Y3632117D1*
X5589504Y3643984D1*
X5570031Y3655884D1*
X5553054Y3670387D1*
X5538551Y3687364D1*
X5526887Y3706404D1*
X5518597Y3726334D1*
X5511197Y3710111D1*
X5500854Y3694137D1*
X5488237Y3679884D1*
X5473637Y3667677D1*
X5457374Y3657791D1*
X5444367Y3652084D1*
X5717831Y3643984D2*
X5737304Y3632117D1*
X5754281Y3617614D1*
X5768784Y3600637D1*
X5780651Y3581164D1*
X5792551Y3600637D1*
X5807054Y3617614D1*
X5824031Y3632117D1*
X5843071Y3643781D1*
X5863001Y3652071D1*
X5843644Y3661237D1*
X5827967Y3672031D1*
X5814081Y3685047D1*
X5802291Y3699987D1*
X5792867Y3716524D1*
X5788764Y3726281D1*
X5780447Y3706404D1*
X5768784Y3687364D1*
X5754281Y3670387D1*
X5737304Y3655884D1*
X5717831Y3644017D1*
X6034651Y3452837D2*
X6022784Y3433364D1*
X6008281Y3416387D1*
X5991304Y3401884D1*
X5972264Y3390221D1*
X5951637Y3381674D1*
X5928064Y3376241D1*
X5944411Y3364197D1*
X5960197Y3348411D1*
X5973324Y3330347D1*
X5979221Y3320597D1*
X5990884Y3339637D1*
X6005387Y3356614D1*
X6022364Y3371117D1*
X6041404Y3382781D1*
X6062031Y3391327D1*
X6085604Y3396761D1*
X6069257Y3408804D1*
X6053471Y3424591D1*
X6040344Y3442654D1*
X6034684Y3452837D1*
X5952334Y3652071D2*
X5972264Y3643781D1*
X5991304Y3632117D1*
X6008281Y3617614D1*
X6022784Y3600637D1*
X6034651Y3581164D1*
X6046551Y3600637D1*
X6061054Y3617614D1*
X6078031Y3632117D1*
X6097504Y3643984D1*
X6078031Y3655884D1*
X6061054Y3670387D1*
X6046551Y3687364D1*
X6034887Y3706404D1*
X6026597Y3726334D1*
X6019197Y3710111D1*
X6008854Y3694137D1*
X5996237Y3679884D1*
X5981637Y3667677D1*
X5965374Y3657791D1*
X5952367Y3652084D1*
X6296737Y3472334D2*
X6288447Y3452404D1*
X6276784Y3433364D1*
X6262281Y3416387D1*
X6245304Y3401884D1*
X6226264Y3390221D1*
X6205637Y3381674D1*
X6182064Y3376241D1*
X6198411Y3364197D1*
X6214197Y3348411D1*
X6227324Y3330347D1*
X6233221Y3320597D1*
X6244884Y3339637D1*
X6259387Y3356614D1*
X6276364Y3371117D1*
X6295404Y3382781D1*
X6316031Y3391327D1*
X6337741Y3396537D1*
X6360001Y3398291D1*
X6371641Y3397794D1*
X6349274Y3408657D1*
X6333141Y3420377D1*
X6319044Y3434474D1*
X6307324Y3450607D1*
X6298271Y3468374D1*
X6296774Y3472431D1*
X6225831Y3643984D2*
X6245304Y3632117D1*
X6262281Y3617614D1*
X6276784Y3600637D1*
X6288447Y3581597D1*
X6296737Y3561667D1*
X6307324Y3583394D1*
X6319044Y3599527D1*
X6333141Y3613624D1*
X6349274Y3625344D1*
X6367041Y3634397D1*
X6371097Y3635894D1*
X6351071Y3644221D1*
X6332031Y3655884D1*
X6315054Y3670387D1*
X6300551Y3687364D1*
X6288684Y3706837D1*
X6276784Y3687364D1*
X6262281Y3670387D1*
X6245304Y3655884D1*
X6225831Y3644017D1*
X6542627Y3514234D2*
X6541174Y3497124D1*
X6536517Y3477734D1*
X6528887Y3459311D1*
X6518471Y3442311D1*
X6505521Y3427147D1*
X6490357Y3414197D1*
X6473357Y3403781D1*
X6454934Y3396151D1*
X6435544Y3391494D1*
X6415667Y3389931D1*
X6407137Y3390267D1*
X6424597Y3382781D1*
X6443637Y3371117D1*
X6460614Y3356614D1*
X6475117Y3339637D1*
X6486984Y3320164D1*
X6498884Y3339637D1*
X6513387Y3356614D1*
X6530364Y3371117D1*
X6549404Y3382781D1*
X6570031Y3391327D1*
X6591741Y3396537D1*
X6614001Y3398291D1*
X6625641Y3397794D1*
X6605644Y3407237D1*
X6589967Y3418031D1*
X6576081Y3431047D1*
X6564291Y3445987D1*
X6554867Y3462524D1*
X6548017Y3480281D1*
X6543897Y3498861D1*
X6542344Y3526971D1*
X6542627Y3519767D1*
X6544151Y3536817D1*
X6548521Y3555341D1*
X6555604Y3573004D1*
X6565251Y3589414D1*
X6577234Y3604197D1*
X6591294Y3617024D1*
X6607114Y3627607D1*
X6624921Y3635917D1*
X6605071Y3644221D1*
X6586031Y3655884D1*
X6569054Y3670387D1*
X6554551Y3687364D1*
X6542684Y3706837D1*
X6530784Y3687364D1*
X6516281Y3670387D1*
X6499304Y3655884D1*
X6480264Y3644221D1*
X6460334Y3635931D1*
X6482061Y3625344D1*
X6498194Y3613624D1*
X6512291Y3599527D1*
X6524011Y3583394D1*
X6533064Y3565627D1*
X6539227Y3546664D1*
X6542344Y3526971D1*
X6064681Y1287071D2*
X6099034D1*
X6099041Y1404697D1*
X6054717Y1449074D1*
X5937001Y1449041D1*
X5955317Y1429831D1*
X5962321Y1417331D1*
X5966211Y1403537D1*
X5966961Y1394001D1*
Y1271591D1*
X5980691Y1262804D1*
X5995854Y1249854D1*
X6008804Y1234691D1*
X6019221Y1217691D1*
X6026851Y1199267D1*
X6031507Y1179877D1*
X6032931Y1163544D1*
Y1287071D1*
X6064681D1*
X5779041Y1162767D2*
X5780494Y1179877D1*
X5785151Y1199267D1*
X5792781Y1217691D1*
X5803197Y1234691D1*
X5816147Y1249854D1*
X5831311Y1262804D1*
X5845081Y1271411D1*
X5845041Y1368731D1*
X5824747Y1389044D1*
X5687157Y1389041D1*
X5701317Y1373831D1*
X5708321Y1361331D1*
X5712211Y1347537D1*
X5712961Y1338001D1*
Y1271401D1*
X5726691Y1262804D1*
X5741854Y1249854D1*
X5754804Y1234691D1*
X5765221Y1217691D1*
X5772851Y1199267D1*
X5777507Y1179877D1*
X5778961Y1162767D1*
X5525041D2*
X5526494Y1179877D1*
X5531151Y1199267D1*
X5538781Y1217691D1*
X5549197Y1234691D1*
X5562147Y1249854D1*
X5577311Y1262804D1*
X5591081Y1271411D1*
X5591041Y1312674D1*
X5574781Y1329011D1*
X5347117Y1329041D1*
X5389491Y1286721D1*
X5407971Y1286677D1*
X5427664Y1283561D1*
X5446627Y1277397D1*
X5464394Y1268344D1*
X5480527Y1256624D1*
X5494624Y1242527D1*
X5506344Y1226394D1*
X5515397Y1208627D1*
X5521561Y1189664D1*
X5524677Y1169971D1*
X5524961Y1162767D1*
X4798164Y1072294D2*
X4787197Y1085311D1*
X4776781Y1102311D1*
X4769151Y1120734D1*
X4764494Y1140124D1*
X4762931Y1160001D1*
X4764494Y1179877D1*
X4769151Y1199267D1*
X4776781Y1217691D1*
X4787197Y1234691D1*
X4800147Y1249854D1*
X4815311Y1262804D1*
X4829081Y1271411D1*
X4829041Y1424791D1*
X4710877Y1542914D1*
X4710904Y1240564D1*
X4312171D1*
X4312071Y1072327D1*
X4798014Y1072351D1*
X5434681Y2507071D2*
X5657071D1*
Y2252931D1*
X5540784Y2252611D1*
X5559574Y2249581D1*
X5577701Y2243777D1*
X5594754Y2235334D1*
X5610357Y2224434D1*
X5624161Y2211331D1*
X5635847Y2196307D1*
X5645161Y2179711D1*
X5651891Y2161911D1*
X5655887Y2143301D1*
X5657071Y2126001D1*
X5655644Y2107021D1*
X5651401Y2088467D1*
X5644434Y2070757D1*
X5634901Y2054287D1*
X5623011Y2039424D1*
X5609037Y2026504D1*
X5593291Y2015814D1*
X5576124Y2007597D1*
X5557921Y2002037D1*
X5539094Y1999257D1*
X5520061Y1999321D1*
X5501254Y2002224D1*
X5483087Y2007907D1*
X5465977Y2016237D1*
X5450301Y2027031D1*
X5436414Y2040047D1*
X5424624Y2054987D1*
X5415201Y2071524D1*
X5408351Y2089281D1*
X5404231Y2107861D1*
X5402934Y2126847D1*
X5404484Y2145817D1*
X5408854Y2164341D1*
X5415937Y2182004D1*
X5425584Y2198414D1*
X5437567Y2213197D1*
X5451627Y2226024D1*
X5467447Y2236607D1*
X5484667Y2244711D1*
X5502907Y2250147D1*
X5524951Y2252931D1*
X5402931D1*
Y2507071D1*
X5434681D1*
X5978984Y2937837D2*
X5967117Y2918364D1*
X5952614Y2901387D1*
X5935637Y2886884D1*
X5916164Y2875017D1*
X5935637Y2863117D1*
X5952614Y2848614D1*
X5967117Y2831637D1*
X5978984Y2812164D1*
X5990884Y2831637D1*
X6005387Y2848614D1*
X6022364Y2863117D1*
X6041837Y2874984D1*
X6022364Y2886884D1*
X6005387Y2901387D1*
X5990884Y2918364D1*
X5979017Y2937837D1*
X5916164Y3128984D2*
X5935637Y3117117D1*
X5952614Y3102614D1*
X5967117Y3085637D1*
X5978984Y3066164D1*
X5990884Y3085637D1*
X6005387Y3102614D1*
X6022364Y3117117D1*
X6041837Y3128984D1*
X6022364Y3140884D1*
X6005387Y3155387D1*
X5990884Y3172364D1*
X5979017Y3191837D1*
X5967117Y3172364D1*
X5952614Y3155387D1*
X5935637Y3140884D1*
X5916164Y3129017D1*
X6232984Y2937837D2*
X6221117Y2918364D1*
X6206614Y2901387D1*
X6189637Y2886884D1*
X6170164Y2875017D1*
X6189637Y2863117D1*
X6206614Y2848614D1*
X6221117Y2831637D1*
X6232984Y2812164D1*
X6244884Y2831637D1*
X6259387Y2848614D1*
X6276364Y2863117D1*
X6295837Y2874984D1*
X6276364Y2886884D1*
X6259387Y2901387D1*
X6244884Y2918364D1*
X6233017Y2937837D1*
X6170164Y3128984D2*
X6189637Y3117117D1*
X6206614Y3102614D1*
X6221117Y3085637D1*
X6232984Y3066164D1*
X6244884Y3085637D1*
X6259387Y3102614D1*
X6276364Y3117117D1*
X6295837Y3128984D1*
X6276364Y3140884D1*
X6259387Y3155387D1*
X6244884Y3172364D1*
X6233017Y3191837D1*
X6221117Y3172364D1*
X6206614Y3155387D1*
X6189637Y3140884D1*
X6170164Y3129017D1*
X6486984Y2937837D2*
X6475117Y2918364D1*
X6460614Y2901387D1*
X6443637Y2886884D1*
X6424164Y2875017D1*
X6443637Y2863117D1*
X6460614Y2848614D1*
X6475117Y2831637D1*
X6486984Y2812164D1*
X6498884Y2831637D1*
X6513387Y2848614D1*
X6530364Y2863117D1*
X6549837Y2874984D1*
X6530364Y2886884D1*
X6513387Y2901387D1*
X6498884Y2918364D1*
X6487017Y2937837D1*
X6424164Y3128984D2*
X6443637Y3117117D1*
X6460614Y3102614D1*
X6475117Y3085637D1*
X6486984Y3066164D1*
X6498884Y3085637D1*
X6513387Y3102614D1*
X6530364Y3117117D1*
X6549837Y3128984D1*
X6530364Y3140884D1*
X6513387Y3155387D1*
X6498884Y3172364D1*
X6487017Y3191837D1*
X6475117Y3172364D1*
X6460614Y3155387D1*
X6443637Y3140884D1*
X6424164Y3129017D1*
X6740984Y2937837D2*
X6729117Y2918364D1*
X6714614Y2901387D1*
X6697637Y2886884D1*
X6678164Y2875017D1*
X6697637Y2863117D1*
X6714614Y2848614D1*
X6729117Y2831637D1*
X6740984Y2812164D1*
X6752884Y2831637D1*
X6767387Y2848614D1*
X6784364Y2863117D1*
X6803837Y2874984D1*
X6784364Y2886884D1*
X6767387Y2901387D1*
X6752884Y2918364D1*
X6741017Y2937837D1*
X6678164Y3128984D2*
X6697637Y3117117D1*
X6714614Y3102614D1*
X6729117Y3085637D1*
X6740984Y3066164D1*
X6752884Y3085637D1*
X6767387Y3102614D1*
X6784364Y3117117D1*
X6803837Y3128984D1*
X6784364Y3140884D1*
X6767387Y3155387D1*
X6752884Y3172364D1*
X6741017Y3191837D1*
X6729117Y3172364D1*
X6714614Y3155387D1*
X6697637Y3140884D1*
X6678164Y3129017D1*
X6994984Y2937837D2*
X6983117Y2918364D1*
X6968614Y2901387D1*
X6951637Y2886884D1*
X6932164Y2875017D1*
X6951637Y2863117D1*
X6968614Y2848614D1*
X6983117Y2831637D1*
X6994984Y2812164D1*
X7006884Y2831637D1*
X7021387Y2848614D1*
X7038364Y2863117D1*
X7057837Y2874984D1*
X7038364Y2886884D1*
X7021387Y2901387D1*
X7006884Y2918364D1*
X6995017Y2937837D1*
X6932164Y3128984D2*
X6951637Y3117117D1*
X6968614Y3102614D1*
X6983117Y3085637D1*
X6994984Y3066164D1*
X7006884Y3085637D1*
X7021387Y3102614D1*
X7038364Y3117117D1*
X7057837Y3128984D1*
X7038364Y3140884D1*
X7021387Y3155387D1*
X7006884Y3172364D1*
X6995017Y3191837D1*
X6983117Y3172364D1*
X6968614Y3155387D1*
X6951637Y3140884D1*
X6932164Y3129017D1*
X7248984Y2937837D2*
X7237117Y2918364D1*
X7222614Y2901387D1*
X7205637Y2886884D1*
X7186164Y2875017D1*
X7205637Y2863117D1*
X7222614Y2848614D1*
X7237117Y2831637D1*
X7248984Y2812164D1*
X7260884Y2831637D1*
X7275387Y2848614D1*
X7292364Y2863117D1*
X7311837Y2874984D1*
X7292364Y2886884D1*
X7275387Y2901387D1*
X7260884Y2918364D1*
X7249017Y2937837D1*
X7186164Y3128984D2*
X7205637Y3117117D1*
X7222614Y3102614D1*
X7237117Y3085637D1*
X7248984Y3066164D1*
X7260884Y3085637D1*
X7275387Y3102614D1*
X7292364Y3117117D1*
X7311837Y3128984D1*
X7292364Y3140884D1*
X7275387Y3155387D1*
X7260884Y3172364D1*
X7249017Y3191837D1*
X7237117Y3172364D1*
X7222614Y3155387D1*
X7205637Y3140884D1*
X7186164Y3129017D1*
X5978984Y2683837D2*
X5967117Y2664364D1*
X5952614Y2647387D1*
X5935637Y2632884D1*
X5916164Y2621017D1*
X5935637Y2609117D1*
X5952614Y2594614D1*
X5967117Y2577637D1*
X5978984Y2558164D1*
X5990884Y2577637D1*
X6005387Y2594614D1*
X6022364Y2609117D1*
X6041837Y2620984D1*
X6022364Y2632884D1*
X6005387Y2647387D1*
X5990884Y2664364D1*
X5979017Y2683837D1*
X6232984D2*
X6221117Y2664364D1*
X6206614Y2647387D1*
X6189637Y2632884D1*
X6170164Y2621017D1*
X6189637Y2609117D1*
X6206614Y2594614D1*
X6221117Y2577637D1*
X6232984Y2558164D1*
X6244884Y2577637D1*
X6259387Y2594614D1*
X6276364Y2609117D1*
X6295837Y2620984D1*
X6276364Y2632884D1*
X6259387Y2647387D1*
X6244884Y2664364D1*
X6233017Y2683837D1*
X6486984D2*
X6475117Y2664364D1*
X6460614Y2647387D1*
X6443637Y2632884D1*
X6424164Y2621017D1*
X6443637Y2609117D1*
X6460614Y2594614D1*
X6475117Y2577637D1*
X6486984Y2558164D1*
X6498884Y2577637D1*
X6513387Y2594614D1*
X6530364Y2609117D1*
X6549837Y2620984D1*
X6530364Y2632884D1*
X6513387Y2647387D1*
X6498884Y2664364D1*
X6487017Y2683837D1*
X6740984D2*
X6729117Y2664364D1*
X6714614Y2647387D1*
X6697637Y2632884D1*
X6678164Y2621017D1*
X6697637Y2609117D1*
X6714614Y2594614D1*
X6729117Y2577637D1*
X6740984Y2558164D1*
X6752884Y2577637D1*
X6767387Y2594614D1*
X6784364Y2609117D1*
X6803837Y2620984D1*
X6784364Y2632884D1*
X6767387Y2647387D1*
X6752884Y2664364D1*
X6741017Y2683837D1*
X6994984D2*
X6983117Y2664364D1*
X6968614Y2647387D1*
X6951637Y2632884D1*
X6932164Y2621017D1*
X6951637Y2609117D1*
X6968614Y2594614D1*
X6983117Y2577637D1*
X6994984Y2558164D1*
X7006884Y2577637D1*
X7021387Y2594614D1*
X7038364Y2609117D1*
X7057837Y2620984D1*
X7038364Y2632884D1*
X7021387Y2647387D1*
X7006884Y2664364D1*
X6995017Y2683837D1*
X7248984D2*
X7237117Y2664364D1*
X7222614Y2647387D1*
X7205637Y2632884D1*
X7186164Y2621017D1*
X7205637Y2609117D1*
X7222614Y2594614D1*
X7237117Y2577637D1*
X7248984Y2558164D1*
X7260884Y2577637D1*
X7275387Y2594614D1*
X7292364Y2609117D1*
X7311837Y2620984D1*
X7292364Y2632884D1*
X7275387Y2647387D1*
X7260884Y2664364D1*
X7249017Y2683837D1*
X7311837Y2367017D2*
X7292364Y2378884D1*
X7275387Y2393387D1*
X7260884Y2410364D1*
X7249017Y2429837D1*
X7237117Y2410364D1*
X7222614Y2393387D1*
X7205637Y2378884D1*
X7186164Y2367017D1*
X7205637Y2355117D1*
X7222614Y2340614D1*
X7237117Y2323637D1*
X7248984Y2304164D1*
X7260884Y2323637D1*
X7275387Y2340614D1*
X7292364Y2355117D1*
X7311837Y2366984D1*
X7057837Y2367017D2*
X7038364Y2378884D1*
X7021387Y2393387D1*
X7006884Y2410364D1*
X6995017Y2429837D1*
X6983117Y2410364D1*
X6968614Y2393387D1*
X6951637Y2378884D1*
X6932164Y2367017D1*
X6951637Y2355117D1*
X6968614Y2340614D1*
X6983117Y2323637D1*
X6994984Y2304164D1*
X7006884Y2323637D1*
X7021387Y2340614D1*
X7038364Y2355117D1*
X7057837Y2366984D1*
X6803837Y2367017D2*
X6784364Y2378884D1*
X6767387Y2393387D1*
X6752884Y2410364D1*
X6741017Y2429837D1*
X6729117Y2410364D1*
X6714614Y2393387D1*
X6697637Y2378884D1*
X6678164Y2367017D1*
X6697637Y2355117D1*
X6714614Y2340614D1*
X6729117Y2323637D1*
X6740984Y2304164D1*
X6752884Y2323637D1*
X6767387Y2340614D1*
X6784364Y2355117D1*
X6803837Y2366984D1*
X6549837Y2367017D2*
X6530364Y2378884D1*
X6513387Y2393387D1*
X6498884Y2410364D1*
X6487017Y2429837D1*
X6475117Y2410364D1*
X6460614Y2393387D1*
X6443637Y2378884D1*
X6424164Y2367017D1*
X6443637Y2355117D1*
X6460614Y2340614D1*
X6475117Y2323637D1*
X6486984Y2304164D1*
X6498884Y2323637D1*
X6513387Y2340614D1*
X6530364Y2355117D1*
X6549837Y2366984D1*
X6295837Y2367017D2*
X6276364Y2378884D1*
X6259387Y2393387D1*
X6244884Y2410364D1*
X6233017Y2429837D1*
X6221117Y2410364D1*
X6206614Y2393387D1*
X6189637Y2378884D1*
X6170164Y2367017D1*
X6189637Y2355117D1*
X6206614Y2340614D1*
X6221117Y2323637D1*
X6232984Y2304164D1*
X6244884Y2323637D1*
X6259387Y2340614D1*
X6276364Y2355117D1*
X6295837Y2366984D1*
X6041837Y2367017D2*
X6022364Y2378884D1*
X6005387Y2393387D1*
X5990884Y2410364D1*
X5979017Y2429837D1*
X5967117Y2410364D1*
X5952614Y2393387D1*
X5935637Y2378884D1*
X5916164Y2367017D1*
X5935637Y2355117D1*
X5952614Y2340614D1*
X5967117Y2323637D1*
X5978984Y2304164D1*
X5990884Y2323637D1*
X6005387Y2340614D1*
X6022364Y2355117D1*
X6041837Y2366984D1*
X5978984Y2175837D2*
X5967117Y2156364D1*
X5952614Y2139387D1*
X5935637Y2124884D1*
X5916164Y2113017D1*
X5935637Y2101117D1*
X5952614Y2086614D1*
X5967117Y2069637D1*
X5978984Y2050164D1*
X5990884Y2069637D1*
X6005387Y2086614D1*
X6022364Y2101117D1*
X6041837Y2112984D1*
X6022364Y2124884D1*
X6005387Y2139387D1*
X5990884Y2156364D1*
X5979017Y2175837D1*
X6232984D2*
X6221117Y2156364D1*
X6206614Y2139387D1*
X6189637Y2124884D1*
X6170164Y2113017D1*
X6189637Y2101117D1*
X6206614Y2086614D1*
X6221117Y2069637D1*
X6232984Y2050164D1*
X6244884Y2069637D1*
X6259387Y2086614D1*
X6276364Y2101117D1*
X6295837Y2112984D1*
X6276364Y2124884D1*
X6259387Y2139387D1*
X6244884Y2156364D1*
X6233017Y2175837D1*
X6486984D2*
X6475117Y2156364D1*
X6460614Y2139387D1*
X6443637Y2124884D1*
X6424164Y2113017D1*
X6443637Y2101117D1*
X6460614Y2086614D1*
X6475117Y2069637D1*
X6486984Y2050164D1*
X6498884Y2069637D1*
X6513387Y2086614D1*
X6530364Y2101117D1*
X6549837Y2112984D1*
X6530364Y2124884D1*
X6513387Y2139387D1*
X6498884Y2156364D1*
X6487017Y2175837D1*
X6740984D2*
X6729117Y2156364D1*
X6714614Y2139387D1*
X6697637Y2124884D1*
X6678164Y2113017D1*
X6697637Y2101117D1*
X6714614Y2086614D1*
X6729117Y2069637D1*
X6740984Y2050164D1*
X6752884Y2069637D1*
X6767387Y2086614D1*
X6784364Y2101117D1*
X6803837Y2112984D1*
X6784364Y2124884D1*
X6767387Y2139387D1*
X6752884Y2156364D1*
X6741017Y2175837D1*
X6994984D2*
X6983117Y2156364D1*
X6968614Y2139387D1*
X6951637Y2124884D1*
X6932164Y2113017D1*
X6951637Y2101117D1*
X6968614Y2086614D1*
X6983117Y2069637D1*
X6994984Y2050164D1*
X7006884Y2069637D1*
X7021387Y2086614D1*
X7038364Y2101117D1*
X7057837Y2112984D1*
X7038364Y2124884D1*
X7021387Y2139387D1*
X7006884Y2156364D1*
X6995017Y2175837D1*
X7248984D2*
X7237117Y2156364D1*
X7222614Y2139387D1*
X7205637Y2124884D1*
X7186164Y2113017D1*
X7205637Y2101117D1*
X7222614Y2086614D1*
X7237117Y2069637D1*
X7248984Y2050164D1*
X7260884Y2069637D1*
X7275387Y2086614D1*
X7292364Y2101117D1*
X7311837Y2112984D1*
X7292364Y2124884D1*
X7275387Y2139387D1*
X7260884Y2156364D1*
X7249017Y2175837D1*
X7311837Y1859017D2*
X7292364Y1870884D1*
X7275387Y1885387D1*
X7260884Y1902364D1*
X7249017Y1921837D1*
X7237117Y1902364D1*
X7222614Y1885387D1*
X7205637Y1870884D1*
X7186164Y1859017D1*
X7205637Y1847117D1*
X7222614Y1832614D1*
X7237117Y1815637D1*
X7248984Y1796164D1*
X7260884Y1815637D1*
X7275387Y1832614D1*
X7292364Y1847117D1*
X7311837Y1858984D1*
X7057837Y1859017D2*
X7038364Y1870884D1*
X7021387Y1885387D1*
X7006884Y1902364D1*
X6995017Y1921837D1*
X6983117Y1902364D1*
X6968614Y1885387D1*
X6951637Y1870884D1*
X6932164Y1859017D1*
X6951637Y1847117D1*
X6968614Y1832614D1*
X6983117Y1815637D1*
X6994984Y1796164D1*
X7006884Y1815637D1*
X7021387Y1832614D1*
X7038364Y1847117D1*
X7057837Y1858984D1*
X6803837Y1859017D2*
X6784364Y1870884D1*
X6767387Y1885387D1*
X6752884Y1902364D1*
X6741017Y1921837D1*
X6729117Y1902364D1*
X6714614Y1885387D1*
X6697637Y1870884D1*
X6678164Y1859017D1*
X6697637Y1847117D1*
X6714614Y1832614D1*
X6729117Y1815637D1*
X6740984Y1796164D1*
X6752884Y1815637D1*
X6767387Y1832614D1*
X6784364Y1847117D1*
X6803837Y1858984D1*
X6549837Y1859017D2*
X6530364Y1870884D1*
X6513387Y1885387D1*
X6498884Y1902364D1*
X6487017Y1921837D1*
X6475117Y1902364D1*
X6460614Y1885387D1*
X6443637Y1870884D1*
X6424164Y1859017D1*
X6443637Y1847117D1*
X6460614Y1832614D1*
X6475117Y1815637D1*
X6486984Y1796164D1*
X6498884Y1815637D1*
X6513387Y1832614D1*
X6530364Y1847117D1*
X6549837Y1858984D1*
X6295837Y1859017D2*
X6276364Y1870884D1*
X6259387Y1885387D1*
X6244884Y1902364D1*
X6233017Y1921837D1*
X6221117Y1902364D1*
X6206614Y1885387D1*
X6189637Y1870884D1*
X6170164Y1859017D1*
X6189637Y1847117D1*
X6206614Y1832614D1*
X6221117Y1815637D1*
X6232984Y1796164D1*
X6244884Y1815637D1*
X6259387Y1832614D1*
X6276364Y1847117D1*
X6295837Y1858984D1*
X6041837Y1859017D2*
X6022364Y1870884D1*
X6005387Y1885387D1*
X5990884Y1902364D1*
X5979017Y1921837D1*
X5967117Y1902364D1*
X5952614Y1885387D1*
X5935637Y1870884D1*
X5916164Y1859017D1*
X5935637Y1847117D1*
X5952614Y1832614D1*
X5967117Y1815637D1*
X5978984Y1796164D1*
X5990884Y1815637D1*
X6005387Y1832614D1*
X6022364Y1847117D1*
X6041837Y1858984D1*
X3513404Y1225327D2*
Y1190851D1*
X3787931Y1190961D1*
Y1225227D1*
X3513301Y1225344D1*
X4127931Y1072331D2*
Y1240554D1*
X4091161Y1240564D1*
X4091124Y1225344D1*
X3972187D1*
X3972071Y1072231D1*
X4128037Y1072351D1*
X3553547Y1587324D2*
X3837124D1*
Y1572067D1*
X3855561Y1572104D1*
X3855544Y1587324D1*
X4038974D1*
X4039791Y1619537D1*
X4043681Y1633331D1*
X4050684Y1645831D1*
X4056894Y1653107D1*
X4182917Y1779127D1*
X3745327Y1779041D1*
X3553597Y1587384D1*
X4546071Y1572104D2*
X4681754D1*
X4584767Y1669024D1*
X4569197Y1669041D1*
X4573121Y1648557D1*
Y1634111D1*
X4570861Y1619841D1*
X4566394Y1606101D1*
X4559837Y1593227D1*
X4551344Y1581541D1*
X4546084Y1575904D1*
X4550214Y1572104D1*
X4581964D1*
X1304711Y3038121D2*
Y3123947D1*
X1216081Y3123931D1*
X1216071Y3038057D1*
X1304701Y3038071D1*
X3622777Y1829041D2*
X3485114D1*
X3400937Y1744727D1*
X3400961Y1572184D1*
X3409041Y1590001D1*
X3410724Y1604231D1*
X3415684Y1617677D1*
X3423647Y1629591D1*
X3622901Y1829111D1*
X1241334Y2245001D2*
D21*
Y2117054D1*
Y2245001D2*
X1496281D1*
X1242334Y2752001D2*
X1497281D1*
X5115001Y2725001D2*
Y2608054D1*
X4988054Y2725001D2*
X5241947D1*
X5115001Y2561947D2*
Y2445001D1*
X4988054D2*
X5241947D1*
X2351667Y3897947D2*
Y3771001D1*
X2224721D2*
X2478614D1*
X4129667Y3897947D2*
Y3771001D1*
X4891667Y3517001D2*
Y3390054D1*
X5399667Y3897947D2*
Y3771001D1*
X5907667Y3897947D2*
Y3771001D1*
X6669667Y3517001D2*
Y3390054D1*
X6542721Y3517001D2*
X6796614D1*
X5530001Y2252947D2*
Y1999054D1*
X5403054Y2126001D2*
X5656947D1*
X4128054Y1130001D2*
X4311947D1*
X4608334Y3259334D2*
Y3093687D1*
Y3259334D2*
X4710781D1*
X3719334D2*
Y3093687D1*
X3338334Y3259334D2*
Y3093687D1*
X2195334Y3259334D2*
Y3093687D1*
X2092887Y3259334D2*
X2195334D1*
X2030834Y2816281D2*
Y2713834D1*
X2196481D1*
X2030834Y2586834D2*
X2196481D1*
X1865187Y2332834D2*
X2196481D1*
X1865187Y2078834D2*
X2196481D1*
X2030834Y1951834D2*
Y1849387D1*
X1865187Y1951834D2*
X2196481D1*
X2195334Y1571981D2*
Y1240687D1*
X2092887Y1406334D2*
X2195334D1*
X3846334Y1571981D2*
Y1406334D1*
X4608334Y1571981D2*
Y1240687D1*
Y1406334D2*
X4710781D1*
X1109001Y3185447D2*
Y3081001D1*
X1215947D1*
X1259001Y3337947D2*
Y3124054D1*
X1094554Y3231001D2*
X1423447D1*
X1259001Y3037947D2*
Y2931001D1*
X1423447D1*
D22*
X1241334Y2245001D3*
D23*
X1242334Y2499001D3*
D22*
Y2752001D3*
D24*
X5115001Y2725001D3*
Y2915001D3*
Y2445001D3*
Y2255001D3*
D26*
X1843667Y3517001D3*
D27*
Y3771001D3*
X2097667Y3517001D3*
Y3771001D3*
X2351667Y3517001D3*
Y3771001D3*
X2605667Y3517001D3*
Y3771001D3*
X2859667Y3517001D3*
Y3771001D3*
X3113667Y3517001D3*
Y3771001D3*
X3367667Y3517001D3*
Y3771001D3*
X3621667Y3517001D3*
Y3771001D3*
X3875667Y3517001D3*
Y3771001D3*
X4129667Y3517001D3*
Y3771001D3*
X4383667Y3517001D3*
Y3771001D3*
X4637667Y3517001D3*
Y3771001D3*
X4891667Y3517001D3*
Y3771001D3*
X5145667Y3517001D3*
Y3771001D3*
X5399667Y3517001D3*
Y3771001D3*
X5653667Y3517001D3*
Y3771001D3*
X5907667Y3517001D3*
Y3771001D3*
X6161667Y3517001D3*
Y3771001D3*
X6415667Y3517001D3*
Y3771001D3*
X6669667Y3517001D3*
Y3771001D3*
D26*
X6160001Y1160001D3*
D27*
X5906001D3*
X5652001D3*
X5398001D3*
X5144001D3*
X4890001D3*
D26*
X5530001Y2380001D3*
D27*
Y2126001D3*
D26*
Y2830001D3*
D27*
Y3084001D3*
D28*
X5852001Y3002001D3*
X6106001D3*
X6360001D3*
X6614001D3*
X6868001D3*
X7122001D3*
X7376001D3*
X5852001Y2748001D3*
X6106001D3*
X6360001D3*
X6614001D3*
X6868001D3*
X7122001D3*
X7376001D3*
Y2494001D3*
X7122001D3*
X6868001D3*
X6614001D3*
X6360001D3*
X6106001D3*
X5852001D3*
Y2240001D3*
X6106001D3*
X6360001D3*
X6614001D3*
X6868001D3*
X7122001D3*
X7376001D3*
Y1986001D3*
X7122001D3*
X6868001D3*
X6614001D3*
X6360001D3*
X6106001D3*
X5852001D3*
Y1732001D3*
X6106001D3*
X6360001D3*
X6614001D3*
X6868001D3*
X7122001D3*
X7376001D3*
X5852001Y3256001D3*
X6106001D3*
X6360001D3*
X6614001D3*
X6868001D3*
X7122001D3*
X7376001D3*
D26*
X3386334Y1147001D3*
D27*
X3132334D3*
X2878334D3*
X2624334D3*
X2370334D3*
D29*
X1780001Y2500001D3*
X1610001D3*
D30*
X1780001Y2680001D3*
Y2850001D3*
D32*
X4220001Y1130001D3*
X3880001D3*
D33*
X4608334Y3259334D3*
X4481334D3*
X4354334D3*
X4227334D3*
X4100334D3*
X3973334D3*
X3846334D3*
X3719334D3*
X3592334D3*
X3465334D3*
X3338334D3*
X3211334D3*
X3084334D3*
X2957334D3*
X2830334D3*
X2703334D3*
X2576334D3*
X2449334D3*
X2322334D3*
X2195334D3*
D34*
X2030834Y2713834D3*
Y2586834D3*
Y2459834D3*
Y2332834D3*
Y2205834D3*
Y2078834D3*
Y1951834D3*
D33*
X2195334Y1406334D3*
X2322334D3*
X2449334D3*
X2576334D3*
X2703334D3*
X2830334D3*
X2957334D3*
X3084334D3*
X3211334D3*
X3338334D3*
X3465334D3*
X3592334D3*
X3719334D3*
X3846334D3*
X3973334D3*
X4100334D3*
X4227334D3*
X4354334D3*
X4481334D3*
X4608334D3*
D35*
X1409001Y3081001D3*
X1109001D3*
D36*
X1259001Y3231001D3*
Y2931001D3*
M02*
