G04 DipTrace 3.1.0.0*
G04 TopDimension.gbr*
%MOMM*%
G04 #@! TF.FileFunction,Drawing,Top*
G04 #@! TF.Part,Single*
%ADD14C,0.0381*%
%ADD75C,0.15686*%
%FSLAX35Y35*%
G04*
G71*
G90*
G75*
G01*
G04 TopDimension*
%LPD*%
X1349667Y1349001D2*
D14*
Y724667D1*
X999667Y1405667D2*
Y724667D1*
X1174667Y774667D2*
X1249667D1*
G36*
X1349667D2*
X1249667Y754667D1*
Y794667D1*
X1349667Y774667D1*
G37*
X1174667D2*
D14*
X1099667D1*
G36*
X999667D2*
X1099667Y794667D1*
Y754667D1*
X999667Y774667D1*
G37*
X1813362D2*
D14*
X1349667D1*
Y1349001D2*
X763334D1*
X993334Y998667D2*
X763334D1*
X813334Y1173834D2*
Y1249001D1*
G36*
Y1349001D2*
X833334Y1249001D1*
X793334D1*
X813334Y1349001D1*
G37*
Y1173834D2*
D14*
Y1098667D1*
G36*
Y998667D2*
X793334Y1098667D1*
X833334D1*
X813334Y998667D1*
G37*
Y1807978D2*
D14*
Y1349001D1*
X1349667Y3649334D2*
Y4207001D1*
X999334Y3628001D2*
Y4207001D1*
X1174501Y4157001D2*
X1249667D1*
G36*
X1349667D2*
X1249667Y4137001D1*
Y4177001D1*
X1349667Y4157001D1*
G37*
X1174501D2*
D14*
X1099334D1*
G36*
X999334D2*
X1099334Y4177001D1*
Y4137001D1*
X999334Y4157001D1*
G37*
X1808645D2*
D14*
X1349667D1*
Y3649334D2*
X771001D1*
X1510667Y3999667D2*
X771001D1*
X821001Y3824501D2*
Y3749334D1*
G36*
Y3649334D2*
X801001Y3749334D1*
X841001D1*
X821001Y3649334D1*
G37*
Y3824501D2*
D14*
Y3899667D1*
G36*
Y3999667D2*
X841001Y3899667D1*
X801001D1*
X821001Y3999667D1*
G37*
Y4458645D2*
D14*
Y3999667D1*
X7150001Y3649334D2*
Y4236667D1*
X7500001Y3580667D2*
Y4236667D1*
X7325001Y4186667D2*
X7250001D1*
G36*
X7150001D2*
X7250001Y4206667D1*
Y4166667D1*
X7150001Y4186667D1*
G37*
X7325001D2*
D14*
X7400001D1*
G36*
X7500001D2*
X7400001Y4166667D1*
Y4206667D1*
X7500001Y4186667D1*
G37*
X7963695D2*
D14*
X7500001D1*
X7150001Y3649334D2*
X7721667D1*
X7123001Y3999334D2*
X7721667D1*
X7671667Y3824334D2*
Y3749334D1*
G36*
Y3649334D2*
X7651667Y3749334D1*
X7691667D1*
X7671667Y3649334D1*
G37*
Y3824334D2*
D14*
Y3899334D1*
G36*
Y3999334D2*
X7691667Y3899334D1*
X7651667D1*
X7671667Y3999334D1*
G37*
Y3185639D2*
D14*
Y3999334D1*
X7149667Y1348667D2*
Y755001D1*
X7500001Y1345334D2*
Y755001D1*
X7324834Y805001D2*
X7249667D1*
G36*
X7149667D2*
X7249667Y825001D1*
Y785001D1*
X7149667Y805001D1*
G37*
X7324834D2*
D14*
X7400001D1*
G36*
X7500001D2*
X7400001Y785001D1*
Y825001D1*
X7500001Y805001D1*
G37*
X7958978D2*
D14*
X7500001D1*
X7149667Y1348667D2*
X7703001D1*
X7152334Y998334D2*
X7703001D1*
X7653001Y1173501D2*
Y1248667D1*
G36*
Y1348667D2*
X7673001Y1248667D1*
X7633001D1*
X7653001Y1348667D1*
G37*
Y1173501D2*
D14*
Y1098334D1*
G36*
Y998334D2*
X7633001Y1098334D1*
X7673001D1*
X7653001Y998334D1*
G37*
Y539356D2*
D14*
Y1348667D1*
X6662667Y3776667D2*
Y4496334D1*
X7150001Y3649334D2*
Y4496334D1*
X6662667Y4446334D2*
X7150001D1*
X6512667D2*
X6562667D1*
G36*
X6662667D2*
X6562667Y4426334D1*
Y4466334D1*
X6662667Y4446334D1*
G37*
X7300001D2*
D14*
X7250001D1*
G36*
X7150001D2*
X7250001Y4466334D1*
Y4426334D1*
X7150001Y4446334D1*
G37*
X6662667Y3776667D2*
D14*
X6975001D1*
X7150001Y3649334D2*
X6875001D1*
X6925001Y3776667D2*
Y3649334D1*
Y3926667D2*
Y3876667D1*
G36*
Y3776667D2*
X6905001Y3876667D1*
X6945001D1*
X6925001Y3776667D1*
G37*
Y3499334D2*
D14*
Y3549334D1*
G36*
Y3649334D2*
X6945001Y3549334D1*
X6905001D1*
X6925001Y3649334D1*
G37*
Y3284958D2*
D14*
Y3776667D1*
X6662667Y3522667D2*
X7263001D1*
X7150001Y3649334D2*
X7263001D1*
X7213001D2*
Y3522667D1*
Y3799334D2*
Y3749334D1*
G36*
Y3649334D2*
X7193001Y3749334D1*
X7233001D1*
X7213001Y3649334D1*
G37*
Y3372667D2*
D14*
Y3422667D1*
G36*
Y3522667D2*
X7233001Y3422667D1*
X7193001D1*
X7213001Y3522667D1*
G37*
Y3119433D2*
D14*
Y3649334D1*
X1349667D2*
X441667D1*
X1242334Y2499001D2*
X441667D1*
X491667Y3074167D2*
Y3549334D1*
G36*
Y3649334D2*
X511667Y3549334D1*
X471667D1*
X491667Y3649334D1*
G37*
Y3074167D2*
D14*
Y2599001D1*
G36*
Y2499001D2*
X471667Y2599001D1*
X511667D1*
X491667Y2499001D1*
G37*
X1349667Y1349001D2*
D14*
X441667D1*
X1242334Y2499001D2*
X441667D1*
X491667Y1924001D2*
Y1449001D1*
G36*
Y1349001D2*
X471667Y1449001D1*
X511667D1*
X491667Y1349001D1*
G37*
Y1924001D2*
D14*
Y2399001D1*
G36*
Y2499001D2*
X511667Y2399001D1*
X471667D1*
X491667Y2499001D1*
G37*
X1000001Y3700001D2*
D14*
Y5710001D1*
X7500001Y3700001D2*
Y5710001D1*
X4250001Y5660001D2*
X1100001D1*
G36*
X1000001D2*
X1100001Y5680001D1*
Y5640001D1*
X1000001Y5660001D1*
G37*
X4250001D2*
D14*
X7400001D1*
G36*
X7500001D2*
X7400001Y5640001D1*
Y5680001D1*
X7500001Y5660001D1*
G37*
X1300001Y4000001D2*
D14*
X-899999D1*
X1300001Y1000001D2*
X-899999D1*
X-849999Y2500001D2*
Y3900001D1*
G36*
Y4000001D2*
X-829999Y3900001D1*
X-869999D1*
X-849999Y4000001D1*
G37*
Y2500001D2*
D14*
Y1100001D1*
G36*
Y1000001D2*
X-869999Y1100001D1*
X-829999D1*
X-849999Y1000001D1*
G37*
X1473197Y888229D2*
D75*
X1482967Y893170D1*
X1497567Y907658D1*
Y805683D1*
X1538711Y907658D2*
X1592057D1*
X1562969Y868799D1*
X1577569D1*
X1587228Y863970D1*
X1592057Y859141D1*
X1596998Y844541D1*
Y834883D1*
X1592057Y820283D1*
X1582398Y810512D1*
X1567798Y805683D1*
X1553198D1*
X1538711Y810512D1*
X1533881Y815453D1*
X1528940Y825112D1*
X1647800Y805683D2*
X1696429Y907658D1*
X1628371D1*
X1732631Y815453D2*
X1727802Y810512D1*
X1732631Y805683D1*
X1737573Y810512D1*
X1732631Y815453D1*
X1793204Y907658D2*
X1778716Y902829D1*
X1773775Y893170D1*
Y883399D1*
X1778716Y873741D1*
X1788375Y868799D1*
X1807804Y863970D1*
X1822404Y859141D1*
X1832062Y849370D1*
X1836891Y839712D1*
Y825112D1*
X1832062Y815453D1*
X1827233Y810512D1*
X1812633Y805683D1*
X1793204D1*
X1778716Y810512D1*
X1773775Y815453D1*
X1768945Y825112D1*
Y839712D1*
X1773775Y849370D1*
X1783545Y859141D1*
X1798033Y863970D1*
X1817462Y868799D1*
X1827233Y873741D1*
X1832062Y883399D1*
Y893170D1*
X1827233Y902829D1*
X1812633Y907658D1*
X1793204D1*
X699772Y1472530D2*
X694831Y1482301D1*
X680343Y1496901D1*
X782319D1*
X680343Y1538044D2*
Y1591390D1*
X719202Y1562303D1*
Y1576903D1*
X724031Y1586561D1*
X728860Y1591390D1*
X743460Y1596332D1*
X753119D1*
X767719Y1591390D1*
X777489Y1581732D1*
X782319Y1567132D1*
Y1552532D1*
X777489Y1538044D1*
X772548Y1533215D1*
X762889Y1528273D1*
X782319Y1647134D2*
X680343Y1695763D1*
Y1627704D1*
X772548Y1731965D2*
X777489Y1727135D1*
X782319Y1731965D1*
X777489Y1736906D1*
X772548Y1731965D1*
X714260Y1831508D2*
X728860Y1826566D1*
X738631Y1816908D1*
X743460Y1802308D1*
Y1797479D1*
X738631Y1782879D1*
X728860Y1773220D1*
X714260Y1768279D1*
X709431D1*
X694831Y1773220D1*
X685172Y1782879D1*
X680343Y1797479D1*
Y1802308D1*
X685172Y1816908D1*
X694831Y1826566D1*
X714260Y1831508D1*
X738631D1*
X762889Y1826566D1*
X777489Y1816908D1*
X782319Y1802308D1*
Y1792649D1*
X777489Y1778049D1*
X767719Y1773220D1*
X1473197Y4270562D2*
X1482967Y4275504D1*
X1497567Y4289991D1*
Y4188016D1*
X1538711Y4289991D2*
X1592057D1*
X1562969Y4251133D1*
X1577569D1*
X1587228Y4246304D1*
X1592057Y4241474D1*
X1596998Y4226874D1*
Y4217216D1*
X1592057Y4202616D1*
X1582398Y4192845D1*
X1567798Y4188016D1*
X1553198D1*
X1538711Y4192845D1*
X1533881Y4197787D1*
X1528940Y4207445D1*
X1647800Y4188016D2*
X1696429Y4289991D1*
X1628371D1*
X1732631Y4197787D2*
X1727802Y4192845D1*
X1732631Y4188016D1*
X1737573Y4192845D1*
X1732631Y4197787D1*
X1832175Y4256074D2*
X1827233Y4241474D1*
X1817575Y4231704D1*
X1802975Y4226874D1*
X1798145D1*
X1783545Y4231704D1*
X1773887Y4241474D1*
X1768945Y4256074D1*
Y4260904D1*
X1773887Y4275504D1*
X1783545Y4285162D1*
X1798145Y4289991D1*
X1802975D1*
X1817575Y4285162D1*
X1827233Y4275504D1*
X1832175Y4256074D1*
Y4231704D1*
X1827233Y4207445D1*
X1817575Y4192845D1*
X1802975Y4188016D1*
X1793316D1*
X1778716Y4192845D1*
X1773887Y4202616D1*
X707439Y4123197D2*
X702498Y4132967D1*
X688010Y4147567D1*
X789985D1*
X688010Y4188711D2*
Y4242057D1*
X726868Y4212969D1*
Y4227569D1*
X731698Y4237228D1*
X736527Y4242057D1*
X751127Y4246998D1*
X760785D1*
X775385Y4242057D1*
X785156Y4232398D1*
X789985Y4217798D1*
Y4203198D1*
X785156Y4188711D1*
X780214Y4183881D1*
X770556Y4178940D1*
X789985Y4297800D2*
X688010Y4346429D1*
Y4278371D1*
X780214Y4382631D2*
X785156Y4377802D1*
X789985Y4382631D1*
X785156Y4387573D1*
X780214Y4382631D1*
X721927Y4482175D2*
X736527Y4477233D1*
X746298Y4467575D1*
X751127Y4452975D1*
Y4448145D1*
X746298Y4433545D1*
X736527Y4423887D1*
X721927Y4418945D1*
X717098D1*
X702498Y4423887D1*
X692839Y4433545D1*
X688010Y4448145D1*
Y4452975D1*
X692839Y4467575D1*
X702498Y4477233D1*
X721927Y4482175D1*
X746298D1*
X770556Y4477233D1*
X785156Y4467575D1*
X789985Y4452975D1*
Y4443316D1*
X785156Y4428716D1*
X775385Y4423887D1*
X7623530Y4300229D2*
X7633301Y4305170D1*
X7647901Y4319658D1*
Y4217683D1*
X7689044Y4319658D2*
X7742390D1*
X7713303Y4280799D1*
X7727903D1*
X7737561Y4275970D1*
X7742390Y4271141D1*
X7747332Y4256541D1*
Y4246883D1*
X7742390Y4232283D1*
X7732732Y4222512D1*
X7718132Y4217683D1*
X7703532D1*
X7689044Y4222512D1*
X7684215Y4227453D1*
X7679273Y4237112D1*
X7798134Y4217683D2*
X7846763Y4319658D1*
X7778704D1*
X7882965Y4227453D2*
X7878135Y4222512D1*
X7882965Y4217683D1*
X7887906Y4222512D1*
X7882965Y4227453D1*
X7943537Y4319658D2*
X7929049Y4314829D1*
X7924108Y4305170D1*
Y4295399D1*
X7929049Y4285741D1*
X7938708Y4280799D1*
X7958137Y4275970D1*
X7972737Y4271141D1*
X7982396Y4261370D1*
X7987225Y4251712D1*
Y4237112D1*
X7982396Y4227453D1*
X7977566Y4222512D1*
X7962966Y4217683D1*
X7943537D1*
X7929049Y4222512D1*
X7924108Y4227453D1*
X7919279Y4237112D1*
Y4251712D1*
X7924108Y4261370D1*
X7933879Y4271141D1*
X7948366Y4275970D1*
X7967796Y4280799D1*
X7977566Y4285741D1*
X7982396Y4295399D1*
Y4305170D1*
X7977566Y4314829D1*
X7962966Y4319658D1*
X7943537D1*
X7785229Y3525804D2*
X7790170Y3516034D1*
X7804658Y3501434D1*
X7702683D1*
X7804658Y3460290D2*
Y3406944D1*
X7765799Y3436032D1*
Y3421432D1*
X7760970Y3411773D1*
X7756141Y3406944D1*
X7741541Y3402003D1*
X7731883D1*
X7717283Y3406944D1*
X7707512Y3416603D1*
X7702683Y3431203D1*
Y3445803D1*
X7707512Y3460290D1*
X7712453Y3465120D1*
X7722112Y3470061D1*
X7702683Y3351201D2*
X7804658Y3302572D1*
Y3370630D1*
X7712453Y3266370D2*
X7707512Y3271199D1*
X7702683Y3266370D1*
X7707512Y3261428D1*
X7712453Y3266370D1*
X7804658Y3205797D2*
X7799829Y3220285D1*
X7790170Y3225227D1*
X7780399D1*
X7770741Y3220285D1*
X7765799Y3210627D1*
X7760970Y3191197D1*
X7756141Y3176597D1*
X7746370Y3166939D1*
X7736712Y3162110D1*
X7722112D1*
X7712453Y3166939D1*
X7707512Y3171768D1*
X7702683Y3186368D1*
Y3205797D1*
X7707512Y3220285D1*
X7712453Y3225227D1*
X7722112Y3230056D1*
X7736712D1*
X7746370Y3225227D1*
X7756141Y3215456D1*
X7760970Y3200968D1*
X7765799Y3181539D1*
X7770741Y3171768D1*
X7780399Y3166939D1*
X7790170D1*
X7799829Y3171768D1*
X7804658Y3186368D1*
Y3205797D1*
X7623530Y918562D2*
X7633301Y923504D1*
X7647901Y937991D1*
Y836016D1*
X7689044Y937991D2*
X7742390D1*
X7713303Y899133D1*
X7727903D1*
X7737561Y894304D1*
X7742390Y889474D1*
X7747332Y874874D1*
Y865216D1*
X7742390Y850616D1*
X7732732Y840845D1*
X7718132Y836016D1*
X7703532D1*
X7689044Y840845D1*
X7684215Y845787D1*
X7679273Y855445D1*
X7798134Y836016D2*
X7846763Y937991D1*
X7778704D1*
X7882965Y845787D2*
X7878135Y840845D1*
X7882965Y836016D1*
X7887906Y840845D1*
X7882965Y845787D1*
X7982508Y904074D2*
X7977566Y889474D1*
X7967908Y879704D1*
X7953308Y874874D1*
X7948479D1*
X7933879Y879704D1*
X7924220Y889474D1*
X7919279Y904074D1*
Y908904D1*
X7924220Y923504D1*
X7933879Y933162D1*
X7948479Y937991D1*
X7953308D1*
X7967908Y933162D1*
X7977566Y923504D1*
X7982508Y904074D1*
Y879704D1*
X7977566Y855445D1*
X7967908Y840845D1*
X7953308Y836016D1*
X7943649D1*
X7929049Y840845D1*
X7924220Y850616D1*
X7766562Y874804D2*
X7771504Y865034D1*
X7785991Y850434D1*
X7684016D1*
X7785991Y809290D2*
Y755944D1*
X7747133Y785032D1*
Y770432D1*
X7742304Y760773D1*
X7737474Y755944D1*
X7722874Y751003D1*
X7713216D1*
X7698616Y755944D1*
X7688845Y765603D1*
X7684016Y780203D1*
Y794803D1*
X7688845Y809290D1*
X7693787Y814120D1*
X7703445Y819061D1*
X7684016Y700201D2*
X7785991Y651572D1*
Y719630D1*
X7693787Y615370D2*
X7688845Y620199D1*
X7684016Y615370D1*
X7688845Y610428D1*
X7693787Y615370D1*
X7752074Y515827D2*
X7737474Y520768D1*
X7727704Y530427D1*
X7722874Y545027D1*
Y549856D1*
X7727704Y564456D1*
X7737474Y574114D1*
X7752074Y579056D1*
X7756904D1*
X7771504Y574114D1*
X7781162Y564456D1*
X7785991Y549856D1*
Y545027D1*
X7781162Y530427D1*
X7771504Y520768D1*
X7752074Y515827D1*
X7727704D1*
X7703445Y520768D1*
X7688845Y530427D1*
X7684016Y545027D1*
Y554685D1*
X7688845Y569285D1*
X7698616Y574114D1*
X6758947Y4559895D2*
X6768717Y4564837D1*
X6783317Y4579325D1*
Y4477349D1*
X6877919Y4545408D2*
X6872978Y4530808D1*
X6863319Y4521037D1*
X6848719Y4516208D1*
X6843890D1*
X6829290Y4521037D1*
X6819631Y4530808D1*
X6814690Y4545408D1*
Y4550237D1*
X6819631Y4564837D1*
X6829290Y4574495D1*
X6843890Y4579325D1*
X6848719D1*
X6863319Y4574495D1*
X6872978Y4564837D1*
X6877919Y4545408D1*
Y4521037D1*
X6872978Y4496778D1*
X6863319Y4482178D1*
X6848719Y4477349D1*
X6839061D1*
X6824461Y4482178D1*
X6819631Y4491949D1*
X6909292Y4559895D2*
X6919062Y4564837D1*
X6933662Y4579325D1*
Y4477349D1*
X6969864Y4487120D2*
X6965035Y4482178D1*
X6969864Y4477349D1*
X6974806Y4482178D1*
X6969864Y4487120D1*
X7069407Y4545408D2*
X7064466Y4530808D1*
X7054807Y4521037D1*
X7040207Y4516208D1*
X7035378D1*
X7020778Y4521037D1*
X7011120Y4530808D1*
X7006178Y4545408D1*
Y4550237D1*
X7011120Y4564837D1*
X7020778Y4574495D1*
X7035378Y4579325D1*
X7040207D1*
X7054807Y4574495D1*
X7064466Y4564837D1*
X7069407Y4545408D1*
Y4521037D1*
X7064466Y4496778D1*
X7054807Y4482178D1*
X7040207Y4477349D1*
X7030549D1*
X7015949Y4482178D1*
X7011120Y4491949D1*
X7057991Y3467517D2*
Y3516034D1*
X7014304Y3520863D1*
X7019133Y3516034D1*
X7024074Y3501434D1*
Y3486946D1*
X7019133Y3472346D1*
X7009474Y3462575D1*
X6994874Y3457746D1*
X6985216D1*
X6970616Y3462575D1*
X6960845Y3472346D1*
X6956016Y3486946D1*
Y3501434D1*
X6960845Y3516034D1*
X6965787Y3520863D1*
X6975445Y3525804D1*
X7057991Y3397173D2*
X7053162Y3411773D1*
X7038562Y3421544D1*
X7014304Y3426373D1*
X6999704D1*
X6975445Y3421544D1*
X6960845Y3411773D1*
X6956016Y3397173D1*
Y3387515D1*
X6960845Y3372915D1*
X6975445Y3363257D1*
X6999704Y3358315D1*
X7014304D1*
X7038562Y3363257D1*
X7053162Y3372915D1*
X7057991Y3387515D1*
Y3397173D1*
X7038562Y3363257D2*
X6975445Y3421544D1*
X6965787Y3322113D2*
X6960845Y3326942D1*
X6956016Y3322113D1*
X6960845Y3317172D1*
X6965787Y3322113D1*
X7038562Y3285799D2*
X7043504Y3276028D1*
X7057991Y3261428D1*
X6956016D1*
X7244016Y3350509D2*
X7345991D1*
X7278045Y3399138D1*
Y3326250D1*
X7312074Y3231648D2*
X7297474Y3236590D1*
X7287704Y3246248D1*
X7282874Y3260848D1*
Y3265678D1*
X7287704Y3280278D1*
X7297474Y3289936D1*
X7312074Y3294878D1*
X7316904D1*
X7331504Y3289936D1*
X7341162Y3280278D1*
X7345991Y3265678D1*
Y3260848D1*
X7341162Y3246248D1*
X7331504Y3236590D1*
X7312074Y3231648D1*
X7287704D1*
X7263445Y3236590D1*
X7248845Y3246248D1*
X7244016Y3260848D1*
Y3270507D1*
X7248845Y3285107D1*
X7258616Y3289936D1*
X7253787Y3195447D2*
X7248845Y3200276D1*
X7244016Y3195447D1*
X7248845Y3190505D1*
X7253787Y3195447D1*
X7312074Y3095903D2*
X7297474Y3100845D1*
X7287704Y3110503D1*
X7282874Y3125103D1*
Y3129932D1*
X7287704Y3144532D1*
X7297474Y3154191D1*
X7312074Y3159132D1*
X7316904D1*
X7331504Y3154191D1*
X7341162Y3144532D1*
X7345991Y3129932D1*
Y3125103D1*
X7341162Y3110503D1*
X7331504Y3100845D1*
X7312074Y3095903D1*
X7287704D1*
X7263445Y3100845D1*
X7248845Y3110503D1*
X7244016Y3125103D1*
Y3134762D1*
X7248845Y3149362D1*
X7258616Y3154191D1*
X460652Y2926892D2*
X358676D1*
X426623Y2878263D1*
Y2951151D1*
X358676Y3040811D2*
Y2992294D1*
X402364Y2987465D1*
X397535Y2992294D1*
X392593Y3006894D1*
Y3021382D1*
X397535Y3035982D1*
X407193Y3045752D1*
X421793Y3050582D1*
X431452D1*
X446052Y3045752D1*
X455823Y3035982D1*
X460652Y3021382D1*
Y3006894D1*
X455823Y2992294D1*
X450881Y2987465D1*
X441223Y2982523D1*
X382935Y3086896D2*
X378106D1*
X368335Y3091725D1*
X363506Y3096554D1*
X358676Y3106325D1*
Y3125754D1*
X363506Y3135413D1*
X368335Y3140242D1*
X378106Y3145183D1*
X387764D1*
X397535Y3140242D1*
X412023Y3130583D1*
X460652Y3081954D1*
Y3150013D1*
X450881Y3186214D2*
X455823Y3181385D1*
X460652Y3186214D1*
X455823Y3191156D1*
X450881Y3186214D1*
X392593Y3285758D2*
X407193Y3280816D1*
X416964Y3271158D1*
X421793Y3256558D1*
Y3251729D1*
X416964Y3237129D1*
X407193Y3227470D1*
X392593Y3222529D1*
X387764D1*
X373164Y3227470D1*
X363506Y3237129D1*
X358676Y3251729D1*
Y3256558D1*
X363506Y3271158D1*
X373164Y3280816D1*
X392593Y3285758D1*
X416964D1*
X441223Y3280816D1*
X455823Y3271158D1*
X460652Y3256558D1*
Y3246899D1*
X455823Y3232299D1*
X446052Y3227470D1*
X460652Y1774367D2*
X358676D1*
X426623Y1725738D1*
Y1798626D1*
X358676Y1888286D2*
Y1839769D1*
X402364Y1834940D1*
X397535Y1839769D1*
X392593Y1854369D1*
Y1868857D1*
X397535Y1883457D1*
X407193Y1893227D1*
X421793Y1898057D1*
X431452D1*
X446052Y1893227D1*
X455823Y1883457D1*
X460652Y1868857D1*
Y1854369D1*
X455823Y1839769D1*
X450881Y1834940D1*
X441223Y1829998D1*
X382935Y1934371D2*
X378106D1*
X368335Y1939200D1*
X363506Y1944029D1*
X358676Y1953800D1*
Y1973229D1*
X363506Y1982888D1*
X368335Y1987717D1*
X378106Y1992658D1*
X387764D1*
X397535Y1987717D1*
X412023Y1978058D1*
X460652Y1929429D1*
Y1997488D1*
X450881Y2033689D2*
X455823Y2028860D1*
X460652Y2033689D1*
X455823Y2038631D1*
X450881Y2033689D1*
X358676Y2094262D2*
X363506Y2079774D1*
X373164Y2074833D1*
X382935D1*
X392593Y2079774D1*
X397535Y2089433D1*
X402364Y2108862D1*
X407193Y2123462D1*
X416964Y2133120D1*
X426623Y2137950D1*
X441223D1*
X450881Y2133120D1*
X455823Y2128291D1*
X460652Y2113691D1*
Y2094262D1*
X455823Y2079774D1*
X450881Y2074833D1*
X441223Y2070003D1*
X426623D1*
X416964Y2074833D1*
X407193Y2084603D1*
X402364Y2099091D1*
X397535Y2118520D1*
X392593Y2128291D1*
X382935Y2133120D1*
X373164D1*
X363506Y2128291D1*
X358676Y2113691D1*
Y2094262D1*
X4033581Y5768733D2*
Y5773562D1*
X4038410Y5783333D1*
X4043239Y5788162D1*
X4053010Y5792991D1*
X4072439D1*
X4082098Y5788162D1*
X4086927Y5783333D1*
X4091868Y5773562D1*
Y5763904D1*
X4086927Y5754133D1*
X4077268Y5739645D1*
X4028639Y5691016D1*
X4096698D1*
X4186358Y5792991D2*
X4137841D1*
X4133012Y5749304D1*
X4137841Y5754133D1*
X4152441Y5759074D1*
X4166929D1*
X4181529Y5754133D1*
X4191299Y5744474D1*
X4196129Y5729874D1*
Y5720216D1*
X4191299Y5705616D1*
X4181529Y5695845D1*
X4166929Y5691016D1*
X4152441D1*
X4137841Y5695845D1*
X4133012Y5700787D1*
X4128070Y5710445D1*
X4285789Y5792991D2*
X4237272D1*
X4232443Y5749304D1*
X4237272Y5754133D1*
X4251872Y5759074D1*
X4266360D1*
X4280960Y5754133D1*
X4290730Y5744474D1*
X4295560Y5729874D1*
Y5720216D1*
X4290730Y5705616D1*
X4280960Y5695845D1*
X4266360Y5691016D1*
X4251872D1*
X4237272Y5695845D1*
X4232443Y5700787D1*
X4227501Y5710445D1*
X4390161Y5759074D2*
X4385220Y5744474D1*
X4375561Y5734704D1*
X4360961Y5729874D1*
X4356132D1*
X4341532Y5734704D1*
X4331874Y5744474D1*
X4326932Y5759074D1*
Y5763904D1*
X4331874Y5778504D1*
X4341532Y5788162D1*
X4356132Y5792991D1*
X4360961D1*
X4375561Y5788162D1*
X4385220Y5778504D1*
X4390161Y5759074D1*
Y5734704D1*
X4385220Y5710445D1*
X4375561Y5695845D1*
X4360961Y5691016D1*
X4351303D1*
X4336703Y5695845D1*
X4331874Y5705616D1*
X4426363Y5700787D2*
X4421534Y5695845D1*
X4426363Y5691016D1*
X4431305Y5695845D1*
X4426363Y5700787D1*
X4462677Y5773562D2*
X4472448Y5778504D1*
X4487048Y5792991D1*
Y5691016D1*
X-963561Y2341812D2*
X-968502Y2351583D1*
X-982990Y2366183D1*
X-881015D1*
X-963561Y2397556D2*
X-968502Y2407326D1*
X-982990Y2421926D1*
X-881015D1*
X-982990Y2477557D2*
X-978161Y2463070D1*
X-968502Y2458128D1*
X-958732D1*
X-949073Y2463070D1*
X-944132Y2472728D1*
X-939302Y2492157D1*
X-934473Y2506757D1*
X-924702Y2516416D1*
X-915044Y2521245D1*
X-900444D1*
X-890786Y2516416D1*
X-885844Y2511587D1*
X-881015Y2496987D1*
Y2477557D1*
X-885844Y2463070D1*
X-890786Y2458128D1*
X-900444Y2453299D1*
X-915044D1*
X-924702Y2458128D1*
X-934473Y2467899D1*
X-939302Y2482387D1*
X-944132Y2501816D1*
X-949073Y2511587D1*
X-958732Y2516416D1*
X-968502D1*
X-978161Y2511587D1*
X-982990Y2496987D1*
Y2477557D1*
X-963561Y2552618D2*
X-968502Y2562388D1*
X-982990Y2576988D1*
X-881015D1*
X-890786Y2613190D2*
X-885844Y2608361D1*
X-881015Y2613190D1*
X-885844Y2618132D1*
X-890786Y2613190D1*
X-963561Y2649504D2*
X-968502Y2659275D1*
X-982990Y2673875D1*
X-881015D1*
M02*
