G04 DipTrace 3.1.0.0*
G04 TopMask.gbr*
%MOMM*%
G04 #@! TF.FileFunction,Soldermask,Top*
G04 #@! TF.Part,Single*
%ADD40C,2.75*%
%ADD47R,2.45X1.3*%
%ADD49R,1.3X1.25*%
%ADD51R,2.474X1.21*%
%ADD53R,1.21X2.474*%
%ADD55R,1.0X1.9*%
%ADD57R,1.2X1.3*%
%ADD59R,1.3X1.2*%
%ADD61C,1.7*%
%ADD63C,1.7*%
%ADD65R,1.7X1.7*%
%ADD69R,1.7X1.5*%
%ADD71R,4.26X1.05*%
%ADD73R,4.26X1.72*%
%FSLAX35Y35*%
G04*
G71*
G90*
G75*
G01*
G04 TopMask*
%LPD*%
D73*
X1241334Y2245001D3*
D71*
X1242334Y2499001D3*
D73*
Y2752001D3*
D69*
X5115001Y2725001D3*
Y2915001D3*
Y2445001D3*
Y2255001D3*
D40*
X1349667Y1349001D3*
Y3649334D3*
X7150001D3*
X7149667Y1348667D3*
D65*
X1843667Y3517001D3*
D63*
Y3771001D3*
X2097667Y3517001D3*
Y3771001D3*
X2351667Y3517001D3*
Y3771001D3*
X2605667Y3517001D3*
Y3771001D3*
X2859667Y3517001D3*
Y3771001D3*
X3113667Y3517001D3*
Y3771001D3*
X3367667Y3517001D3*
Y3771001D3*
X3621667Y3517001D3*
Y3771001D3*
X3875667Y3517001D3*
Y3771001D3*
X4129667Y3517001D3*
Y3771001D3*
X4383667Y3517001D3*
Y3771001D3*
X4637667Y3517001D3*
Y3771001D3*
X4891667Y3517001D3*
Y3771001D3*
X5145667Y3517001D3*
Y3771001D3*
X5399667Y3517001D3*
Y3771001D3*
X5653667Y3517001D3*
Y3771001D3*
X5907667Y3517001D3*
Y3771001D3*
X6161667Y3517001D3*
Y3771001D3*
X6415667Y3517001D3*
Y3771001D3*
X6669667Y3517001D3*
Y3771001D3*
D65*
X6160001Y1160001D3*
D63*
X5906001D3*
X5652001D3*
X5398001D3*
X5144001D3*
X4890001D3*
D65*
X5530001Y2380001D3*
D63*
Y2126001D3*
D65*
Y2830001D3*
D63*
Y3084001D3*
D61*
X5852001Y3002001D3*
X6106001D3*
X6360001D3*
X6614001D3*
X6868001D3*
X7122001D3*
X7376001D3*
X5852001Y2748001D3*
X6106001D3*
X6360001D3*
X6614001D3*
X6868001D3*
X7122001D3*
X7376001D3*
Y2494001D3*
X7122001D3*
X6868001D3*
X6614001D3*
X6360001D3*
X6106001D3*
X5852001D3*
Y2240001D3*
X6106001D3*
X6360001D3*
X6614001D3*
X6868001D3*
X7122001D3*
X7376001D3*
Y1986001D3*
X7122001D3*
X6868001D3*
X6614001D3*
X6360001D3*
X6106001D3*
X5852001D3*
Y1732001D3*
X6106001D3*
X6360001D3*
X6614001D3*
X6868001D3*
X7122001D3*
X7376001D3*
X5852001Y3256001D3*
X6106001D3*
X6360001D3*
X6614001D3*
X6868001D3*
X7122001D3*
X7376001D3*
D65*
X3386334Y1147001D3*
D63*
X3132334D3*
X2878334D3*
X2624334D3*
X2370334D3*
D59*
X1780001Y2500001D3*
X1610001D3*
D57*
X1780001Y2680001D3*
Y2850001D3*
D55*
X4220001Y1130001D3*
X3880001D3*
D53*
X4608334Y3259334D3*
X4481334D3*
X4354334D3*
X4227334D3*
X4100334D3*
X3973334D3*
X3846334D3*
X3719334D3*
X3592334D3*
X3465334D3*
X3338334D3*
X3211334D3*
X3084334D3*
X2957334D3*
X2830334D3*
X2703334D3*
X2576334D3*
X2449334D3*
X2322334D3*
X2195334D3*
D51*
X2030834Y2713834D3*
Y2586834D3*
Y2459834D3*
Y2332834D3*
Y2205834D3*
Y2078834D3*
Y1951834D3*
D53*
X2195334Y1406334D3*
X2322334D3*
X2449334D3*
X2576334D3*
X2703334D3*
X2830334D3*
X2957334D3*
X3084334D3*
X3211334D3*
X3338334D3*
X3465334D3*
X3592334D3*
X3719334D3*
X3846334D3*
X3973334D3*
X4100334D3*
X4227334D3*
X4354334D3*
X4481334D3*
X4608334D3*
D49*
X1409001Y3081001D3*
X1109001D3*
D47*
X1259001Y3231001D3*
Y2931001D3*
M02*
