G04 DipTrace 3.1.0.0*
G04 TopSilk.gbr*
%MOMM*%
G04 #@! TF.FileFunction,Legend,Top*
G04 #@! TF.Part,Single*
%ADD10C,0.254*%
%ADD13C,0.06667*%
%ADD31C,0.29999*%
%ADD75C,0.15686*%
%ADD76C,0.19608*%
%ADD77C,0.11765*%
%ADD78C,0.07843*%
%FSLAX35Y35*%
G04*
G71*
G90*
G75*
G01*
G04 TopSilk*
%LPD*%
X5179951Y2630054D2*
D10*
X5050051D1*
Y2539947D2*
X5179951D1*
X6796667Y3390001D2*
Y3898001D1*
X1716667Y3390001D2*
Y3898001D1*
X6796667D1*
X1716667Y3390001D2*
X6796667D1*
X6287001Y1287001D2*
X4763001D1*
X6287001Y1033001D2*
X4763001D1*
X6287001Y1287001D2*
Y1033001D1*
X4763001Y1287001D2*
Y1033001D1*
X5403001Y1999001D2*
X5657001D1*
X5403001Y2507001D2*
Y1999001D1*
Y2507001D2*
X5657001D1*
Y1999001D1*
Y3211001D2*
X5403001D1*
X5657001Y2703001D2*
Y3211001D1*
Y2703001D2*
X5403001D1*
Y3211001D1*
X2243334Y1274001D2*
Y1020001D1*
X3513334Y1274001D2*
X2243334D1*
X3513334Y1020001D2*
X2243334D1*
X3513334Y1274001D2*
Y1020001D1*
X4135009Y1205016D2*
X3965018D1*
X4200076Y1255001D2*
X3900044D1*
X4200076Y1005011D2*
X3900044D1*
X3965018Y1205016D2*
Y1154998D1*
X4135009Y1205016D2*
Y1154998D1*
X3900044Y1255001D2*
Y1239986D1*
X4200076Y1255001D2*
Y1239986D1*
X3900044Y1005011D2*
Y1019993D1*
X4200076Y1005011D2*
Y1019993D1*
X4135009Y1005011D2*
Y949988D1*
X4095011Y930001D1*
X4005062D1*
X3965018Y1005011D2*
Y949988D1*
X4005062Y930001D1*
D31*
X4290095Y1129989D3*
X2068476Y1885756D2*
D10*
Y1443879D1*
X2129067D1*
X2068476Y2784905D2*
Y3221789D1*
X2129067D1*
X1681334Y2204001D2*
D13*
X1688001D1*
X1681334Y2200667D2*
X1688001D1*
X1681334Y2197334D2*
X1688001D1*
X1681334Y2194001D2*
X1688001D1*
X1681334Y2190667D2*
X1688001D1*
X1681334Y2187334D2*
X1688001D1*
X1681334Y2184001D2*
X1688001D1*
X1681334Y2180667D2*
X1688001D1*
X1681334Y2177334D2*
X1688001D1*
X1681334Y2174001D2*
X1688001D1*
X1681334Y2170667D2*
X1688001D1*
X1681334Y2167334D2*
X1688001D1*
X1681334Y2164001D2*
X1688001D1*
X1681334Y2160667D2*
X1688001D1*
X1681334Y2157334D2*
X1688001D1*
X1644667Y2154001D2*
X1701951D1*
X1644667Y2150667D2*
X1713860D1*
X1644667Y2147334D2*
X1723177D1*
X1681334Y2144001D2*
X1688001D1*
X1710666D2*
X1730316D1*
X1681334Y2140667D2*
X1688001D1*
X1719152D2*
X1735913D1*
X1681334Y2137334D2*
X1688001D1*
X1726380D2*
X1740423D1*
X1681334Y2134001D2*
X1688001D1*
X1732234D2*
X1744286D1*
X1681334Y2130667D2*
X1688001D1*
X1736927D2*
X1747731D1*
X1681334Y2127334D2*
X1688001D1*
X1740885D2*
X1750715D1*
X1681334Y2124001D2*
X1688001D1*
X1744371D2*
X1753166D1*
X1681334Y2120667D2*
X1688001D1*
X1747372D2*
X1755232D1*
X1681334Y2117334D2*
X1688001D1*
X1749829D2*
X1757176D1*
X1681334Y2114001D2*
X1688001D1*
X1751897D2*
X1759230D1*
X1681334Y2110667D2*
X1688001D1*
X1753842D2*
X1761414D1*
X1681334Y2107334D2*
X1688001D1*
X1755887D2*
X1763552D1*
X1681334Y2104001D2*
X1688001D1*
X1757980D2*
X1765723D1*
X1681334Y2100667D2*
X1688001D1*
X1759787D2*
X1768001D1*
X1681334Y2097334D2*
X1688001D1*
X1761334D2*
X1764667D1*
X1681334Y2094001D2*
X1688001D1*
X1681334Y2090667D2*
X1688001D1*
X1681334Y2087334D2*
X1688001D1*
X1681334Y2084001D2*
X1688001D1*
X1694667Y2054001D2*
X1701334D1*
X1694667Y2050667D2*
X1701334D1*
X1694667Y2047334D2*
X1701334D1*
X1651334Y2044001D2*
X1658001D1*
X1694667D2*
X1701334D1*
X1651334Y2040667D2*
X1658001D1*
X1694667D2*
X1701334D1*
X1651334Y2037334D2*
X1658001D1*
X1694667D2*
X1701334D1*
X1651334Y2034001D2*
X1658001D1*
X1694667D2*
X1701334D1*
X1651334Y2030667D2*
X1658001D1*
X1694667D2*
X1701334D1*
X1651334Y2027334D2*
X1658001D1*
X1694667D2*
X1701334D1*
X1651334Y2024001D2*
X1658001D1*
X1694667D2*
X1701334D1*
X1651334Y2020667D2*
X1658001D1*
X1694667D2*
X1701334D1*
X1651334Y2017334D2*
X1658001D1*
X1694667D2*
X1701334D1*
X1651334Y2014001D2*
X1658001D1*
X1694667D2*
X1701334D1*
X1651334Y2010667D2*
X1658001D1*
X1694667D2*
X1701334D1*
X1651334Y2007334D2*
X1658001D1*
X1694667D2*
X1701334D1*
X1651334Y2004001D2*
X1658001D1*
X1694667D2*
X1716421D1*
X1651334Y2000667D2*
X1658001D1*
X1694667D2*
X1728771D1*
X1651334Y1997334D2*
X1658001D1*
X1694667D2*
X1738085D1*
X1651334Y1994001D2*
X1658001D1*
X1694667D2*
X1701334D1*
X1731194D2*
X1744897D1*
X1651334Y1990667D2*
X1658001D1*
X1694667D2*
X1701334D1*
X1737303D2*
X1749881D1*
X1651334Y1987334D2*
X1658001D1*
X1694667D2*
X1701334D1*
X1742603D2*
X1753586D1*
X1651334Y1984001D2*
X1658001D1*
X1694667D2*
X1701334D1*
X1746944D2*
X1756437D1*
X1651334Y1980667D2*
X1658001D1*
X1694667D2*
X1701334D1*
X1750384D2*
X1758912D1*
X1651334Y1977334D2*
X1658001D1*
X1694667D2*
X1701334D1*
X1753036D2*
X1761168D1*
X1651334Y1974001D2*
X1658001D1*
X1694667D2*
X1701334D1*
X1755181D2*
X1762982D1*
X1651334Y1970667D2*
X1658001D1*
X1694667D2*
X1701334D1*
X1757139D2*
X1764490D1*
X1651334Y1967334D2*
X1658001D1*
X1694667D2*
X1701334D1*
X1759167D2*
X1766141D1*
X1651334Y1964001D2*
X1658001D1*
X1694667D2*
X1701334D1*
X1761334D2*
X1768001D1*
X1651334Y1960667D2*
X1658001D1*
X1694667D2*
X1701334D1*
X1651334Y1957334D2*
X1658001D1*
X1694667D2*
X1701334D1*
X1651334Y1954001D2*
X1658001D1*
X1694667D2*
X1701334D1*
X1651334Y1950667D2*
X1658001D1*
X1694667D2*
X1701334D1*
X1651334Y1947334D2*
X1658001D1*
X1694667D2*
X1701334D1*
X1694667Y1944001D2*
X1701334D1*
X1694667Y1940667D2*
X1701334D1*
X1694667Y1937334D2*
X1701334D1*
X1694667Y1934001D2*
X1701334D1*
X1671334Y1907334D2*
X1678001D1*
X1673771Y1904001D2*
X1684540D1*
X1677413Y1900667D2*
X1690767D1*
X1682041Y1897334D2*
X1696504D1*
X1687036Y1894001D2*
X1701774D1*
X1692089Y1890667D2*
X1706623D1*
X1697120Y1887334D2*
X1711198D1*
X1702021Y1884001D2*
X1715732D1*
X1706595Y1880667D2*
X1720083D1*
X1710680Y1877334D2*
X1723952D1*
X1714392Y1874001D2*
X1727196D1*
X1717893Y1870667D2*
X1729882D1*
X1721281Y1867334D2*
X1732410D1*
X1724523Y1864001D2*
X1735068D1*
X1727441Y1860667D2*
X1737663D1*
X1729966Y1857334D2*
X1739942D1*
X1732328Y1854001D2*
X1741926D1*
X1734643Y1850667D2*
X1743740D1*
X1736752Y1847334D2*
X1745464D1*
X1738651Y1844001D2*
X1747143D1*
X1740429Y1840667D2*
X1748711D1*
X1671334Y1837334D2*
X1674667D1*
X1742139D2*
X1750063D1*
X1669539Y1834001D2*
X1678001D1*
X1743812D2*
X1751250D1*
X1667176Y1830667D2*
X1675807D1*
X1745379D2*
X1752543D1*
X1664445Y1827334D2*
X1673466D1*
X1746730D2*
X1753989D1*
X1661751Y1824001D2*
X1670777D1*
X1747917D2*
X1755450D1*
X1659316Y1820667D2*
X1667887D1*
X1749209D2*
X1756756D1*
X1656987Y1817334D2*
X1665126D1*
X1750656D2*
X1757913D1*
X1654672Y1814001D2*
X1662651D1*
X1752103D2*
X1759082D1*
X1652451Y1810667D2*
X1660209D1*
X1753306D2*
X1760115D1*
X1650124Y1807334D2*
X1657592D1*
X1754155D2*
X1760890D1*
X1647483Y1804001D2*
X1655087D1*
X1754953D2*
X1761741D1*
X1644667Y1800667D2*
X1653041D1*
X1755945D2*
X1763037D1*
X1648001Y1797334D2*
X1651334D1*
X1757006D2*
X1764667D1*
X1758001Y1794001D2*
X1761334D1*
X1651334Y1764001D2*
X1658001D1*
X1651334Y1760667D2*
X1667745D1*
X1651334Y1757334D2*
X1676313D1*
X1651334Y1754001D2*
X1658001D1*
X1664400D2*
X1683818D1*
X1651334Y1750667D2*
X1658001D1*
X1673403D2*
X1690360D1*
X1651334Y1747334D2*
X1658001D1*
X1681122D2*
X1695860D1*
X1651334Y1744001D2*
X1658001D1*
X1687539D2*
X1700462D1*
X1651334Y1740667D2*
X1658001D1*
X1693004D2*
X1704667D1*
X1651334Y1737334D2*
X1658001D1*
X1698001D2*
X1701334D1*
X1651334Y1734001D2*
X1658001D1*
X1651334Y1730667D2*
X1658001D1*
X1651334Y1727334D2*
X1658001D1*
X1651334Y1724001D2*
X1658001D1*
X1651334Y1720667D2*
X1658001D1*
X1651334Y1717334D2*
X1658001D1*
X1651334Y1714001D2*
X1658001D1*
X1651334Y1710667D2*
X1658001D1*
X1678001D2*
X1704667D1*
X1651334Y1707334D2*
X1658001D1*
X1678001D2*
X1715810D1*
X1651334Y1704001D2*
X1658001D1*
X1678001D2*
X1724791D1*
X1651334Y1700667D2*
X1658001D1*
X1699116D2*
X1731557D1*
X1651334Y1697334D2*
X1658001D1*
X1714868D2*
X1736660D1*
X1651334Y1694001D2*
X1658001D1*
X1725320D2*
X1740786D1*
X1651334Y1690667D2*
X1658001D1*
X1732151D2*
X1744335D1*
X1651334Y1687334D2*
X1658001D1*
X1737005D2*
X1747360D1*
X1651334Y1684001D2*
X1658001D1*
X1740840D2*
X1749825D1*
X1651334Y1680667D2*
X1658001D1*
X1743970D2*
X1751883D1*
X1651334Y1677334D2*
X1658001D1*
X1746473D2*
X1753725D1*
X1651334Y1674001D2*
X1658001D1*
X1748543D2*
X1755458D1*
X1651334Y1670667D2*
X1658001D1*
X1750390D2*
X1757154D1*
X1651334Y1667334D2*
X1658001D1*
X1752125D2*
X1758838D1*
X1651334Y1664001D2*
X1658001D1*
X1753810D2*
X1760597D1*
X1651334Y1660667D2*
X1658001D1*
X1755397D2*
X1762543D1*
X1651334Y1657334D2*
X1658001D1*
X1756789D2*
X1764667D1*
X1651334Y1654001D2*
X1658001D1*
X1758001D2*
X1761334D1*
X1651334Y1650667D2*
X1658001D1*
X1651334Y1647334D2*
X1658001D1*
X1681334Y2204001D2*
Y2200667D1*
Y2197334D1*
Y2194001D1*
Y2190667D1*
Y2187334D1*
Y2184001D1*
Y2180667D1*
Y2177334D1*
Y2174001D1*
Y2170667D1*
Y2167334D1*
Y2164001D1*
Y2160667D1*
Y2157334D1*
Y2154001D1*
X1644667D1*
Y2150667D1*
Y2147334D1*
Y2144001D1*
X1681334D1*
Y2140667D1*
Y2137334D1*
Y2134001D1*
Y2130667D1*
Y2127334D1*
Y2124001D1*
Y2120667D1*
Y2117334D1*
Y2114001D1*
Y2110667D1*
Y2107334D1*
Y2104001D1*
Y2100667D1*
Y2097334D1*
Y2094001D1*
Y2090667D1*
Y2087334D1*
Y2084001D1*
X1688001Y2204001D2*
Y2200667D1*
Y2197334D1*
Y2194001D1*
Y2190667D1*
Y2187334D1*
Y2184001D1*
Y2180667D1*
Y2177334D1*
Y2174001D1*
Y2170667D1*
Y2167334D1*
Y2164001D1*
Y2160667D1*
Y2157334D1*
X1701951Y2154001D1*
X1713860Y2150667D1*
X1723177Y2147334D1*
X1730316Y2144001D1*
X1735913Y2140667D1*
X1740423Y2137334D1*
X1744286Y2134001D1*
X1747731Y2130667D1*
X1750715Y2127334D1*
X1753166Y2124001D1*
X1755232Y2120667D1*
X1757176Y2117334D1*
X1759230Y2114001D1*
X1761414Y2110667D1*
X1763552Y2107334D1*
X1765723Y2104001D1*
X1768001Y2100667D1*
X1764667Y2097334D1*
X1688001Y2147334D2*
Y2144001D1*
Y2140667D1*
Y2137334D1*
Y2134001D1*
Y2130667D1*
Y2127334D1*
Y2124001D1*
Y2120667D1*
Y2117334D1*
Y2114001D1*
Y2110667D1*
Y2107334D1*
Y2104001D1*
Y2100667D1*
Y2097334D1*
Y2094001D1*
Y2090667D1*
Y2087334D1*
Y2084001D1*
X1701334Y2147334D2*
X1710666Y2144001D1*
X1719152Y2140667D1*
X1726380Y2137334D1*
X1732234Y2134001D1*
X1736927Y2130667D1*
X1740885Y2127334D1*
X1744371Y2124001D1*
X1747372Y2120667D1*
X1749829Y2117334D1*
X1751897Y2114001D1*
X1753842Y2110667D1*
X1755887Y2107334D1*
X1757980Y2104001D1*
X1759787Y2100667D1*
X1761334Y2097334D1*
X1694667Y2054001D2*
Y2050667D1*
Y2047334D1*
Y2044001D1*
Y2040667D1*
Y2037334D1*
Y2034001D1*
Y2030667D1*
Y2027334D1*
Y2024001D1*
Y2020667D1*
Y2017334D1*
Y2014001D1*
Y2010667D1*
Y2007334D1*
Y2004001D1*
Y2000667D1*
Y1997334D1*
Y1994001D1*
Y1990667D1*
Y1987334D1*
Y1984001D1*
Y1980667D1*
Y1977334D1*
Y1974001D1*
Y1970667D1*
Y1967334D1*
Y1964001D1*
Y1960667D1*
Y1957334D1*
Y1954001D1*
Y1950667D1*
Y1947334D1*
Y1944001D1*
Y1940667D1*
Y1937334D1*
Y1934001D1*
X1701334Y2054001D2*
Y2050667D1*
Y2047334D1*
Y2044001D1*
Y2040667D1*
Y2037334D1*
Y2034001D1*
Y2030667D1*
Y2027334D1*
Y2024001D1*
Y2020667D1*
Y2017334D1*
Y2014001D1*
Y2010667D1*
Y2007334D1*
X1716421Y2004001D1*
X1728771Y2000667D1*
X1738085Y1997334D1*
X1744897Y1994001D1*
X1749881Y1990667D1*
X1753586Y1987334D1*
X1756437Y1984001D1*
X1758912Y1980667D1*
X1761168Y1977334D1*
X1762982Y1974001D1*
X1764490Y1970667D1*
X1766141Y1967334D1*
X1768001Y1964001D1*
X1651334Y2044001D2*
Y2040667D1*
Y2037334D1*
Y2034001D1*
Y2030667D1*
Y2027334D1*
Y2024001D1*
Y2020667D1*
Y2017334D1*
Y2014001D1*
Y2010667D1*
Y2007334D1*
Y2004001D1*
Y2000667D1*
Y1997334D1*
Y1994001D1*
Y1990667D1*
Y1987334D1*
Y1984001D1*
Y1980667D1*
Y1977334D1*
Y1974001D1*
Y1970667D1*
Y1967334D1*
Y1964001D1*
Y1960667D1*
Y1957334D1*
Y1954001D1*
Y1950667D1*
Y1947334D1*
X1658001Y2044001D2*
Y2040667D1*
Y2037334D1*
Y2034001D1*
Y2030667D1*
Y2027334D1*
Y2024001D1*
Y2020667D1*
Y2017334D1*
Y2014001D1*
Y2010667D1*
Y2007334D1*
Y2004001D1*
Y2000667D1*
Y1997334D1*
Y1994001D1*
Y1990667D1*
Y1987334D1*
Y1984001D1*
Y1980667D1*
Y1977334D1*
Y1974001D1*
Y1970667D1*
Y1967334D1*
Y1964001D1*
Y1960667D1*
Y1957334D1*
Y1954001D1*
Y1950667D1*
Y1947334D1*
X1701334Y1997334D2*
Y1994001D1*
Y1990667D1*
Y1987334D1*
Y1984001D1*
Y1980667D1*
Y1977334D1*
Y1974001D1*
Y1970667D1*
Y1967334D1*
Y1964001D1*
Y1960667D1*
Y1957334D1*
Y1954001D1*
Y1950667D1*
Y1947334D1*
Y1944001D1*
Y1940667D1*
Y1937334D1*
Y1934001D1*
X1724667Y1997334D2*
X1731194Y1994001D1*
X1737303Y1990667D1*
X1742603Y1987334D1*
X1746944Y1984001D1*
X1750384Y1980667D1*
X1753036Y1977334D1*
X1755181Y1974001D1*
X1757139Y1970667D1*
X1759167Y1967334D1*
X1761334Y1964001D1*
X1671334Y1907334D2*
X1673771Y1904001D1*
X1677413Y1900667D1*
X1682041Y1897334D1*
X1687036Y1894001D1*
X1692089Y1890667D1*
X1697120Y1887334D1*
X1702021Y1884001D1*
X1706595Y1880667D1*
X1710680Y1877334D1*
X1714392Y1874001D1*
X1717893Y1870667D1*
X1721281Y1867334D1*
X1724523Y1864001D1*
X1727441Y1860667D1*
X1729966Y1857334D1*
X1732328Y1854001D1*
X1734643Y1850667D1*
X1736752Y1847334D1*
X1738651Y1844001D1*
X1740429Y1840667D1*
X1742139Y1837334D1*
X1743812Y1834001D1*
X1745379Y1830667D1*
X1746730Y1827334D1*
X1747917Y1824001D1*
X1749209Y1820667D1*
X1750656Y1817334D1*
X1752103Y1814001D1*
X1753306Y1810667D1*
X1754155Y1807334D1*
X1754953Y1804001D1*
X1755945Y1800667D1*
X1757006Y1797334D1*
X1758001Y1794001D1*
X1678001Y1907334D2*
X1684540Y1904001D1*
X1690767Y1900667D1*
X1696504Y1897334D1*
X1701774Y1894001D1*
X1706623Y1890667D1*
X1711198Y1887334D1*
X1715732Y1884001D1*
X1720083Y1880667D1*
X1723952Y1877334D1*
X1727196Y1874001D1*
X1729882Y1870667D1*
X1732410Y1867334D1*
X1735068Y1864001D1*
X1737663Y1860667D1*
X1739942Y1857334D1*
X1741926Y1854001D1*
X1743740Y1850667D1*
X1745464Y1847334D1*
X1747143Y1844001D1*
X1748711Y1840667D1*
X1750063Y1837334D1*
X1751250Y1834001D1*
X1752543Y1830667D1*
X1753989Y1827334D1*
X1755450Y1824001D1*
X1756756Y1820667D1*
X1757913Y1817334D1*
X1759082Y1814001D1*
X1760115Y1810667D1*
X1760890Y1807334D1*
X1761741Y1804001D1*
X1763037Y1800667D1*
X1764667Y1797334D1*
X1761334Y1794001D1*
X1671334Y1837334D2*
X1669539Y1834001D1*
X1667176Y1830667D1*
X1664445Y1827334D1*
X1661751Y1824001D1*
X1659316Y1820667D1*
X1656987Y1817334D1*
X1654672Y1814001D1*
X1652451Y1810667D1*
X1650124Y1807334D1*
X1647483Y1804001D1*
X1644667Y1800667D1*
X1648001Y1797334D1*
X1674667Y1837334D2*
X1678001Y1834001D1*
X1675807Y1830667D1*
X1673466Y1827334D1*
X1670777Y1824001D1*
X1667887Y1820667D1*
X1665126Y1817334D1*
X1662651Y1814001D1*
X1660209Y1810667D1*
X1657592Y1807334D1*
X1655087Y1804001D1*
X1653041Y1800667D1*
X1651334Y1797334D1*
Y1764001D2*
Y1760667D1*
Y1757334D1*
Y1754001D1*
Y1750667D1*
Y1747334D1*
Y1744001D1*
Y1740667D1*
Y1737334D1*
Y1734001D1*
Y1730667D1*
Y1727334D1*
Y1724001D1*
Y1720667D1*
Y1717334D1*
Y1714001D1*
Y1710667D1*
Y1707334D1*
Y1704001D1*
Y1700667D1*
Y1697334D1*
Y1694001D1*
Y1690667D1*
Y1687334D1*
Y1684001D1*
Y1680667D1*
Y1677334D1*
Y1674001D1*
Y1670667D1*
Y1667334D1*
Y1664001D1*
Y1660667D1*
Y1657334D1*
Y1654001D1*
Y1650667D1*
Y1647334D1*
X1658001Y1764001D2*
X1667745Y1760667D1*
X1676313Y1757334D1*
X1683818Y1754001D1*
X1690360Y1750667D1*
X1695860Y1747334D1*
X1700462Y1744001D1*
X1704667Y1740667D1*
X1701334Y1737334D1*
X1658001Y1757334D2*
Y1754001D1*
Y1750667D1*
Y1747334D1*
Y1744001D1*
Y1740667D1*
Y1737334D1*
Y1734001D1*
Y1730667D1*
Y1727334D1*
Y1724001D1*
Y1720667D1*
Y1717334D1*
Y1714001D1*
Y1710667D1*
Y1707334D1*
Y1704001D1*
Y1700667D1*
Y1697334D1*
Y1694001D1*
Y1690667D1*
Y1687334D1*
Y1684001D1*
Y1680667D1*
Y1677334D1*
Y1674001D1*
Y1670667D1*
Y1667334D1*
Y1664001D1*
Y1660667D1*
Y1657334D1*
Y1654001D1*
Y1650667D1*
Y1647334D1*
X1654667Y1757334D2*
X1664400Y1754001D1*
X1673403Y1750667D1*
X1681122Y1747334D1*
X1687539Y1744001D1*
X1693004Y1740667D1*
X1698001Y1737334D1*
X1678001Y1710667D2*
Y1707334D1*
Y1704001D1*
X1699116Y1700667D1*
X1714868Y1697334D1*
X1725320Y1694001D1*
X1732151Y1690667D1*
X1737005Y1687334D1*
X1740840Y1684001D1*
X1743970Y1680667D1*
X1746473Y1677334D1*
X1748543Y1674001D1*
X1750390Y1670667D1*
X1752125Y1667334D1*
X1753810Y1664001D1*
X1755397Y1660667D1*
X1756789Y1657334D1*
X1758001Y1654001D1*
X1704667Y1710667D2*
X1715810Y1707334D1*
X1724791Y1704001D1*
X1731557Y1700667D1*
X1736660Y1697334D1*
X1740786Y1694001D1*
X1744335Y1690667D1*
X1747360Y1687334D1*
X1749825Y1684001D1*
X1751883Y1680667D1*
X1753725Y1677334D1*
X1755458Y1674001D1*
X1757154Y1670667D1*
X1758838Y1667334D1*
X1760597Y1664001D1*
X1762543Y1660667D1*
X1764667Y1657334D1*
X1761334Y1654001D1*
X1252107Y2022093D2*
D75*
X1213136Y2124180D1*
X1174278Y2022093D1*
X1188878Y2056122D2*
X1237507D1*
X1283479Y2104639D2*
X1293250Y2109580D1*
X1307850Y2124068D1*
Y2022093D1*
X4891211Y2743127D2*
X4993299D1*
Y2777156D1*
X4988358Y2791756D1*
X4978699Y2801526D1*
X4968928Y2806356D1*
X4954441Y2811185D1*
X4930070D1*
X4915470Y2806356D1*
X4905811Y2801527D1*
X4896041Y2791756D1*
X4891211Y2777156D1*
Y2743127D1*
X4910753Y2842558D2*
X4905811Y2852328D1*
X4891324Y2866928D1*
X4993299D1*
X4891211Y2281229D2*
X4993299D1*
Y2315259D1*
X4988358Y2329859D1*
X4978699Y2339629D1*
X4968928Y2344459D1*
X4954441Y2349288D1*
X4930070D1*
X4915470Y2344459D1*
X4905811Y2339629D1*
X4896041Y2329859D1*
X4891211Y2315259D1*
Y2281229D1*
X4915582Y2385602D2*
X4910753D1*
X4900982Y2390431D1*
X4896153Y2395260D1*
X4891324Y2405031D1*
Y2424460D1*
X4896153Y2434119D1*
X4900982Y2438948D1*
X4910753Y2443889D1*
X4920411D1*
X4930182Y2438948D1*
X4944670Y2429289D1*
X4993299Y2380660D1*
Y2448719D1*
X1603110Y3956790D2*
Y3879073D1*
X1598281Y3864473D1*
X1593339Y3859644D1*
X1583681Y3854702D1*
X1573910D1*
X1564252Y3859644D1*
X1559422Y3864473D1*
X1554481Y3879073D1*
Y3888731D1*
X1634483Y3937248D2*
X1644253Y3942190D1*
X1658853Y3956678D1*
Y3854702D1*
X6321461Y1134600D2*
X6399178D1*
X6413778Y1129771D1*
X6418607Y1124829D1*
X6423548Y1115171D1*
Y1105400D1*
X6418607Y1095742D1*
X6413778Y1090912D1*
X6399178Y1085971D1*
X6389519D1*
X6345832Y1170914D2*
X6341002D1*
X6331232Y1175743D1*
X6326402Y1180572D1*
X6321573Y1190343D1*
Y1209772D1*
X6326402Y1219431D1*
X6331232Y1224260D1*
X6341002Y1229202D1*
X6350661D1*
X6360432Y1224260D1*
X6374919Y1214602D1*
X6423548Y1165972D1*
Y1234031D1*
X5504600Y2655790D2*
Y2578073D1*
X5499770Y2563473D1*
X5494829Y2558644D1*
X5485170Y2553702D1*
X5475400D1*
X5465741Y2558644D1*
X5460912Y2563473D1*
X5455970Y2578073D1*
Y2587731D1*
X5545743Y2655678D2*
X5599089D1*
X5570001Y2616819D1*
X5584601D1*
X5594260Y2611990D1*
X5599089Y2607161D1*
X5604031Y2592561D1*
Y2582902D1*
X5599089Y2568302D1*
X5589431Y2558531D1*
X5574831Y2553702D1*
X5560231D1*
X5545743Y2558531D1*
X5540914Y2563473D1*
X5535972Y2573131D1*
X5502185Y3359790D2*
Y3282073D1*
X5497356Y3267473D1*
X5492414Y3262644D1*
X5482756Y3257702D1*
X5472985D1*
X5463327Y3262644D1*
X5458497Y3267473D1*
X5453556Y3282073D1*
Y3291731D1*
X5582187Y3257702D2*
Y3359678D1*
X5533558Y3291731D1*
X5606445D1*
X1611256Y2366911D2*
X1654943D1*
X1669543Y2371853D1*
X1674485Y2376682D1*
X1679314Y2386340D1*
Y2396111D1*
X1674485Y2405770D1*
X1669543Y2410711D1*
X1654943Y2415540D1*
X1611256D1*
Y2313453D1*
X1645285Y2366911D2*
X1679314Y2313453D1*
X1715628Y2391170D2*
Y2395999D1*
X1720458Y2405770D1*
X1725287Y2410599D1*
X1735058Y2415428D1*
X1754487D1*
X1764145Y2410599D1*
X1768975Y2405770D1*
X1773916Y2395999D1*
Y2386340D1*
X1768975Y2376570D1*
X1759316Y2362082D1*
X1710687Y2313453D1*
X1778745D1*
X1629840Y2681256D2*
X1629841Y2724944D1*
X1624899Y2739544D1*
X1620070Y2744485D1*
X1610411Y2749315D1*
X1600641D1*
X1590982Y2744485D1*
X1586041Y2739544D1*
X1581211Y2724944D1*
Y2681256D1*
X1683299D1*
X1629841Y2715285D2*
X1683299Y2749314D1*
X1581324Y2790458D2*
Y2843804D1*
X1620182Y2814716D1*
Y2829316D1*
X1625011Y2838975D1*
X1629841Y2843804D1*
X1644441Y2848745D1*
X1654099D1*
X1668699Y2843804D1*
X1678470Y2834145D1*
X1683299Y2819545D1*
Y2804945D1*
X1678470Y2790458D1*
X1673528Y2785628D1*
X1663870Y2780687D1*
X3226083Y2389998D2*
Y2317111D1*
X3230912Y2302511D1*
X3240683Y2292852D1*
X3255283Y2287911D1*
X3264941D1*
X3279541Y2292852D1*
X3289312Y2302511D1*
X3294141Y2317111D1*
Y2389998D1*
X3325514Y2370457D2*
X3335285Y2375398D1*
X3349885Y2389886D1*
Y2287911D1*
X4894484Y1338923D2*
D76*
X4955271Y1466392D1*
X4870198D1*
X5190793Y1448282D2*
X5184756Y1460355D1*
X5166506Y1466392D1*
X5154433D1*
X5136183Y1460355D1*
X5123970Y1442105D1*
X5117933Y1411782D1*
Y1381459D1*
X5123970Y1357173D1*
X5136183Y1344959D1*
X5154433Y1338923D1*
X5160470D1*
X5178579Y1344959D1*
X5190793Y1357173D1*
X5196829Y1375423D1*
Y1381459D1*
X5190793Y1399709D1*
X5178579Y1411782D1*
X5160470Y1417819D1*
X5154433D1*
X5136183Y1411782D1*
X5123970Y1399709D1*
X5117933Y1381459D1*
X5371705Y1466392D2*
X5438387D1*
X5402028Y1417819D1*
X5420278D1*
X5432351Y1411782D1*
X5438387Y1405746D1*
X5444564Y1387496D1*
Y1375423D1*
X5438387Y1357173D1*
X5426314Y1344959D1*
X5408064Y1338923D1*
X5389814D1*
X5371705Y1344959D1*
X5365668Y1351136D1*
X5359491Y1363209D1*
X5613403Y1436069D2*
Y1442105D1*
X5619440Y1454319D1*
X5625477Y1460355D1*
X5637690Y1466392D1*
X5661977D1*
X5674050Y1460355D1*
X5680086Y1454319D1*
X5686263Y1442105D1*
Y1430032D1*
X5680086Y1417819D1*
X5668013Y1399709D1*
X5607227Y1338923D1*
X5692300D1*
X5854962Y1442105D2*
X5867175Y1448282D1*
X5885425Y1466392D1*
Y1338923D1*
X6084587Y1466392D2*
X6066337Y1460355D1*
X6054124Y1442105D1*
X6048087Y1411782D1*
Y1393532D1*
X6054124Y1363209D1*
X6066337Y1344959D1*
X6084587Y1338923D1*
X6096660D1*
X6114910Y1344959D1*
X6126984Y1363209D1*
X6133160Y1393532D1*
Y1411782D1*
X6126984Y1442105D1*
X6114910Y1460355D1*
X6096660Y1466392D1*
X6084587D1*
X6126984Y1442105D2*
X6054124Y1363209D1*
X4968237Y1905147D2*
D75*
Y1803059D1*
X5026525D1*
X5082156Y1871118D2*
X5072497Y1866289D1*
X5062726Y1856518D1*
X5057897Y1841918D1*
Y1832259D1*
X5062726Y1817659D1*
X5072497Y1808001D1*
X5082156Y1803059D1*
X5096756D1*
X5106526Y1808001D1*
X5116185Y1817659D1*
X5121126Y1832259D1*
Y1841918D1*
X5116185Y1856518D1*
X5106526Y1866289D1*
X5096756Y1871118D1*
X5082156D1*
X5152499Y1856518D2*
X5196187D1*
X5210787Y1861459D1*
X5215728Y1866289D1*
X5220557Y1875947D1*
Y1885718D1*
X5215728Y1895376D1*
X5210787Y1900318D1*
X5196187Y1905147D1*
X5152499D1*
Y1803059D1*
X5186528Y1856518D2*
X5220557Y1803059D1*
X5310218Y1871118D2*
Y1803059D1*
Y1856518D2*
X5300559Y1866289D1*
X5290789Y1871118D1*
X5276301D1*
X5266530Y1866289D1*
X5256872Y1856518D1*
X5251930Y1841918D1*
Y1832259D1*
X5256872Y1817659D1*
X5266530Y1808001D1*
X5276301Y1803059D1*
X5290789D1*
X5300559Y1808001D1*
X5310218Y1817659D1*
X5440347Y1905147D2*
Y1803059D1*
X5508406Y1905147D2*
Y1803059D1*
X5440347Y1856518D2*
X5508406D1*
X5598066Y1871118D2*
Y1803059D1*
Y1856518D2*
X5588408Y1866289D1*
X5578637Y1871118D1*
X5564149D1*
X5554378Y1866289D1*
X5544720Y1856518D1*
X5539778Y1841918D1*
Y1832259D1*
X5544720Y1817659D1*
X5554378Y1808001D1*
X5564149Y1803059D1*
X5578637D1*
X5588408Y1808001D1*
X5598066Y1817659D1*
X5644039Y1905147D2*
Y1822489D1*
X5648868Y1808001D1*
X5658639Y1803059D1*
X5668297D1*
X5629439Y1871118D2*
X5663468D1*
X5289708Y2819240D2*
D77*
X5286002Y2826568D1*
X5275137Y2837518D1*
X5351618D1*
X5293330Y2864753D2*
X5289709D1*
X5282380Y2868375D1*
X5278759Y2871997D1*
X5275137Y2879325D1*
Y2893897D1*
X5278759Y2901141D1*
X5282380Y2904763D1*
X5289709Y2908469D1*
X5296952D1*
X5304280Y2904763D1*
X5315146Y2897519D1*
X5351618Y2861047D1*
Y2912091D1*
X5289709Y3009688D2*
X5286002Y3017016D1*
X5275137Y3027966D1*
X5351618D1*
X5275137Y3058824D2*
Y3098833D1*
X5304280Y3077018D1*
Y3087968D1*
X5307902Y3095211D1*
X5311524Y3098833D1*
X5322474Y3102540D1*
X5329718D1*
X5340668Y3098833D1*
X5347996Y3091590D1*
X5351618Y3080640D1*
Y3069690D1*
X5347996Y3058824D1*
X5344290Y3055202D1*
X5337046Y3051496D1*
X5318567Y2103723D2*
D78*
X5313737Y2101308D1*
X5308852Y2096423D1*
X5306437Y2091594D1*
Y2081879D1*
X5308852Y2076994D1*
X5313737Y2072164D1*
X5318566Y2069694D1*
X5325866Y2067279D1*
X5338052D1*
X5345296Y2069694D1*
X5350181Y2072164D1*
X5355010Y2076994D1*
X5357481Y2081879D1*
Y2091594D1*
X5355010Y2096423D1*
X5350181Y2101308D1*
X5345296Y2103723D1*
X5338052D1*
Y2091594D1*
X5306437Y2153438D2*
X5357481D1*
X5306437Y2119409D1*
X5357481D1*
X5306437Y2169125D2*
X5357481Y2169124D1*
Y2186139D1*
X5355010Y2193439D1*
X5350181Y2198324D1*
X5345296Y2200739D1*
X5338052Y2203154D1*
X5325867D1*
X5318567Y2200739D1*
X5313737Y2198324D1*
X5308852Y2193439D1*
X5306437Y2186139D1*
Y2169125D1*
X5306493Y2273104D2*
Y2299777D1*
X5325923Y2285233D1*
Y2292533D1*
X5328337Y2297362D1*
X5330752Y2299777D1*
X5338052Y2302248D1*
X5342881D1*
X5350181Y2299777D1*
X5355066Y2294948D1*
X5357481Y2287648D1*
Y2280348D1*
X5355067Y2273104D1*
X5352596Y2270689D1*
X5347767Y2268218D1*
X5352596Y2320349D2*
X5355066Y2317934D1*
X5357481Y2320349D1*
X5355066Y2322819D1*
X5352596Y2320349D1*
X5306493Y2343391D2*
Y2370064D1*
X5325923Y2355520D1*
Y2362820D1*
X5328337Y2367650D1*
X5330752Y2370064D1*
X5338052Y2372535D1*
X5342881D1*
X5350181Y2370064D1*
X5355066Y2365235D1*
X5357481Y2357935D1*
Y2350635D1*
X5355066Y2343391D1*
X5352596Y2340976D1*
X5347767Y2338506D1*
X5306437Y2388221D2*
X5357481Y2407650D1*
X5306437Y2427080D1*
X3038237Y2196518D2*
D75*
X3081925D1*
X3096525Y2201459D1*
X3101466Y2206289D1*
X3106295Y2215947D1*
Y2225718D1*
X3101466Y2235376D1*
X3096525Y2240318D1*
X3081925Y2245147D1*
X3038237D1*
Y2143059D1*
X3072266Y2196518D2*
X3106295Y2143059D1*
X3205726Y2245147D2*
Y2143059D1*
X3137668Y2245147D1*
Y2143059D1*
X3242041Y2220776D2*
Y2225606D1*
X3246870Y2235376D1*
X3251699Y2240206D1*
X3261470Y2245035D1*
X3280899D1*
X3290557Y2240206D1*
X3295387Y2235376D1*
X3300328Y2225606D1*
Y2215947D1*
X3295387Y2206176D1*
X3285728Y2191689D1*
X3237099Y2143059D1*
X3305157D1*
X3399759Y2211118D2*
X3394818Y2196518D1*
X3385159Y2186747D1*
X3370559Y2181918D1*
X3365730D1*
X3351130Y2186747D1*
X3341472Y2196518D1*
X3336530Y2211118D1*
Y2215947D1*
X3341472Y2230547D1*
X3351130Y2240206D1*
X3365730Y2245035D1*
X3370559D1*
X3385159Y2240206D1*
X3394818Y2230547D1*
X3399759Y2211118D1*
Y2186747D1*
X3394818Y2162489D1*
X3385159Y2147889D1*
X3370559Y2143059D1*
X3360901D1*
X3346301Y2147889D1*
X3341472Y2157659D1*
X3460332Y2245035D2*
X3445732Y2240206D1*
X3435961Y2225606D1*
X3431132Y2201347D1*
Y2186747D1*
X3435961Y2162489D1*
X3445732Y2147889D1*
X3460332Y2143059D1*
X3469990D1*
X3484590Y2147889D1*
X3494249Y2162489D1*
X3499190Y2186747D1*
Y2201347D1*
X3494249Y2225606D1*
X3484590Y2240206D1*
X3469990Y2245035D1*
X3460332D1*
X3494249Y2225606D2*
X3435961Y2162489D1*
X3540334Y2245035D2*
X3593680D1*
X3564592Y2206176D1*
X3579192D1*
X3588851Y2201347D1*
X3593680Y2196518D1*
X3598621Y2181918D1*
Y2172259D1*
X3593680Y2157659D1*
X3584021Y2147889D1*
X3569421Y2143059D1*
X3554821D1*
X3540334Y2147889D1*
X3535504Y2152830D1*
X3530563Y2162489D1*
X5676276Y1563668D2*
D77*
X5709126D1*
X5719992Y1567290D1*
X5723698Y1570996D1*
X5727320Y1578240D1*
Y1589190D1*
X5723698Y1596434D1*
X5719992Y1600140D1*
X5709126Y1603762D1*
X5676276D1*
Y1527196D1*
X5750849Y1578240D2*
Y1527196D1*
Y1556340D2*
X5754556Y1567290D1*
X5761799Y1574618D1*
X5769128Y1578240D1*
X5780078D1*
X5821801D2*
X5814557Y1574618D1*
X5807229Y1567290D1*
X5803607Y1556340D1*
Y1549096D1*
X5807229Y1538146D1*
X5814557Y1530903D1*
X5821801Y1527196D1*
X5832751D1*
X5840079Y1530903D1*
X5847323Y1538146D1*
X5851029Y1549096D1*
Y1556340D1*
X5847323Y1567290D1*
X5840079Y1574618D1*
X5832751Y1578240D1*
X5821801D1*
X5885508Y1603762D2*
Y1541768D1*
X5889130Y1530903D1*
X5896458Y1527196D1*
X5903702D1*
X5874558Y1578240D2*
X5900080D1*
X5945425D2*
X5938182Y1574618D1*
X5930853Y1567290D1*
X5927232Y1556340D1*
Y1549096D1*
X5930853Y1538146D1*
X5938182Y1530903D1*
X5945425Y1527196D1*
X5956375D1*
X5963703Y1530903D1*
X5970947Y1538146D1*
X5974653Y1549096D1*
Y1556340D1*
X5970947Y1567290D1*
X5963703Y1574618D1*
X5956375Y1578240D1*
X5945425D1*
X6009133Y1603762D2*
Y1541768D1*
X6012755Y1530903D1*
X6020083Y1527196D1*
X6027327D1*
X5998183Y1578240D2*
X6023705D1*
X6054562D2*
X6076378Y1527196D1*
X6069134Y1512624D1*
X6061806Y1505296D1*
X6054562Y1501674D1*
X6050856D1*
X6098278Y1578240D2*
X6076378Y1527196D1*
X6121807Y1578240D2*
Y1501674D1*
Y1567290D2*
X6129136Y1574534D1*
X6136379Y1578240D1*
X6147329D1*
X6154657Y1574534D1*
X6161901Y1567290D1*
X6165607Y1556340D1*
Y1549012D1*
X6161901Y1538146D1*
X6154657Y1530818D1*
X6147329Y1527196D1*
X6136379D1*
X6129136Y1530818D1*
X6121807Y1538146D1*
X6189137Y1556340D2*
X6232853D1*
Y1563668D1*
X6229231Y1570996D1*
X6225609Y1574618D1*
X6218281Y1578240D1*
X6207331D1*
X6200087Y1574618D1*
X6192759Y1567290D1*
X6189137Y1556340D1*
Y1549096D1*
X6192759Y1538146D1*
X6200087Y1530903D1*
X6207331Y1527196D1*
X6218281D1*
X6225609Y1530903D1*
X6232853Y1538146D1*
X6388822Y1527196D2*
X6359594Y1603762D1*
X6330450Y1527196D1*
X6341400Y1552718D2*
X6377872D1*
X6412351Y1578240D2*
Y1527196D1*
Y1556340D2*
X6416057Y1567290D1*
X6423301Y1574618D1*
X6430629Y1578240D1*
X6441579D1*
X6465109Y1556340D2*
X6508825D1*
Y1563668D1*
X6505203Y1570996D1*
X6501581Y1574618D1*
X6494253Y1578240D1*
X6483303D1*
X6476059Y1574618D1*
X6468731Y1567290D1*
X6465109Y1556340D1*
Y1549096D1*
X6468731Y1538146D1*
X6476059Y1530903D1*
X6483303Y1527196D1*
X6494253D1*
X6501581Y1530903D1*
X6508825Y1538146D1*
X6576070Y1578240D2*
Y1527196D1*
Y1567290D2*
X6568826Y1574618D1*
X6561498Y1578240D1*
X6550632D1*
X6543304Y1574618D1*
X6536060Y1567290D1*
X6532354Y1556340D1*
Y1549096D1*
X6536060Y1538146D1*
X6543304Y1530903D1*
X6550632Y1527196D1*
X6561498D1*
X6568826Y1530903D1*
X6576070Y1538146D1*
X6667817Y1405883D2*
Y1447999D1*
Y1471528D2*
Y1513643D1*
X6635010Y1537173D2*
X6667859Y1595460D1*
X6700625Y1537173D1*
X6787817Y1405883D2*
Y1447999D1*
Y1471528D2*
Y1513643D1*
X6755010Y1537173D2*
X6787859Y1595460D1*
X6820625Y1537173D1*
X1684315Y1175648D2*
D78*
X1706215D1*
X1713459Y1178063D1*
X1715930Y1180533D1*
X1718345Y1185363D1*
Y1192663D1*
X1715930Y1197492D1*
X1713459Y1199963D1*
X1706215Y1202377D1*
X1684315D1*
Y1151333D1*
X1734031Y1202377D2*
Y1151333D1*
X1786161Y1190248D2*
X1783746Y1195077D1*
X1778861Y1199963D1*
X1774032Y1202377D1*
X1764317D1*
X1759432Y1199963D1*
X1754603Y1195077D1*
X1752132Y1190248D1*
X1749717Y1182948D1*
Y1170763D1*
X1752132Y1163519D1*
X1754603Y1158633D1*
X1759432Y1153804D1*
X1764317Y1151333D1*
X1774032D1*
X1778861Y1153804D1*
X1783746Y1158633D1*
X1786161Y1163519D1*
X1801847Y1202377D2*
Y1151333D1*
X1826162Y1185363D2*
X1801847Y1161048D1*
X1811562Y1170763D2*
X1828577Y1151333D1*
X1844263Y1202377D2*
X1846677Y1199963D1*
X1849148Y1202377D1*
X1846677Y1204848D1*
X1844263Y1202377D1*
X1846677Y1185363D2*
Y1151333D1*
X1872135Y1202377D2*
Y1161048D1*
X1874549Y1153804D1*
X1879435Y1151333D1*
X1884264D1*
X1864835Y1185363D2*
X1881849D1*
X1904835Y1202321D2*
X1931508D1*
X1916965Y1182892D1*
X1924265D1*
X1929094Y1180477D1*
X1931508Y1178063D1*
X1933979Y1170763D1*
Y1165933D1*
X1931508Y1158633D1*
X1926679Y1153748D1*
X1919379Y1151333D1*
X1912079D1*
X1904835Y1153748D1*
X1902421Y1156219D1*
X1899950Y1161048D1*
X1684315Y1112377D2*
Y1061333D1*
X1718345Y1112377D2*
Y1061333D1*
X1684315Y1088063D2*
X1718345D1*
X1734031Y1080763D2*
X1763175D1*
Y1085648D1*
X1760760Y1090533D1*
X1758346Y1092948D1*
X1753460Y1095363D1*
X1746160D1*
X1741331Y1092948D1*
X1736446Y1088063D1*
X1734031Y1080763D1*
Y1075933D1*
X1736446Y1068633D1*
X1741331Y1063804D1*
X1746160Y1061333D1*
X1753460D1*
X1758346Y1063804D1*
X1763175Y1068633D1*
X1808005Y1095363D2*
Y1061333D1*
Y1088063D2*
X1803176Y1092948D1*
X1798290Y1095363D1*
X1791046D1*
X1786161Y1092948D1*
X1781332Y1088063D1*
X1778861Y1080763D1*
Y1075933D1*
X1781332Y1068633D1*
X1786161Y1063804D1*
X1791046Y1061333D1*
X1798290D1*
X1803176Y1063804D1*
X1808005Y1068633D1*
X1852835Y1112377D2*
Y1061333D1*
Y1088063D2*
X1848006Y1092948D1*
X1843120Y1095363D1*
X1835820D1*
X1830991Y1092948D1*
X1826106Y1088063D1*
X1823691Y1080763D1*
Y1075933D1*
X1826106Y1068633D1*
X1830991Y1063804D1*
X1835820Y1061333D1*
X1843120D1*
X1848006Y1063804D1*
X1852835Y1068633D1*
X1868521Y1080763D2*
X1897665D1*
Y1085648D1*
X1895251Y1090533D1*
X1892836Y1092948D1*
X1887951Y1095363D1*
X1880651D1*
X1875821Y1092948D1*
X1870936Y1088063D1*
X1868521Y1080763D1*
Y1075933D1*
X1870936Y1068633D1*
X1875821Y1063804D1*
X1880651Y1061333D1*
X1887951D1*
X1892836Y1063804D1*
X1897665Y1068633D1*
X1913351Y1095363D2*
Y1061333D1*
Y1080763D2*
X1915822Y1088063D1*
X1920651Y1092948D1*
X1925537Y1095363D1*
X1932837D1*
X1997902Y1086827D2*
X2025979D1*
X2041665Y1108699D2*
X2080523Y1086799D1*
X2041665Y1064955D1*
X3568237Y1205606D2*
D75*
X3578008Y1210547D1*
X3592608Y1225035D1*
Y1123059D1*
X2189992Y1223678D2*
D77*
X2153604D1*
X2149982Y1190912D1*
X2153604Y1194534D1*
X2164554Y1198240D1*
X2175420D1*
X2186370Y1194534D1*
X2193698Y1187290D1*
X2197320Y1176340D1*
Y1169096D1*
X2193698Y1158146D1*
X2186370Y1150818D1*
X2175420Y1147196D1*
X2164554D1*
X2153604Y1150818D1*
X2149982Y1154524D1*
X2146276Y1161768D1*
X4384315Y1188063D2*
D78*
X4406159D1*
X4413459Y1190533D1*
X4415930Y1192948D1*
X4418345Y1197777D1*
Y1202663D1*
X4415930Y1207492D1*
X4413459Y1209963D1*
X4406159Y1212377D1*
X4384315D1*
Y1161333D1*
X4401330Y1188063D2*
X4418345Y1161333D1*
X4468060Y1212377D2*
Y1161333D1*
X4434031Y1212377D1*
Y1161333D1*
X4486217Y1200192D2*
Y1202606D1*
X4488632Y1207492D1*
X4491046Y1209906D1*
X4495932Y1212321D1*
X4505646D1*
X4510476Y1209906D1*
X4512890Y1207492D1*
X4515361Y1202606D1*
Y1197777D1*
X4512890Y1192892D1*
X4508061Y1185648D1*
X4483746Y1161333D1*
X4517776D1*
X4565077Y1195363D2*
X4562606Y1188063D1*
X4557777Y1183177D1*
X4550477Y1180763D1*
X4548062D1*
X4540762Y1183177D1*
X4535933Y1188063D1*
X4533462Y1195363D1*
Y1197777D1*
X4535933Y1205077D1*
X4540762Y1209906D1*
X4548062Y1212321D1*
X4550477D1*
X4557777Y1209906D1*
X4562606Y1205077D1*
X4565077Y1195363D1*
Y1183177D1*
X4562606Y1171048D1*
X4557777Y1163748D1*
X4550477Y1161333D1*
X4545647D1*
X4538347Y1163748D1*
X4535933Y1168633D1*
X4595363Y1212321D2*
X4588063Y1209906D1*
X4583177Y1202606D1*
X4580763Y1190477D1*
Y1183177D1*
X4583177Y1171048D1*
X4588063Y1163748D1*
X4595363Y1161333D1*
X4600192D1*
X4607492Y1163748D1*
X4612321Y1171048D1*
X4614792Y1183177D1*
Y1190477D1*
X4612321Y1202606D1*
X4607492Y1209906D1*
X4600192Y1212321D1*
X4595363D1*
X4612321Y1202606D2*
X4583177Y1171048D1*
X4635364Y1212321D2*
X4662037D1*
X4647493Y1192892D1*
X4654793D1*
X4659622Y1190477D1*
X4662037Y1188063D1*
X4664508Y1180763D1*
Y1175933D1*
X4662037Y1168633D1*
X4657208Y1163748D1*
X4649908Y1161333D1*
X4642608D1*
X4635364Y1163748D1*
X4632949Y1166219D1*
X4630478Y1171048D1*
X4363174Y1108699D2*
X4324315Y1086799D1*
X4363174Y1064955D1*
X4378860Y1086827D2*
X4406937D1*
X4422623D2*
X4450700D1*
X4515765Y1088063D2*
X4537609D1*
X4544909Y1090533D1*
X4547380Y1092948D1*
X4549794Y1097777D1*
Y1102663D1*
X4547380Y1107492D1*
X4544909Y1109963D1*
X4537609Y1112377D1*
X4515765D1*
Y1061333D1*
X4532780Y1088063D2*
X4549794Y1061333D1*
X4565481Y1080763D2*
X4594625D1*
Y1085648D1*
X4592210Y1090533D1*
X4589795Y1092948D1*
X4584910Y1095363D1*
X4577610D1*
X4572781Y1092948D1*
X4567895Y1088063D1*
X4565481Y1080763D1*
Y1075933D1*
X4567895Y1068633D1*
X4572781Y1063804D1*
X4577610Y1061333D1*
X4584910D1*
X4589795Y1063804D1*
X4594625Y1068633D1*
X4637040Y1088063D2*
X4634625Y1092948D1*
X4627325Y1095363D1*
X4620025D1*
X4612725Y1092948D1*
X4610311Y1088063D1*
X4612725Y1083233D1*
X4617611Y1080763D1*
X4629740Y1078348D1*
X4634625Y1075933D1*
X4637040Y1071048D1*
Y1068633D1*
X4634625Y1063804D1*
X4627325Y1061333D1*
X4620025D1*
X4612725Y1063804D1*
X4610311Y1068633D1*
X4652726Y1080763D2*
X4681870D1*
Y1085648D1*
X4679456Y1090533D1*
X4677041Y1092948D1*
X4672156Y1095363D1*
X4664856D1*
X4660026Y1092948D1*
X4655141Y1088063D1*
X4652726Y1080763D1*
Y1075933D1*
X4655141Y1068633D1*
X4660026Y1063804D1*
X4664856Y1061333D1*
X4672156D1*
X4677041Y1063804D1*
X4681870Y1068633D1*
X4704856Y1112377D2*
Y1071048D1*
X4707271Y1063804D1*
X4712156Y1061333D1*
X4716986D1*
X4697556Y1095363D2*
X4714571D1*
M02*
